<?xml version="1.0" encoding="utf-8"?>
<!-- Generator: Adobe Illustrator 19.0.0, SVG Export Plug-In . SVG Version: 6.00 Build 0)  -->
<svg version="1.1" id="Layer_1" xmlns="http://www.w3.org/2000/svg" xmlns:xlink="http://www.w3.org/1999/xlink" x="0px" y="0px"
	 viewBox="0 0 1141 787" style="enable-background:new 0 0 1141 787;" xml:space="preserve">
<style type="text/css">
	.st0{opacity:0.7;fill:url(#XMLID_10_);}
	.st1{opacity:0.7;fill:url(#XMLID_11_);}
	.st2{opacity:0.7;fill:url(#XMLID_12_);}
	.st3{fill:#2988C4;}
	.st4{fill:#FFFFFF;}
	.st5{fill:#F4F4F4;}
	.st6{fill:#2D2C7C;}
	.st7{fill:#FBCFD3;}
	.st8{opacity:0.7;fill:url(#XMLID_13_);}
	.st9{fill:#64BDDD;}
	.st10{opacity:0.2;}
	.st11{opacity:0.2;fill:#2988C4;}
	.st12{fill:#352F8E;}
	.st13{fill:url(#XMLID_14_);}
	.st14{fill:url(#XMLID_16_);}
	.st15{fill:#A5DDED;}
	.st16{opacity:0.7;fill:url(#XMLID_226_);}
	.st17{fill:#4EABC4;}
	.st18{fill:#B4D6F1;}
	.st19{fill:#BFCAE7;}
	.st20{opacity:0.7;fill:url(#XMLID_229_);}
	.st21{fill:url(#XMLID_237_);}
	.st22{fill:url(#XMLID_238_);}
	.st23{fill:url(#XMLID_239_);}
	.st24{opacity:0.7;fill:url(#XMLID_240_);}
	.st25{opacity:0.7;fill:url(#XMLID_241_);}
	.st26{fill:url(#XMLID_242_);}
</style>
<linearGradient id="XMLID_10_" gradientUnits="userSpaceOnUse" x1="791.7985" y1="479.6473" x2="872.3706" y2="479.6473">
	<stop  offset="0" style="stop-color:#2988C4;stop-opacity:0.8"/>
	<stop  offset="0.9896" style="stop-color:#2988C4;stop-opacity:0"/>
</linearGradient>
<ellipse id="XMLID_225_" class="st0" cx="832.1" cy="479.6" rx="40.3" ry="5.6"/>
<linearGradient id="XMLID_11_" gradientUnits="userSpaceOnUse" x1="552.4761" y1="607.8932" x2="939.3581" y2="305.5245">
	<stop  offset="0" style="stop-color:#2988C4;stop-opacity:0.8"/>
	<stop  offset="0.9896" style="stop-color:#2988C4;stop-opacity:0"/>
</linearGradient>
<polygon id="XMLID_224_" class="st1" points="331.6,583.4 696.5,453.8 997,457.6 738.3,583.4 "/>
<linearGradient id="XMLID_12_" gradientUnits="userSpaceOnUse" x1="520.6423" y1="743.1279" x2="601.2144" y2="743.1279" gradientTransform="matrix(-1 0 0 1 1335.8521 0)">
	<stop  offset="0" style="stop-color:#2988C4;stop-opacity:0.8"/>
	<stop  offset="0.9896" style="stop-color:#2988C4;stop-opacity:0"/>
</linearGradient>
<ellipse id="XMLID_223_" class="st2" cx="774.9" cy="743.1" rx="40.3" ry="5.6"/>
<g id="XMLID_519_">
	<rect id="XMLID_222_" x="760" y="240" class="st3" width="74.5" height="95.1"/>
	<rect id="XMLID_221_" x="756.4" y="240" class="st3" width="74.5" height="95.1"/>
	<g id="XMLID_530_">
		<path id="XMLID_531_" class="st4" d="M772,250.2l1.2-0.5c0.4-0.2,0.8-0.3,1.2-0.4c0.9,0.7,0.8,0.8,1,1.6l-9.7,4.4c0,0,0,0,0,0
			l4.2,1.9c2.1,1,3.9,1.8,5.5,2.5c-0.2,0.9,0,0.9-1,1.7c-0.5-0.2-1-0.4-1.4-0.6c-2.8-1.3-6.4-2.9-10.8-4.9v-0.7
			c0-0.1,0.1-0.2,0.5-0.3c-0.1,0-0.2,0.1-0.3,0.1c0,0,0-0.1,0-0.1c0-0.1,0-0.3,0.2-0.4L772,250.2z"/>
	</g>
	<g id="XMLID_527_">
		<path id="XMLID_528_" class="st4" d="M772,313.6l1.2-0.5c0.4-0.2,0.8-0.3,1.2-0.4c0.9,0.7,0.8,0.8,1,1.6l-9.7,4.4c0,0,0,0,0,0
			l4.2,1.9c2.1,1,3.9,1.8,5.5,2.5c-0.2,0.9,0,0.9-1,1.7c-0.5-0.2-1-0.4-1.4-0.6c-2.8-1.3-6.4-2.9-10.8-4.9v-0.7
			c0-0.1,0.1-0.2,0.5-0.3c-0.1,0-0.2,0.1-0.3,0.1c0,0,0-0.1,0-0.1c0-0.1,0-0.3,0.2-0.4L772,313.6z"/>
	</g>
	<rect id="XMLID_218_" x="785.4" y="252.9" class="st4" width="37.9" height="4"/>
	<rect id="XMLID_217_" x="793.8" y="266.9" class="st4" width="29.4" height="4"/>
	<rect id="XMLID_216_" x="807.1" y="278.8" class="st4" width="16.1" height="4"/>
	<rect id="XMLID_215_" x="785.4" y="316.4" class="st4" width="37.9" height="4"/>
	<rect id="XMLID_214_" x="793.8" y="302.4" class="st4" width="29.4" height="4"/>
	<rect id="XMLID_213_" x="807.1" y="290.5" class="st4" width="16.1" height="4"/>
	<polygon id="XMLID_212_" class="st4" points="780.5,311.8 776.6,326 779.4,326.3 783.4,312.1 	"/>
</g>
<g id="XMLID_504_">
	<polygon id="XMLID_211_" class="st5" points="806.1,344.8 807.6,357.4 816.5,380.5 808.4,383 802.1,358.9 801.3,345.3 	"/>
	<polygon id="XMLID_210_" class="st6" points="825.1,405.9 821.1,446.1 822.5,481.4 808.8,481.4 808,478.8 817.4,477.5 812.4,446.2 
		807.9,407.3 	"/>
	<polygon id="XMLID_209_" class="st3" points="829.6,405.4 832.8,439.7 853.7,467.5 851.2,480.7 845,480.7 848.7,477.9 849.4,469.4 
		829.3,446.9 811.2,406.5 	"/>
	<path id="XMLID_208_" class="st4" d="M792,350.2l4.4,1.4c1.8,5.2,4.7,9.8,8.7,13.6l8.2,8l10.1,6.8l7.5,27.8l-23.4,2.2l-0.8-30.6
		l-8.7-10.9c-3.6-4.5-6-9.7-7-15.4L792,350.2z"/>
	<polygon id="XMLID_207_" class="st7" points="796.8,353.1 791.1,355.2 787.3,335.7 788.5,334 	"/>
	<path id="XMLID_206_" class="st3" d="M798.1,352.8l-7.2,3.5c0,0-1.5-1.3-1.3-2c0.2-0.7,0.6-1.3,1.1-1.7c0.6-0.4,6.1-2.4,6.1-2.4
		L798.1,352.8z"/>
	<polygon id="XMLID_205_" class="st7" points="801.3,345.3 800.9,334.9 805,334.9 806.1,344.8 	"/>
	<path id="XMLID_204_" class="st7" d="M791.9,334.7c-0.1,0-2.6-1.4-2.7-1.6c-0.1-0.2-1.9-4.6-1.9-4.6l-2.6,0.4l0.7,7.2l3.6,0.9
		L791.9,334.7z"/>
	<g id="XMLID_505_">
		<path id="XMLID_203_" class="st7" d="M829.5,367.8c-1.7,4-7.4,8.1-11.4,6.4c-4-1.7-4.8-8.7-3.1-12.7c1.7-4,6.4-5.8,10.4-4.1
			C829.4,359.1,831.3,363.8,829.5,367.8z"/>
		<path id="XMLID_202_" class="st7" d="M817.6,359c-0.7-0.5-1.4-0.9-2.2-1.4c-0.5-0.3-1.4-0.5-1.6,0.1c-0.1,0.3,0,0.6,0.1,0.9
			c0.4,0.9,0.8,1.9,1.7,2.5c0.7,0.5,1.6,0.6,2.4,0.4c0.7-0.2,1.4-0.8,1.5-1.5C818.9,359.7,818.2,359.4,817.6,359z"/>
		<path id="XMLID_201_" class="st6" d="M819,374.4c3.9,0.9,8.9-2.9,10.5-6.7c1.7-4-0.1-8.7-4.1-10.4c-0.2-0.1-0.5-0.2-0.7-0.2
			c-0.5,0.5-0.8,1.1-1,1.6c-0.6,2.1-0.2,4.7,1.2,6.4C824.9,365.2,820.4,373.7,819,374.4z"/>
		<path id="XMLID_200_" class="st7" d="M825.4,366.5c0.6,0.3,1,0.8,1.3,1.4c0.9,1.9-1.2,3.8-3.1,3.5c-0.6-0.1-1.2-0.3-1.7-0.6
			c-0.4-0.3-0.9-0.6-1.1-1.1c-0.2-0.5-0.1-1,0.1-1.5c0.2-0.5,0.6-0.8,0.9-1.2C822.8,366.3,824.4,365.9,825.4,366.5z"/>
		
			<ellipse id="XMLID_199_" transform="matrix(0.5538 0.8326 -0.8326 0.5538 664.2352 -522.8697)" class="st4" cx="820" cy="358.3" rx="2.3" ry="3"/>
	</g>
</g>
<linearGradient id="XMLID_13_" gradientUnits="userSpaceOnUse" x1="476.3464" y1="593.3856" x2="831.3013" y2="602.7759">
	<stop  offset="0" style="stop-color:#2988C4;stop-opacity:0.8"/>
	<stop  offset="0.9896" style="stop-color:#2988C4;stop-opacity:0"/>
</linearGradient>
<path id="XMLID_198_" class="st8" d="M835.5,581.5l-97.1,1.9H331.6l188.1,15c-13.4,2-21.6,4.7-21.6,7.6c0,6.2,36.2,11.2,80.9,11.2
	c36.3,0,67-3.3,77.2-7.9l98.4,7.9L835.5,581.5z"/>
<g id="XMLID_499_">
	<rect id="XMLID_197_" x="341.8" y="166.5" class="st3" width="396.6" height="416.9"/>
	<rect id="XMLID_196_" x="331.6" y="166.5" class="st4" width="396.6" height="416.9"/>
	<rect id="XMLID_195_" x="331.6" y="166.5" class="st9" width="396.6" height="32.5"/>
</g>
<g id="XMLID_494_" class="st10">
	<path id="XMLID_194_" class="st3" d="M452.9,485c-0.5-0.1-1-0.2-1.5-0.2c-0.1,0-0.2,0-0.3,0c-0.4,0-0.8,0-1.2,0.1
		c-0.1,0-0.2,0-0.2,0.1c-0.4,0.1-0.9,0.2-1.3,0.4c0,0-0.1,0-0.1,0c-1.9,0.8-3.4,2.4-4,4.6c-1,3.8,0.6,9.8,4.4,10.8
		c1.7,0.5,3.6-0.2,5.3-1.5c0,0,0,0,0,0c0.6-0.5,1.2-1,1.7-1.6c0,0,0,0,0.1-0.1c0.2-0.3,0.4-0.5,0.6-0.8c0,0,0.1-0.1,0.1-0.1
		c0.2-0.3,0.4-0.6,0.6-0.9c0,0,0-0.1,0.1-0.1c0.1-0.3,0.3-0.5,0.4-0.8c0-0.1,0.1-0.2,0.1-0.2c0.1-0.3,0.2-0.6,0.3-0.9
		c0.3-0.9,0.3-1.9,0.2-2.8C457.7,488.1,455.8,485.8,452.9,485z"/>
	<path id="XMLID_495_" class="st3" d="M430.9,462.3l-0.3,0l4.9,42l3.8,39.3l3.2,39.8h5.7l1.5-40.3l3.7-0.2l2.4,40.4h6.5l2.6-40.9
		l-0.5-36.6l10.4-43.1l-0.4-0.1c0.3-0.5,0.4-1,0.4-1.6c0,0,0,0,0,0H499v-70.9h-91.8v70.9h23.1C430.5,461.6,430.7,462,430.9,462.3z
		 M436.5,461.2h31.8c0,0,0,0,0,0c0,1.4,0.8,2.5,2,3l-13.5,38.4l-13.6-1.1l-8.4-38.5C435.6,462.7,436.2,462,436.5,461.2z"/>
</g>
<path id="XMLID_477_" class="st11" d="M578,583.4h1.9l2.4-14.2h37l2.4,14.2h1.9l-2.4-14.2h5l-2.4,14.2h1.9l2.4-14.2h37l2.4,14.2h1.9
	l-20.6-123.8h4V454h-56.3v5.6h2.2L578,583.4z M595.5,489.1h10.4l3,18.2h-16.4L595.5,489.1z M614.2,527.3l-3-18.2h25l-3,18.2H614.2z
	 M632.8,529.2l-3,18.2h-12.3l-3-18.2H632.8z M610.8,507.3l-3-18.2h31.6l-3,18.2H610.8z M592.2,509.2h17l3,18.2h-23.1L592.2,509.2z
	 M588.9,529.2h23.7l3,18.2h-29.7L588.9,529.2z M582.5,567.4l3-18.2h30.3l3,18.2H582.5z M626.4,567.4h-5.6l-3-18.2h11.6L626.4,567.4z
	 M664.7,567.4h-36.4l3-18.2h30.3L664.7,567.4z M661.4,547.3h-29.7l3-18.2h23.7L661.4,547.3z M658,527.3H635l3-18.2h17L658,527.3z
	 M654.7,507.3h-16.4l3-18.2h10.4L654.7,507.3z M646.8,459.6l4.6,27.6h-9.7l4.6-27.6H646.8z M644.3,459.6l-4.6,27.6h-32.2l-4.6-27.6
	H644.3z M601,459.6l4.6,27.6h-9.7l4.6-27.6H601z"/>
<g id="XMLID_446_">
	<rect id="XMLID_175_" x="870.8" y="138.6" class="st3" width="74.5" height="189"/>
	<rect id="XMLID_174_" x="867.2" y="138.6" class="st3" width="74.5" height="189"/>
	<g id="XMLID_461_">
		<g id="XMLID_472_">
			<path id="XMLID_473_" class="st4" d="M884.7,148.1l1.2-0.5c0.4-0.2,0.8-0.3,1.2-0.4c0.9,0.7,0.8,0.8,1,1.6l-9.7,4.4c0,0,0,0,0,0
				l4.2,1.9c2.1,1,3.9,1.8,5.5,2.5c-0.2,0.9,0,0.9-1,1.7c-0.5-0.2-1-0.4-1.4-0.6c-2.8-1.3-6.4-2.9-10.8-4.9v-0.7
				c0-0.1,0.1-0.2,0.5-0.3c-0.1,0-0.2,0.1-0.3,0.1c0,0,0-0.1,0-0.1c0-0.1,0-0.3,0.2-0.4L884.7,148.1z"/>
		</g>
		<g id="XMLID_469_">
			<path id="XMLID_470_" class="st4" d="M884.7,211.6l1.2-0.5c0.4-0.2,0.8-0.3,1.2-0.4c0.9,0.7,0.8,0.8,1,1.6l-9.7,4.4c0,0,0,0,0,0
				l4.2,1.9c2.1,1,3.9,1.8,5.5,2.5c-0.2,0.9,0,0.9-1,1.7c-0.5-0.2-1-0.4-1.4-0.6c-2.8-1.3-6.4-2.9-10.8-4.9v-0.7
				c0-0.1,0.1-0.2,0.5-0.3c-0.1,0-0.2,0.1-0.3,0.1c0,0,0-0.1,0-0.1c0-0.1,0-0.3,0.2-0.4L884.7,211.6z"/>
		</g>
		<rect id="XMLID_171_" x="898.2" y="150.9" class="st4" width="37.9" height="4"/>
		<rect id="XMLID_170_" x="906.6" y="164.8" class="st4" width="29.4" height="4"/>
		<rect id="XMLID_169_" x="919.9" y="176.8" class="st4" width="16.1" height="4"/>
		<rect id="XMLID_168_" x="898.2" y="214.3" class="st4" width="37.9" height="4"/>
		<rect id="XMLID_167_" x="906.6" y="200.4" class="st4" width="29.4" height="4"/>
		<rect id="XMLID_166_" x="919.9" y="188.4" class="st4" width="16.1" height="4"/>
		<polygon id="XMLID_165_" class="st4" points="893.3,209.8 889.4,224 892.2,224.2 896.2,210 		"/>
	</g>
	<g id="XMLID_447_">
		<g id="XMLID_458_">
			<path id="XMLID_459_" class="st4" d="M884.7,234.3l1.2-0.5c0.4-0.2,0.8-0.3,1.2-0.4c0.9,0.7,0.8,0.8,1,1.6l-9.7,4.4c0,0,0,0,0,0
				l4.2,1.9c2.1,1,3.9,1.8,5.5,2.5c-0.2,0.9,0,0.9-1,1.7c-0.5-0.2-1-0.4-1.4-0.6c-2.8-1.3-6.4-2.9-10.8-4.9v-0.7
				c0-0.1,0.1-0.2,0.5-0.3c-0.1,0-0.2,0.1-0.3,0.1c0,0,0-0.1,0-0.1c0-0.1,0-0.3,0.2-0.4L884.7,234.3z"/>
		</g>
		<g id="XMLID_455_">
			<path id="XMLID_456_" class="st4" d="M884.7,297.8l1.2-0.5c0.4-0.2,0.8-0.3,1.2-0.4c0.9,0.7,0.8,0.8,1,1.6l-9.7,4.4c0,0,0,0,0,0
				l4.2,1.9c2.1,1,3.9,1.8,5.5,2.5c-0.2,0.9,0,0.9-1,1.7c-0.5-0.2-1-0.4-1.4-0.6c-2.8-1.3-6.4-2.9-10.8-4.9v-0.7
				c0-0.1,0.1-0.2,0.5-0.3c-0.1,0-0.2,0.1-0.3,0.1c0,0,0-0.1,0-0.1c0-0.1,0-0.3,0.2-0.4L884.7,297.8z"/>
		</g>
		<rect id="XMLID_162_" x="898.2" y="237.1" class="st4" width="37.9" height="4"/>
		<rect id="XMLID_161_" x="906.6" y="251" class="st4" width="29.4" height="4"/>
		<rect id="XMLID_160_" x="919.9" y="263" class="st4" width="16.1" height="4"/>
		<rect id="XMLID_159_" x="898.2" y="300.5" class="st4" width="37.9" height="4"/>
		<rect id="XMLID_158_" x="906.6" y="286.6" class="st4" width="29.4" height="4"/>
		<rect id="XMLID_157_" x="919.9" y="274.6" class="st4" width="16.1" height="4"/>
		<polygon id="XMLID_156_" class="st4" points="893.3,296 889.4,310.2 892.2,310.4 896.2,296.2 		"/>
	</g>
</g>
<rect id="XMLID_155_" x="379.1" y="409.1" class="st9" width="91.8" height="70.9"/>
<g id="XMLID_408_">
	<g id="XMLID_428_">
		<g id="XMLID_443_">
			
				<rect id="XMLID_154_" x="538.5" y="530.4" transform="matrix(0.164 0.9865 -0.9865 0.164 1037.9214 -162.026)" class="st6" width="152.1" height="1.9"/>
		</g>
		<g id="XMLID_441_">
			
				<rect id="XMLID_153_" x="492.7" y="530.4" transform="matrix(0.164 0.9865 -0.9865 0.164 999.6329 -116.8631)" class="st6" width="152.1" height="1.9"/>
		</g>
		<g id="XMLID_439_">
			<rect id="XMLID_152_" x="561.6" y="487.3" class="st6" width="46.2" height="1.9"/>
		</g>
		<g id="XMLID_437_">
			<rect id="XMLID_151_" x="564.9" y="507.3" class="st6" width="46.2" height="1.9"/>
		</g>
		<g id="XMLID_435_">
			<rect id="XMLID_150_" x="568.1" y="527.3" class="st6" width="46.2" height="1.9"/>
		</g>
		<g id="XMLID_433_">
			<rect id="XMLID_149_" x="571.4" y="547.3" class="st6" width="46.2" height="1.9"/>
		</g>
		<g id="XMLID_431_">
			<rect id="XMLID_148_" x="574.7" y="567.4" class="st6" width="46.2" height="1.9"/>
		</g>
		<g id="XMLID_429_">
			<rect id="XMLID_147_" x="578" y="587.4" class="st6" width="46.2" height="1.9"/>
		</g>
	</g>
	<g id="XMLID_411_">
		<g id="XMLID_426_">
			
				<rect id="XMLID_146_" x="541.5" y="455.3" transform="matrix(0.9864 0.1641 -0.1641 0.9864 94.5475 -81.8188)" class="st3" width="1.9" height="152.1"/>
		</g>
		<g id="XMLID_424_">
			
				<rect id="XMLID_145_" x="587.3" y="455.3" transform="matrix(0.9864 0.1641 -0.1641 0.9864 95.1804 -89.3424)" class="st3" width="1.9" height="152.1"/>
		</g>
		<g id="XMLID_422_">
			<rect id="XMLID_144_" x="549.2" y="487.3" class="st3" width="46.2" height="1.9"/>
		</g>
		<g id="XMLID_420_">
			<rect id="XMLID_143_" x="545.9" y="507.3" class="st3" width="46.2" height="1.9"/>
		</g>
		<g id="XMLID_418_">
			<rect id="XMLID_142_" x="542.7" y="527.3" class="st3" width="46.2" height="1.9"/>
		</g>
		<g id="XMLID_416_">
			<rect id="XMLID_141_" x="539.4" y="547.3" class="st3" width="46.2" height="1.9"/>
		</g>
		<g id="XMLID_414_">
			<rect id="XMLID_140_" x="536.1" y="567.4" class="st3" width="46.2" height="1.9"/>
		</g>
		<g id="XMLID_412_">
			<rect id="XMLID_139_" x="532.9" y="587.4" class="st3" width="46.2" height="1.9"/>
		</g>
	</g>
	<g id="XMLID_409_">
		<rect id="XMLID_138_" x="551.2" y="454" class="st9" width="56.3" height="5.6"/>
	</g>
</g>
<g id="XMLID_388_">
	<polygon id="XMLID_137_" class="st4" points="756.5,680 752.7,640.8 747.8,598.7 751.6,598.2 760.3,638 774,639.1 788.1,598.7 
		792,599.3 781.6,642.4 782.1,679 	"/>
	<path id="XMLID_136_" class="st7" d="M761.3,626.4c-1,3.8,0.6,9.8,4.4,10.8c3.8,1,8.2-3.3,9.3-7.1c1-3.8-1.2-7.7-5-8.7
		C766.3,620.4,762.4,622.6,761.3,626.4z"/>
	<path id="XMLID_135_" class="st12" d="M766.4,624.2c-0.8-0.2-1.8-0.7-2.3-1.5c0-0.1-0.1-0.1-0.1-0.2c1.7-1.2,3.8-1.7,6-1.1
		c3.8,1,6,4.9,5,8.7c-0.7,2.7-3.2,5.7-6,6.8c0-0.8,0.2-1.5,0.4-2.2c0.8-3,1.6-5.9,2.6-8.9C770.1,625.4,768.2,624.9,766.4,624.2z"/>
	<path id="XMLID_134_" class="st7" d="M770.8,630c0.5-0.4,1.2-0.5,1.8-0.3c0.1,0.1,0.3,0.1,0.4,0.2c0.3,0.3,0.4,0.7,0.3,1.1
		c-0.1,1.1-1,2-2,2.3c-0.3,0.1-0.6,0.1-0.9,0.1c-0.3,0-0.6-0.2-0.8-0.5C768.9,632,770,630.5,770.8,630z"/>
	<polygon id="XMLID_133_" class="st3" points="782.1,679 778.4,739.2 774.2,739.2 770.6,679.4 766.9,679.6 764.6,740.7 761.4,740.6 
		756.5,680 755.8,672.6 782,672.9 	"/>
	<polygon id="XMLID_132_" class="st3" points="778.4,739.2 787.5,740.2 787.2,741.6 773.8,741.6 774.2,739.2 	"/>
	<polygon id="XMLID_131_" class="st3" points="764.6,740.7 764.6,742.4 752.1,742.9 752.1,741.3 761.4,740.6 	"/>
	<path id="XMLID_130_" class="st12" d="M768.1,631.5c-2.3,0.2-4.1-2.1-6.4-2.4c-0.1,0-0.3,0-0.4,0c-0.2,0.1-0.3,0.3-0.4,0.4
		c-0.3,0.6-0.6,1.1-0.9,1.7c-0.3,0.6-0.6,1.2-0.7,1.8c-0.2,0.8-0.1,1.5,0.1,2.3c0.1,0.6,0.2,1.2,0.5,1.8c0.5,1,1.4,1.7,2.5,2.1
		c1,0.4,2.2,0.4,3.3,0.3c0.7-0.1,1.5-0.2,2.2-0.5c1.5-0.7,2.4-2.5,2.1-4.1c-0.1-0.4-0.2-0.8-0.1-1.2c0-0.4,0.2-0.8,0.4-1.1
		c0.2-0.4,1.7-2.4,0.6-2.4c-0.4,0-0.9,0.6-1.2,0.8C769.1,631.2,768.6,631.4,768.1,631.5z"/>
	<g id="XMLID_391_">
		<linearGradient id="XMLID_14_" gradientUnits="userSpaceOnUse" x1="787.606" y1="564.4345" x2="787.606" y2="622.3589">
			<stop  offset="0" style="stop-color:#2988C4;stop-opacity:0.8"/>
			<stop  offset="0.9896" style="stop-color:#2988C4;stop-opacity:0"/>
		</linearGradient>
		<polygon id="XMLID_129_" class="st13" points="783.3,612.7 788.7,612.7 792,599.3 788.1,598.7 		"/>
		<linearGradient id="XMLID_16_" gradientUnits="userSpaceOnUse" x1="751.2562" y1="564.4344" x2="751.2562" y2="622.3589">
			<stop  offset="0" style="stop-color:#2988C4;stop-opacity:0.8"/>
			<stop  offset="0.9896" style="stop-color:#2988C4;stop-opacity:0"/>
		</linearGradient>
		<polygon id="XMLID_128_" class="st14" points="751.6,598.2 747.8,598.7 749.4,612.7 754.8,612.7 		"/>
	</g>
	<circle id="XMLID_127_" class="st7" cx="750.5" cy="596.6" r="3.3"/>
	<circle id="XMLID_126_" class="st7" cx="788.7" cy="597.6" r="3.3"/>
</g>
<g id="XMLID_380_">
	<polygon id="XMLID_125_" class="st15" points="411.2,562.4 407.4,523.1 402.5,481.1 406.3,480.5 415,520.4 428.7,521.5 
		442.9,481.1 446.7,481.6 436.3,524.7 436.9,561.3 	"/>
	<circle id="XMLID_124_" class="st7" cx="405.2" cy="478.9" r="3.3"/>
	<circle id="XMLID_123_" class="st7" cx="443.4" cy="480" r="3.3"/>
	<path id="XMLID_122_" class="st6" d="M428.2,515.6c0,0,0.1-0.1,0.1-0.1c0.2-0.3,0.4-0.6,0.6-0.9c0,0,0-0.1,0.1-0.1
		c0.1-0.3,0.3-0.5,0.4-0.8c0-0.1,0.1-0.2,0.1-0.2c0.1-0.3,0.2-0.6,0.3-0.9c0.3-0.9,0.3-1.9,0.2-2.8c-0.1-0.6-0.3-1.2-0.5-1.7
		c-0.5-1.1-1.2-2.1-2.1-2.9c-0.2-0.2-0.5-0.3-0.7-0.5c-0.2-0.1-0.3-0.2-0.5-0.3c-0.4-0.2-0.9-0.4-1.3-0.5c0,0,0,0,0,0
		c-0.5-0.1-1-0.2-1.5-0.2c-0.1,0-0.2,0-0.3,0c-0.4,0-0.8,0-1.2,0.1c-0.1,0-0.2,0-0.2,0.1c-0.4,0.1-0.9,0.2-1.3,0.4c0,0-0.1,0-0.1,0
		c-1.9,0.8-3.4,2.4-4,4.6c-1,3.8,0.6,9.8,4.4,10.8c1.7,0.5,3.6-0.2,5.3-1.5c0,0,0,0,0,0c0.6-0.5,1.2-1,1.7-1.6c0,0,0,0,0.1-0.1
		C427.7,516.1,428,515.9,428.2,515.6z"/>
	<polygon id="XMLID_121_" class="st3" points="436.9,561.3 433.1,621.6 428.9,621.6 425.4,561.8 421.6,562 419.4,623 416.2,623 
		411.2,562.4 410.5,554.9 436.8,555.3 	"/>
	<polygon id="XMLID_120_" class="st3" points="433.1,621.6 442.2,622.6 441.9,624 428.5,624 428.9,621.6 	"/>
	<polygon id="XMLID_119_" class="st3" points="419.4,623 419.4,624.8 406.8,625.2 406.8,623.7 416.2,623 	"/>
</g>
<g id="XMLID_372_">
	<rect id="XMLID_118_" x="690.7" y="502.9" class="st4" width="157.8" height="93.9"/>
	<rect id="XMLID_117_" x="769.7" y="514.8" class="st9" width="70.4" height="69.7"/>
	<rect id="XMLID_116_" x="699.6" y="515.4" class="st9" width="61.5" height="5.9"/>
	<rect id="XMLID_115_" x="699.6" y="529.9" class="st9" width="61.5" height="5.9"/>
	<rect id="XMLID_114_" x="699.6" y="544.4" class="st9" width="61.5" height="5.9"/>
	<rect id="XMLID_113_" x="699.6" y="558.8" class="st9" width="61.5" height="5.9"/>
	<rect id="XMLID_112_" x="699.6" y="573.3" class="st9" width="61.5" height="5.9"/>
</g>
<linearGradient id="XMLID_226_" gradientUnits="userSpaceOnUse" x1="388.9634" y1="586.5726" x2="179.1622" y2="586.5726">
	<stop  offset="0" style="stop-color:#2988C4;stop-opacity:0.8"/>
	<stop  offset="0.9896" style="stop-color:#2988C4;stop-opacity:0"/>
</linearGradient>
<ellipse id="XMLID_111_" class="st16" cx="265.7" cy="586.6" rx="85.5" ry="11.8"/>
<g id="XMLID_286_">
	<g id="XMLID_366_" class="st10">
		<path id="XMLID_110_" class="st3" d="M577.3,334.4c0.7,0.6,1.4,1.1,2.3,1.3c0,0.2,0,0.5,0,0.7c0.3,4.4,4.3,10.1,8.7,9.8
			c0.3,0,0.6-0.1,0.9-0.2l0,0c0,0,0,0,0,0c1.2-0.3,2.2-1.1,3.1-2.1c0,0,0.1-0.1,0.1-0.1c0.1-0.2,0.3-0.3,0.4-0.5
			c0-0.1,0.1-0.1,0.1-0.2c0.1-0.2,0.2-0.3,0.3-0.5c0.1-0.1,0.1-0.2,0.2-0.2c0.1-0.2,0.2-0.3,0.3-0.5c0.1-0.1,0.1-0.2,0.2-0.3
			c0.1-0.2,0.2-0.3,0.2-0.5c0.1-0.1,0.1-0.2,0.2-0.3c0.1-0.2,0.1-0.3,0.2-0.5c0.1-0.1,0.1-0.3,0.1-0.4c0.1-0.2,0.1-0.3,0.2-0.5
			c0-0.1,0.1-0.3,0.1-0.4c0-0.1,0.1-0.3,0.1-0.4c0-0.2,0.1-0.3,0.1-0.5c0-0.1,0.1-0.3,0.1-0.4c0-0.2,0-0.3,0.1-0.5
			c0-0.1,0-0.2,0-0.4c0-0.2,0-0.4,0-0.5c0-0.1,0-0.2,0-0.3c0-0.1,0-0.2,0-0.3c0.6,0.3,1.2,0.4,1.9,0.4c2.6,0,4.7-2.1,4.7-4.7
			c0-2.6-2.1-4.7-4.7-4.7c-2.1,0-3.9,1.4-4.5,3.3c-0.1-0.1-0.1-0.1-0.2-0.2c-0.4-0.3-0.8-0.6-1.2-0.9c-0.9-0.5-1.9-0.8-2.9-1
			c-0.5-0.1-1.1-0.1-1.6,0c-3.2,0.2-5.7,2.3-6.8,5.1c-0.6-0.1-1.3-0.1-1.9-0.1c-0.6,0-1.4,0.2-1.4,0.8
			C576.8,334,577.1,334.2,577.3,334.4z"/>
		<path id="XMLID_367_" class="st3" d="M657.2,397.3l-25.2,1.1l-17.3-28.2l0.4-0.2L595.5,349l-4.3-0.5l-26.1-12.9l-9.4-8.6l-2.7,2.9
			l5.4-58.9l-78.3-7.2c0.3-0.7,0.5-1.5,0.5-2.3c0-2.9-2.2-5.4-5-5.8V136.9h-1.9v118.8c-2.8,0.5-5,2.9-5,5.8c0,0.4,0.1,0.9,0.1,1.3
			l-67.7-6.3l-7.5,81L551,352.1l1.2-13.3c5.3,4.9,12,10.4,15.5,11.9l12.8,5.5l14.7,26.2l-0.1,0.1l0.2,0.2l0.1,0.3l0.1-0.1l0.5,0.4
			l4.1,35.5l5,31.3l-9.4,1.3l0.7,2.6h13.7l-1.3-35.4l2.3-23.5l17,13.3l28-6.4l2.7,7.1l2.2-0.9L657.2,397.3z M552.9,331.1l3.8,3.9
			c-1.4-1-2.7-2-3.9-2.9L552.9,331.1z"/>
	</g>
	
		<rect id="XMLID_107_" x="359.6" y="263.6" transform="matrix(-0.9958 -9.202931e-002 9.202931e-002 -0.9958 847.1663 647.6653)" class="st15" width="157.9" height="81.4"/>
	<polygon id="XMLID_106_" class="st17" points="518.1,327 527.5,335.6 558.6,350.9 544.9,354.4 524.4,340.3 514.8,330.6 	"/>
	<path id="XMLID_105_" class="st7" d="M557.8,335.3c0.3,4.4-2.8,10.6-7.1,11c-4.4,0.3-8.3-5.4-8.7-9.8c-0.3-4.4,2.9-8.1,7.3-8.5
		C553.7,327.6,557.5,330.9,557.8,335.3z"/>
	<path id="XMLID_104_" class="st7" d="M511.5,325.4c0,0-1.3-0.7-1.3-0.7l-1.3,2.1l-6.4-3.6l-2.1,2.4l9.1,6.8l2-2.5l-1-1.4l0.4-1.5
		L511.5,325.4z"/>
	<polygon id="XMLID_103_" class="st6" points="575.3,378.4 571.3,418.6 572.6,454 558.9,454 558.2,451.3 567.6,450.1 562.6,418.8 
		558.1,379.8 	"/>
	<path id="XMLID_102_" class="st9" d="M511.5,328.9c4,3.7,18.2,14,23.4,15.5l11,3.2L558,349l19.6,21.1l-19.7,12.9l-15-26.7
		l-12.8-5.5c-5.2-2.3-18.2-13.9-21.7-18.3L511.5,328.9z"/>
	<path id="XMLID_101_" class="st7" d="M543.1,333.1c-0.8-0.1-1.7-0.2-2.5-0.2c-0.6,0-1.4,0.2-1.4,0.8c0,0.3,0.3,0.5,0.5,0.7
		c0.8,0.6,1.6,1.3,2.6,1.4c0.8,0.1,1.7-0.2,2.3-0.8c0.5-0.6,0.9-1.4,0.6-2.1C544.6,333.2,543.9,333.2,543.1,333.1z"/>
	<g id="XMLID_357_">
		<path id="XMLID_100_" class="st3" d="M247.6,551.8h32.6c0.7,0,1.4-0.4,1.7-1.1c0.3-0.7,0.2-1.5-0.3-2l-31.3-33.8l-2.8,2.6
			l28.4,30.7h-28.3V551.8z"/>
	</g>
	<path id="XMLID_99_" class="st6" d="M551.6,346.1c3.9-1.1,6.5-6.8,6.2-10.8c-0.3-4.4-4.1-7.6-8.5-7.3c-0.3,0-0.5,0.1-0.8,0.1
		c-0.2,0.6-0.2,1.3-0.1,1.9c0.4,2.2,2,4.2,4.1,5.1C552.5,335.1,552.5,344.8,551.6,346.1z"/>
	<path id="XMLID_98_" class="st7" d="M553.6,336c0.7,0,1.3,0.3,1.8,0.6c1.7,1.3,0.7,3.9-1.1,4.6c-0.6,0.2-1.2,0.3-1.8,0.2
		c-0.5,0-1.1-0.1-1.5-0.4c-0.4-0.3-0.6-0.8-0.6-1.3c0-0.5,0.1-1,0.3-1.5C551.1,337.1,552.4,336,553.6,336z"/>
	<polygon id="XMLID_97_" class="st3" points="619.7,397.3 594.5,398.5 576.9,369.9 557.5,382.5 590.7,408.4 618.6,402 621.4,409.1 
		623.5,408.1 	"/>
	<circle id="XMLID_96_" class="st6" cx="559.7" cy="331.5" r="4.7"/>
	<g id="XMLID_349_">
		<path id="XMLID_350_" class="st3" d="M245.9,163.8h36.7V567h-36.7V163.8z M278.9,167.6h-29.2v395.7h29.2V167.6z"/>
	</g>
	<rect id="XMLID_93_" x="240.9" y="547.2" class="st4" width="46.8" height="33.5"/>
	<g id="XMLID_346_">
		<path id="XMLID_92_" class="st3" d="M247.6,413h32.6c0.7,0,1.4-0.4,1.7-1.1c0.3-0.7,0.2-1.5-0.3-2L250.3,376l-2.8,2.6l28.4,30.7
			h-28.3V413z"/>
	</g>
	<g id="XMLID_344_">
		<path id="XMLID_91_" class="st3" d="M247.6,447.7h32.6c0.7,0,1.4-0.4,1.7-1.1c0.3-0.7,0.2-1.5-0.3-2l-31.3-33.8l-2.8,2.6
			l28.4,30.7h-28.3V447.7z"/>
	</g>
	<g id="XMLID_342_">
		<path id="XMLID_90_" class="st3" d="M247.6,482.4h32.6c0.7,0,1.4-0.4,1.7-1.1c0.3-0.7,0.2-1.5-0.3-2l-31.3-33.8l-2.8,2.6
			l28.4,30.7h-28.3V482.4z"/>
	</g>
	<g id="XMLID_340_">
		<path id="XMLID_89_" class="st3" d="M247.6,517.1h32.6c0.7,0,1.4-0.4,1.7-1.1c0.3-0.7,0.2-1.5-0.3-2l-31.3-33.8l-2.8,2.6
			l28.4,30.7h-28.3V517.1z"/>
	</g>
	<g id="XMLID_338_">
		<path id="XMLID_88_" class="st3" d="M247.6,379.1h32.6c0.7,0,1.4-0.4,1.7-1.1c0.3-0.7,0.2-1.5-0.3-2l-31.3-33.8l-2.8,2.6
			l28.4,30.7h-28.3V379.1z"/>
	</g>
	<g id="XMLID_336_">
		<path id="XMLID_87_" class="st3" d="M247.6,345.3h32.6c0.7,0,1.4-0.4,1.7-1.1c0.3-0.7,0.2-1.5-0.3-2l-31.3-33.8l-2.8,2.6
			l28.4,30.7h-28.3V345.3z"/>
	</g>
	<g id="XMLID_334_">
		<path id="XMLID_86_" class="st3" d="M247.6,311.4h32.6c0.7,0,1.4-0.4,1.7-1.1c0.3-0.7,0.2-1.5-0.3-2l-31.3-33.8l-2.8,2.6
			l28.4,30.7h-28.3V311.4z"/>
	</g>
	<g id="XMLID_332_">
		<path id="XMLID_85_" class="st3" d="M247.6,277.5h32.6c0.7,0,1.4-0.4,1.7-1.1c0.3-0.7,0.2-1.5-0.3-2l-31.3-33.8l-2.8,2.6
			l28.4,30.7h-28.3V277.5z"/>
	</g>
	<g id="XMLID_330_">
		<path id="XMLID_84_" class="st3" d="M247.6,243.6h32.6c0.7,0,1.4-0.4,1.7-1.1c0.3-0.7,0.2-1.5-0.3-2l-31.3-33.8l-2.8,2.6
			l28.4,30.7h-28.3V243.6z"/>
	</g>
	<g id="XMLID_328_">
		<path id="XMLID_83_" class="st3" d="M247.6,209.8h32.6c0.7,0,1.4-0.4,1.7-1.1c0.3-0.7,0.2-1.5-0.3-2l-31.3-33.8l-2.8,2.6
			l28.4,30.7h-28.3V209.8z"/>
	</g>
	<g id="XMLID_326_">
		<path id="XMLID_82_" class="st3" d="M247.6,175.9h32.6c0.7,0,1.4-0.4,1.7-1.1c0.3-0.7,0.2-1.5-0.3-2L250.3,139l-2.8,2.6l28.4,30.7
			h-28.3V175.9z"/>
	</g>
	<rect id="XMLID_81_" x="246" y="126.4" class="st9" width="59.6" height="50.2"/>
	<rect id="XMLID_80_" x="156.5" y="126.4" class="st9" width="59.6" height="28.8"/>
	<g id="XMLID_322_">
		<path id="XMLID_79_" class="st3" d="M157.5,130h294.2c1,0,1.9-0.8,1.9-1.9c0-1-0.8-1.9-1.9-1.9H157.5c-1,0-1.9,0.8-1.9,1.9
			C155.6,129.2,156.4,130,157.5,130z"/>
	</g>
	<g id="XMLID_320_">
		<rect id="XMLID_78_" x="436.2" y="136.9" class="st3" width="1.9" height="122.1"/>
	</g>
	<path id="XMLID_77_" class="st18" d="M262.6,126.9"/>
	<rect id="XMLID_76_" x="224.9" y="574.8" class="st3" width="78.7" height="14.8"/>
	<g id="XMLID_316_">
		<path id="XMLID_75_" class="st3" d="M275.6,129.5c0.2,0,0.5-0.1,0.7-0.3l15.7-15.7h143.8l14.7,14.7c0.4,0.4,1,0.4,1.3,0
			c0.4-0.4,0.4-1,0-1.3l-15.3-15.3H291.1l-16.2,16.2c-0.4,0.4-0.4,1,0,1.3C275.1,129.4,275.3,129.5,275.6,129.5z"/>
	</g>
	<g id="XMLID_314_">
		<path id="XMLID_74_" class="st3" d="M156.2,129.5c0.3,0,0.7-0.2,0.8-0.5l15.7-30h38.1l14.8,29c0.2,0.5,0.8,0.6,1.3,0.4
			c0.5-0.2,0.6-0.8,0.4-1.3L212,97.2h-40.4l-16.2,31c-0.2,0.5-0.1,1,0.4,1.3C155.9,129.5,156.1,129.5,156.2,129.5z"/>
	</g>
	<circle id="XMLID_73_" class="st4" cx="437.1" cy="136.9" r="6.9"/>
	<g id="XMLID_311_">
		<path id="XMLID_72_" class="st3" d="M396.4,113.6c0.4,0,0.8-0.3,0.9-0.7c0.2-0.5-0.1-1-0.6-1.2l-139-42.4c-0.2-0.1-0.4-0.1-0.6,0
			l-65.9,27.8c-0.5,0.2-0.7,0.8-0.5,1.2c0.2,0.5,0.8,0.7,1.2,0.5l65.6-27.7l138.7,42.3C396.2,113.5,396.3,113.6,396.4,113.6z"/>
	</g>
	<g id="XMLID_309_">
		<path id="XMLID_71_" class="st3" d="M279.2,129.7c0.2,0,0.4,0,0.7-0.1c1-0.4,1.5-1.5,1.1-2.4l-21.9-57.6c-0.3-0.8-1.1-1.3-1.9-1.2
			c-0.8,0.1-1.5,0.7-1.7,1.5L244.2,126c-0.2,1,0.5,2,1.5,2.2c1,0.2,2-0.5,2.2-1.5l10-49.8l19.6,51.5
			C277.7,129.2,278.5,129.7,279.2,129.7z"/>
	</g>
	<circle id="XMLID_70_" class="st19" cx="257.3" cy="70.2" r="3.8"/>
	<g id="XMLID_306_">
		<path id="XMLID_69_" class="st3" d="M416.2,129.7c0.2,0,0.4-0.1,0.6-0.2l18.4-14.9v13.9c0,0.5,0.4,0.9,0.9,0.9
			c0.5,0,0.9-0.4,0.9-0.9v-15.9c0-0.4-0.2-0.7-0.5-0.8c-0.3-0.2-0.7-0.1-1,0.1l-20,16.1c-0.4,0.3-0.5,0.9-0.1,1.3
			C415.6,129.6,415.9,129.7,416.2,129.7z"/>
	</g>
	<g id="XMLID_304_">
		<path id="XMLID_68_" class="st3" d="M398.3,129.7c0.2,0,0.4-0.1,0.6-0.2l18.4-14.9v13.9c0,0.5,0.4,0.9,0.9,0.9
			c0.5,0,0.9-0.4,0.9-0.9v-15.9c0-0.4-0.2-0.7-0.5-0.8c-0.3-0.2-0.7-0.1-1,0.1l-20,16.1c-0.4,0.3-0.5,0.9-0.1,1.3
			C397.8,129.6,398.1,129.7,398.3,129.7z"/>
	</g>
	<g id="XMLID_302_">
		<path id="XMLID_67_" class="st3" d="M380.5,129.7c0.2,0,0.4-0.1,0.6-0.2l18.4-14.9v13.9c0,0.5,0.4,0.9,0.9,0.9
			c0.5,0,0.9-0.4,0.9-0.9v-15.9c0-0.4-0.2-0.7-0.5-0.8c-0.3-0.2-0.7-0.1-1,0.1l-20,16.1c-0.4,0.3-0.5,0.9-0.1,1.3
			C380,129.6,380.2,129.7,380.5,129.7z"/>
	</g>
	<g id="XMLID_300_">
		<path id="XMLID_66_" class="st3" d="M362.7,129.7c0.2,0,0.4-0.1,0.6-0.2l18.4-14.9v13.9c0,0.5,0.4,0.9,0.9,0.9
			c0.5,0,0.9-0.4,0.9-0.9v-15.9c0-0.4-0.2-0.7-0.5-0.8c-0.3-0.2-0.7-0.1-1,0.1l-20,16.1c-0.4,0.3-0.5,0.9-0.1,1.3
			C362.1,129.6,362.4,129.7,362.7,129.7z"/>
	</g>
	<g id="XMLID_298_">
		<path id="XMLID_65_" class="st3" d="M344.8,129.7c0.2,0,0.4-0.1,0.6-0.2l18.4-14.9v13.9c0,0.5,0.4,0.9,0.9,0.9s0.9-0.4,0.9-0.9
			v-15.9c0-0.4-0.2-0.7-0.5-0.8c-0.3-0.2-0.7-0.1-1,0.1l-20,16.1c-0.4,0.3-0.5,0.9-0.1,1.3C344.3,129.6,344.6,129.7,344.8,129.7z"/>
	</g>
	<g id="XMLID_296_">
		<path id="XMLID_64_" class="st3" d="M327,129.7c0.2,0,0.4-0.1,0.6-0.2l18.4-14.9v13.9c0,0.5,0.4,0.9,0.9,0.9s0.9-0.4,0.9-0.9
			v-15.9c0-0.4-0.2-0.7-0.5-0.8c-0.3-0.2-0.7-0.1-1,0.1l-20,16.1c-0.4,0.3-0.5,0.9-0.1,1.3C326.5,129.6,326.7,129.7,327,129.7z"/>
	</g>
	<g id="XMLID_294_">
		<path id="XMLID_63_" class="st3" d="M309.2,129.7c0.2,0,0.4-0.1,0.6-0.2l18.4-14.9v13.9c0,0.5,0.4,0.9,0.9,0.9s0.9-0.4,0.9-0.9
			v-15.9c0-0.4-0.2-0.7-0.5-0.8c-0.3-0.2-0.7-0.1-1,0.1l-20,16.1c-0.4,0.3-0.5,0.9-0.1,1.3C308.6,129.6,308.9,129.7,309.2,129.7z"/>
	</g>
	<g id="XMLID_292_">
		<path id="XMLID_62_" class="st3" d="M291.3,129.7c0.2,0,0.4-0.1,0.6-0.2l18.4-14.9v13.9c0,0.5,0.4,0.9,0.9,0.9
			c0.5,0,0.9-0.4,0.9-0.9v-15.9c0-0.4-0.2-0.7-0.5-0.8c-0.3-0.2-0.7-0.1-1,0.1l-20,16.1c-0.4,0.3-0.5,0.9-0.1,1.3
			C290.8,129.6,291.1,129.7,291.3,129.7z"/>
	</g>
	<g id="XMLID_290_">
		<path id="XMLID_61_" class="st3" d="M185.9,129.7c0.3,0,0.5-0.1,0.7-0.3l24-28.3v27.4c0,0.5,0.4,0.9,0.9,0.9
			c0.5,0,0.9-0.4,0.9-0.9v-30c0-0.4-0.2-0.7-0.6-0.9c-0.4-0.1-0.8,0-1,0.3l-25.6,30.2c-0.3,0.4-0.3,1,0.1,1.3
			C185.5,129.6,185.7,129.7,185.9,129.7z"/>
	</g>
	<g id="XMLID_288_">
		<path id="XMLID_60_" class="st3" d="M167.5,129.7c0.3,0,0.6-0.1,0.8-0.4l18.2-27.6v26.9c0,0.5,0.4,0.9,0.9,0.9
			c0.5,0,0.9-0.4,0.9-0.9v-30c0-0.4-0.3-0.8-0.7-0.9c-0.4-0.1-0.8,0-1.1,0.4l-20,30.2c-0.3,0.4-0.2,1,0.3,1.3
			C167.1,129.7,167.3,129.7,167.5,129.7z"/>
	</g>
	<circle id="XMLID_59_" class="st3" cx="437.1" cy="261.5" r="5.9"/>
</g>
<g id="XMLID_270_">
	<polygon id="XMLID_58_" class="st4" points="919.1,411.6 917.6,390.7 919.9,375.4 927.8,330.3 924,329.7 915.3,369.5 901.6,370.6 
		887.5,330.3 883.6,330.8 894,373.9 897.6,390.4 897.2,410.5 	"/>
	<path id="XMLID_57_" class="st7" d="M900,359.2c0,3.9,3.2,9.3,7.1,9.3c3.9,0,7.1-5.4,7.1-9.3c0-3.9-3.2-7.1-7.1-7.1
		C903.2,352.1,900,355.2,900,359.2z"/>
	<linearGradient id="XMLID_229_" gradientUnits="userSpaceOnUse" x1="862.784" y1="472.0564" x2="943.3561" y2="472.0564">
		<stop  offset="0" style="stop-color:#2988C4;stop-opacity:0.8"/>
		<stop  offset="0.9896" style="stop-color:#2988C4;stop-opacity:0"/>
	</linearGradient>
	<ellipse id="XMLID_56_" class="st20" cx="903.1" cy="472.1" rx="40.3" ry="5.6"/>
	<path id="XMLID_55_" class="st7" d="M910.1,360.1c0.4-0.5,1-0.8,1.6-0.8c0.1,0,0.3,0.1,0.4,0.1c0.3,0.2,0.5,0.6,0.6,1
		c0.2,1.1-0.4,2.2-1.4,2.8c-0.3,0.2-0.6,0.3-0.9,0.3c-0.3,0-0.6,0-0.9-0.2C908.8,362.6,909.5,360.8,910.1,360.1z"/>
	<path id="XMLID_54_" class="st6" d="M910.1,359.7c0.2,0.1,0.3,0.2,0.5,0.1c0.2-0.1,0.3-0.2,0.4-0.4c0.4-0.6,1.4-0.6,1.9-0.1
		c0.5,0.5,0.5,1.3,0.2,1.9c-0.3,0.6-1,1-1.7,1.1c-0.5,1.6-0.6,3.3-0.6,5c1.1,0.1,2.2,0.2,3.4,0.2c0.2,0,0.5,0,0.6-0.1
		c0.2-0.1,0.2-0.3,0.3-0.5c0.4-1.9,0.6-3.9,0.6-5.9c0-1.9-0.2-3.9-1.2-5.6c-1.2-2-6.1-5.2-8.4-3.4
		C903.3,354.2,908.3,358.9,910.1,359.7z"/>
	<path id="XMLID_53_" class="st6" d="M904.1,356.8c-1.1,1.6-2.6,3-4.5,3.5c-0.5-2.1-0.1-4.4,1.2-6.2c0.7-1,3.4-3.3,4.8-2.8
		C907.2,352,904.8,355.8,904.1,356.8z"/>
	<polygon id="XMLID_52_" class="st9" points="918.3,396.8 897.4,395.8 881.4,467.7 873.9,463.2 883,474.2 904.4,414.9 904.1,441.8 
		918.5,461 919.5,468 919.9,470.9 922.4,470.6 922.9,460 911.7,441.8 919.6,411.6 	"/>
	<polygon id="XMLID_51_" class="st7" points="919.6,349.7 924.1,351.3 927.8,330.3 924,329.7 	"/>
	<polygon id="XMLID_50_" class="st7" points="893.3,346.9 888,349 883.6,330.8 887.5,330.3 	"/>
	<polygon id="XMLID_49_" class="st7" points="911,369.9 907.1,376.8 905.1,370.4 	"/>
	<circle id="XMLID_48_" class="st7" cx="885.2" cy="328.1" r="3.3"/>
	<circle id="XMLID_47_" class="st7" cx="926.3" cy="328.7" r="3.3"/>
	<linearGradient id="XMLID_237_" gradientUnits="userSpaceOnUse" x1="910.4197" y1="397.8321" x2="889.9814" y2="423.5898">
		<stop  offset="0" style="stop-color:#2988C4;stop-opacity:0.8"/>
		<stop  offset="0.9896" style="stop-color:#2988C4;stop-opacity:0"/>
	</linearGradient>
	<path id="XMLID_46_" class="st21" d="M898.5,431.2l5-14l0.5-4.4l-6.6-17l-7,31.2C893.4,428.6,896.4,430.1,898.5,431.2z"/>
</g>
<path id="XMLID_45_" class="st4" d="M680.8,191.9h-98.3c-3.4,0-6.1-2.8-6.1-6.1v-4.3c0-3.4,2.8-6.1,6.1-6.1h98.3
	c3.4,0,6.1,2.8,6.1,6.1v4.3C686.9,189.1,684.1,191.9,680.8,191.9z"/>
<linearGradient id="XMLID_238_" gradientUnits="userSpaceOnUse" x1="269.6612" y1="670.183" x2="483.5921" y2="675.8426">
	<stop  offset="0" style="stop-color:#2988C4;stop-opacity:0.8"/>
	<stop  offset="0.9896" style="stop-color:#2988C4;stop-opacity:0"/>
</linearGradient>
<polygon id="XMLID_44_" class="st22" points="182,679.8 411.4,691 486.2,659 456.2,658.1 "/>
<linearGradient id="XMLID_239_" gradientUnits="userSpaceOnUse" x1="308.718" y1="726.387" x2="522.6489" y2="732.0466">
	<stop  offset="0" style="stop-color:#2988C4;stop-opacity:0.8"/>
	<stop  offset="0.9896" style="stop-color:#2988C4;stop-opacity:0"/>
</linearGradient>
<polygon id="XMLID_43_" class="st23" points="221.1,736 450.5,747.2 525.3,715.2 495.2,714.3 "/>
<linearGradient id="XMLID_240_" gradientUnits="userSpaceOnUse" x1="389.5111" y1="624.8097" x2="470.0832" y2="624.8097">
	<stop  offset="0" style="stop-color:#2988C4;stop-opacity:0.8"/>
	<stop  offset="0.9896" style="stop-color:#2988C4;stop-opacity:0"/>
</linearGradient>
<ellipse id="XMLID_42_" class="st24" cx="429.8" cy="624.8" rx="40.3" ry="5.6"/>
<linearGradient id="XMLID_241_" gradientUnits="userSpaceOnUse" x1="742.0942" y1="714.9569" x2="822.6663" y2="714.9569" gradientTransform="matrix(-1 0 0 1 1335.8521 0)">
	<stop  offset="0" style="stop-color:#2988C4;stop-opacity:0.8"/>
	<stop  offset="0.9896" style="stop-color:#2988C4;stop-opacity:0"/>
</linearGradient>
<ellipse id="XMLID_41_" class="st25" cx="553.5" cy="715" rx="40.3" ry="5.6"/>
<g id="XMLID_255_">
	<polygon id="XMLID_40_" class="st3" points="182.1,674.1 182,679.8 407.4,682.8 456.2,658.1 456.2,652.4 	"/>
	<polygon id="XMLID_39_" class="st3" points="407.4,682.8 182,679.8 230.8,655.1 456.2,658.1 	"/>
	<g id="XMLID_256_">
		<polygon id="XMLID_38_" class="st4" points="407.4,677.1 182.1,674.1 230.9,649.4 456.2,652.4 		"/>
		<polygon id="XMLID_37_" class="st15" points="355.1,655.4 231.3,653.8 235,651.9 358.8,653.6 		"/>
		<polygon id="XMLID_36_" class="st15" points="345.9,660.1 222,658.5 225.7,656.6 349.5,658.2 		"/>
		<polygon id="XMLID_35_" class="st15" points="337,664.6 213.2,662.9 216.9,661.1 340.7,662.7 		"/>
		<polygon id="XMLID_34_" class="st15" points="328.5,668.9 204.7,667.2 208.4,665.4 332.2,667 		"/>
		<polygon id="XMLID_33_" class="st15" points="407.3,673.6 327.2,672.5 364.5,653.6 444.5,654.7 		"/>
	</g>
</g>
<g id="XMLID_245_">
	<polygon id="XMLID_32_" class="st3" points="220.4,729.2 220.3,734.8 445.7,737.8 494.5,713.1 494.5,707.5 	"/>
	<polygon id="XMLID_31_" class="st3" points="445.7,737.8 220.3,734.8 269.1,710.1 494.5,713.1 	"/>
	<g id="XMLID_246_">
		<polygon id="XMLID_30_" class="st4" points="445.7,732.2 220.4,729.2 269.2,704.5 494.5,707.5 		"/>
		<polygon id="XMLID_29_" class="st3" points="393.4,710.5 269.6,708.8 273.3,707 397.1,708.6 		"/>
		<polygon id="XMLID_28_" class="st3" points="384.2,715.1 260.3,713.5 264,711.6 387.9,713.3 		"/>
		<polygon id="XMLID_27_" class="st3" points="375.3,719.6 251.5,718 255.2,716.1 379,717.8 		"/>
		<polygon id="XMLID_26_" class="st3" points="366.8,723.9 243,722.3 246.7,720.4 370.5,722.1 		"/>
		<polygon id="XMLID_25_" class="st3" points="445.6,728.6 365.5,727.5 402.8,708.7 482.8,709.7 		"/>
	</g>
</g>
<rect id="XMLID_24_" x="574.4" y="222.8" class="st15" width="140.9" height="15"/>
<rect id="XMLID_23_" x="574.4" y="251" class="st15" width="140.9" height="63.1"/>
<g id="XMLID_9_">
	<polygon id="XMLID_22_" class="st9" points="542.9,646.3 549.3,656.4 555.6,675.9 574.7,706.5 571.8,707.3 549.1,681.9 538,660.5 	
		"/>
	<polygon id="XMLID_21_" class="st12" points="503.6,660 479.3,700.5 482.5,701.6 511.8,664.2 	"/>
	<linearGradient id="XMLID_242_" gradientUnits="userSpaceOnUse" x1="539.8543" y1="663.3496" x2="549.8712" y2="663.3496">
		<stop  offset="0" style="stop-color:#2988C4;stop-opacity:0.8"/>
		<stop  offset="0.9896" style="stop-color:#2988C4;stop-opacity:0"/>
	</linearGradient>
	<path id="XMLID_20_" class="st26" d="M539.9,664.1l6.7,12.9l3.4-18.9l-0.5-1.6l-4.2-6.5l-0.8-0.2c0,0-1.7,6.1-2.2,7.4
		C542,657.8,540.9,660.9,539.9,664.1z"/>
	<g id="XMLID_235_">
		<path id="XMLID_19_" class="st7" d="M493.5,651.1c4.3,0.7,9.7,5.2,9,9.5c-0.7,4.3-7.2,6.8-11.5,6.1c-4.3-0.7-7.2-4.8-6.5-9.1
			C485.2,653.3,489.2,650.4,493.5,651.1z"/>
		<path id="XMLID_18_" class="st7" d="M488,664.8c-0.3,0.8-0.6,1.6-0.8,2.4c-0.2,0.6-0.1,1.4,0.5,1.5c0.3,0,0.6-0.2,0.8-0.3
			c0.8-0.6,1.6-1.3,2-2.2c0.3-0.8,0.2-1.7-0.2-2.5c-0.4-0.6-1.1-1.2-1.9-1.1C488.4,663.4,488.2,664.1,488,664.8z"/>
		<path id="XMLID_17_" class="st12" d="M502.6,659.7c-0.1-4-5-7.9-9-8.6c-4.3-0.7-8.4,2.2-9.1,6.5c0,0.3,0,0.5,0,0.8
			c0.6,0.3,1.2,0.5,1.8,0.6c2.2,0.1,4.6-1,5.9-2.7C492.2,656.2,501.5,658.5,502.6,659.7z"/>
		<path id="XMLID_15_" class="st7" d="M493.3,655.4c0.2-0.6,0.5-1.2,1.1-1.6c1.6-1.4,4,0.3,4.2,2.1c0.1,0.6,0,1.2-0.2,1.8
			c-0.1,0.5-0.4,1-0.8,1.3c-0.4,0.3-0.9,0.4-1.4,0.3c-0.5-0.1-0.9-0.3-1.4-0.6C493.8,658,493,656.6,493.3,655.4z"/>
	</g>
	<path id="XMLID_7_" class="st3" d="M501.7,680.7L486.6,707l3.4,0.3l19.4-19.6l2.7-25.2c0,0,0-7.7-3.4-7.2c-3.4,0.5-5,4.8-5,4.8
		L501.7,680.7z"/>
	<path id="XMLID_6_" class="st3" d="M502.1,655.5c15.6-7.7,33.4-10.1,33.4-10.1l8.5,16.6l-38.4,6.2L502.1,655.5z"/>
	<path id="XMLID_5_" class="st9" d="M535.5,645.3l2.4-0.1c6.4-0.2,11.8,4.9,11.8,11.4L537,679.6l2.3,33h-3.4l-7.5-31.1L535.5,645.3z
		"/>
	<ellipse id="XMLID_4_" class="st7" cx="479.9" cy="703.5" rx="3.9" ry="4.1"/>
	<ellipse id="XMLID_3_" class="st7" cx="488.7" cy="707.5" rx="3.9" ry="4.1"/>
	<path id="XMLID_2_" class="st3" d="M539.3,712.5l0.6,3.3l-16.6,0.4c0,0,0.9-2.4,1.5-2.2c0.6,0.2,11-1.4,11-1.4H539.3z"/>
	<polygon id="XMLID_1_" class="st3" points="574.7,706.5 576.4,710.2 561.4,710.6 561.8,708.7 571.8,707.3 	"/>
</g>
</svg>
