<?xml version="1.0" encoding="UTF-8"?>
<svg xmlns="http://www.w3.org/2000/svg" xmlns:xlink="http://www.w3.org/1999/xlink" viewBox="0 0 1830 1818.05">
  <defs>
    <style>
      .cls-1 {
        fill: url(#linear-gradient-15);
      }

      .cls-2 {
        fill: url(#linear-gradient-13);
      }

      .cls-3 {
        fill: url(#linear-gradient-28);
      }

      .cls-4 {
        fill: url(#linear-gradient-2);
      }

      .cls-5 {
        fill: url(#linear-gradient-25);
      }

      .cls-6 {
        fill: url(#linear-gradient-10);
      }

      .cls-7 {
        fill: url(#linear-gradient-12);
      }

      .cls-8 {
        fill: #fff;
      }

      .cls-9 {
        fill: url(#linear-gradient-8);
      }

      .cls-9, .cls-10, .cls-11, .cls-12, .cls-13 {
        opacity: .3;
      }

      .cls-9, .cls-10, .cls-11, .cls-12, .cls-13, .cls-14 {
        mix-blend-mode: multiply;
      }

      .cls-15 {
        fill: url(#linear-gradient-26);
      }

      .cls-10 {
        fill: url(#linear-gradient-7);
      }

      .cls-16 {
        fill: none;
      }

      .cls-17 {
        fill: url(#linear-gradient-4);
      }

      .cls-18 {
        fill: url(#linear-gradient-3);
      }

      .cls-19 {
        fill: url(#linear-gradient-5);
      }

      .cls-20 {
        fill: url(#linear-gradient-22);
      }

      .cls-21 {
        fill: url(#linear-gradient-24);
      }

      .cls-22 {
        isolation: isolate;
      }

      .cls-23 {
        fill: #f9efe4;
      }

      .cls-11 {
        fill: url(#linear-gradient-18);
      }

      .cls-24 {
        fill: url(#linear-gradient-14);
      }

      .cls-25 {
        fill: url(#linear-gradient-20);
      }

      .cls-12 {
        fill: url(#linear-gradient-27);
      }

      .cls-26 {
        fill: url(#linear-gradient-17);
      }

      .cls-27 {
        fill: url(#linear-gradient-9);
      }

      .cls-28 {
        fill: url(#linear-gradient-11);
      }

      .cls-29 {
        fill: url(#linear-gradient-19);
      }

      .cls-30 {
        fill: url(#linear-gradient-6);
      }

      .cls-31 {
        fill: url(#linear-gradient-21);
      }

      .cls-32 {
        fill: url(#linear-gradient-16);
      }

      .cls-33 {
        fill: url(#linear-gradient);
      }

      .cls-34 {
        fill: url(#linear-gradient-23);
      }

      .cls-35 {
        clip-path: url(#clippath);
      }

      .cls-14 {
        opacity: .5;
      }
    </style>
    <linearGradient id="linear-gradient" x1="329.2" y1="159.15" x2="1842.02" y2="2124.8" gradientUnits="userSpaceOnUse">
      <stop offset="0" stop-color="#e4d6ca"/>
      <stop offset="1" stop-color="#d4bdac"/>
    </linearGradient>
    <linearGradient id="linear-gradient-2" x1="73.25" y1="356.13" x2="1586.08" y2="2321.78" gradientTransform="translate(1245.58 214.42) rotate(76.72)" xlink:href="#linear-gradient"/>
    <linearGradient id="linear-gradient-3" x1="112.68" y1="325.79" x2="1625.51" y2="2291.44" gradientTransform="translate(1577.86 157.16) rotate(76.72)" xlink:href="#linear-gradient"/>
    <linearGradient id="linear-gradient-4" x1="613.41" y1="-59.59" x2="2126.24" y2="1906.06" gradientTransform="translate(796.58 -628.82) rotate(45)" xlink:href="#linear-gradient"/>
    <linearGradient id="linear-gradient-5" x1="673" y1="-105.44" x2="2185.83" y2="1860.21" gradientTransform="translate(1904.23 -716.06) rotate(76.72)" xlink:href="#linear-gradient"/>
    <clipPath id="clippath">
      <path class="cls-16" d="M1799.2,789.66C1750.27,469.39,1604.4,41.18,1208.07,0c0,0-355.66-1.87-652.29,53.6C379.72,86.53,225.35,184.54,127.67,325.4,29.99,466.26-2.64,638.02,36.96,801.77c25.72,106.36,43.1,216.43,38.33,325.72-8.3,190.21-3.53,367.75,181.07,481.18,164.82,101.28,372.25,190.61,570.13,206.26,134.48,10.63,285.3-6.57,414.91-41.59,660.55-178.44,606.73-663.42,557.8-983.69Z"/>
    </clipPath>
    <linearGradient id="linear-gradient-6" x1="1314.2" y1="1200.81" x2="315.1" y2="2398.95" xlink:href="#linear-gradient"/>
    <linearGradient id="linear-gradient-7" x1="30.89" y1="1569.23" x2="1050.23" y2="1569.23" gradientUnits="userSpaceOnUse">
      <stop offset="0" stop-color="#a6b2c7"/>
      <stop offset="1" stop-color="#7595b6"/>
    </linearGradient>
    <linearGradient id="linear-gradient-8" x1="432.58" y1="1046.51" x2="959.94" y2="1046.51" gradientUnits="userSpaceOnUse">
      <stop offset="0" stop-color="#f3e9e1"/>
      <stop offset="1" stop-color="#e1d1c5"/>
    </linearGradient>
    <linearGradient id="linear-gradient-9" x1="1554.78" y1="124.81" x2="1129.73" y2="328.2" gradientUnits="userSpaceOnUse">
      <stop offset="0" stop-color="#ef9f8e"/>
      <stop offset="1" stop-color="#e68273"/>
    </linearGradient>
    <linearGradient id="linear-gradient-10" x1="1101.22" y1="515.32" x2="1108.64" y2="515.32" gradientUnits="userSpaceOnUse">
      <stop offset="0" stop-color="#5d535a"/>
      <stop offset="1" stop-color="#464143"/>
    </linearGradient>
    <linearGradient id="linear-gradient-11" x1="-1703.03" y1="-1432.62" x2="-1687.96" y2="-1386.65" gradientTransform="translate(587.78 2543.93) rotate(63.64)" gradientUnits="userSpaceOnUse">
      <stop offset="0" stop-color="#cbaf85"/>
      <stop offset="1" stop-color="#ba7c44"/>
    </linearGradient>
    <linearGradient id="linear-gradient-12" x1="-1890.26" y1="-932.44" x2="-1712.74" y2="-1342.62" gradientTransform="translate(587.78 2543.93) rotate(63.64)" gradientUnits="userSpaceOnUse">
      <stop offset="0" stop-color="#95afc7"/>
      <stop offset="1" stop-color="#7595b6"/>
    </linearGradient>
    <linearGradient id="linear-gradient-13" x1="-5887.04" y1="1264.36" x2="-5851.57" y2="1264.36" gradientTransform="translate(-5145.06 181.19) rotate(174.85) scale(1 -1)" gradientUnits="userSpaceOnUse">
      <stop offset="0" stop-color="#3b3138"/>
      <stop offset="1" stop-color="#241f21"/>
    </linearGradient>
    <linearGradient id="linear-gradient-14" x1="-6330.53" y1="1151.75" x2="-6314.96" y2="1119.54" gradientTransform="translate(-5583.68 204.22) rotate(176.02) scale(1 -1)" xlink:href="#linear-gradient-11"/>
    <linearGradient id="linear-gradient-15" x1="-6198.89" y1="1676.4" x2="-6161.21" y2="1676.4" gradientTransform="translate(-5459.78 590.75) rotate(167.68) scale(1 -1)" xlink:href="#linear-gradient-13"/>
    <linearGradient id="linear-gradient-16" x1="-6347.61" y1="1427.02" x2="-6331.72" y2="1394.13" gradientTransform="translate(-5556.35 421.38) rotate(171.65) scale(1 -1)" xlink:href="#linear-gradient-11"/>
    <linearGradient id="linear-gradient-17" x1="1264.82" y1="593.37" x2="1164.31" y2="366.8" gradientTransform="translate(-286.4 184.5) rotate(3.06)" xlink:href="#linear-gradient-13"/>
    <linearGradient id="linear-gradient-18" x1="1249.23" y1="600.29" x2="1148.72" y2="373.71" gradientTransform="translate(-286.4 184.5) rotate(3.06)" xlink:href="#linear-gradient-10"/>
    <linearGradient id="linear-gradient-19" x1="927.91" y1="1099.86" x2="827.4" y2="873.28" gradientTransform="translate(-113.57 -175.82) rotate(-3.98)" xlink:href="#linear-gradient-13"/>
    <linearGradient id="linear-gradient-20" x1="753.39" y1="595.84" x2="907.07" y2="240.75" gradientTransform="matrix(1,0,0,1,0,0)" xlink:href="#linear-gradient-12"/>
    <linearGradient id="linear-gradient-21" x1="775.32" y1="-1592.25" x2="779.28" y2="-1697.63" gradientTransform="translate(-599.34 1450.07) rotate(26.56)" xlink:href="#linear-gradient-11"/>
    <linearGradient id="linear-gradient-22" x1="-6753.15" y1="-51.53" x2="-6779.97" y2="-119.66" gradientTransform="translate(-5936.31 60.78) rotate(-177.16) scale(1 -1)" xlink:href="#linear-gradient-13"/>
    <linearGradient id="linear-gradient-23" x1="545.48" y1="119.31" x2="544.24" y2="218.69" gradientTransform="translate(290.42 183.38) rotate(-.66)" xlink:href="#linear-gradient-11"/>
    <linearGradient id="linear-gradient-24" x1="-6761.34" y1="-48.27" x2="-6788.19" y2="-116.47" gradientTransform="translate(-5936.31 60.78) rotate(-177.16) scale(1 -1)" xlink:href="#linear-gradient-13"/>
    <linearGradient id="linear-gradient-25" x1="-6787.62" y1="-89.36" x2="-6786.23" y2="-76.91" gradientTransform="translate(-5936.31 60.78) rotate(-177.16) scale(1 -1)" gradientUnits="userSpaceOnUse">
      <stop offset="0" stop-color="#ffc444"/>
      <stop offset="1" stop-color="#f36f56"/>
    </linearGradient>
    <linearGradient id="linear-gradient-26" x1="635.62" y1="544.88" x2="789.3" y2="189.78" gradientTransform="matrix(1,0,0,1,0,0)" xlink:href="#linear-gradient-12"/>
    <linearGradient id="linear-gradient-27" x1="781.63" y1="608.07" x2="935.32" y2="252.97" xlink:href="#linear-gradient-7"/>
    <linearGradient id="linear-gradient-28" x1="735.63" y1="522.14" x2="742.77" y2="543.92" gradientTransform="matrix(1,0,0,1,0,0)" xlink:href="#linear-gradient-11"/>
  </defs>
  <g class="cls-22">
    <g id="Layer_2" data-name="Layer 2">
      <g id="Illustration">
        <g>
          <path class="cls-23" d="M1794.26,789.66c-48.93-320.27-249.54-713.74-645.88-754.92,0,0-300.91-36.6-597.55,18.87C374.78,86.53,220.41,184.54,122.73,325.4,25.04,466.26-7.58,638.02,32.01,801.77c25.72,106.36,43.1,216.43,38.33,325.72-8.3,190.21-3.53,367.75,181.07,481.18,164.82,101.28,372.25,190.61,570.13,206.26,134.48,10.63,285.3-6.57,414.91-41.59,660.55-178.44,606.73-663.42,557.8-983.69Z"/>
          <g>
            <path class="cls-33" d="M1816.5,467.99h-89.34c-7.26,0-13.14,6.34-13.14,13.6s5.88,13.6,13.14,13.6h53.05l-378.42,349.51-238.32-218.34c-5.11-4.68-12.98-4.59-17.98.21l-456.28,438.4-198.12-186.99c-5.18-4.89-13.3-4.76-18.33.29L3.83,1349.46c-5.12,5.14-5.1,13.46.04,18.58,2.56,2.55,5.91,3.83,9.27,3.83s6.74-1.29,9.31-3.87l459.9-462.13,197.92,186.79c5.09,4.81,13.07,4.77,18.12-.08l456.41-438.53,238.15,218.17c5.03,4.61,12.5,4.6,17.51-.04l392.34-362.64v56.55c0,7.26,6.34,13.14,13.6,13.14s13.6-5.88,13.6-13.14v-84.08c0-7.26-6.25-14.02-13.5-14.02Z"/>
            <circle class="cls-4" cx="487.32" cy="894.14" r="50.73" transform="translate(-494.86 1162.99) rotate(-76.72)"/>
            <circle class="cls-18" cx="689.64" cy="1075.44" r="50.73" transform="translate(-515.47 1499.54) rotate(-76.72)"/>
            <circle class="cls-17" cx="1157.34" cy="647.15" r="50.73" transform="translate(-118.63 1007.91) rotate(-45)"/>
            <circle class="cls-19" cx="1404.51" cy="845.02" r="50.73" transform="translate(259.4 2017.81) rotate(-76.72)"/>
          </g>
          <g class="cls-35">
            <g>
              <path class="cls-30" d="M1402.54,1225.38c-35.03,29.42-67.13,41.5-94.84,45.23-118.75,15.98-172.91-118.7-296.9-96.25-137.95,24.98-170.52,207.8-287.76,205.49-75.32-1.48-89.07-76.74-174.59-97.97-36.88-9.15-75.91-5.53-115.88,7.44C139.71,1678.24-23.87,1845.93,47.57,1926.98c22.05,25.02,49.63,22.19,331.26,9.49,464.18-20.94,420.47-14.48,459.91-19.35,406.54-50.28,456-172.12,745.97-159.4,41.81,1.83,65.21,5.48,82.68-12.01,57.76-57.82-64.21-235.19-264.84-520.33Z"/>
              <path class="cls-8" d="M548.46,1281.89c85.52,21.23,99.27,96.49,174.59,97.97,117.24,2.31,149.81-180.51,287.76-205.49,123.99-22.45,178.15,112.22,296.9,96.25,27.71-3.73,59.81-15.81,94.84-45.23-90.78-129.02-198.27-280.96-313.26-454.67-15.8-23.86-52.38-79.33-111.07-87.57-110.12-15.46-218.43,146.16-269.86,221.76-100.28,147.41-193.02,274.54-275.78,384.43,39.96-12.97,79-16.6,115.88-7.44Z"/>
              <g class="cls-13">
                <path class="cls-10" d="M919.57,1608.21c4.47-111.87,76.49-155.6,68.89-294.6-2.6-47.59-13.44-86.8-28.52-121.12-97.54,53.35-135.59,189.36-236.9,187.37-75.32-1.48-89.07-76.74-174.59-97.97-36.88-9.15-75.91-5.53-115.88,7.44C139.71,1678.24-23.87,1845.93,47.57,1926.98c22.05,25.02,49.63,22.19,331.26,9.49,464.18-20.94,420.47-14.48,459.91-19.35,84.32-10.43,152.98-23.79,211.5-38.34-106.82-105.07-133.59-197.07-130.66-270.56Z"/>
              </g>
              <g class="cls-14">
                <path class="cls-9" d="M876.29,713.14c-70.9,48.01-132.76,140.06-167.93,191.76-100.28,147.41-193.02,274.54-275.78,384.43,39.96-12.97,79-16.6,115.88-7.44,85.52,21.23,99.27,96.49,174.59,97.97,101.31,1.99,139.35-134.01,236.9-187.37-48.6-110.56-141.85-170.8-146.09-292.96-1.67-48.04,10.33-110.65,62.45-186.38Z"/>
              </g>
            </g>
            <g>
              <path class="cls-27" d="M1103.99,109.71c74.26-31.31,145.07-22.87,180.43-9.56,41.8,15.73,55.66,27.53,92.66,33.47,32.89,5.28,67.03-29.03,92.66-4.78,1.73,1.63,3.85,3.66,6.24,7.17,18.36,26.99-3.33,59.6,2.67,116.56,3.07,29.14,10.5,37.23,17.37,93.25,2.61,21.3,2.07,24.44,1.34,26.9-11.23,37.8-100.34,30.65-163.05,14.35-86.46-22.48-114.3-60.19-171.07-43.04-26.19,7.91-46.09,23.74-58.81,35.86,5.79-89.66-6.24-180.52-.45-270.18Z"/>
              <path class="cls-6" d="M1104.93,951.29c-2.05,0-3.71-1.66-3.71-3.71V83.06c0-2.05,1.66-3.71,3.71-3.71s3.71,1.66,3.71,3.71v864.53c0,2.05-1.66,3.71-3.71,3.71Z"/>
            </g>
            <g>
              <path class="cls-28" d="M1091.66,403.93l6.25-8.72s-1.2-4.58.83-7.93l2.03-3.35s2.65-2.49,7.73-.74c1.15.39,2.41.26,3.41-.42,3-2.07,3.8,3.63,3.8,3.63,0,0,2.17,2.54.22,4.74,0,0-.25,3.25-2.67,4.91-2.42,1.67-8.91,4.41-8.91,4.41l-6.99,8.41-5.71-4.93Z"/>
              <path class="cls-7" d="M1090.66,394.73c-44.73,17.81-73.42,10.84-86.8,5.82-16.8-6.31-32.9-17.88-32.9-17.88-22.74-16.35-31.64-32.61-54.06-36.13-1.69-.27-6.69-.97-12.19-.48-32.33,2.86-68.33,45.65-63.7,74.11,8.02,49.34,145.38,100.15,220.8,45.23,24.28-17.68,36.44-42.16,42.64-58.79-4.6-3.96-9.19-7.91-13.79-11.87Z"/>
              <path class="cls-2" d="M798.68,907.18c-1.84,1.69-1.96,5.64-2.03,8.23-.03,1.15-.05,1.73.1,2.13,1.12,2.9,6.87,2.86,15.92,3.23,14.3.59,18.59,1.45,19.58-.74.92-2.05-1.8-5.14-2.1-5.48-1.64-1.83-3.56-2.42-7.26-3.39-6.84-1.8-11.44-2.73-12.84-3.01-8.7-1.76-10.16-2.09-11.37-.97Z"/>
              <path class="cls-24" d="M808.71,892.92l.56,16.27c-.45.76-5.39,2.85-9.1.63l-2.81-16.12,11.35-.79Z"/>
              <path class="cls-1" d="M919.12,904.93c-2.46,2.44-3.24,7.13-1.34,9.57,1.86,2.39,4.94.84,13.39,1.54,9.05.76,11.3,3.02,17.55,1.65,2.53-.55,7.01-1.99,7.02-3.77,0-1.25-2.19-2.02-9.53-4.92-10.42-4.12-10.36-4.31-12.59-4.81-5.61-1.24-11.24-2.48-14.49.74Z"/>
              <path class="cls-32" d="M925.71,890.45l3.74,15.37c-.39.79-5.15,3.25-9.03,1.33l-5.97-15.04,11.26-1.65Z"/>
              <path class="cls-26" d="M903.01,557.09c-2.06,50.86-1.65,108.19,3.36,170.72,4.95,61.8,13.51,117.86,23.48,167.28-5.88,1.25-11.77,2.5-17.65,3.75-13.98-14.51-31.39-37.1-38.72-68.1-4.55-19.24-2.17-28.88-4.46-52.37-3.63-37.4-13.97-57.45-24.13-88-9.13-27.45-19.51-67.57-23.39-120.67,27.17-4.2,54.33-8.41,81.5-12.61Z"/>
              <path class="cls-11" d="M894.88,794.77c-6.48-25.66-18.96-32.44-19.4-56.66-.31-17.13,5.84-18.53,5.43-34.93-.62-24.87-15.19-37.91-22.51-53.56-7.73-16.52-10.69-43.06,10.14-87.21-15.68,2.43-31.36,4.85-47.03,7.28,3.88,53.1,14.26,93.22,23.39,120.67,10.16,30.55,20.49,50.59,24.13,88,2.28,23.49-.09,33.13,4.46,52.37,7.33,31,24.74,53.59,38.72,68.1,1.5-.32,2.99-.64,4.49-.95-15.12-18.04-20.45-34.16-21.81-47.23-2.21-21.27,6.53-30.02,0-55.88Z"/>
              <path class="cls-29" d="M844.2,553.91c-7,64.45-13.44,130.14-19.23,197.02-4.35,50.19-8.22,99.77-11.64,148.72-5.96.41-11.93.83-17.89,1.24-5.16-10.96-11.89-27.67-15.98-48.83-4.97-25.71-2.7-40.69-4.07-67.13-1.54-29.66-5.72-36.32-11.74-73.95-12.23-76.36-18.34-114.55,1.05-137.06,6.29-7.31,25.77-25.45,79.51-20.02Z"/>
              <path class="cls-25" d="M689.74,353.5c32.22-10.92,81.37-23.03,141.49-20.55,34.83,1.43,64.77,7.41,88.49,14.06,3.21,17.94,6.42,35.88,9.62,53.82.74,17.99.98,42.35-1.05,71.14-2.02,28.79-4,29.22-8.63,69.86-7.55,66.25-4.39,83.56-17.71,91.52-8.66,5.18-11.79-1.07-55.99-5.45-29.63-2.94-44.76-4.3-59.77.78-20.44,6.91-27.27,18.52-35.7,14.75-8.08-3.62-9.11-17.58-10.09-41.91-1.51-37.54-1.41-63.05-1.55-72.18-.64-41.9-11.25-73.9-24.84-114.87-8.5-25.63-17.45-46.37-24.29-60.95Z"/>
              <g>
                <path class="cls-31" d="M827.25,291.44c-.47,10.54-2.09,18.82-3.51,24.48-1.62,6.49-2.63,8.13-3.87,9.44-1.87,1.97-4.64,3.57-19.93,6.5-8.32,1.6-9.37,1.49-9.6,2.29-1.1,3.93,20.57,18.67,43.88,16.64,14.27-1.24,27.58-8.63,27.01-12.92-.57-4.31-14.83-2.78-18.64-10.72-2.65-5.53,1.05-12.98,5.27-19.09-3.39-7.25-17.23-9.38-20.62-16.63Z"/>
                <g>
                  <path class="cls-20" d="M853.31,297c3.58-4.26,4.2-12,.61-17.1-3.09-4.39-8.27-5.27-11.37-5.8-8.99-1.53-20.6,1.64-25.02,9.75-2.62,4.81,1.93,15.33,2.62,17.22.79,2.13,2.39,2.93,3.82,4.59,1.98,2.3,5.08,5.95,10.13,12.04.51-1.69,1.25-3.78,2.38-6.03.43-.87,2.17-4.24,4.68-6.98,5.02-5.5,8.76-3.65,12.15-7.69Z"/>
                  <path class="cls-34" d="M826.71,312.41s5.43,10.07,17.31,9.93c10.64-.12,13.46-23.81,6.96-29.22-2.17-1.8-6.66-2.74-10.39-1.91-2.21.49-2.99,1.36-6.61,2.09-3.34.68-4.25.26-5.29,1.05-1.3.98-2.35,3.5-.64,10.56-1.91-2.16-4.3-3.07-6.06-2.35-.28.12-1.04.57-1.49,1.3-1.63,2.64.67,6.24,6.21,8.55Z"/>
                  <path class="cls-21" d="M828.29,292.91c.49.41-1.17,2.23-1.43,4.93-.51,5.23,4.46,11.8,9.84,12.62,3.18.49,4.16-1.4,9.48-1.67,3.29-.17,6,.39,7.69.86,1.35,5.84-.51,11.48-4.5,13.93-4.29,2.64-9.48.62-11.65-.22-1.45-.56-6.1-2.36-8.35-6.84-2.34-4.66.34-7.25-2.46-10.47-1.41-1.62-3.33-2.4-5.08-5.49-.47-.84-.78-1.58-.97-2.07,2.89-2.75,6.7-6.17,7.42-5.58Z"/>
                  <path class="cls-5" d="M849.91,311.57s-2.35,1.07-6.3.64c-.19-.02-.41.02-.44.12-.11.37,2.34,2.19,4.71,1.66,1.69-.38,3.06-1.88,2.86-2.29-.09-.17-.46-.17-.84-.13Z"/>
                </g>
              </g>
              <path class="cls-15" d="M722.69,525.62c.75,8.75-1.16,14.69-4.34,18.77-14.1,18.06-62,10.68-90.48-13.52-21.08-17.91-32.24-45.72-31.82-70.63.8-48.62,45.86-96.26,112.88-112.72,9.92,29.66,19.84,59.31,29.76,88.97-41.32.63-66.42,31.78-62.7,54.02,2.77,16.57,22.09,31.47,46.69,35.11Z"/>
              <path class="cls-12" d="M884.79,611.59c-21.74-9.28-21.61-28.47-41.91-36.48-28.97-11.43-60.98,15.13-65.97,7.76-5.2-7.66,33.03-31.16,27.94-54.33-4.04-18.42-30.73-15.15-45.02-40.36-13.56-23.91-.41-46.02-12.42-54.33-4.31-2.98-11.9-4.16-26.3,2.18,10.04,31.36,17.24,59.01,17.76,93.29.14,9.13.05,34.65,1.55,72.18.98,24.33,2.01,38.29,10.09,41.91,8.43,3.78,15.27-7.83,35.7-14.75,15.01-5.08,30.13-3.71,59.77-.78,44.19,4.38,47.33,10.63,55.99,5.45,5.64-3.37,8.32-8.44,10.12-18.18-8.86.96-18.26.28-27.3-3.58Z"/>
              <path class="cls-3" d="M719.47,529.35l10.67-.6s11.69-9.78,17-9.17c5.32.61,13.27,4.3,14.24,5.07.97.77-2.91,5.11-6.79,4.69-3.88-.42-12.54,1.67-14.09,5.09-1.55,3.42-8.27,5.48-9.41,3.48l-14.34,2.85,2.72-11.41Z"/>
            </g>
          </g>
        </g>
      </g>
    </g>
  </g>
</svg>