<?xml version="1.0" encoding="UTF-8"?>
<svg id="Layer_2" data-name="Layer 2" xmlns="http://www.w3.org/2000/svg" viewBox="0 0 652 565.3">
  <defs>
    <style>
      .cls-1 {
        fill: #616e7d;
      }

      .cls-2 {
        fill: #aad4c8;
      }
    </style>
  </defs>
  <g id="Object">
    <g>
      <path class="cls-2" d="M650.4,150.36l-1.2-1.8-40.69-42.4c-2.4-3.59-.82-8.84,3.57-10.16,6.17-1.88,12.04-5.19,17.08-9.98,16.96-16.18,17.72-42.81,1.52-58.97-15.44-16.93-42.05-17.36-58.99-1.12-5.01,4.8-8.58,10.52-10.72,16.61-1.53,4.32-6.84,5.66-10.31,3.11L510.12,3.08l-1.76-1.27c-2.55-2.45-6.65-2.43-9.3.13l-47.03,45.11c-2.92.19-5.79-1.43-6.68-4.54-4-13.82-15.49-25.75-34.99-29.52-2-.39-4.12-.41-6.14-.05-39.92,7.02-50.2,48.53-28.75,71.05,4.54,4.77,10.01,8.14,15.87,10.12,3.16,1.07,4.57,4.29,4,7.31l-47.3,45.38c-2.75,2.63-2.89,6.89-.34,9.52l42.77,44.59.76.59.26.27c3.63,3.8,9.97,1.79,11.3-3.43,3.92-15.07,16.38-28.52,37.17-32.61,3.89-.28,7.8-.03,11.61.77,8.75,2.39,15.7,6.57,20.87,11.84,5.02,5.41,8.9,12.54,10.87,21.4.65,3.82.74,7.73.28,11.63-5.04,20.59-19.04,32.43-34.27,35.65-5.26,1.12-7.56,7.36-3.92,11.14l.26.27.56.8,42.61,44.72c2.53,2.66,6.8,2.7,9.53.09l47.45-45.24c3.05-.43,6.2,1.14,7.13,4.34,1.73,5.97,4.85,11.57,9.41,16.32,21.53,22.45,63.43,14.04,72.25-25.52.44-2.02.53-4.14.21-6.14-2.89-19.65-14.3-31.68-27.91-36.29-3.06-1.04-4.59-3.98-4.23-6.88l47.16-44.95c2.66-2.53,2.86-6.62.55-9.3Z"/>
      <path class="cls-1" d="M434.31,564.89h.36l.98.14,61.76.27c3.68.02,6.65-3.05,6.67-6.82l.27-65.56c1.8-2.48,5.1-3.68,8.06-2.12,5.49,2.87,11.7,4.52,18.28,4.52,31.1.04,54.07-36,31.65-69.79-1.13-1.7-2.62-3.24-4.27-4.41-16.18-11.52-32.73-11.63-45.49-5-2.88,1.48-6.04.52-7.89-1.73l.26-65.15c.03-3.66-2.79-6.66-6.32-6.82l-2.14-.41-58.76-.04c-4.24-.75-6.94-5.52-4.84-9.61,2.91-5.75,4.59-12.28,4.62-19.22.1-23.45-18.57-42.45-41.46-41.97-22.91-.61-41.66,18.3-41.69,41.76.02,6.94,1.63,13.48,4.56,19.25,2.06,4.09-.67,8.86-4.92,9.59l-58.78-.27-2.12.39c-2.52.11-4.64,1.7-5.69,3.93.36,1.02.58,2.13.58,3.27l-.11,67.27-3.68-.73c-1.67.73-3.58.86-5.41-.11l-1.14-.5c-1.98.02-4.02.16-6.13.46l-.54.07-.54-.09c-2.32-.43-4.39-.8-6.39-.8-18.85.04-34.46,14.59-36.82,33.5-.21,1.63-.35,3.27-.35,4.97,0,6.79,1.82,14.04,5.74,21.38.84,1.59,1.69,3.2,2.74,4.8.91,1.36,2.1,2.59,3.43,3.52,8.66,6.13,17.15,8.59,25.06,8.61,2.12-.02,4.19-.19,6.22-.52l.54-.11.54.09c1.72.28,3.06.55,4.3.7,1.04-.43,2.1-.86,3.11-1.4,2.14-1.11,4.45-.75,6.23.45l2.94-.59-.11,68.29c0,.87-.15,1.73-.35,2.56,1.08,2.27,3.29,3.87,5.91,3.87l61.78.04.95-.13h.37c5.26.02,8.19-5.95,5.35-10.54-8.15-13.25-9.2-31.54,2.26-49.38,2.49-3.02,5.38-5.64,8.59-7.84,7.79-4.66,15.62-6.77,23.01-6.85,7.38.12,15.19,2.28,22.95,6.96,3.19,2.21,6.08,4.85,8.56,7.89,11.37,17.89,10.2,36.18,1.98,49.4-2.83,4.57.06,10.55,5.32,10.55Z"/>
      <path class="cls-1" d="M215.68,333.42l-.14.36-.06.13-.35,1.41c-.02,1.48,1.19,2.98,2.68,3.3l58.34-.1c.84,0,1.54.23,2.27.41v-.02c2.05.09,3.92.8,5.46,1.96l.37-1.84.27-65.56c1.81-2.48,5.1-3.66,8.06-2.13,5.48,2.87,11.69,4.52,18.28,4.52,31.12.04,54.08-36,31.66-69.79-1.14-1.7-2.61-3.23-4.27-4.41-16.17-11.52-32.74-11.63-45.51-5-2.86,1.48-6.05.52-7.88-1.73l.28-65.15c0-3.66-2.81-6.66-6.34-6.82l-2.14-.41-58.76-.04c-4.25-.75-6.95-5.52-4.86-9.61,2.93-5.75,4.6-12.29,4.64-19.22.11-23.46-18.57-42.45-41.47-41.97-22.89-.6-41.65,18.31-41.68,41.76,0,6.95,1.64,13.49,4.56,19.25,2.06,4.09-.66,8.86-4.91,9.57l-58.79-.25-2.13.39c-3.54.15-6.36,3.13-6.36,6.81l-.06,65.15c-1.87,2.23-5.04,3.2-7.89,1.68-12.73-6.68-29.31-6.66-45.53,4.79-1.66,1.16-3.14,2.7-4.3,4.39-22.6,33.66.2,69.81,31.31,69.93,6.59.04,12.81-1.57,18.29-4.43,2.98-1.53,6.28-.32,8.05,2.18l-.05,65.56c0,.82.19,1.59.45,2.32,1.53-1.13,3.39-1.82,5.43-1.91v.02c.72-.18,1.44-.41,2.27-.41l58.34.1c1.48-.32,2.69-1.82,2.66-3.28l-.34-1.43-.07-.16-.08-.16-.08-.2c-2.97-6.02-4.69-12.81-4.74-20h0v-.34c0-4.55.86-8.78,1.99-12.75,5.36-18.59,21.97-32.38,41.98-32.38l1.06.02.89-.02c19.99,0,36.61,13.79,41.97,32.38,1.13,3.97,1.98,8.2,1.98,12.77v.09c0,7.3-1.75,14.18-4.75,20.27Z"/>
      <path class="cls-1" d="M235.94,418.41c7.68-6.86,17.7-11.06,28.7-11.09l.02,3.29v-3.29c2.67,0,5.01.46,7.18.84,2.22-.29,4.43-.48,6.64-.5,1.09,0,2.18.05,3.28.16l.08-59.33c0-1.88-1.33-3.23-2.9-3.41l-.22-.06-.51-.02-.49-.18-.99-.2-59.06.1-.29-.05c-4.62-.84-7.8-4.64-8.23-9.09l-.16-.89c0-1.4.33-2.82.99-4.2h-.03l.13-.34.08-.11c2.62-5.29,4.13-11.2,4.13-17.52v-.09c0-3.71-.69-7.3-1.72-10.89-4.62-15.93-18.72-27.52-35.51-27.52l-.86.02h-.19l-.89-.02c-7.9,0-15.15,2.63-21.15,7-6.76,4.93-11.92,12.07-14.35,20.52-.6,2.04-1.02,4.09-1.32,6.16-.23,1.55-.42,3.11-.42,4.7v.13c0,6.32,1.52,12.23,4.16,17.5l.08.15.06.16.08.2-.03.02c.62,1.34.96,2.77.96,4.16l-.15.8c-.4,4.48-3.6,8.32-8.23,9.16l-.28.05-59.06-.1-.48.09-.52.11-.48.18-.52.02c-1.66.07-3.12,1.5-3.13,3.45l.11,66.36-.77.95c-1.85,2.21-4.57,3.63-7.58,3.63-1.5,0-3.06-.36-4.47-1.11-5.03-2.61-10.66-4.09-16.68-4.09-7.95,0-16.6,2.57-25.32,8.77-1.32.93-2.54,2.16-3.43,3.52-5.97,8.95-8.48,17.89-8.48,26.17,0,21.29,16.7,38.43,37.13,38.46h.07c6,0,11.67-1.46,16.69-4.09,1.37-.71,2.87-1.07,4.33-1.07,3.3,0,6.21,1.71,8.02,4.23l.64.89.1,66.63c0,1.98,1.54,3.46,3.27,3.46l61.53-.1.98-.15h.61c.99-.02,1.62-.36,2.18-.93.54-.61.88-1.48.88-2.41l-.58-2.05c-4.31-6.97-6.82-15.25-6.82-24.11,0-9.3,2.77-19.24,8.94-28.88l.12-.18.12-.14c2.69-3.27,5.83-6.13,9.3-8.5l.08-.05.07-.05c8.25-4.96,16.68-7.27,24.67-7.41h.1c7.99.14,16.41,2.45,24.66,7.41l.08.04.09.07c3.47,2.38,6.6,5.23,9.29,8.5l.13.16.11.16c6.16,9.65,8.94,19.58,8.93,28.9,0,8.84-2.48,17.13-6.81,24.11l-.59,2.03c0,.93.35,1.8.89,2.41.55.57,1.2.91,2.18.93h.59l.23.04.74.11,61.55.1c1.73,0,3.27-1.48,3.28-3.46l.11-60.17c-1.39.18-2.82.31-4.32.31h-.02c-2.54-.02-4.55-.58-6.23-.86-2.16.32-4.33.55-6.58.55-9,0-18.57-2.86-27.92-9.2l-1.06-.64c-1.98-1.43-3.73-3.21-5.12-5.29-3.52-5.27-5.95-10.64-7.52-15.97-.48-1.66-.84-3.32-1.15-4.96-.58-3.04-.94-6.04-.94-8.99,0-13.61,5.87-25.81,15.19-34.11Z"/>
    </g>
  </g>
</svg>