<?xml version="1.0" encoding="utf-8"?>
<!-- Generator: Adobe Illustrator 19.0.0, SVG Export Plug-In . SVG Version: 6.00 Build 0)  -->
<svg version="1.1" id="Layer_1" xmlns="http://www.w3.org/2000/svg" xmlns:xlink="http://www.w3.org/1999/xlink" x="0px" y="0px"
	 viewBox="0 0 1141 787" style="enable-background:new 0 0 1141 787;" xml:space="preserve">
<style type="text/css">
	.st0{fill:#2A88C4;}
	.st1{fill:#8F9E3A;}
	.st2{fill:none;}
	.st3{fill:#354A3F;}
	.st4{fill:#FFFFFF;}
	.st5{fill:#D9A728;}
	.st6{fill:#BF902D;}
	.st7{fill:#FCD900;}
	.st8{fill:#D5B72B;}
	.st9{fill:#FBCA47;}
	.st10{fill:#DEB351;}
	.st11{fill:#A7DEEC;}
	.st12{fill:#A6DEED;}
	.st13{fill:#D3EAF8;}
	.st14{fill:#0C3859;}
	.st15{fill:#E76869;}
	.st16{fill:#2C5871;}
	.st17{fill:#467184;}
	.st18{fill:#16B0BF;}
	.st19{fill:#15A3AA;}
	.st20{fill:#3B3C3D;}
	.st21{fill:#C2DFDA;}
	.st22{fill:#EE9C37;}
	.st23{fill:#16201F;}
	.st24{fill:#BBBDBC;}
	.st25{fill:#96939F;}
	.st26{fill:#161C2A;}
	.st27{fill:#F1E4ED;}
	.st28{fill:#E7A23F;}
	.st29{fill:#534A4F;}
	.st30{fill:#D66166;}
	.st31{fill:#DC843A;}
	.st32{fill:#EC7526;}
	.st33{fill:#C35C28;}
	.st34{fill:#F9A04B;}
</style>
<circle id="XMLID_708_" class="st0" cx="582.2" cy="385.2" r="288.1"/>
<g id="XMLID_17_">
	<g id="XMLID_1780_">
		<g id="XMLID_1794_">
			
				<rect id="XMLID_707_" x="683.8" y="491.7" transform="matrix(0.6473 0.7622 -0.7622 0.6473 677.3844 -398.8862)" class="st1" width="172" height="81.8"/>
			<g id="XMLID_1804_">
				<path id="XMLID_706_" class="st2" d="M830.8,581.3c-5.8-6.9-5-17.2,1.9-23.1c0.2-0.1,0.3-0.3,0.5-0.4l-78-91.8
					c-0.1,0.1-0.3,0.3-0.4,0.4c-6.9,5.8-17.2,5-23.1-1.9c-0.1-0.1-0.1-0.2-0.2-0.3l-23.2,19.7c0.1,0.1,0.2,0.2,0.3,0.3
					c5.8,6.9,5,17.2-1.9,23c-0.1,0.1-0.2,0.1-0.3,0.2l78,91.8c0.1-0.1,0.1-0.1,0.2-0.2c6.9-5.8,17.2-5,23.1,1.9
					c0,0.1,0.1,0.1,0.1,0.2l23.1-19.7C830.9,581.4,830.8,581.3,830.8,581.3z"/>
				<path id="XMLID_1805_" class="st3" d="M838.3,555.1l-79.6-93.7l-13.7-16.1l-16.4,13.9l-24.9,21.2l-16.2,13.7l13.8,16.2
					l79.4,93.5l13.7,16.1l16.2-13.8l24.8-21.1l16.5-14L838.3,555.1z M807.8,601.1c0-0.1-0.1-0.1-0.1-0.2c-5.8-6.9-16.2-7.7-23.1-1.9
					c-0.1,0.1-0.1,0.1-0.2,0.2l-78-91.8c0.1-0.1,0.2-0.1,0.3-0.2c6.9-5.8,7.7-16.2,1.9-23c-0.1-0.1-0.2-0.2-0.3-0.3l23.2-19.7
					c0.1,0.1,0.1,0.2,0.2,0.3c5.8,6.9,16.2,7.7,23.1,1.9c0.2-0.1,0.3-0.3,0.4-0.4l78,91.8c-0.2,0.1-0.3,0.3-0.5,0.4
					c-6.9,5.8-7.7,16.2-1.9,23.1c0,0.1,0.1,0.1,0.1,0.2L807.8,601.1z"/>
			</g>
			<g id="XMLID_1795_">
				<circle id="XMLID_703_" class="st3" cx="769.7" cy="532.6" r="26.5"/>
				<g id="XMLID_1796_">
					<g id="XMLID_780_">
						<path id="XMLID_785_" class="st4" d="M752.1,544l3.7-3.1c-2.1-2.7-3.5-5.8-3.9-8l5.5-2.7c0.5,2.4,1.6,5.4,3.8,7.9
							c1.9,2.2,4,3,5.6,1.7c1.5-1.3,1.4-3.3-0.1-7c-2.1-5.3-2.6-9.8,1.2-13c3.4-2.9,8.1-2.8,12.5,0.7l3.7-3.1l3.2,3.8l-3.4,2.9
							c2.1,2.7,3,4.9,3.5,6.7l-5.3,2.6c-0.4-1.4-1.1-3.9-3.4-6.7c-2.1-2.5-3.9-2.4-5-1.5c-1.3,1.1-0.9,3.1,0.6,7.5
							c2.3,6,1.7,9.7-1.8,12.7c-3.5,2.9-8.5,3-13.1-0.8l-4,3.4L752.1,544z"/>
					</g>
				</g>
			</g>
		</g>
		<g id="XMLID_1781_">
			<g id="XMLID_1791_">
				<path id="XMLID_1792_" class="st4" d="M745.9,456L745.9,456l-2.9-1.6l1.4-2l4,2.2l2,2.4l-10.1,8.6l-2.3-2.8L745.9,456z"/>
			</g>
			<g id="XMLID_1788_">
				<path id="XMLID_1789_" class="st4" d="M704.5,491.1L704.5,491.1l-2.9-1.6l1.4-2l4,2.2l2,2.4l-10.1,8.6l-2.3-2.8L704.5,491.1z"/>
			</g>
			<g id="XMLID_1785_">
				<path id="XMLID_1786_" class="st4" d="M841.2,568.2L841.2,568.2l-2.9-1.6l1.4-2l4,2.2l2,2.4l-10.1,8.6l-2.3-2.8L841.2,568.2z"/>
			</g>
			<g id="XMLID_1782_">
				<path id="XMLID_1783_" class="st4" d="M799.8,603.3L799.8,603.3l-2.9-1.6l1.4-2l4,2.2l2,2.4l-10.1,8.6l-2.3-2.8L799.8,603.3z"/>
			</g>
		</g>
	</g>
	<g id="XMLID_1750_">
		<g id="XMLID_1764_">
			
				<rect id="XMLID_697_" x="697.3" y="455.4" transform="matrix(0.9418 0.3361 -0.3361 0.9418 212.3232 -234.3662)" class="st1" width="172" height="81.8"/>
			<g id="XMLID_1774_">
				<path id="XMLID_696_" class="st2" d="M860.5,507.9c-8.5-3-12.9-12.4-9.9-20.9c0.1-0.2,0.2-0.4,0.2-0.6l-113.5-40.5
					c-0.1,0.2-0.1,0.4-0.2,0.6c-3,8.5-12.4,12.9-20.9,9.9c-0.1,0-0.2-0.1-0.3-0.1l-10.2,28.6c0.1,0,0.2,0.1,0.4,0.1
					c8.5,3,12.9,12.4,9.9,20.9c0,0.1-0.1,0.2-0.1,0.3l113.4,40.5c0-0.1,0.1-0.2,0.1-0.3c3-8.5,12.4-12.9,20.9-9.9
					c0.1,0,0.1,0.1,0.2,0.1l10.2-28.6C860.6,507.9,860.6,507.9,860.5,507.9z"/>
				<path id="XMLID_1775_" class="st3" d="M853.9,481.4l-115.8-41.3l-19.9-7.1l-7.2,20.2L700,484l-7.1,20l20,7.1l115.6,41.2
					l19.9,7.1l7.1-20l11-30.7l7.3-20.3L853.9,481.4z M850.5,536.5c-0.1,0-0.1-0.1-0.2-0.1c-8.5-3-17.9,1.4-20.9,9.9
					c0,0.1-0.1,0.2-0.1,0.3l-113.4-40.5c0-0.1,0.1-0.2,0.1-0.3c3-8.5-1.4-17.9-9.9-20.9c-0.1,0-0.2-0.1-0.4-0.1l10.2-28.6
					c0.1,0,0.2,0.1,0.3,0.1c8.5,3,17.9-1.4,20.9-9.9c0.1-0.2,0.1-0.4,0.2-0.6l113.5,40.5c-0.1,0.2-0.2,0.4-0.2,0.6
					c-3,8.5,1.4,17.9,9.9,20.9c0.1,0,0.1,0,0.2,0.1L850.5,536.5z"/>
			</g>
			<g id="XMLID_1765_">
				<circle id="XMLID_693_" class="st3" cx="783.3" cy="496.2" r="26.5"/>
				<g id="XMLID_1766_">
					<g id="XMLID_769_">
						<path id="XMLID_774_" class="st4" d="M773.7,514.9l1.6-4.6c-3.2-1.3-6-3.3-7.4-5l3.4-5.1c1.6,1.8,4.1,3.8,7.2,5
							c2.7,1,5,0.6,5.7-1.3c0.7-1.8-0.5-3.5-3.6-6c-4.5-3.6-7.2-7.2-5.5-11.9c1.5-4.2,5.7-6.5,11.2-5.7l1.6-4.6l4.7,1.7l-1.5,4.2
							c3.2,1.3,5.1,2.7,6.4,4.1l-3.3,4.9c-1.1-1-2.9-2.9-6.3-4.1c-3.1-1.1-4.6-0.1-5.1,1.2c-0.6,1.6,0.8,3.2,4.3,6.2
							c5,4.1,6.4,7.5,4.8,11.8c-1.5,4.3-5.9,6.8-11.7,5.8l-1.7,4.9L773.7,514.9z"/>
					</g>
				</g>
			</g>
		</g>
		<g id="XMLID_1751_">
			<g id="XMLID_1761_">
				<path id="XMLID_1762_" class="st4" d="M724.3,441.9L724.3,441.9l-3.3,0.1l0.2-2.4l4.5-0.1l2.9,1l-4.5,12.5l-3.4-1.2L724.3,441.9
					z"/>
			</g>
			<g id="XMLID_1758_">
				<path id="XMLID_1759_" class="st4" d="M706,493L706,493l-3.3,0.1l0.2-2.4l4.5-0.1l2.9,1l-4.4,12.5l-3.4-1.2L706,493z"/>
			</g>
			<g id="XMLID_1755_">
				<path id="XMLID_1756_" class="st4" d="M862.9,491.3L862.9,491.3l-3.3,0.1l0.2-2.4l4.5-0.1l2.9,1l-4.5,12.5l-3.4-1.2L862.9,491.3
					z"/>
			</g>
			<g id="XMLID_1752_">
				<path id="XMLID_1753_" class="st4" d="M844.7,542.5L844.7,542.5l-3.3,0.1l0.2-2.4l4.5-0.1l2.9,1l-4.4,12.5l-3.4-1.2L844.7,542.5
					z"/>
			</g>
		</g>
	</g>
	<g id="XMLID_1720_">
		<g id="XMLID_1734_">
			
				<rect id="XMLID_687_" x="683.6" y="420.2" transform="matrix(0.9972 -7.467069e-002 7.467069e-002 0.9972 -32.2808 58.7553)" class="st1" width="172" height="81.8"/>
			<g id="XMLID_1744_">
				<path id="XMLID_686_" class="st2" d="M844.9,440.4c-9,0.7-16.9-6.1-17.5-15.1c0-0.2,0-0.4,0-0.6l-120.1,9c0,0.2,0.1,0.4,0.1,0.6
					c0.7,9-6.1,16.9-15.1,17.5c-0.1,0-0.2,0-0.4,0l2.3,30.3c0.1,0,0.2,0,0.4,0c9-0.7,16.9,6.1,17.5,15.1c0,0.1,0,0.2,0,0.3l120.1-9
					c0-0.1,0-0.2,0-0.3c-0.7-9,6.1-16.9,15.1-17.5c0.1,0,0.1,0,0.2,0l-2.3-30.3C845.1,440.4,845,440.4,844.9,440.4z"/>
				<path id="XMLID_1745_" class="st3" d="M828.2,418.9l-122.6,9.2l-21.1,1.6l1.6,21.4l2.4,32.6l1.6,21.2l21.2-1.6l122.4-9.2
					l21.1-1.6l-1.6-21.2l-2.4-32.5l-1.6-21.5L828.2,418.9z M847.4,470.7c-0.1,0-0.1,0-0.2,0c-9,0.7-15.8,8.5-15.1,17.5
					c0,0.1,0,0.2,0,0.3l-120.1,9c0-0.1,0-0.2,0-0.3c-0.7-9-8.5-15.8-17.5-15.1c-0.1,0-0.2,0-0.4,0l-2.3-30.3c0.1,0,0.2,0,0.4,0
					c9-0.7,15.8-8.5,15.1-17.5c0-0.2-0.1-0.4-0.1-0.6l120.1-9c0,0.2,0,0.4,0,0.6c0.7,9,8.5,15.8,17.5,15.1c0.1,0,0.1,0,0.2,0
					L847.4,470.7z"/>
			</g>
			<g id="XMLID_1735_">
				<circle id="XMLID_683_" class="st3" cx="769.6" cy="461.1" r="26.5"/>
				<g id="XMLID_1736_">
					<g id="XMLID_759_">
						<path id="XMLID_761_" class="st4" d="M768.5,482l-0.4-4.8c-3.4,0.1-6.8-0.6-8.8-1.5l1.1-6.1c2.2,1,5.3,1.9,8.6,1.6
							c2.9-0.2,4.8-1.5,4.6-3.5c-0.1-1.9-1.9-3-5.7-4c-5.6-1.4-9.5-3.7-9.8-8.6c-0.3-4.5,2.6-8.2,7.9-9.7l-0.4-4.8l5-0.4l0.3,4.5
							c3.4-0.1,5.8,0.4,7.5,1.1l-1,5.9c-1.4-0.5-3.8-1.5-7.5-1.2c-3.3,0.2-4.3,1.8-4.2,3.2c0.1,1.7,2,2.6,6.4,3.9
							c6.2,1.7,8.9,4.3,9.2,8.9c0.3,4.5-2.6,8.6-8.3,10.1l0.4,5.2L768.5,482z"/>
					</g>
				</g>
			</g>
		</g>
		<g id="XMLID_1721_">
			<g id="XMLID_1731_">
				<path id="XMLID_1732_" class="st4" d="M693.7,435.3L693.7,435.3l-3,1.4l-0.8-2.3l4.1-1.9l3.1-0.2l1,13.2l-3.6,0.3L693.7,435.3z"
					/>
			</g>
			<g id="XMLID_1728_">
				<path id="XMLID_1729_" class="st4" d="M697.7,489.5L697.7,489.5l-3,1.4l-0.8-2.3l4.1-1.9l3.1-0.2l1,13.2l-3.6,0.3L697.7,489.5z"
					/>
			</g>
			<g id="XMLID_1725_">
				<path id="XMLID_1726_" class="st4" d="M840.5,424.3L840.5,424.3l-3,1.4l-0.8-2.3l4.1-1.9l3.1-0.2l1,13.2l-3.6,0.3L840.5,424.3z"
					/>
			</g>
			<g id="XMLID_1722_">
				<path id="XMLID_1723_" class="st4" d="M844.5,478.5L844.5,478.5l-3,1.4l-0.8-2.3l4.1-1.9l3.1-0.2l1,13.2l-3.6,0.3L844.5,478.5z"
					/>
			</g>
		</g>
	</g>
	<g id="XMLID_1480_">
		<polygon id="XMLID_677_" class="st5" points="504.2,521.1 504.2,454.6 385.9,454.4 386,522.4 		"/>
		<g id="XMLID_1667_">
			<path id="XMLID_676_" class="st6" d="M445.1,483.5c-32.7,0-59.1,12.1-59.1,27c0,14.9,26.5,26.9,59.1,27c32.7,0,59.1-12.1,59.1-27
				C504.2,495.6,477.8,483.5,445.1,483.5z"/>
			<path id="XMLID_675_" class="st7" d="M445.1,488c-27.2,0-49.3,9-49.3,20.1c0,11.1,22,20,49.3,20.1c27.2,0,49.3-9,49.3-20.1
				C494.4,497,472.3,488,445.1,488z"/>
			<path id="XMLID_1668_" class="st8" d="M445.1,528.5l0-0.4v-0.4h0c0.8,0,1.5,0,2.3,0l0,0.8C446.7,528.5,445.9,528.5,445.1,528.5z
				 M442.7,528.5c-0.8,0-1.6,0-2.4-0.1l0-0.8c0.8,0,1.6,0.1,2.4,0.1L442.7,528.5z M449.8,528.4l0-0.8c0.8,0,1.6-0.1,2.4-0.1l0,0.8
				C451.4,528.4,450.6,528.4,449.8,528.4z M437.9,528.3c-0.8-0.1-1.6-0.1-2.4-0.2l0.1-0.8c0.8,0.1,1.6,0.1,2.4,0.2L437.9,528.3z
				 M454.6,528.1l-0.1-0.8c0.8-0.1,1.6-0.1,2.4-0.2l0.1,0.8C456.1,528,455.4,528.1,454.6,528.1z M433.2,527.9
				c-0.8-0.1-1.6-0.2-2.4-0.3l0.1-0.8c0.8,0.1,1.6,0.2,2.3,0.3L433.2,527.9z M459.3,527.7l-0.1-0.8c0.8-0.1,1.6-0.2,2.3-0.3l0.1,0.8
				C460.9,527.5,460.1,527.6,459.3,527.7z M428.5,527.3c-0.8-0.1-1.6-0.2-2.3-0.4l0.1-0.8c0.8,0.1,1.5,0.3,2.3,0.4L428.5,527.3z
				 M464,527l-0.1-0.8c0.8-0.1,1.6-0.3,2.3-0.4l0.2,0.8C465.6,526.7,464.8,526.8,464,527z M423.8,526.5c-0.8-0.1-1.6-0.3-2.3-0.5
				l0.2-0.8c0.8,0.2,1.5,0.3,2.3,0.5L423.8,526.5z M468.7,526.1l-0.2-0.8c0.8-0.2,1.5-0.4,2.3-0.5l0.2,0.8
				C470.2,525.7,469.5,525.9,468.7,526.1z M419.1,525.5c-0.8-0.2-1.6-0.4-2.3-0.6l0.2-0.8c0.7,0.2,1.5,0.4,2.3,0.6L419.1,525.5z
				 M473.3,524.9l-0.2-0.8c0.8-0.2,1.5-0.4,2.3-0.7l0.2,0.7C474.8,524.5,474.1,524.7,473.3,524.9z M414.5,524.2
				c-0.8-0.2-1.5-0.5-2.3-0.8l0.3-0.7c0.7,0.3,1.5,0.5,2.2,0.8L414.5,524.2z M477.8,523.5l-0.3-0.7c0.8-0.3,1.5-0.6,2.2-0.8l0.3,0.7
				C479.3,522.9,478.6,523.2,477.8,523.5z M410.1,522.6c-0.7-0.3-1.5-0.6-2.2-1l0.3-0.7c0.7,0.3,1.4,0.6,2.2,0.9L410.1,522.6z
				 M482.3,521.7l-0.3-0.7c0.7-0.3,1.4-0.7,2.1-1l0.4,0.7C483.7,521,483,521.3,482.3,521.7z M405.7,520.5c-0.7-0.4-1.4-0.8-2.1-1.2
				l0.4-0.7c0.6,0.4,1.3,0.8,2,1.2L405.7,520.5z M486.5,519.4l-0.4-0.7c0.7-0.4,1.3-0.9,1.9-1.3l0.5,0.6
				C487.8,518.5,487.2,519,486.5,519.4z M401.7,518c-0.7-0.5-1.3-1-1.9-1.5l0.5-0.6c0.5,0.5,1.1,1,1.8,1.5L401.7,518z M490.3,516.5
				l-0.5-0.6c0.6-0.5,1.1-1.1,1.6-1.7l0.6,0.5C491.5,515.4,491,516,490.3,516.5z M398.1,514.7c-0.5-0.7-1-1.3-1.4-2l0.7-0.4
				c0.4,0.6,0.8,1.3,1.3,1.9L398.1,514.7z M493.4,512.8l-0.7-0.4c0.4-0.7,0.7-1.4,0.9-2.1l0.8,0.2
				C494.2,511.3,493.8,512.1,493.4,512.8z M395.8,510.5c-0.2-0.8-0.3-1.6-0.3-2.4l0.8,0v0c0,0.7,0.1,1.5,0.3,2.2L395.8,510.5z
				 M494.8,508.1l-0.8,0l0.4,0l-0.4-0.1c0-0.7-0.1-1.4-0.3-2.2l0.8-0.2C494.6,506.5,494.8,507.3,494.8,508.1L494.8,508.1z
				 M396.6,505.8l-0.8-0.2c0.2-0.8,0.5-1.5,1-2.3l0.7,0.4C397.1,504.4,396.8,505.1,396.6,505.8z M492.8,503.8
				c-0.3-0.6-0.8-1.3-1.3-1.9l0.6-0.5c0.5,0.7,1,1.3,1.4,2L492.8,503.8z M398.8,501.9l-0.6-0.5c0.5-0.6,1.1-1.2,1.7-1.7l0.5,0.6
				C399.8,500.7,399.2,501.3,398.8,501.9z M489.9,500.3c-0.5-0.5-1.1-1-1.8-1.5l0.5-0.6c0.7,0.5,1.3,1,1.9,1.5L489.9,500.3z
				 M402.2,498.7l-0.5-0.6c0.6-0.5,1.3-0.9,2-1.3l0.4,0.7C403.4,497.8,402.8,498.3,402.2,498.7z M486.2,497.5
				c-0.6-0.4-1.3-0.8-2-1.2l0.4-0.7c0.7,0.4,1.4,0.8,2.1,1.2L486.2,497.5z M406.1,496.2l-0.4-0.7c0.7-0.4,1.4-0.7,2.1-1.1l0.3,0.7
				C407.5,495.5,406.8,495.9,406.1,496.2z M482.1,495.2c-0.7-0.3-1.4-0.6-2.2-0.9l0.3-0.7c0.7,0.3,1.5,0.6,2.2,1L482.1,495.2z
				 M410.4,494.3l-0.3-0.7c0.7-0.3,1.5-0.6,2.2-0.9l0.3,0.7C411.8,493.7,411.1,494,410.4,494.3z M477.7,493.5
				c-0.7-0.3-1.5-0.5-2.2-0.8l0.2-0.7c0.8,0.2,1.5,0.5,2.3,0.8L477.7,493.5z M414.8,492.7l-0.2-0.8c0.7-0.2,1.5-0.5,2.3-0.7l0.2,0.8
				C416.3,492.2,415.6,492.4,414.8,492.7z M473.2,492c-0.7-0.2-1.5-0.4-2.3-0.6l0.2-0.8c0.8,0.2,1.5,0.4,2.3,0.6L473.2,492z
				 M419.4,491.4l-0.2-0.8c0.8-0.2,1.5-0.4,2.3-0.5l0.2,0.8C420.9,491,420.1,491.2,419.4,491.4z M468.6,490.9
				c-0.8-0.2-1.5-0.3-2.3-0.5l0.2-0.8c0.8,0.2,1.6,0.3,2.3,0.5L468.6,490.9z M424,490.4l-0.2-0.8c0.8-0.1,1.6-0.3,2.3-0.4l0.1,0.8
				C425.5,490.1,424.7,490.2,424,490.4z M464,489.9c-0.8-0.1-1.5-0.3-2.3-0.4l0.1-0.8c0.8,0.1,1.6,0.2,2.4,0.4L464,489.9z
				 M428.6,489.6l-0.1-0.8c0.8-0.1,1.6-0.2,2.4-0.3l0.1,0.8C430.2,489.3,429.4,489.4,428.6,489.6z M459.3,489.3
				c-0.8-0.1-1.6-0.2-2.3-0.3l0.1-0.8c0.8,0.1,1.6,0.2,2.4,0.3L459.3,489.3z M433.3,489l-0.1-0.8c0.8-0.1,1.6-0.1,2.4-0.2l0.1,0.8
				C434.9,488.8,434.1,488.9,433.3,489z M454.6,488.8c-0.8-0.1-1.6-0.1-2.4-0.2l0-0.8c0.8,0,1.6,0.1,2.4,0.2L454.6,488.8z
				 M438,488.6l0-0.8c0.8,0,1.6-0.1,2.4-0.1l0,0.8C439.6,488.5,438.8,488.6,438,488.6z M449.9,488.5c-0.8,0-1.6-0.1-2.4-0.1l0-0.8
				c0.8,0,1.6,0,2.4,0.1L449.9,488.5z M442.7,488.4l0-0.8c0.8,0,1.6,0,2.4,0h0.1v0.8h-0.1C444.3,488.4,443.5,488.4,442.7,488.4z"/>
		</g>
		<path id="XMLID_626_" class="st6" d="M445.1,464.5c-32.7,0-59.1,12.1-59.1,27c0,14.9,26.5,26.9,59.1,27c32.7,0,59.1-9,59.1-27
			C504.2,476.6,477.8,464.5,445.1,464.5z"/>
		<path id="XMLID_625_" class="st7" d="M445.1,468.4c-27.2,0-49.3,9-49.3,20.1c0,11.1,22,20,49.3,20.1c27.2,0,49.3-9,49.3-20.1
			C494.4,477.4,472.3,468.5,445.1,468.4z"/>
		<path id="XMLID_1616_" class="st8" d="M445.1,509l0-0.4v-0.4h0c0.8,0,1.5,0,2.3,0l0,0.8C446.7,508.9,445.9,508.9,445.1,509z
			 M442.7,508.9c-0.8,0-1.6,0-2.4-0.1l0-0.8c0.8,0,1.6,0.1,2.4,0.1L442.7,508.9z M449.8,508.9l0-0.8c0.8,0,1.6-0.1,2.4-0.1l0,0.8
			C451.4,508.8,450.6,508.8,449.8,508.9z M437.9,508.7c-0.8,0-1.6-0.1-2.4-0.2l0.1-0.8c0.8,0.1,1.6,0.1,2.4,0.2L437.9,508.7z
			 M454.6,508.6l-0.1-0.8c0.8-0.1,1.6-0.1,2.4-0.2l0.1,0.8C456.1,508.4,455.4,508.5,454.6,508.6z M433.2,508.3
			c-0.8-0.1-1.6-0.2-2.4-0.3l0.1-0.8c0.8,0.1,1.6,0.2,2.3,0.3L433.2,508.3z M459.3,508.1l-0.1-0.8c0.8-0.1,1.6-0.2,2.3-0.3l0.1,0.8
			C460.9,507.9,460.1,508,459.3,508.1z M428.5,507.8c-0.8-0.1-1.6-0.2-2.3-0.4l0.1-0.8c0.8,0.1,1.5,0.3,2.3,0.4L428.5,507.8z
			 M464,507.4l-0.1-0.8c0.8-0.1,1.6-0.3,2.3-0.4l0.2,0.8C465.6,507.1,464.8,507.3,464,507.4z M423.8,507c-0.8-0.2-1.6-0.3-2.3-0.5
			l0.2-0.8c0.8,0.2,1.5,0.3,2.3,0.5L423.8,507z M468.7,506.5l-0.2-0.8c0.8-0.2,1.5-0.4,2.3-0.5l0.2,0.8
			C470.2,506.1,469.5,506.3,468.7,506.5z M419.1,505.9c-0.8-0.2-1.6-0.4-2.3-0.6l0.2-0.8c0.7,0.2,1.5,0.4,2.3,0.6L419.1,505.9z
			 M473.3,505.3l-0.2-0.8c0.8-0.2,1.5-0.4,2.3-0.7l0.2,0.7C474.8,504.9,474.1,505.1,473.3,505.3z M414.5,504.6
			c-0.8-0.2-1.5-0.5-2.3-0.8l0.3-0.7c0.7,0.3,1.5,0.5,2.2,0.8L414.5,504.6z M477.8,503.9l-0.3-0.7c0.8-0.3,1.5-0.6,2.2-0.8l0.3,0.7
			C479.3,503.3,478.6,503.6,477.8,503.9z M410.1,503c-0.7-0.3-1.5-0.6-2.2-1l0.3-0.7c0.7,0.3,1.4,0.6,2.2,0.9L410.1,503z
			 M482.3,502.1l-0.3-0.7c0.7-0.3,1.4-0.7,2.1-1l0.4,0.7C483.7,501.4,483,501.7,482.3,502.1z M405.7,501c-0.7-0.4-1.4-0.8-2.1-1.2
			l0.4-0.7c0.6,0.4,1.3,0.8,2,1.2L405.7,501z M486.5,499.8l-0.4-0.7c0.7-0.4,1.3-0.9,1.9-1.3l0.5,0.6
			C487.8,499,487.2,499.4,486.5,499.8z M401.7,498.4c-0.7-0.5-1.3-1-1.9-1.5l0.5-0.6c0.5,0.5,1.1,1,1.8,1.5L401.7,498.4z M490.3,497
			l-0.5-0.6c0.6-0.5,1.1-1.1,1.6-1.7l0.6,0.5C491.5,495.8,491,496.4,490.3,497z M398.1,495.2c-0.5-0.7-1-1.3-1.4-2l0.7-0.4
			c0.4,0.6,0.8,1.3,1.3,1.9L398.1,495.2z M493.4,493.3l-0.7-0.4c0.4-0.7,0.7-1.4,0.9-2.1l0.8,0.2
			C494.2,491.8,493.8,492.5,493.4,493.3z M395.8,490.9c-0.2-0.8-0.3-1.6-0.3-2.4l0.8,0v0c0,0.7,0.1,1.5,0.3,2.2L395.8,490.9z
			 M494.8,488.6l-0.8,0l0.4,0l-0.4-0.1c0-0.7-0.1-1.4-0.3-2.2l0.8-0.2C494.6,486.9,494.8,487.7,494.8,488.6L494.8,488.6z
			 M396.6,486.2l-0.8-0.2c0.2-0.8,0.5-1.5,1-2.3l0.7,0.4C397.1,484.9,396.8,485.6,396.6,486.2z M492.8,484.2
			c-0.3-0.6-0.8-1.3-1.3-1.9l0.6-0.5c0.5,0.7,1,1.3,1.4,2L492.8,484.2z M398.8,482.3l-0.6-0.5c0.5-0.6,1.1-1.2,1.7-1.7l0.5,0.6
			C399.8,481.2,399.2,481.7,398.8,482.3z M489.9,480.7c-0.5-0.5-1.1-1-1.8-1.5l0.5-0.6c0.7,0.5,1.3,1,1.9,1.5L489.9,480.7z
			 M402.2,479.2l-0.5-0.6c0.6-0.4,1.3-0.9,2-1.3l0.4,0.7C403.4,478.3,402.8,478.7,402.2,479.2z M486.2,477.9c-0.6-0.4-1.3-0.8-2-1.2
			l0.4-0.7c0.7,0.4,1.4,0.8,2.1,1.2L486.2,477.9z M406.1,476.7l-0.4-0.7c0.7-0.4,1.4-0.7,2.1-1.1l0.3,0.7
			C407.5,476,406.8,476.3,406.1,476.7z M482.1,475.7c-0.7-0.3-1.4-0.6-2.2-0.9l0.3-0.7c0.7,0.3,1.5,0.6,2.2,1L482.1,475.7z
			 M410.4,474.7l-0.3-0.7c0.7-0.3,1.5-0.6,2.2-0.9l0.3,0.7C411.8,474.1,411.1,474.4,410.4,474.7z M477.7,473.9
			c-0.7-0.3-1.5-0.5-2.2-0.8l0.2-0.7c0.8,0.2,1.5,0.5,2.3,0.8L477.7,473.9z M414.8,473.1l-0.2-0.7c0.7-0.2,1.5-0.5,2.3-0.7l0.2,0.8
			C416.3,472.6,415.6,472.9,414.8,473.1z M473.2,472.4c-0.7-0.2-1.5-0.4-2.3-0.6l0.2-0.8c0.8,0.2,1.5,0.4,2.3,0.6L473.2,472.4z
			 M419.4,471.8l-0.2-0.8c0.8-0.2,1.5-0.4,2.3-0.5l0.2,0.8C420.9,471.4,420.1,471.6,419.4,471.8z M468.6,471.3
			c-0.8-0.2-1.5-0.3-2.3-0.5l0.2-0.8c0.8,0.2,1.6,0.3,2.3,0.5L468.6,471.3z M424,470.8l-0.2-0.8c0.8-0.2,1.6-0.3,2.3-0.4l0.1,0.8
			C425.5,470.5,424.7,470.6,424,470.8z M464,470.4c-0.8-0.1-1.5-0.3-2.3-0.4l0.1-0.8c0.8,0.1,1.6,0.2,2.4,0.4L464,470.4z M428.6,470
			l-0.1-0.8c0.8-0.1,1.6-0.2,2.4-0.3l0.1,0.8C430.2,469.8,429.4,469.9,428.6,470z M459.3,469.7c-0.8-0.1-1.6-0.2-2.3-0.3l0.1-0.8
			c0.8,0.1,1.6,0.2,2.4,0.3L459.3,469.7z M433.3,469.4l-0.1-0.8c0.8-0.1,1.6-0.2,2.4-0.2l0.1,0.8
			C434.9,469.3,434.1,469.3,433.3,469.4z M454.6,469.2c-0.8-0.1-1.6-0.1-2.4-0.2l0-0.8c0.8,0,1.6,0.1,2.4,0.2L454.6,469.2z M438,469
			l0-0.8c0.8,0,1.6-0.1,2.4-0.1l0,0.8C439.6,469,438.8,469,438,469z M449.9,468.9c-0.8,0-1.6-0.1-2.4-0.1l0-0.8c0.8,0,1.6,0,2.4,0.1
			L449.9,468.9z M442.7,468.8l0-0.8c0.8,0,1.6,0,2.4,0h0.1v0.8h-0.1C444.3,468.8,443.5,468.8,442.7,468.8z"/>
		<g id="XMLID_1564_">
			<path id="XMLID_576_" class="st6" d="M445.1,449.7c-32.7,0-59.1,12.1-59.1,27c0,14.9,26.5,26.9,59.1,27
				c32.7-0.1,59.1-12.1,59.1-27C504.2,461.8,477.8,449.7,445.1,449.7z"/>
			<path id="XMLID_575_" class="st7" d="M445.1,454.2c-27.2,0-49.3,9-49.3,20.1c0,11.1,22,20,49.3,20.1c27.2,0,49.3-9,49.3-20.1
				C494.4,463.2,472.3,454.2,445.1,454.2z"/>
			<path id="XMLID_1565_" class="st8" d="M445.1,494.7l0-0.4v-0.4h0c0.8,0,1.5,0,2.3,0l0,0.8C446.7,494.7,445.9,494.7,445.1,494.7z
				 M442.7,494.7c-0.8,0-1.6,0-2.4-0.1l0-0.8c0.8,0,1.6,0.1,2.4,0.1L442.7,494.7z M449.8,494.6l0-0.8c0.8,0,1.6-0.1,2.4-0.1l0,0.8
				C451.4,494.5,450.6,494.6,449.8,494.6z M437.9,494.5c-0.8,0-1.6-0.1-2.4-0.2l0.1-0.8c0.8,0.1,1.6,0.1,2.4,0.2L437.9,494.5z
				 M454.6,494.3l-0.1-0.8c0.8-0.1,1.6-0.1,2.4-0.2l0.1,0.8C456.1,494.2,455.4,494.3,454.6,494.3z M433.2,494.1
				c-0.8-0.1-1.6-0.2-2.4-0.3l0.1-0.8c0.8,0.1,1.6,0.2,2.3,0.3L433.2,494.1z M459.3,493.8l-0.1-0.8c0.8-0.1,1.6-0.2,2.3-0.3l0.1,0.8
				C460.9,493.6,460.1,493.7,459.3,493.8z M428.5,493.5c-0.8-0.1-1.6-0.2-2.3-0.4l0.1-0.8c0.8,0.1,1.5,0.3,2.3,0.4L428.5,493.5z
				 M464,493.2l-0.1-0.8c0.8-0.1,1.6-0.3,2.3-0.4l0.2,0.8C465.6,492.9,464.8,493,464,493.2z M423.8,492.7c-0.8-0.2-1.6-0.3-2.3-0.5
				l0.2-0.8c0.8,0.2,1.5,0.3,2.3,0.5L423.8,492.7z M468.7,492.2l-0.2-0.8c0.8-0.2,1.5-0.4,2.3-0.5l0.2,0.8
				C470.2,491.9,469.5,492.1,468.7,492.2z M419.1,491.7c-0.8-0.2-1.6-0.4-2.3-0.6l0.2-0.8c0.7,0.2,1.5,0.4,2.3,0.6L419.1,491.7z
				 M473.3,491.1l-0.2-0.8c0.8-0.2,1.5-0.4,2.3-0.7l0.2,0.7C474.8,490.6,474.1,490.9,473.3,491.1z M414.5,490.4
				c-0.8-0.2-1.5-0.5-2.3-0.8l0.3-0.7c0.7,0.3,1.5,0.5,2.2,0.8L414.5,490.4z M477.8,489.6l-0.3-0.7c0.8-0.3,1.5-0.6,2.2-0.8l0.3,0.7
				C479.3,489.1,478.6,489.4,477.8,489.6z M410.1,488.7c-0.7-0.3-1.5-0.6-2.2-1l0.3-0.7c0.7,0.3,1.4,0.6,2.2,0.9L410.1,488.7z
				 M482.3,487.8l-0.3-0.7c0.7-0.3,1.4-0.7,2.1-1l0.4,0.7C483.7,487.1,483,487.5,482.3,487.8z M405.7,486.7
				c-0.7-0.4-1.4-0.8-2.1-1.2l0.4-0.7c0.6,0.4,1.3,0.8,2,1.2L405.7,486.7z M486.5,485.6l-0.4-0.7c0.7-0.4,1.3-0.9,1.9-1.3l0.5,0.6
				C487.8,484.7,487.2,485.1,486.5,485.6z M401.7,484.2c-0.7-0.5-1.3-1-1.9-1.5l0.5-0.6c0.5,0.5,1.1,1,1.8,1.5L401.7,484.2z
				 M490.3,482.7l-0.5-0.6c0.6-0.5,1.1-1.1,1.6-1.7l0.6,0.5C491.5,481.6,491,482.2,490.3,482.7z M398.1,480.9c-0.5-0.7-1-1.3-1.4-2
				l0.7-0.4c0.4,0.6,0.8,1.3,1.3,1.9L398.1,480.9z M493.4,479l-0.7-0.4c0.4-0.7,0.7-1.4,0.9-2.1l0.8,0.2
				C494.2,477.5,493.8,478.3,493.4,479z M395.8,476.6c-0.2-0.8-0.3-1.6-0.3-2.4l0.8,0v0c0,0.7,0.1,1.5,0.3,2.2L395.8,476.6z
				 M494.8,474.3l-0.8,0l0.4,0l-0.4-0.1c0-0.7-0.1-1.4-0.3-2.2l0.8-0.2C494.6,472.6,494.8,473.4,494.8,474.3L494.8,474.3z
				 M396.6,472l-0.8-0.2c0.2-0.8,0.5-1.5,1-2.3l0.7,0.4C397.1,470.6,396.8,471.3,396.6,472z M492.8,470c-0.3-0.6-0.8-1.3-1.3-1.9
				l0.6-0.5c0.5,0.7,1,1.3,1.4,2L492.8,470z M398.8,468l-0.6-0.5c0.5-0.6,1.1-1.2,1.7-1.7l0.5,0.6
				C399.8,466.9,399.2,467.5,398.8,468z M489.9,466.4c-0.5-0.5-1.1-1-1.8-1.5l0.5-0.6c0.7,0.5,1.3,1,1.9,1.5L489.9,466.4z
				 M402.2,464.9l-0.5-0.6c0.6-0.5,1.3-0.9,2-1.3l0.4,0.7C403.4,464,402.8,464.5,402.2,464.9z M486.2,463.6c-0.6-0.4-1.3-0.8-2-1.2
				l0.4-0.7c0.7,0.4,1.4,0.8,2.1,1.2L486.2,463.6z M406.1,462.4l-0.4-0.7c0.7-0.4,1.4-0.7,2.1-1.1l0.3,0.7
				C407.5,461.7,406.8,462.1,406.1,462.4z M482.1,461.4c-0.7-0.3-1.4-0.6-2.2-0.9l0.3-0.7c0.7,0.3,1.5,0.6,2.2,1L482.1,461.4z
				 M410.4,460.4l-0.3-0.7c0.7-0.3,1.5-0.6,2.2-0.9l0.3,0.7C411.8,459.9,411.1,460.1,410.4,460.4z M477.7,459.6
				c-0.7-0.3-1.5-0.5-2.2-0.8l0.2-0.8c0.8,0.3,1.5,0.5,2.3,0.8L477.7,459.6z M414.8,458.8l-0.2-0.7c0.7-0.2,1.5-0.5,2.3-0.7l0.2,0.8
				C416.3,458.4,415.6,458.6,414.8,458.8z M473.2,458.2c-0.7-0.2-1.5-0.4-2.3-0.6l0.2-0.8c0.8,0.2,1.5,0.4,2.3,0.6L473.2,458.2z
				 M419.4,457.5l-0.2-0.8c0.8-0.2,1.5-0.4,2.3-0.6l0.2,0.8C420.9,457.2,420.1,457.4,419.4,457.5z M468.6,457
				c-0.8-0.2-1.5-0.3-2.3-0.5l0.2-0.8c0.8,0.2,1.6,0.3,2.3,0.5L468.6,457z M424,456.5l-0.2-0.8c0.8-0.1,1.6-0.3,2.3-0.4l0.1,0.8
				C425.5,456.2,424.7,456.4,424,456.5z M464,456.1c-0.8-0.1-1.5-0.3-2.3-0.4l0.1-0.8c0.8,0.1,1.6,0.2,2.4,0.4L464,456.1z
				 M428.6,455.7l-0.1-0.8c0.8-0.1,1.6-0.2,2.4-0.3l0.1,0.8C430.2,455.5,429.4,455.6,428.6,455.7z M459.3,455.4
				c-0.8-0.1-1.6-0.2-2.3-0.3l0.1-0.8c0.8,0.1,1.6,0.2,2.4,0.3L459.3,455.4z M433.3,455.2l-0.1-0.8c0.8-0.1,1.6-0.1,2.4-0.2l0.1,0.8
				C434.9,455,434.1,455.1,433.3,455.2z M454.6,454.9c-0.8-0.1-1.6-0.1-2.4-0.2l0-0.8c0.8,0,1.6,0.1,2.4,0.2L454.6,454.9z
				 M438,454.8l0-0.8c0.8,0,1.6-0.1,2.4-0.1l0,0.8C439.6,454.7,438.8,454.7,438,454.8z M449.9,454.7c-0.8,0-1.6-0.1-2.4-0.1l0-0.8
				c0.8,0,1.6,0,2.4,0.1L449.9,454.7z M442.7,454.6l0-0.8c0.8,0,1.6,0,2.4,0h0.1v0.8h-0.1C444.3,454.6,443.5,454.6,442.7,454.6z"/>
		</g>
		<g id="XMLID_1512_">
			<path id="XMLID_526_" class="st6" d="M445.1,435.9c-32.7,0-59.1,12.1-59.1,27c0,14.9,26.5,26.9,59.1,27c32.7,0,59.1-12.1,59.1-27
				C504.2,448,477.8,436,445.1,435.9z"/>
			<path id="XMLID_525_" class="st7" d="M445.1,440.4c-27.2,0-49.3,9-49.3,20.1c0,11.1,22,20,49.3,20.1c27.2,0,49.3-9,49.3-20.1
				C494.4,449.4,472.3,440.5,445.1,440.4z"/>
			<path id="XMLID_1513_" class="st8" d="M445.1,481l0-0.4v-0.4h0c0.8,0,1.5,0,2.3,0l0,0.8C446.7,481,445.9,481,445.1,481z
				 M442.7,480.9c-0.8,0-1.6,0-2.4-0.1l0-0.8c0.8,0,1.6,0.1,2.4,0.1L442.7,480.9z M449.8,480.9l0-0.8c0.8,0,1.6-0.1,2.4-0.1l0,0.8
				C451.4,480.8,450.6,480.8,449.8,480.9z M437.9,480.7c-0.8,0-1.6-0.1-2.4-0.2l0.1-0.8c0.8,0.1,1.6,0.1,2.4,0.2L437.9,480.7z
				 M454.6,480.6l-0.1-0.8c0.8-0.1,1.6-0.1,2.4-0.2l0.1,0.8C456.1,480.4,455.4,480.5,454.6,480.6z M433.2,480.4
				c-0.8-0.1-1.6-0.2-2.4-0.3l0.1-0.8c0.8,0.1,1.6,0.2,2.3,0.3L433.2,480.4z M459.3,480.1l-0.1-0.8c0.8-0.1,1.6-0.2,2.3-0.3l0.1,0.8
				C460.9,479.9,460.1,480,459.3,480.1z M428.5,479.8c-0.8-0.1-1.6-0.2-2.3-0.4l0.1-0.8c0.8,0.1,1.5,0.3,2.3,0.4L428.5,479.8z
				 M464,479.4l-0.1-0.8c0.8-0.1,1.6-0.3,2.3-0.4l0.2,0.8C465.6,479.1,464.8,479.3,464,479.4z M423.8,479c-0.8-0.1-1.6-0.3-2.3-0.5
				l0.2-0.8c0.8,0.2,1.5,0.3,2.3,0.5L423.8,479z M468.7,478.5l-0.2-0.8c0.8-0.2,1.5-0.4,2.3-0.5l0.2,0.8
				C470.2,478.2,469.5,478.3,468.7,478.5z M419.1,477.9c-0.8-0.2-1.6-0.4-2.3-0.6l0.2-0.8c0.7,0.2,1.5,0.4,2.3,0.6L419.1,477.9z
				 M473.3,477.3l-0.2-0.8c0.8-0.2,1.5-0.4,2.3-0.7l0.2,0.7C474.8,476.9,474.1,477.1,473.3,477.3z M414.5,476.6
				c-0.8-0.3-1.5-0.5-2.3-0.8l0.3-0.7c0.7,0.3,1.5,0.5,2.2,0.8L414.5,476.6z M477.8,475.9l-0.3-0.7c0.8-0.3,1.5-0.6,2.2-0.8l0.3,0.7
				C479.3,475.3,478.6,475.6,477.8,475.9z M410.1,475c-0.7-0.3-1.5-0.6-2.2-1l0.3-0.7c0.7,0.3,1.4,0.6,2.2,0.9L410.1,475z
				 M482.3,474.1l-0.3-0.7c0.7-0.3,1.4-0.7,2.1-1l0.4,0.7C483.7,473.4,483,473.8,482.3,474.1z M405.7,473c-0.7-0.4-1.4-0.8-2.1-1.2
				l0.4-0.7c0.6,0.4,1.3,0.8,2,1.2L405.7,473z M486.5,471.8l-0.4-0.7c0.7-0.4,1.3-0.9,1.9-1.3l0.5,0.6
				C487.8,471,487.2,471.4,486.5,471.8z M401.7,470.5c-0.7-0.5-1.3-1-1.9-1.5l0.5-0.6c0.5,0.5,1.1,1,1.8,1.5L401.7,470.5z
				 M490.3,469l-0.5-0.6c0.6-0.5,1.1-1.1,1.6-1.7l0.6,0.5C491.5,467.8,491,468.4,490.3,469z M398.1,467.2c-0.5-0.7-1-1.3-1.4-2
				l0.7-0.4c0.4,0.6,0.8,1.3,1.3,1.9L398.1,467.2z M493.4,465.3l-0.7-0.4c0.4-0.7,0.7-1.4,0.9-2.1l0.8,0.2
				C494.2,463.8,493.8,464.5,493.4,465.3z M395.8,462.9c-0.2-0.8-0.3-1.6-0.3-2.4l0.8,0v0c0,0.7,0.1,1.5,0.3,2.2L395.8,462.9z
				 M494.8,460.6l-0.8,0l0.4,0l-0.4-0.1c0-0.7-0.1-1.4-0.3-2.2l0.8-0.2C494.6,458.9,494.8,459.7,494.8,460.6L494.8,460.6z
				 M396.6,458.3l-0.8-0.2c0.2-0.8,0.5-1.5,1-2.3l0.7,0.4C397.1,456.9,396.8,457.6,396.6,458.3z M492.8,456.3
				c-0.3-0.6-0.8-1.3-1.3-1.9l0.6-0.5c0.5,0.7,1,1.3,1.4,2L492.8,456.3z M398.8,454.3l-0.6-0.5c0.5-0.6,1.1-1.2,1.7-1.7l0.5,0.6
				C399.8,453.2,399.2,453.7,398.8,454.3z M489.9,452.7c-0.5-0.5-1.1-1-1.8-1.5l0.5-0.6c0.7,0.5,1.3,1,1.9,1.5L489.9,452.7z
				 M402.2,451.2l-0.5-0.6c0.6-0.5,1.3-0.9,2-1.3l0.4,0.7C403.4,450.3,402.8,450.7,402.2,451.2z M486.2,449.9
				c-0.6-0.4-1.3-0.8-2-1.2l0.4-0.7c0.7,0.4,1.4,0.8,2.1,1.2L486.2,449.9z M406.1,448.7l-0.4-0.7c0.7-0.4,1.4-0.7,2.1-1.1l0.3,0.7
				C407.5,448,406.8,448.3,406.1,448.7z M482.1,447.7c-0.7-0.3-1.4-0.6-2.2-0.9l0.3-0.7c0.7,0.3,1.5,0.6,2.2,1L482.1,447.7z
				 M410.4,446.7l-0.3-0.7c0.7-0.3,1.5-0.6,2.2-0.9l0.3,0.7C411.8,446.1,411.1,446.4,410.4,446.7z M477.7,445.9
				c-0.7-0.3-1.5-0.5-2.2-0.8l0.2-0.7c0.8,0.2,1.5,0.5,2.3,0.8L477.7,445.9z M414.8,445.1l-0.2-0.7c0.7-0.2,1.5-0.5,2.3-0.7l0.2,0.8
				C416.3,444.6,415.6,444.9,414.8,445.1z M473.2,444.5c-0.7-0.2-1.5-0.4-2.3-0.6l0.2-0.8c0.8,0.2,1.5,0.4,2.3,0.6L473.2,444.5z
				 M419.4,443.8l-0.2-0.8c0.8-0.2,1.5-0.4,2.3-0.5l0.2,0.8C420.9,443.4,420.1,443.6,419.4,443.8z M468.6,443.3
				c-0.8-0.2-1.5-0.3-2.3-0.5l0.2-0.8c0.8,0.2,1.6,0.3,2.3,0.5L468.6,443.3z M424,442.8l-0.2-0.8c0.8-0.1,1.6-0.3,2.3-0.4l0.1,0.8
				C425.5,442.5,424.7,442.6,424,442.8z M464,442.4c-0.8-0.1-1.5-0.3-2.3-0.4l0.1-0.8c0.8,0.1,1.6,0.2,2.4,0.4L464,442.4z
				 M428.6,442l-0.1-0.8c0.8-0.1,1.6-0.2,2.4-0.3l0.1,0.8C430.2,441.8,429.4,441.9,428.6,442z M459.3,441.7
				c-0.8-0.1-1.6-0.2-2.3-0.3l0.1-0.8c0.8,0.1,1.6,0.2,2.4,0.3L459.3,441.7z M433.3,441.4l-0.1-0.8c0.8-0.1,1.6-0.2,2.4-0.2l0.1,0.8
				C434.9,441.3,434.1,441.3,433.3,441.4z M454.6,441.2c-0.8-0.1-1.6-0.1-2.4-0.2l0-0.8c0.8,0.1,1.6,0.1,2.4,0.2L454.6,441.2z
				 M438,441.1l0-0.8c0.8-0.1,1.6-0.1,2.4-0.1l0,0.8C439.6,441,438.8,441,438,441.1z M449.9,440.9c-0.8,0-1.6-0.1-2.4-0.1l0-0.8
				c0.8,0,1.6,0,2.4,0.1L449.9,440.9z M442.7,440.9l0-0.8c0.8,0,1.6,0,2.4,0h0.1v0.8h-0.1C444.3,440.8,443.5,440.8,442.7,440.9z"/>
		</g>
		<g id="XMLID_1492_">
			<path id="XMLID_476_" class="st9" d="M445.1,416.4c-32.7,0-59.1,12.1-59.1,27c0,14.9,26.5,26.9,59.1,27c32.7,0,59.1-12.1,59.1-27
				C504.2,428.5,477.8,416.4,445.1,416.4z"/>
			<g id="XMLID_1493_">
				<path id="XMLID_475_" class="st10" d="M493.5,523.1c-3.1,1.9-6.7,3.6-10.8,5.1c-3.3,1.2-6.9,2.2-10.8,3.1
					c-3.4,0.8-7,1.4-10.8,1.9c-3.5,0.4-7.1,0.7-10.8,0.9c-1.7,0.1-3.5,0.1-5.3,0.1c-1.9,0-3.7,0-5.5-0.1c-3.7-0.2-7.3-0.5-10.8-0.9
					c-3.8-0.5-7.4-1.1-10.8-1.9c-3.8-0.9-7.5-1.9-10.8-3.2c-4.1-1.5-7.7-3.2-10.8-5.1c-5.3-3.3-9-7.2-10.5-11.4c0,3.6,0,11,0,14.4
					c1.7,3.9,5.4,7.6,10.5,10.8c3.1,1.9,6.7,3.7,10.8,5.2c3.3,1.2,6.9,2.3,10.8,3.3c3.4,0.8,7,1.5,10.8,2c3.5,0.5,7.1,0.8,10.8,1
					c1.8,0.1,3.7,0.1,5.5,0.1c1.8,0,3.5,0,5.3-0.1c3.7-0.2,7.3-0.5,10.8-0.9c3.7-0.5,7.3-1.2,10.8-2c3.8-0.9,7.5-2,10.8-3.2
					c4.1-1.5,7.7-3.2,10.8-5.1c5.3-3.2,9-7,10.8-11c0-3.4,0-10.8,0-14.4C502.7,515.9,498.9,519.8,493.5,523.1z"/>
				<path id="XMLID_474_" class="st10" d="M493.5,505.7c-3.1,1.9-6.7,3.6-10.8,5.1c-3.3,1.2-6.9,2.3-10.8,3.1
					c-3.4,0.8-7,1.4-10.8,1.9c-3.5,0.4-7.1,0.7-10.8,0.9c-1.7,0.1-3.5,0.1-5.3,0.1c-1.9,0-3.7,0-5.5-0.1c-3.7-0.2-7.3-0.5-10.8-0.9
					c-3.8-0.5-7.4-1.1-10.8-1.9c-3.8-0.9-7.5-1.9-10.8-3.2c-4.1-1.5-7.7-3.2-10.8-5.1c-5.3-3.3-9-7.2-10.5-11.4c0,3.6,0,11,0,14.4
					c1.7,3.9,5.4,7.6,10.5,10.8c3.1,1.9,6.7,3.7,10.8,5.2c3.3,1.3,6.9,2.3,10.8,3.3c3.4,0.8,7,1.5,10.8,2c3.5,0.5,7.1,0.8,10.8,1
					c1.8,0.1,3.7,0.1,5.5,0.1c1.8,0,3.5,0,5.3-0.1c3.7-0.2,7.3-0.5,10.8-0.9c3.7-0.5,7.3-1.2,10.8-2c3.8-0.9,7.5-2,10.8-3.2
					c4.1-1.5,7.7-3.2,10.8-5.1c5.3-3.2,9-7,10.8-11c0-3.4,0-11,0-14.6C502.7,498.2,498.9,502.3,493.5,505.7z"/>
				<path id="XMLID_473_" class="st10" d="M493.5,489.3c-3.1,1.9-6.7,3.6-10.8,5.1c-3.3,1.2-6.9,2.3-10.8,3.1
					c-3.4,0.8-7,1.4-10.8,1.9c-3.5,0.4-7.1,0.7-10.8,0.9c-1.7,0.1-3.5,0.1-5.3,0.1c-1.9,0-3.7,0-5.5-0.1c-3.7-0.2-7.3-0.5-10.8-0.9
					c-3.8-0.5-7.4-1.1-10.8-1.9c-3.8-0.9-7.5-1.9-10.8-3.2c-4.1-1.5-7.7-3.2-10.8-5.1c-5.3-3.3-9-7.2-10.5-11.4c0,3.6,0,11.1,0,14.4
					c1.7,3.9,5.4,7.6,10.5,10.8c3.1,1.9,6.7,3.7,10.8,5.2c3.3,1.2,6.9,2.3,10.8,3.3c3.4,0.8,7,1.5,10.8,2c3.5,0.5,7.1,0.8,10.8,1
					c1.8,0.1,3.7,0.1,5.5,0.1c1.8,0,3.5,0,5.3-0.1c3.7-0.2,7.3-0.5,10.8-0.9c3.7-0.5,7.3-1.2,10.8-2c3.8-0.9,7.5-2,10.8-3.2
					c4.1-1.5,7.7-3.2,10.8-5.1c5.3-3.2,9-7,10.8-11c0-3.4,0-10.8,0-14.4C502.7,482,498.9,486,493.5,489.3z"/>
				<path id="XMLID_472_" class="st10" d="M493.5,472.9c-3.1,1.9-6.7,3.6-10.8,5.1c-3.3,1.2-6.9,2.2-10.8,3.1
					c-3.4,0.8-7,1.4-10.8,1.9c-3.5,0.4-7.1,0.7-10.8,0.9c-1.7,0.1-3.5,0.1-5.3,0.1c-1.9,0-3.7,0-5.5-0.1c-3.7-0.2-7.3-0.5-10.8-0.9
					c-3.8-0.5-7.4-1.1-10.8-1.9c-3.8-0.9-7.5-1.9-10.8-3.2c-4.1-1.5-7.7-3.2-10.8-5.1c-5.3-3.3-9-7.2-10.5-11.4c0,3.6,0,11,0,14.4
					c1.7,3.9,5.4,7.6,10.5,10.8c3.1,1.9,6.7,3.7,10.8,5.2c3.3,1.3,6.9,2.3,10.8,3.3c3.4,0.8,7,1.5,10.8,2c3.5,0.5,7.1,0.8,10.8,1
					c1.8,0.1,3.7,0.1,5.5,0.1c1.8,0,3.5,0,5.3-0.1c3.7-0.2,7.3-0.5,10.8-0.9c3.7-0.5,7.3-1.2,10.8-2c3.8-0.9,7.5-2,10.8-3.2
					c4.1-1.5,7.7-3.2,10.8-5.1c5.3-3.2,9-7,10.8-11c0-3.4,0-10.8,0-14.4C502.7,465.6,498.9,469.6,493.5,472.9z"/>
				<path id="XMLID_471_" class="st10" d="M493.5,456c-3.1,1.9-6.7,3.6-10.8,5.1c-3.3,1.2-6.9,2.3-10.8,3.1c-3.4,0.8-7,1.4-10.8,1.9
					c-3.5,0.4-7.1,0.7-10.8,0.9c-1.7,0.1-3.5,0.1-5.3,0.1c-1.9,0-3.7,0-5.5-0.1c-3.7-0.2-7.3-0.5-10.8-0.9
					c-3.8-0.5-7.4-1.1-10.8-1.9c-3.8-0.9-7.5-1.9-10.8-3.2c-4.1-1.5-7.7-3.2-10.8-5.1c-5.3-3.3-9-7.2-10.5-11.4c0,3.6,0,11,0,14.4
					c1.7,3.9,5.4,7.6,10.5,10.8c3.1,1.9,6.7,3.7,10.8,5.2c3.3,1.3,6.9,2.3,10.8,3.3c3.4,0.8,7,1.5,10.8,2c3.5,0.5,7.1,0.8,10.8,1
					c1.8,0.1,3.7,0.1,5.5,0.1c1.8,0,3.5,0,5.3-0.1c3.7-0.2,7.3-0.5,10.8-0.9c3.7-0.5,7.3-1.2,10.8-2c3.8-0.9,7.5-2,10.8-3.2
					c4.1-1.5,7.7-3.2,10.8-5.1c5.3-3.2,9-7,10.8-11c0-3.4,0-10.8,0-14.4C502.7,448.7,498.9,452.7,493.5,456z"/>
			</g>
		</g>
		<path id="XMLID_1484_" class="st10" d="M445.3,462.5L445.3,462.5c-25.4,0-52.4-7.4-52.4-21c0-13.6,27-21,52.3-21
			c25.4,0,52.4,7.4,52.4,21C497.7,455.1,470.7,462.4,445.3,462.5z M445.3,426.3c-27.2,0-46.2,8-46.2,15.2c0,7.1,19,15.1,46.2,15.2
			c27.2,0,46.2-8,46.2-15.2C491.5,434.3,472.5,426.3,445.3,426.3z"/>
		<g id="XMLID_1481_">
			<path id="XMLID_1482_" class="st10" d="M481.8,442.4h-8.5c-0.3,2.7-1.9,5.4-3.8,6.9l-10.4-1.2c2.1-1.7,3.9-4.1,3.9-6.8
				c0-2.3-2-3.9-5.5-3.9c-3.4,0-5.5,1.3-7.8,4.3c-3.2,4.4-7.7,7.3-16.3,7.3c-7.8,0-14-2.5-15.9-6.9H409v-4h7.9
				c0.3-2.7,1.5-4.6,2.9-5.9l10.1,1.2c-1,1.1-3,2.9-3,5.9c0,2.6,2.5,3.5,5,3.5c2.9,0,4.8-1.4,7.7-4.9c3.7-4.8,8.6-6.8,16.7-6.8
				c7.9,0,14.7,2.6,16.5,7.2h9.1V442.4z"/>
		</g>
	</g>
	<path id="XMLID_467_" class="st11" d="M569.8,526.2h64l0,0c0.1-0.9,0.1-1.8,0.1-2.7v-35.8c0-1.4-0.1-2.7-0.3-4.1h-63.9V526.2z"/>
	<path id="XMLID_466_" class="st11" d="M569.8,526.2v-42.6h-63.9c-0.2,1.3-0.3,2.7-0.3,4.1v35.8c0,0.9,0,1.8,0.1,2.7l0,0H569.8z"/>
	<path id="XMLID_1468_" class="st12" d="M777.3,157.6H569.8v292.9V461h46.9v3.5v3.3h-46.9v15.9h63.9h143.6
		c12.9,0,23.3-10.5,23.3-23.3V180.9C800.7,168,790.2,157.6,777.3,157.6z"/>
	<path id="XMLID_1462_" class="st11" d="M362.3,157.6c-12.9,0-23.3,10.4-23.3,23.3v279.4c0,12.9,10.4,23.3,23.3,23.3h143.6h63.9
		v-15.9h-46.9v-3.3V461h46.9v-6.5v-3.9V157.6H362.3z"/>
	<path id="XMLID_463_" class="st13" d="M360.2,201.5v229.8c0,10.6,9.5,19.2,21.2,19.2h188.4V182.3H381.4
		C369.7,182.3,360.2,190.9,360.2,201.5z"/>
	<path id="XMLID_462_" class="st4" d="M758.2,450.5c11.7,0,21.2-8.6,21.2-19.2V201.5c0-10.6-9.5-19.2-21.2-19.2H569.8v268.2H758.2z"
		/>
	<polygon id="XMLID_461_" class="st11" points="505.8,526.2 505.8,526.2 444.7,567.5 569.8,567.5 569.8,546.9 569.8,526.2 	"/>
	<polygon id="XMLID_460_" class="st11" points="633.9,526.2 633.9,526.2 569.8,526.2 569.8,546.9 569.8,567.5 694.9,567.5 	"/>
	<path id="XMLID_459_" class="st14" d="M614.8,464.4c0.7,0,1.3,0,2,0.1V461h-46.9v3.4H614.8z"/>
	<path id="XMLID_458_" class="st14" d="M522.9,464.5c0.6-0.1,1.3-0.1,2-0.1h44.9V461h-46.9V464.5z"/>
	<path id="XMLID_457_" class="st14" d="M569.8,464.4v3.4h46.9v-3.3c-0.6-0.1-1.3-0.1-2-0.1H569.8z"/>
	<path id="XMLID_456_" class="st14" d="M524.9,464.4c-0.7,0-1.3,0-2,0.1v3.3h46.9v-3.4H524.9z"/>
	<path id="XMLID_455_" class="st15" d="M632.7,386.6c0,4.5-3.6,8.1-8.1,8.1H515.7c-4.5,0-8.1-3.6-8.1-8.1v-47.4
		c0-4.5,3.6-8.1,8.1-8.1h108.9c4.5,0,8.1,3.6,8.1,8.1V386.6z"/>
	<g id="XMLID_1418_">
		<g id="XMLID_871_">
			<path id="XMLID_877_" class="st4" d="M555.1,351.4l-1.7,4.7l-8.1,7.4l4.7,6.8c0.1,1.7,0.1,3.3,0,4.7c-0.1,1.4-0.8,3.8-2.2,7.3
				h-21.4H520l8.7-33.2l1.3-4.7h3.8h11.5c4.3,0,7,0.2,8.2,0.5c1.1,0.3,1.8,1.4,2,3.2C555.6,349.1,555.4,350.2,555.1,351.4z
				 M533.7,376.3h1.9l2.6-10.3h-2L533.7,376.3z M537.8,357.9h1.7l1.7-6.5h-1.7L537.8,357.9z"/>
			<path id="XMLID_875_" class="st4" d="M552.5,375.5l7.9-31h13l-8,31h1.7l8.2-31h12.9l-10,38h-15.3c-4.3,0-7-0.2-8.2-0.5
				c-1.8-0.5-2.7-1.6-2.7-3.3C552,377.8,552.1,376.8,552.5,375.5z"/>
			<path id="XMLID_872_" class="st4" d="M601.4,362h2.1l4-17.6h8.7h4.1l-1.7,7l-5.9,23.3l-1,3.9c-0.7,2.6-2.1,3.9-4.2,3.9h-20.8
				c-2.5,0-3.3-1.6-2.5-4.7l1.7-6.2h13l-0.9,4.3h2.1l2.8-10H587l4.5-16.6l1.3-4.7h3.9h8.7L601.4,362z"/>
		</g>
	</g>
	<g id="XMLID_1411_">
		<polygon id="XMLID_449_" class="st16" points="619.2,359.2 649.6,447.7 663.1,414.2 690.7,441.3 698.4,433.6 		"/>
		<polygon id="XMLID_448_" class="st17" points="619.2,359.2 709.7,383.7 678.4,398.8 706.2,425.2 698.4,433.6 		"/>
	</g>
	<g id="XMLID_1325_">
		<g id="XMLID_1375_">
			<path id="XMLID_447_" class="st18" d="M472.1,244.9C472.1,245,472.1,245,472.1,244.9l0,0.2c0,0,0,0,0-0.1c-0.1,2-2.2,3.5-4.8,3.5
				h-1.1c-2.6,0-4.8-1.6-4.8-3.6c0,2-2.2,3.6-4.8,3.6h-1.1c-2.6,0-4.8-1.6-4.8-3.6c-0.1,2-2.2,3.6-4.8,3.6h-1.1
				c-2.6,0-4.8-1.6-4.8-3.6c-0.1,2-2.2,3.6-4.8,3.6h-1.1c-2.6,0-4.8-1.6-4.8-3.6c-0.1,2-2.2,3.6-4.8,3.6h-1.1
				c-2.6,0-4.8-1.6-4.8-3.6c-0.1,2-2.2,3.6-4.8,3.6h-1.1c-2.6,0-4.8-1.6-4.8-3.6c0,0.1,0,0.3,0,0.4c-0.3,1.8-2.3,3.3-4.8,3.3h-1.1
				c0,0,0,0,0,0v44.9h76.3v-44.9h-0.8C474.3,248.6,472.2,247,472.1,244.9z"/>
			<g id="XMLID_1403_">
				<path id="XMLID_446_" class="st19" d="M401.5,231.1v17.4c0,0,0,0,0,0h1.1c2.5,0,4.5-1.4,4.8-3.3c0-0.1,0-0.2,0-0.4
					c0.1,2,2.2,3.6,4.8,3.6h1.1c2.6,0,4.8-1.6,4.8-3.6c0.1,2,2.2,3.6,4.8,3.6h1.1c2.6,0,4.8-1.6,4.8-3.6c0.1,2,2.2,3.6,4.8,3.6h1.1
					c2.6,0,4.8-1.6,4.8-3.6c0.1,2,2.2,3.6,4.8,3.6h1.1c2.6,0,4.8-1.6,4.8-3.6c0.1,2,2.2,3.6,4.8,3.6h1.1c2.6,0,4.8-1.6,4.8-3.6
					c0,2,2.2,3.6,4.8,3.6h1.1c2.6,0,4.7-1.6,4.8-3.5c0,0,0,0,0,0.1V245c0,0,0,0,0-0.1c0,2,2.2,3.6,4.8,3.6h0.8v-17.4H401.5z"/>
				<g id="XMLID_1404_">
					<polygon id="XMLID_445_" class="st13" points="410.6,245.5 410.6,285.7 411,285.7 468.5,245.5 					"/>
					<polygon id="XMLID_444_" class="st4" points="411,285.7 468.6,285.7 468.6,245.5 468.5,245.5 					"/>
				</g>
			</g>
			<g id="XMLID_1379_">
				<path id="XMLID_443_" class="st15" d="M441,215.4V212h-10.8v7.2v2.6h0v17.6c0,2.1,2.2,3.7,4.8,3.7h1.1c2.7,0,4.8-1.7,4.8-3.7
					v-23.8C441,215.6,441,215.5,441,215.4z"/>
				<path id="XMLID_442_" class="st4" d="M451.8,215.7V212H441v9.8h0v17.7c0,2.1,2.2,3.7,4.8,3.7h1.1c2.7,0,4.8-1.7,4.8-3.7v-23.8
					C451.8,215.7,451.8,215.7,451.8,215.7z"/>
				<path id="XMLID_441_" class="st15" d="M462.6,215.7V212h-10.8v3.7c0,0,0,0,0,0v23.8c0,2.1,2.2,3.7,4.8,3.7h1.1
					c2.7,0,4.8-1.7,4.8-3.7L462.6,215.7C462.6,215.7,462.6,215.7,462.6,215.7z"/>
				<path id="XMLID_440_" class="st15" d="M419.5,212h-6.6c-0.1,0-0.1,0-0.2,0c-1.5,0.1-2.8,0.3-4,0.8v1.3c-3.4,3-3.8,8.1-3.8,8.1
					l3.8,0V240c0-0.1,0-0.2,0-0.4c0.1,2,2.2,3.6,4.8,3.6h1.1c2.7,0,4.8-1.7,4.8-3.7V222h0V212z"/>
				<path id="XMLID_439_" class="st4" d="M407.5,213.3c-9.8,4.6-9.6,20.2-9.6,20.2s0,0,0,0v6c0,2.1,2.2,3.7,4.8,3.7h1.1
					c2.5,0,4.5-1.4,4.8-3.3v-27.2C408.3,213,407.9,213.1,407.5,213.3z"/>
				<g id="XMLID_1381_">
					<path id="XMLID_438_" class="st4" d="M473.3,221.5l1.3,0l-1.3-1.9v-3.8c0,0,0-0.1,0-0.1v-2.8c-1.4-0.5-3-0.8-4.8-0.8
						c0,0,0,0,0,0h-0.2l0,0l-5.7,0v3.7c0,0,0,0,0,0.1v23.8c0,2.1,2.2,3.7,4.8,3.7h1.1c2.6,0,4.7-1.6,4.8-3.5c0,0,0,0,0,0.1v-0.1
						c0,0,0-0.1,0-0.1V221.5z"/>
					<path id="XMLID_437_" class="st15" d="M473.3,239.6v0.2c0.2,1.9,2.2,3.5,4.8,3.5h0C475.5,243.3,473.3,241.6,473.3,239.6z"/>
					<path id="XMLID_436_" class="st15" d="M484.1,233.5c0,0,0.3-15.6-9.5-20.2c0,0,0,0,0,0c-0.4-0.2-0.8-0.3-1.2-0.5v2.9v23.8
						c0,2.1,2.2,3.7,4.8,3.7h1.1c2.7,0,4.8-1.7,4.8-3.7L484.1,233.5C484.1,233.5,484.1,233.5,484.1,233.5z"/>
					<polygon id="XMLID_435_" class="st15" points="473.3,239.5 473.3,239.6 473.3,215.8 473.3,215.8 					"/>
				</g>
				<path id="XMLID_434_" class="st4" d="M430.2,215.5V212h-10.7v3.3c0,0.1,0,0.3,0,0.4v23.8c0,2.1,2.2,3.7,4.8,3.7h1.1
					c2.7,0,4.8-1.7,4.8-3.7v-23.8C430.3,215.7,430.2,215.6,430.2,215.5z"/>
			</g>
			<path id="XMLID_433_" class="st20" d="M480.5,295.5c0,1.8-1.5,3.2-3.2,3.2H402c-1.8,0-3.2-1.5-3.2-3.2l0,0c0-1.8,1.5-3.2,3.2-3.2
				h75.3C479.1,292.2,480.5,293.7,480.5,295.5L480.5,295.5z"/>
		</g>
		<g id="XMLID_1326_">
			<g id="XMLID_1330_">
				<g id="XMLID_1334_">
					<path id="XMLID_432_" class="st2" d="M454.8,262.6c1,0.5,1.6,1.5,1.6,2.7v12.4c0,1.7-1.4,3-3.2,3h-24.6c-0.5,0-1-0.1-1.5-0.4
						c0.5,0.2,1,0.4,1.5,0.4h24.6c1.8,0,3.2-1.4,3.2-3v-12.4C456.5,264.2,455.8,263.1,454.8,262.6z"/>
					<path id="XMLID_1371_" class="st2" d="M453.3,280.7c1.8,0,3.2-1.4,3.2-3v-12.4c0-1.1-0.7-2.1-1.6-2.7c-0.4-0.2-1-0.4-1.5-0.4
						h-24.6c-1.8,0-3.2,1.4-3.2,3v12.4c0,1.1,0.7,2.1,1.6,2.7c0.4,0.2,1,0.4,1.5,0.4H453.3z M426.4,277.5v-12.4
						c0-1.2,1.1-2.3,2.4-2.3h24.6c1.3,0,2.4,1,2.4,2.3v12.4c0,1.2-1.1,2.3-2.4,2.3h-24.6C427.4,279.8,426.4,278.8,426.4,277.5z"/>
					<path id="XMLID_1365_" class="st21" d="M453.3,279.8c1.3,0,2.4-1,2.4-2.3v-12.4c0-1.2-1.1-2.3-2.4-2.3h-24.6
						c-1.3,0-2.4,1-2.4,2.3v12.4c0,1.2,1.1,2.3,2.4,2.3H453.3z"/>
					<path id="XMLID_1357_" class="st15" d="M454.5,261.2h-3.3h-2.5h-16.1h-2.3h-2.8c-1.7,0-3.1,1.4-3.1,3.1v14.4
						c0,1.7,1.4,3.1,3.1,3.1h27c1.7,0,3.1-1.4,3.1-3.1v-14.4C457.6,262.6,456.2,261.2,454.5,261.2z M456.5,277.7c0,1.7-1.4,3-3.2,3
						h-24.6c-0.6,0-1.1-0.1-1.5-0.4c-1-0.5-1.7-1.5-1.7-2.7v-12.4c0-1.7,1.4-3,3.2-3h24.6c0.6,0,1.1,0.1,1.5,0.4
						c1,0.5,1.7,1.5,1.7,2.7V277.7z"/>
					<path id="XMLID_426_" class="st15" d="M425.6,277.7v-12.4c0-1.7,1.4-3,3.2-3h24.6c0.5,0,1,0.1,1.5,0.4c-0.5-0.2-1-0.4-1.5-0.4
						h-24.6c-1.8,0-3.2,1.4-3.2,3L425.6,277.7c0,1.1,0.6,2.1,1.6,2.7C426.3,279.9,425.6,278.9,425.6,277.7z"/>
					<g id="XMLID_1335_">
						<g id="XMLID_881_">
							<polygon id="XMLID_889_" class="st15" points="443.9,272.4 446.6,272.4 446.6,270.7 443.9,270.7 443.9,268.8 446.8,268.8 
								446.8,267.1 442.3,267.1 442.3,276.3 447,276.3 447,274.6 443.9,274.6 							"/>
							<path id="XMLID_888_" class="st15" d="M452.9,269.8c0,1.4,0,2.6,0.1,3.8h0c-0.3-1-0.8-2.2-1.2-3.1l-1.5-3.4h-1.9v9.2h1.5
								v-2.8c0-1.5,0-2.8-0.1-4l0,0c0.4,1.1,0.8,2.3,1.3,3.2l1.6,3.5h1.8v-9.2h-1.5V269.8z"/>
							<path id="XMLID_885_" class="st15" d="M440.2,267.8c-0.5-0.5-1.2-0.7-2.3-0.7c-1,0-1.7,0.1-2.3,0.2v9.1h1.7V273
								c0.2,0,0.4,0,0.6,0c1,0,1.8-0.3,2.4-1c0.4-0.5,0.7-1.3,0.7-2.2C440.9,269,440.6,268.3,440.2,267.8z M437.9,271.5
								c-0.2,0-0.4,0-0.6-0.1v-2.7c0.1,0,0.4-0.1,0.7-0.1c0.8,0,1.3,0.5,1.3,1.3C439.3,270.9,438.7,271.5,437.9,271.5z"/>
							<path id="XMLID_882_" class="st15" d="M430.8,267c-2.2,0-3.6,2.1-3.6,4.8c0,2.6,1.3,4.7,3.5,4.7c2.2,0,3.6-1.8,3.6-4.8
								C434.3,269.1,433.1,267,430.8,267z M430.8,274.8c-1.1,0-1.8-1.3-1.8-3.1c0-1.8,0.7-3.1,1.8-3.1c1.1,0,1.8,1.4,1.8,3.1
								C432.5,273.5,431.9,274.8,430.8,274.8z"/>
						</g>
					</g>
				</g>
				<path id="XMLID_419_" class="st4" d="M439,256.9c0.3,0.3,0.7,0.4,1.1,0.4c0.5,0,0.9-0.2,1.2-0.5l7.4,4.4h2.5l-9.4-5.6
					c0-0.9-0.8-1.6-1.7-1.6c-0.9,0-1.7,0.7-1.7,1.7c0,0,0,0,0,0l-8.1,5.5h2.3L439,256.9z"/>
			</g>
			<circle id="XMLID_418_" class="st15" cx="440.1" cy="255.6" r="1.7"/>
		</g>
	</g>
	<g id="XMLID_1081_">
		<polygon id="XMLID_417_" class="st5" points="426.5,544.2 426.5,477.7 308.2,477.5 308.2,545.5 		"/>
		<g id="XMLID_1272_">
			<path id="XMLID_416_" class="st6" d="M367.4,506.6c-32.7,0-59.1,12.1-59.1,27c0,14.9,26.5,26.9,59.1,27c32.7,0,59.1-12.1,59.1-27
				C426.5,518.7,400,506.6,367.4,506.6z"/>
			<path id="XMLID_415_" class="st7" d="M367.4,511.1c-27.2,0-49.3,9-49.3,20.1c0,11.1,22,20,49.3,20.1c27.2,0,49.3-9,49.3-20.1
				C416.6,520.1,394.6,511.1,367.4,511.1z"/>
			<path id="XMLID_1273_" class="st8" d="M367.4,551.6l0-0.4v-0.4h0c0.8,0,1.5,0,2.3,0l0,0.8C368.9,551.6,368.1,551.6,367.4,551.6z
				 M364.9,551.6c-0.8,0-1.6,0-2.4-0.1l0-0.8c0.8,0,1.6,0.1,2.4,0.1L364.9,551.6z M372.1,551.5l0-0.8c0.8,0,1.6-0.1,2.4-0.1l0,0.8
				C373.6,551.4,372.9,551.5,372.1,551.5z M360.2,551.4c-0.8-0.1-1.6-0.1-2.4-0.2l0.1-0.8c0.8,0.1,1.6,0.1,2.4,0.2L360.2,551.4z
				 M376.8,551.2l-0.1-0.8c0.8-0.1,1.6-0.1,2.4-0.2l0.1,0.8C378.4,551.1,377.6,551.2,376.8,551.2z M355.4,551
				c-0.8-0.1-1.6-0.2-2.4-0.3l0.1-0.8c0.8,0.1,1.6,0.2,2.3,0.3L355.4,551z M381.5,550.8l-0.1-0.8c0.8-0.1,1.6-0.2,2.3-0.3l0.1,0.8
				C383.1,550.6,382.3,550.7,381.5,550.8z M350.7,550.4c-0.8-0.1-1.6-0.2-2.3-0.4l0.1-0.8c0.8,0.1,1.5,0.3,2.3,0.4L350.7,550.4z
				 M386.2,550.1l-0.1-0.8c0.8-0.1,1.6-0.3,2.3-0.4l0.2,0.8C387.8,549.8,387,549.9,386.2,550.1z M346,549.6
				c-0.8-0.1-1.6-0.3-2.3-0.5l0.2-0.8c0.8,0.2,1.5,0.3,2.3,0.5L346,549.6z M390.9,549.2l-0.2-0.8c0.8-0.2,1.5-0.4,2.3-0.5l0.2,0.8
				C392.5,548.8,391.7,549,390.9,549.2z M341.4,548.6c-0.8-0.2-1.5-0.4-2.3-0.6l0.2-0.8c0.7,0.2,1.5,0.4,2.3,0.6L341.4,548.6z
				 M395.5,548l-0.2-0.8c0.8-0.2,1.5-0.4,2.3-0.7l0.2,0.7C397.1,547.5,396.3,547.8,395.5,548z M336.8,547.3
				c-0.8-0.2-1.5-0.5-2.3-0.8l0.3-0.7c0.7,0.3,1.5,0.5,2.2,0.8L336.8,547.3z M400.1,546.5l-0.3-0.7c0.8-0.3,1.5-0.6,2.2-0.8l0.3,0.7
				C401.6,546,400.8,546.3,400.1,546.5z M332.3,545.7c-0.7-0.3-1.5-0.6-2.2-1l0.3-0.7c0.7,0.3,1.4,0.6,2.2,0.9L332.3,545.7z
				 M404.5,544.7l-0.3-0.7c0.7-0.3,1.4-0.7,2.1-1l0.4,0.7C406,544,405.2,544.4,404.5,544.7z M328,543.6c-0.7-0.4-1.4-0.8-2.1-1.2
				l0.4-0.7c0.6,0.4,1.3,0.8,2,1.2L328,543.6z M408.7,542.5l-0.4-0.7c0.7-0.4,1.3-0.9,1.9-1.3l0.5,0.6
				C410.1,541.6,409.4,542.1,408.7,542.5z M323.9,541.1c-0.7-0.5-1.3-1-1.9-1.5l0.5-0.6c0.5,0.5,1.1,1,1.8,1.5L323.9,541.1z
				 M412.6,539.6l-0.5-0.6c0.6-0.5,1.1-1.1,1.6-1.7l0.6,0.5C413.8,538.5,413.2,539.1,412.6,539.6z M320.4,537.8
				c-0.5-0.7-1-1.3-1.4-2l0.7-0.4c0.4,0.6,0.8,1.3,1.3,1.9L320.4,537.8z M415.7,535.9l-0.7-0.4c0.4-0.7,0.7-1.4,0.9-2.1l0.8,0.2
				C416.4,534.4,416.1,535.2,415.7,535.9z M318,533.6c-0.2-0.8-0.3-1.6-0.3-2.4l0.8,0v0c0,0.7,0.1,1.5,0.3,2.2L318,533.6z
				 M417,531.2l-0.8,0l0.4,0l-0.4-0.1c0-0.7-0.1-1.4-0.3-2.2l0.8-0.2C416.9,529.6,417,530.4,417,531.2L417,531.2z M318.8,528.9
				l-0.8-0.2c0.2-0.8,0.5-1.5,1-2.3l0.7,0.4C319.3,527.5,319,528.2,318.8,528.9z M415.1,526.9c-0.3-0.6-0.8-1.3-1.3-1.9l0.6-0.5
				c0.5,0.7,1,1.3,1.4,2L415.1,526.9z M321,524.9l-0.6-0.5c0.5-0.6,1.1-1.2,1.7-1.7l0.5,0.6C322,523.8,321.5,524.4,321,524.9z
				 M412.2,523.4c-0.5-0.5-1.1-1-1.8-1.5l0.5-0.6c0.7,0.5,1.3,1,1.9,1.5L412.2,523.4z M324.4,521.8l-0.5-0.6c0.6-0.5,1.3-0.9,2-1.3
				l0.4,0.7C325.7,520.9,325,521.4,324.4,521.8z M408.4,520.6c-0.6-0.4-1.3-0.8-2-1.2l0.4-0.7c0.7,0.4,1.4,0.8,2.1,1.2L408.4,520.6z
				 M328.4,519.3l-0.4-0.7c0.7-0.4,1.4-0.7,2.1-1.1l0.3,0.7C329.8,518.6,329.1,519,328.4,519.3z M404.3,518.3
				c-0.7-0.3-1.4-0.6-2.2-0.9l0.3-0.7c0.7,0.3,1.5,0.6,2.2,1L404.3,518.3z M332.6,517.4l-0.3-0.7c0.7-0.3,1.5-0.6,2.2-0.9l0.3,0.7
				C334.1,516.8,333.4,517.1,332.6,517.4z M400,516.5c-0.7-0.3-1.5-0.5-2.2-0.8l0.2-0.7c0.8,0.2,1.5,0.5,2.3,0.8L400,516.5z
				 M337.1,515.8l-0.2-0.8c0.7-0.2,1.5-0.5,2.3-0.7l0.2,0.8C338.6,515.3,337.8,515.5,337.1,515.8z M395.5,515.1
				c-0.7-0.2-1.5-0.4-2.3-0.6l0.2-0.8c0.8,0.2,1.5,0.4,2.3,0.6L395.5,515.1z M341.6,514.5l-0.2-0.8c0.8-0.2,1.5-0.4,2.3-0.5l0.2,0.8
				C343.1,514.1,342.4,514.3,341.6,514.5z M390.9,513.9c-0.8-0.2-1.5-0.3-2.3-0.5l0.2-0.8c0.8,0.2,1.6,0.3,2.3,0.5L390.9,513.9z
				 M346.2,513.4l-0.2-0.8c0.8-0.1,1.6-0.3,2.3-0.4l0.1,0.8C347.8,513.2,347,513.3,346.2,513.4z M386.3,513
				c-0.8-0.1-1.5-0.3-2.3-0.4l0.1-0.8c0.8,0.1,1.6,0.2,2.4,0.4L386.3,513z M350.9,512.7l-0.1-0.8c0.8-0.1,1.6-0.2,2.4-0.3l0.1,0.8
				C352.4,512.4,351.6,512.5,350.9,512.7z M381.6,512.3c-0.8-0.1-1.6-0.2-2.3-0.3l0.1-0.8c0.8,0.1,1.6,0.2,2.4,0.3L381.6,512.3z
				 M355.6,512.1l-0.1-0.8c0.8-0.1,1.6-0.1,2.4-0.2l0.1,0.8C357.1,511.9,356.3,512,355.6,512.1z M376.9,511.9
				c-0.8-0.1-1.6-0.1-2.4-0.2l0-0.8c0.8,0,1.6,0.1,2.4,0.2L376.9,511.9z M360.3,511.7l0-0.8c0.8,0,1.6-0.1,2.4-0.1l0,0.8
				C361.8,511.6,361.1,511.6,360.3,511.7z M372.2,511.6c-0.8,0-1.6-0.1-2.4-0.1l0-0.8c0.8,0,1.6,0,2.4,0.1L372.2,511.6z M365,511.5
				l0-0.8c0.8,0,1.6,0,2.4,0h0.1v0.8h-0.1C366.6,511.5,365.8,511.5,365,511.5z"/>
		</g>
		<path id="XMLID_366_" class="st6" d="M367.4,487.5c-32.7,0-59.1,12.1-59.1,27c0,14.9,26.5,26.9,59.1,27c32.7,0,59.1-9,59.1-27
			C426.5,499.7,400,487.6,367.4,487.5z"/>
		<path id="XMLID_365_" class="st7" d="M367.4,491.5c-27.2,0-49.3,9-49.3,20.1c0,11.1,22,20,49.3,20.1c27.2,0,49.3-9,49.3-20.1
			C416.6,500.5,394.6,491.6,367.4,491.5z"/>
		<path id="XMLID_1221_" class="st8" d="M367.4,532l0-0.4v-0.4h0c0.8,0,1.5,0,2.3,0l0,0.8C368.9,532,368.1,532,367.4,532z
			 M364.9,532c-0.8,0-1.6,0-2.4-0.1l0-0.8c0.8,0,1.6,0.1,2.4,0.1L364.9,532z M372.1,531.9l0-0.8c0.8,0,1.6-0.1,2.4-0.1l0,0.8
			C373.6,531.9,372.9,531.9,372.1,531.9z M360.2,531.8c-0.8,0-1.6-0.1-2.4-0.2l0.1-0.8c0.8,0.1,1.6,0.1,2.4,0.2L360.2,531.8z
			 M376.8,531.7l-0.1-0.8c0.8-0.1,1.6-0.1,2.4-0.2l0.1,0.8C378.4,531.5,377.6,531.6,376.8,531.7z M355.4,531.4
			c-0.8-0.1-1.6-0.2-2.4-0.3l0.1-0.8c0.8,0.1,1.6,0.2,2.3,0.3L355.4,531.4z M381.5,531.2l-0.1-0.8c0.8-0.1,1.6-0.2,2.3-0.3l0.1,0.8
			C383.1,531,382.3,531.1,381.5,531.2z M350.7,530.9c-0.8-0.1-1.6-0.2-2.3-0.4l0.1-0.8c0.8,0.1,1.5,0.3,2.3,0.4L350.7,530.9z
			 M386.2,530.5l-0.1-0.8c0.8-0.1,1.6-0.3,2.3-0.4l0.2,0.8C387.8,530.2,387,530.4,386.2,530.5z M346,530.1c-0.8-0.2-1.6-0.3-2.3-0.5
			l0.2-0.8c0.8,0.2,1.5,0.3,2.3,0.5L346,530.1z M390.9,529.6l-0.2-0.8c0.8-0.2,1.5-0.4,2.3-0.5l0.2,0.8
			C392.5,529.2,391.7,529.4,390.9,529.6z M341.4,529c-0.8-0.2-1.5-0.4-2.3-0.6l0.2-0.8c0.7,0.2,1.5,0.4,2.3,0.6L341.4,529z
			 M395.5,528.4l-0.2-0.8c0.8-0.2,1.5-0.4,2.3-0.7l0.2,0.7C397.1,528,396.3,528.2,395.5,528.4z M336.8,527.7
			c-0.8-0.2-1.5-0.5-2.3-0.8l0.3-0.7c0.7,0.3,1.5,0.5,2.2,0.8L336.8,527.7z M400.1,527l-0.3-0.7c0.8-0.3,1.5-0.6,2.2-0.8l0.3,0.7
			C401.6,526.4,400.8,526.7,400.1,527z M332.3,526.1c-0.7-0.3-1.5-0.6-2.2-1l0.3-0.7c0.7,0.3,1.4,0.6,2.2,0.9L332.3,526.1z
			 M404.5,525.2l-0.3-0.7c0.7-0.3,1.4-0.7,2.1-1l0.4,0.7C406,524.5,405.2,524.8,404.5,525.2z M328,524.1c-0.7-0.4-1.4-0.8-2.1-1.2
			l0.4-0.7c0.6,0.4,1.3,0.8,2,1.2L328,524.1z M408.7,522.9l-0.4-0.7c0.7-0.4,1.3-0.9,1.9-1.3l0.5,0.6
			C410.1,522,409.4,522.5,408.7,522.9z M323.9,521.5c-0.7-0.5-1.3-1-1.9-1.5l0.5-0.6c0.5,0.5,1.1,1,1.8,1.5L323.9,521.5z
			 M412.6,520.1l-0.5-0.6c0.6-0.5,1.1-1.1,1.6-1.7l0.6,0.5C413.8,518.9,413.2,519.5,412.6,520.1z M320.4,518.3c-0.5-0.7-1-1.3-1.4-2
			l0.7-0.4c0.4,0.6,0.8,1.3,1.3,1.9L320.4,518.3z M415.7,516.3L415,516c0.4-0.7,0.7-1.4,0.9-2.1l0.8,0.2
			C416.4,514.8,416.1,515.6,415.7,516.3z M318,514c-0.2-0.8-0.3-1.6-0.3-2.4l0.8,0v0c0,0.7,0.1,1.5,0.3,2.2L318,514z M417,511.7
			l-0.8,0l0.4,0l-0.4-0.1c0-0.7-0.1-1.4-0.3-2.2l0.8-0.2C416.9,510,417,510.8,417,511.7L417,511.7z M318.8,509.3l-0.8-0.2
			c0.2-0.8,0.5-1.5,1-2.3l0.7,0.4C319.3,507.9,319,508.6,318.8,509.3z M415.1,507.3c-0.3-0.6-0.8-1.3-1.3-1.9l0.6-0.5
			c0.5,0.7,1,1.3,1.4,2L415.1,507.3z M321,505.4l-0.6-0.5c0.5-0.6,1.1-1.2,1.7-1.7l0.5,0.6C322,504.3,321.5,504.8,321,505.4z
			 M412.2,503.8c-0.5-0.5-1.1-1-1.8-1.5l0.5-0.6c0.7,0.5,1.3,1,1.9,1.5L412.2,503.8z M324.4,502.2l-0.5-0.6c0.6-0.4,1.3-0.9,2-1.3
			l0.4,0.7C325.7,501.4,325,501.8,324.4,502.2z M408.4,501c-0.6-0.4-1.3-0.8-2-1.2l0.4-0.7c0.7,0.4,1.4,0.8,2.1,1.2L408.4,501z
			 M328.4,499.8l-0.4-0.7c0.7-0.4,1.4-0.7,2.1-1.1l0.3,0.7C329.8,499.1,329.1,499.4,328.4,499.8z M404.3,498.8
			c-0.7-0.3-1.4-0.6-2.2-0.9l0.3-0.7c0.7,0.3,1.5,0.6,2.2,1L404.3,498.8z M332.6,497.8l-0.3-0.7c0.7-0.3,1.5-0.6,2.2-0.9l0.3,0.7
			C334.1,497.2,333.4,497.5,332.6,497.8z M400,497c-0.7-0.3-1.5-0.5-2.2-0.8l0.2-0.7c0.8,0.2,1.5,0.5,2.3,0.8L400,497z M337.1,496.2
			l-0.2-0.7c0.7-0.2,1.5-0.5,2.3-0.7l0.2,0.8C338.6,495.7,337.8,495.9,337.1,496.2z M395.5,495.5c-0.7-0.2-1.5-0.4-2.3-0.6l0.2-0.8
			c0.8,0.2,1.5,0.4,2.3,0.6L395.5,495.5z M341.6,494.9l-0.2-0.8c0.8-0.2,1.5-0.4,2.3-0.5l0.2,0.8
			C343.1,494.5,342.4,494.7,341.6,494.9z M390.9,494.4c-0.8-0.2-1.5-0.3-2.3-0.5l0.2-0.8c0.8,0.2,1.6,0.3,2.3,0.5L390.9,494.4z
			 M346.2,493.9l-0.2-0.8c0.8-0.2,1.6-0.3,2.3-0.4l0.1,0.8C347.8,493.6,347,493.7,346.2,493.9z M386.3,493.5
			c-0.8-0.1-1.5-0.3-2.3-0.4l0.1-0.8c0.8,0.1,1.6,0.2,2.4,0.4L386.3,493.5z M350.9,493.1l-0.1-0.8c0.8-0.1,1.6-0.2,2.4-0.3l0.1,0.8
			C352.4,492.9,351.6,493,350.9,493.1z M381.6,492.8c-0.8-0.1-1.6-0.2-2.3-0.3l0.1-0.8c0.8,0.1,1.6,0.2,2.4,0.3L381.6,492.8z
			 M355.6,492.5l-0.1-0.8c0.8-0.1,1.6-0.2,2.4-0.2l0.1,0.8C357.1,492.4,356.3,492.4,355.6,492.5z M376.9,492.3
			c-0.8-0.1-1.6-0.1-2.4-0.2l0-0.8c0.8,0,1.6,0.1,2.4,0.2L376.9,492.3z M360.3,492.1l0-0.8c0.8-0.1,1.6-0.1,2.4-0.1l0,0.8
			C361.8,492,361.1,492.1,360.3,492.1z M372.2,492c-0.8,0-1.6-0.1-2.4-0.1l0-0.8c0.8,0,1.6,0,2.4,0.1L372.2,492z M365,491.9l0-0.8
			c0.8,0,1.6,0,2.4,0h0.1v0.8h-0.1C366.6,491.9,365.8,491.9,365,491.9z"/>
		<g id="XMLID_1169_">
			<path id="XMLID_316_" class="st6" d="M367.4,472.8c-32.7,0-59.1,12.1-59.1,27c0,14.9,26.5,26.9,59.1,27
				c32.7-0.1,59.1-12.1,59.1-27C426.5,484.9,400,472.8,367.4,472.8z"/>
			<path id="XMLID_315_" class="st7" d="M367.4,477.3c-27.2,0-49.3,9-49.3,20.1c0,11.1,22,20,49.3,20.1c27.2,0,49.3-9,49.3-20.1
				C416.6,486.3,394.6,477.3,367.4,477.3z"/>
			<path id="XMLID_1170_" class="st8" d="M367.4,517.8l0-0.4V517h0c0.8,0,1.5,0,2.3,0l0,0.8C368.9,517.8,368.1,517.8,367.4,517.8z
				 M364.9,517.8c-0.8,0-1.6,0-2.4-0.1l0-0.8c0.8,0,1.6,0.1,2.4,0.1L364.9,517.8z M372.1,517.7l0-0.8c0.8,0,1.6-0.1,2.4-0.1l0,0.8
				C373.6,517.6,372.9,517.7,372.1,517.7z M360.2,517.6c-0.8,0-1.6-0.1-2.4-0.2l0.1-0.8c0.8,0.1,1.6,0.1,2.4,0.2L360.2,517.6z
				 M376.8,517.4l-0.1-0.8c0.8-0.1,1.6-0.1,2.4-0.2l0.1,0.8C378.4,517.3,377.6,517.3,376.8,517.4z M355.4,517.2
				c-0.8-0.1-1.6-0.2-2.4-0.3l0.1-0.8c0.8,0.1,1.6,0.2,2.3,0.3L355.4,517.2z M381.5,516.9l-0.1-0.8c0.8-0.1,1.6-0.2,2.3-0.3l0.1,0.8
				C383.1,516.7,382.3,516.8,381.5,516.9z M350.7,516.6c-0.8-0.1-1.6-0.2-2.3-0.4l0.1-0.8c0.8,0.1,1.5,0.3,2.3,0.4L350.7,516.6z
				 M386.2,516.2l-0.1-0.8c0.8-0.1,1.6-0.3,2.3-0.4l0.2,0.8C387.8,516,387,516.1,386.2,516.2z M346,515.8c-0.8-0.2-1.6-0.3-2.3-0.5
				l0.2-0.8c0.8,0.2,1.5,0.3,2.3,0.5L346,515.8z M390.9,515.3l-0.2-0.8c0.8-0.2,1.5-0.4,2.3-0.5l0.2,0.8
				C392.5,515,391.7,515.2,390.9,515.3z M341.4,514.8c-0.8-0.2-1.5-0.4-2.3-0.6l0.2-0.8c0.7,0.2,1.5,0.4,2.3,0.6L341.4,514.8z
				 M395.5,514.2l-0.2-0.8c0.8-0.2,1.5-0.4,2.3-0.7l0.2,0.7C397.1,513.7,396.3,513.9,395.5,514.2z M336.8,513.4
				c-0.8-0.2-1.5-0.5-2.3-0.8l0.3-0.7c0.7,0.3,1.5,0.5,2.2,0.8L336.8,513.4z M400.1,512.7l-0.3-0.7c0.8-0.3,1.5-0.6,2.2-0.8l0.3,0.7
				C401.6,512.2,400.8,512.4,400.1,512.7z M332.3,511.8c-0.7-0.3-1.5-0.6-2.2-1l0.3-0.7c0.7,0.3,1.4,0.6,2.2,0.9L332.3,511.8z
				 M404.5,510.9l-0.3-0.7c0.7-0.3,1.4-0.7,2.1-1l0.4,0.7C406,510.2,405.2,510.6,404.5,510.9z M328,509.8c-0.7-0.4-1.4-0.8-2.1-1.2
				l0.4-0.7c0.6,0.4,1.3,0.8,2,1.2L328,509.8z M408.7,508.7l-0.4-0.7c0.7-0.4,1.3-0.9,1.9-1.3l0.5,0.6
				C410.1,507.8,409.4,508.2,408.7,508.7z M323.9,507.3c-0.7-0.5-1.3-1-1.9-1.5l0.5-0.6c0.5,0.5,1.1,1,1.8,1.5L323.9,507.3z
				 M412.6,505.8l-0.5-0.6c0.6-0.5,1.1-1.1,1.6-1.7l0.6,0.5C413.8,504.7,413.2,505.2,412.6,505.8z M320.4,504c-0.5-0.7-1-1.3-1.4-2
				l0.7-0.4c0.4,0.6,0.8,1.3,1.3,1.9L320.4,504z M415.7,502.1l-0.7-0.4c0.4-0.7,0.7-1.4,0.9-2.1l0.8,0.2
				C416.4,500.6,416.1,501.3,415.7,502.1z M318,499.7c-0.2-0.8-0.3-1.6-0.3-2.4l0.8,0v0c0,0.7,0.1,1.5,0.3,2.2L318,499.7z
				 M417,497.4l-0.8,0l0.4,0l-0.4-0.1c0-0.7-0.1-1.4-0.3-2.2l0.8-0.2C416.9,495.7,417,496.5,417,497.4L417,497.4z M318.8,495.1
				l-0.8-0.2c0.2-0.8,0.5-1.5,1-2.3l0.7,0.4C319.3,493.7,319,494.4,318.8,495.1z M415.1,493.1c-0.3-0.6-0.8-1.3-1.3-1.9l0.6-0.5
				c0.5,0.7,1,1.3,1.4,2L415.1,493.1z M321,491.1l-0.6-0.5c0.5-0.6,1.1-1.2,1.7-1.7l0.5,0.6C322,490,321.5,490.6,321,491.1z
				 M412.2,489.5c-0.5-0.5-1.1-1-1.8-1.5l0.5-0.6c0.7,0.5,1.3,1,1.9,1.5L412.2,489.5z M324.4,488l-0.5-0.6c0.6-0.5,1.3-0.9,2-1.3
				l0.4,0.7C325.7,487.1,325,487.5,324.4,488z M408.4,486.7c-0.6-0.4-1.3-0.8-2-1.2l0.4-0.7c0.7,0.4,1.4,0.8,2.1,1.2L408.4,486.7z
				 M328.4,485.5l-0.4-0.7c0.7-0.4,1.4-0.7,2.1-1.1l0.3,0.7C329.8,484.8,329.1,485.1,328.4,485.5z M404.3,484.5
				c-0.7-0.3-1.4-0.6-2.2-0.9l0.3-0.7c0.7,0.3,1.5,0.6,2.2,1L404.3,484.5z M332.6,483.5l-0.3-0.7c0.7-0.3,1.5-0.6,2.2-0.9l0.3,0.7
				C334.1,483,333.4,483.2,332.6,483.5z M400,482.7c-0.7-0.3-1.5-0.5-2.2-0.8l0.2-0.7c0.8,0.3,1.5,0.5,2.3,0.8L400,482.7z
				 M337.1,481.9l-0.2-0.7c0.7-0.2,1.5-0.5,2.3-0.7l0.2,0.8C338.6,481.5,337.8,481.7,337.1,481.9z M395.5,481.3
				c-0.7-0.2-1.5-0.4-2.3-0.6l0.2-0.8c0.8,0.2,1.5,0.4,2.3,0.6L395.5,481.3z M341.6,480.6l-0.2-0.8c0.8-0.2,1.5-0.4,2.3-0.6l0.2,0.8
				C343.1,480.3,342.4,480.4,341.6,480.6z M390.9,480.1c-0.8-0.2-1.5-0.3-2.3-0.5l0.2-0.8c0.8,0.1,1.6,0.3,2.3,0.5L390.9,480.1z
				 M346.2,479.6l-0.2-0.8c0.8-0.1,1.6-0.3,2.3-0.4l0.1,0.8C347.8,479.3,347,479.5,346.2,479.6z M386.3,479.2
				c-0.8-0.1-1.5-0.3-2.3-0.4l0.1-0.8c0.8,0.1,1.6,0.2,2.4,0.4L386.3,479.2z M350.9,478.8l-0.1-0.8c0.8-0.1,1.6-0.2,2.4-0.3l0.1,0.8
				C352.4,478.6,351.6,478.7,350.9,478.8z M381.6,478.5c-0.8-0.1-1.6-0.2-2.3-0.3l0.1-0.8c0.8,0.1,1.6,0.2,2.4,0.3L381.6,478.5z
				 M355.6,478.2l-0.1-0.8c0.8-0.1,1.6-0.1,2.4-0.2l0.1,0.8C357.1,478.1,356.3,478.2,355.6,478.2z M376.9,478
				c-0.8-0.1-1.6-0.1-2.4-0.2l0-0.8c0.8,0,1.6,0.1,2.4,0.2L376.9,478z M360.3,477.9l0-0.8c0.8,0,1.6-0.1,2.4-0.1l0,0.8
				C361.8,477.8,361.1,477.8,360.3,477.9z M372.2,477.7c-0.8,0-1.6-0.1-2.4-0.1l0-0.8c0.8,0,1.6,0,2.4,0.1L372.2,477.7z M365,477.7
				l0-0.8c0.8,0,1.6,0,2.4,0h0.1v0.8h-0.1C366.6,477.7,365.8,477.7,365,477.7z"/>
		</g>
		<g id="XMLID_1117_">
			<path id="XMLID_266_" class="st6" d="M367.4,459c-32.7,0-59.1,12.1-59.1,27c0,14.9,26.5,26.9,59.1,27c32.7,0,59.1-12.1,59.1-27
				C426.5,471.1,400,459.1,367.4,459z"/>
			<path id="XMLID_265_" class="st7" d="M367.4,463.5c-27.2,0-49.3,9-49.3,20.1c0,11.1,22,20,49.3,20.1c27.2,0,49.3-9,49.3-20.1
				C416.6,472.5,394.6,463.6,367.4,463.5z"/>
			<path id="XMLID_1118_" class="st8" d="M367.4,504.1l0-0.4v-0.4h0c0.8,0,1.5,0,2.3,0l0,0.8C368.9,504,368.1,504.1,367.4,504.1z
				 M364.9,504c-0.8,0-1.6,0-2.4-0.1l0-0.8c0.8,0,1.6,0.1,2.4,0.1L364.9,504z M372.1,504l0-0.8c0.8,0,1.6-0.1,2.4-0.1l0,0.8
				C373.6,503.9,372.9,503.9,372.1,504z M360.2,503.8c-0.8,0-1.6-0.1-2.4-0.2l0.1-0.8c0.8,0.1,1.6,0.1,2.4,0.2L360.2,503.8z
				 M376.8,503.7l-0.1-0.8c0.8-0.1,1.6-0.1,2.4-0.2l0.1,0.8C378.4,503.5,377.6,503.6,376.8,503.7z M355.4,503.4
				c-0.8-0.1-1.6-0.2-2.4-0.3l0.1-0.8c0.8,0.1,1.6,0.2,2.3,0.3L355.4,503.4z M381.5,503.2l-0.1-0.8c0.8-0.1,1.6-0.2,2.3-0.3l0.1,0.8
				C383.1,503,382.3,503.1,381.5,503.2z M350.7,502.9c-0.8-0.1-1.6-0.2-2.3-0.4l0.1-0.8c0.8,0.1,1.5,0.3,2.3,0.4L350.7,502.9z
				 M386.2,502.5l-0.1-0.8c0.8-0.1,1.6-0.3,2.3-0.4l0.2,0.8C387.8,502.2,387,502.4,386.2,502.5z M346,502.1
				c-0.8-0.1-1.6-0.3-2.3-0.5l0.2-0.8c0.8,0.2,1.5,0.3,2.3,0.5L346,502.1z M390.9,501.6l-0.2-0.8c0.8-0.2,1.5-0.4,2.3-0.5l0.2,0.8
				C392.5,501.2,391.7,501.4,390.9,501.6z M341.4,501c-0.8-0.2-1.5-0.4-2.3-0.6l0.2-0.8c0.7,0.2,1.5,0.4,2.3,0.6L341.4,501z
				 M395.5,500.4l-0.2-0.8c0.8-0.2,1.5-0.4,2.3-0.7l0.2,0.7C397.1,500,396.3,500.2,395.5,500.4z M336.8,499.7
				c-0.8-0.3-1.5-0.5-2.3-0.8l0.3-0.7c0.7,0.3,1.5,0.5,2.2,0.8L336.8,499.7z M400.1,499l-0.3-0.7c0.8-0.3,1.5-0.6,2.2-0.8l0.3,0.7
				C401.6,498.4,400.8,498.7,400.1,499z M332.3,498.1c-0.7-0.3-1.5-0.6-2.2-1l0.3-0.7c0.7,0.3,1.4,0.6,2.2,0.9L332.3,498.1z
				 M404.5,497.2l-0.3-0.7c0.7-0.3,1.4-0.7,2.1-1l0.4,0.7C406,496.5,405.2,496.8,404.5,497.2z M328,496.1c-0.7-0.4-1.4-0.8-2.1-1.2
				l0.4-0.7c0.6,0.4,1.3,0.8,2,1.2L328,496.1z M408.7,494.9l-0.4-0.7c0.7-0.4,1.3-0.9,1.9-1.3l0.5,0.6
				C410.1,494.1,409.4,494.5,408.7,494.9z M323.9,493.5c-0.7-0.5-1.3-1-1.9-1.5l0.5-0.6c0.5,0.5,1.1,1,1.8,1.5L323.9,493.5z
				 M412.6,492.1l-0.5-0.6c0.6-0.5,1.1-1.1,1.6-1.7l0.6,0.5C413.8,490.9,413.2,491.5,412.6,492.1z M320.4,490.3
				c-0.5-0.7-1-1.3-1.4-2l0.7-0.4c0.4,0.6,0.8,1.3,1.3,1.9L320.4,490.3z M415.7,488.4L415,488c0.4-0.7,0.7-1.4,0.9-2.1l0.8,0.2
				C416.4,486.9,416.1,487.6,415.7,488.4z M318,486c-0.2-0.8-0.3-1.6-0.3-2.4l0.8,0v0c0,0.7,0.1,1.5,0.3,2.2L318,486z M417,483.7
				l-0.8,0l0.4,0l-0.4-0.1c0-0.7-0.1-1.4-0.3-2.2l0.8-0.2C416.9,482,417,482.8,417,483.7L417,483.7z M318.8,481.3l-0.8-0.2
				c0.2-0.8,0.5-1.5,1-2.3l0.7,0.4C319.3,480,319,480.6,318.8,481.3z M415.1,479.3c-0.3-0.6-0.8-1.3-1.3-1.9l0.6-0.5
				c0.5,0.7,1,1.3,1.4,2L415.1,479.3z M321,477.4l-0.6-0.5c0.5-0.6,1.1-1.2,1.7-1.7l0.5,0.6C322,476.3,321.5,476.8,321,477.4z
				 M412.2,475.8c-0.5-0.5-1.1-1-1.8-1.5l0.5-0.6c0.7,0.5,1.3,1,1.9,1.5L412.2,475.8z M324.4,474.3l-0.5-0.6c0.6-0.5,1.3-0.9,2-1.3
				l0.4,0.7C325.7,473.4,325,473.8,324.4,474.3z M408.4,473c-0.6-0.4-1.3-0.8-2-1.2l0.4-0.7c0.7,0.4,1.4,0.8,2.1,1.2L408.4,473z
				 M328.4,471.8l-0.4-0.7c0.7-0.4,1.4-0.7,2.1-1.1l0.3,0.7C329.8,471.1,329.1,471.4,328.4,471.8z M404.3,470.8
				c-0.7-0.3-1.4-0.6-2.2-0.9l0.3-0.7c0.7,0.3,1.5,0.6,2.2,1L404.3,470.8z M332.6,469.8l-0.3-0.7c0.7-0.3,1.5-0.6,2.2-0.9l0.3,0.7
				C334.1,469.2,333.4,469.5,332.6,469.8z M400,469c-0.7-0.3-1.5-0.5-2.2-0.8l0.2-0.7c0.8,0.2,1.5,0.5,2.3,0.8L400,469z
				 M337.1,468.2l-0.2-0.7c0.7-0.2,1.5-0.5,2.3-0.7l0.2,0.8C338.6,467.7,337.8,468,337.1,468.2z M395.5,467.5
				c-0.7-0.2-1.5-0.4-2.3-0.6l0.2-0.8c0.8,0.2,1.5,0.4,2.3,0.6L395.5,467.5z M341.6,466.9l-0.2-0.8c0.8-0.2,1.5-0.4,2.3-0.5l0.2,0.8
				C343.1,466.5,342.4,466.7,341.6,466.9z M390.9,466.4c-0.8-0.2-1.5-0.3-2.3-0.5l0.2-0.8c0.8,0.2,1.6,0.3,2.3,0.5L390.9,466.4z
				 M346.2,465.9l-0.2-0.8c0.8-0.2,1.6-0.3,2.3-0.4l0.1,0.8C347.8,465.6,347,465.7,346.2,465.9z M386.3,465.5
				c-0.8-0.1-1.5-0.3-2.3-0.4l0.1-0.8c0.8,0.1,1.6,0.2,2.4,0.4L386.3,465.5z M350.9,465.1l-0.1-0.8c0.8-0.1,1.6-0.2,2.4-0.3l0.1,0.8
				C352.4,464.9,351.6,465,350.9,465.1z M381.6,464.8c-0.8-0.1-1.6-0.2-2.3-0.3l0.1-0.8c0.8,0.1,1.6,0.2,2.4,0.3L381.6,464.8z
				 M355.6,464.5l-0.1-0.8c0.8-0.1,1.6-0.2,2.4-0.2l0.1,0.8C357.1,464.4,356.3,464.4,355.6,464.5z M376.9,464.3
				c-0.8-0.1-1.6-0.1-2.4-0.2l0-0.8c0.8,0.1,1.6,0.1,2.4,0.2L376.9,464.3z M360.3,464.1l0-0.8c0.8-0.1,1.6-0.1,2.4-0.1l0,0.8
				C361.8,464,361.1,464.1,360.3,464.1z M372.2,464c-0.8,0-1.6-0.1-2.4-0.1l0-0.8c0.8,0,1.6,0,2.4,0.1L372.2,464z M365,463.9l0-0.8
				c0.8,0,1.6,0,2.4,0h0.1v0.8h-0.1C366.6,463.9,365.8,463.9,365,463.9z"/>
		</g>
		<g id="XMLID_1097_">
			<path id="XMLID_216_" class="st9" d="M367.4,439.5c-32.7,0-59.1,12.1-59.1,27c0,14.9,26.5,26.9,59.1,27c32.7,0,59.1-12.1,59.1-27
				C426.5,451.6,400,439.5,367.4,439.5z"/>
			<g id="XMLID_1098_">
				<path id="XMLID_215_" class="st10" d="M415.7,546.2c-3.1,1.9-6.7,3.6-10.8,5.1c-3.3,1.2-6.9,2.2-10.8,3.1
					c-3.4,0.8-7,1.4-10.8,1.9c-3.5,0.4-7.1,0.7-10.8,0.9c-1.7,0.1-3.5,0.1-5.3,0.1c-1.9,0-3.7,0-5.5-0.1c-3.7-0.2-7.3-0.5-10.8-0.9
					c-3.8-0.5-7.4-1.1-10.8-1.9c-3.8-0.9-7.5-1.9-10.8-3.2c-4.1-1.5-7.7-3.2-10.8-5.1c-5.3-3.3-9-7.2-10.5-11.4c0,3.6,0,11,0,14.4
					c1.7,3.9,5.4,7.6,10.5,10.8c3.1,1.9,6.7,3.7,10.8,5.2c3.3,1.2,6.9,2.3,10.8,3.3c3.4,0.8,7,1.5,10.8,2c3.5,0.5,7.1,0.8,10.8,1
					c1.8,0.1,3.7,0.1,5.5,0.1c1.8,0,3.5,0,5.3-0.1c3.7-0.2,7.3-0.5,10.8-0.9c3.7-0.5,7.3-1.2,10.8-2c3.8-0.9,7.4-2,10.8-3.2
					c4.1-1.5,7.7-3.2,10.8-5.1c5.3-3.2,9-7,10.8-11c0-3.4,0-10.8,0-14.4C424.9,538.9,421.2,542.9,415.7,546.2z"/>
				<path id="XMLID_214_" class="st10" d="M415.7,528.8c-3.1,1.9-6.7,3.6-10.8,5.1c-3.3,1.2-6.9,2.3-10.8,3.1
					c-3.4,0.8-7,1.4-10.8,1.9c-3.5,0.4-7.1,0.7-10.8,0.9c-1.7,0.1-3.5,0.1-5.3,0.1c-1.9,0-3.7,0-5.5-0.1c-3.7-0.2-7.3-0.5-10.8-0.9
					c-3.8-0.5-7.4-1.1-10.8-1.9c-3.8-0.9-7.5-1.9-10.8-3.2c-4.1-1.5-7.7-3.2-10.8-5.1c-5.3-3.3-9-7.2-10.5-11.4c0,3.6,0,11,0,14.4
					c1.7,3.9,5.4,7.6,10.5,10.8c3.1,1.9,6.7,3.7,10.8,5.2c3.3,1.3,6.9,2.3,10.8,3.2c3.4,0.8,7,1.5,10.8,2c3.5,0.5,7.1,0.8,10.8,1
					c1.8,0.1,3.7,0.1,5.5,0.1c1.8,0,3.5,0,5.3-0.1c3.7-0.2,7.3-0.5,10.8-0.9c3.7-0.5,7.3-1.2,10.8-2c3.8-0.9,7.4-2,10.8-3.2
					c4.1-1.5,7.7-3.2,10.8-5.1c5.3-3.2,9-7,10.8-11c0-3.4,0-11,0-14.6C424.9,521.3,421.2,525.4,415.7,528.8z"/>
				<path id="XMLID_213_" class="st10" d="M415.7,512.4c-3.1,1.9-6.7,3.6-10.8,5.1c-3.3,1.2-6.9,2.3-10.8,3.1
					c-3.4,0.8-7,1.4-10.8,1.9c-3.5,0.4-7.1,0.7-10.8,0.9c-1.7,0.1-3.5,0.1-5.3,0.1c-1.9,0-3.7,0-5.5-0.1c-3.7-0.2-7.3-0.5-10.8-0.9
					c-3.8-0.5-7.4-1.1-10.8-1.9c-3.8-0.9-7.5-1.9-10.8-3.2c-4.1-1.5-7.7-3.2-10.8-5.2c-5.3-3.3-9-7.2-10.5-11.4c0,3.6,0,11,0,14.4
					c1.7,3.9,5.4,7.6,10.5,10.8c3.1,1.9,6.7,3.7,10.8,5.2c3.3,1.2,6.9,2.3,10.8,3.3c3.4,0.8,7,1.5,10.8,2c3.5,0.5,7.1,0.8,10.8,1
					c1.8,0.1,3.7,0.1,5.5,0.1c1.8,0,3.5,0,5.3-0.1c3.7-0.2,7.3-0.5,10.8-0.9c3.7-0.5,7.3-1.2,10.8-2c3.8-0.9,7.4-2,10.8-3.2
					c4.1-1.5,7.7-3.2,10.8-5.1c5.3-3.2,9-7,10.8-11c0-3.4,0-10.8,0-14.4C424.9,505.1,421.2,509.1,415.7,512.4z"/>
				<path id="XMLID_212_" class="st10" d="M415.7,496c-3.1,1.9-6.7,3.6-10.8,5.1c-3.3,1.2-6.9,2.2-10.8,3.1c-3.4,0.8-7,1.4-10.8,1.9
					c-3.5,0.4-7.1,0.7-10.8,0.9c-1.7,0.1-3.5,0.1-5.3,0.1c-1.9,0-3.7,0-5.5-0.1c-3.7-0.2-7.3-0.5-10.8-0.9
					c-3.8-0.5-7.4-1.1-10.8-1.9c-3.8-0.9-7.5-1.9-10.8-3.2c-4.1-1.5-7.7-3.2-10.8-5.1c-5.3-3.3-9-7.2-10.5-11.4c0,3.6,0,11,0,14.4
					c1.7,3.9,5.4,7.6,10.5,10.8c3.1,1.9,6.7,3.7,10.8,5.2c3.3,1.2,6.9,2.3,10.8,3.3c3.4,0.8,7,1.5,10.8,2c3.5,0.5,7.1,0.8,10.8,1
					c1.8,0.1,3.7,0.1,5.5,0.1c1.8,0,3.5,0,5.3-0.1c3.7-0.2,7.3-0.5,10.8-0.9c3.7-0.5,7.3-1.2,10.8-2c3.8-0.9,7.4-2,10.8-3.2
					c4.1-1.5,7.7-3.2,10.8-5.1c5.3-3.2,9-7,10.8-11c0-3.4,0-10.8,0-14.4C424.9,488.7,421.2,492.7,415.7,496z"/>
				<path id="XMLID_211_" class="st10" d="M415.7,479.1c-3.1,1.9-6.7,3.6-10.8,5.1c-3.3,1.2-6.9,2.3-10.8,3.1
					c-3.4,0.8-7,1.4-10.8,1.9c-3.5,0.4-7.1,0.7-10.8,0.9c-1.7,0.1-3.5,0.1-5.3,0.1c-1.9,0-3.7,0-5.5-0.1c-3.7-0.2-7.3-0.5-10.8-0.9
					c-3.8-0.5-7.4-1.1-10.8-1.9c-3.8-0.9-7.5-1.9-10.8-3.2c-4.1-1.5-7.7-3.2-10.8-5.1c-5.3-3.3-9-7.2-10.5-11.4c0,3.6,0,11,0,14.4
					c1.7,3.9,5.4,7.6,10.5,10.8c3.1,1.9,6.7,3.7,10.8,5.2c3.3,1.3,6.9,2.3,10.8,3.3c3.4,0.8,7,1.5,10.8,2c3.5,0.5,7.1,0.8,10.8,1
					c1.8,0.1,3.7,0.1,5.5,0.1c1.8,0,3.5,0,5.3-0.1c3.7-0.2,7.3-0.5,10.8-0.9c3.7-0.5,7.3-1.2,10.8-2c3.8-0.9,7.4-2,10.8-3.2
					c4.1-1.5,7.7-3.2,10.8-5.1c5.3-3.2,9-7,10.8-11c0-3.4,0-10.8,0-14.4C424.9,471.8,421.2,475.8,415.7,479.1z"/>
			</g>
		</g>
		<path id="XMLID_1089_" class="st22" d="M367.6,485.6L367.6,485.6c-25.4,0-52.4-7.4-52.4-21c0-13.6,27-21,52.4-21
			c25.4,0,52.4,7.4,52.4,21C419.9,478.2,392.9,485.5,367.6,485.6z M367.6,449.4c-27.2,0-46.2,8-46.2,15.2c0,7.1,19,15.1,46.2,15.2
			c27.2,0,46.2-8,46.2-15.2C413.7,457.4,394.8,449.4,367.6,449.4z"/>
		<g id="XMLID_1082_">
			<g id="XMLID_760_">
				<path id="XMLID_767_" class="st22" d="M404,465.5h-8.5c-0.3,2.7-1.9,5.4-3.8,6.9l-10.4-1.2c2-1.7,3.9-4.1,3.9-6.8
					c0-2.3-2-3.9-5.5-3.9c-3.4,0-5.5,1.3-7.8,4.3c-3.2,4.4-7.7,7.3-16.3,7.3c-7.8,0-14-2.5-15.9-6.9h-8.5v-4h7.8
					c0.3-2.7,1.5-4.6,2.9-5.9l10.1,1.2c-1,1.1-3,2.9-3,5.9c0,2.6,2.5,3.5,5,3.5c2.9,0,4.8-1.4,7.7-4.9c3.7-4.8,8.7-6.8,16.7-6.8
					c7.9,0,14.7,2.6,16.5,7.2h9.1V465.5z"/>
			</g>
		</g>
	</g>
	<g id="XMLID_1064_">
		<circle id="XMLID_207_" class="st9" cx="336.8" cy="557.3" r="50.4"/>
		<path id="XMLID_1072_" class="st22" d="M336.8,601.5c-24.4,0-44.3-19.9-44.3-44.3c0-24.4,19.9-44.3,44.3-44.3
			c24.4,0,44.3,19.9,44.3,44.3C381,581.7,361.2,601.5,336.8,601.5z M336.8,521.4c-19.8,0-35.9,16.1-35.9,35.9
			c0,19.8,16.1,35.9,35.9,35.9c19.8,0,35.9-16.1,35.9-35.9C372.7,537.5,356.6,521.4,336.8,521.4z"/>
		<g id="XMLID_1065_">
			<g id="XMLID_773_">
				<path id="XMLID_777_" class="st22" d="M332.7,588.4v-7.3c-5.1-0.2-10.1-1.6-13-3.3l2.3-8.9c3.2,1.8,7.7,3.4,12.7,3.4
					c4.4,0,7.3-1.7,7.3-4.7c0-2.9-2.4-4.7-8.1-6.6c-8.2-2.7-13.7-6.6-13.7-14c0-6.7,4.7-12,12.9-13.6v-7.3h7.5v6.7
					c5.1,0.2,8.6,1.3,11.1,2.5l-2.2,8.6c-2-0.8-5.5-2.6-11-2.6c-5,0-6.6,2.1-6.6,4.3c0,2.5,2.7,4.1,9.2,6.6
					c9.1,3.2,12.8,7.4,12.8,14.3c0,6.8-4.8,12.6-13.6,14.1v7.8H332.7z"/>
			</g>
		</g>
	</g>
	<g id="XMLID_1047_">
		<circle id="XMLID_203_" class="st9" cx="683" cy="504.9" r="57.7"/>
		<path id="XMLID_1055_" class="st22" d="M683,555.6c-28,0-50.7-22.7-50.7-50.7c0-27.9,22.7-50.7,50.7-50.7
			c28,0,50.7,22.7,50.7,50.7C733.7,532.9,710.9,555.6,683,555.6z M683,463.8c-22.7,0-41.1,18.5-41.1,41.1
			c0,22.7,18.5,41.1,41.1,41.1c22.7,0,41.1-18.5,41.1-41.1C724.1,482.3,705.7,463.8,683,463.8z"/>
		<g id="XMLID_1048_">
			<g id="XMLID_781_">
				<path id="XMLID_788_" class="st22" d="M678.3,540.6v-8.3c-5.9-0.3-11.5-1.8-14.9-3.8l2.6-10.2c3.7,2,8.8,3.8,14.5,3.8
					c5,0,8.4-1.9,8.4-5.4c0-3.3-2.8-5.4-9.3-7.6c-9.4-3.1-15.7-7.5-15.7-16c0-7.7,5.4-13.7,14.8-15.6v-8.3h8.6v7.7
					c5.9,0.3,9.8,1.5,12.7,2.9l-2.5,9.9c-2.3-1-6.3-3-12.6-3c-5.7,0-7.5,2.4-7.5,4.9c0,2.9,3.1,4.7,10.5,7.5
					c10.4,3.7,14.6,8.5,14.6,16.4c0,7.8-5.5,14.4-15.6,16.2v8.9H678.3z"/>
			</g>
		</g>
	</g>
	<g id="XMLID_974_">
		<g id="XMLID_1025_">
			<circle id="XMLID_199_" class="st23" cx="733.9" cy="275.9" r="9.6"/>
			<circle id="XMLID_198_" class="st24" cx="733.9" cy="275.9" r="6.1"/>
			<g id="XMLID_1026_">
				<g id="XMLID_1034_">
					<circle id="XMLID_197_" class="st25" cx="733.9" cy="271.9" r="0.9"/>
					<circle id="XMLID_196_" class="st25" cx="733.9" cy="279.9" r="0.9"/>
				</g>
				<g id="XMLID_1027_">
					<circle id="XMLID_195_" class="st25" cx="737.8" cy="275.9" r="0.9"/>
					<circle id="XMLID_194_" class="st25" cx="729.9" cy="275.9" r="0.9"/>
				</g>
			</g>
		</g>
		<path id="XMLID_193_" class="st18" d="M736.8,235.1h-15.5h-5h0l0,7.3v31.6h5v0h2.2c0,0,1.2-6.8,10.3-6.8c9.1,0,10.8,9.2,10.8,9.2
			h15.2v-16.9L736.8,235.1z"/>
		<polygon id="XMLID_192_" class="st23" points="718.6,238 718.6,248.8 734.9,248.8 736,250.2 748.7,250.2 737.4,238.1 		"/>
		<path id="XMLID_191_" class="st26" d="M728.2,254.1c0,0.6-0.5,1.1-1.1,1.1h-4.3c-0.6,0-1.1-0.5-1.1-1.1l0,0c0-0.6,0.5-1.1,1.1-1.1
			h4.3C727.7,253,728.2,253.5,728.2,254.1L728.2,254.1z"/>
		<path id="XMLID_190_" class="st19" d="M761.6,272c0,0.8-0.7,1.5-1.5,1.5h-6.5c-0.8,0-1.5-0.7-1.5-1.5v-3.5c0-0.8,0.7-1.5,1.5-1.5
			h6.5c0.8,0,1.5,0.7,1.5,1.5V272z"/>
		<g id="XMLID_1010_">
			<path id="XMLID_189_" class="st27" d="M759.4,264.2v-2.8c0-0.8-0.7-1.5-1.5-1.5h-6.5c-0.8,0-1.5,0.7-1.5,1.5v2.8
				c1.5-0.3,3.1-0.4,4.8-0.4C756.2,263.8,757.8,264,759.4,264.2z"/>
			<path id="XMLID_188_" class="st28" d="M751.3,266.4h6.5c0.8,0,1.5-0.7,1.5-1.5v-0.6c-1.5-0.3-3.1-0.4-4.8-0.4
				c-1.7,0-3.2,0.2-4.8,0.4v0.6C749.8,265.7,750.5,266.4,751.3,266.4z"/>
		</g>
		<path id="XMLID_187_" class="st29" d="M735.3,241.8c0,1.7-1.3,3-3,3h-8.7c-1.7,0-3-1.3-3-3l0,0c0-1.7,1.3-3,3-3h8.7
			C734,238.8,735.3,240.2,735.3,241.8L735.3,241.8z"/>
		<path id="XMLID_186_" class="st18" d="M759.9,269c0,0.5-0.4,0.9-0.9,0.9h-10.5c-0.5,0-0.9-0.4-0.9-0.9l0,0c0-0.5,0.4-0.9,0.9-0.9
			H759C759.5,268.1,759.9,268.5,759.9,269L759.9,269z"/>
		<path id="XMLID_185_" class="st19" d="M745.4,264.7c0,0.4-0.3,0.7-0.7,0.7h-25.9c-0.4,0-0.7-0.3-0.7-0.7l0,0
			c0-0.4,0.3-0.7,0.7-0.7h25.9C745,264,745.4,264.3,745.4,264.7L745.4,264.7z"/>
		<g id="XMLID_983_">
			<circle id="XMLID_184_" class="st23" cx="662.4" cy="275.9" r="9.6"/>
			<circle id="XMLID_183_" class="st24" cx="662.4" cy="275.9" r="6.1"/>
			<g id="XMLID_984_">
				<g id="XMLID_992_">
					<circle id="XMLID_182_" class="st25" cx="662.4" cy="271.9" r="0.9"/>
					<circle id="XMLID_181_" class="st25" cx="662.4" cy="279.9" r="0.9"/>
				</g>
				<g id="XMLID_985_">
					<circle id="XMLID_180_" class="st25" cx="666.3" cy="275.9" r="0.9"/>
					<circle id="XMLID_179_" class="st25" cx="658.4" cy="275.9" r="0.9"/>
				</g>
			</g>
		</g>
		<path id="XMLID_178_" class="st19" d="M715.5,262.3h-69.9v11.3h1.3c-0.2,0.8-0.3,1.6-0.3,2.4h4.5c0.5-6,5.5-10.7,11.6-10.7
			s11.1,4.7,11.6,10.7h4.5c0-0.8-0.2-1.5-0.3-2.2h37.1V262.3z"/>
		<g id="XMLID_975_">
			<path id="XMLID_177_" class="st30" d="M715.5,225.3h-5.8c-2.7,6.8-13.4,28.3-44,36h49.8V225.3z"/>
			<path id="XMLID_176_" class="st15" d="M709.6,225.3h-65.4v36h21.4C696.3,253.5,707,232,709.6,225.3z"/>
		</g>
	</g>
	<g id="XMLID_18_">
		<g id="XMLID_910_">
			<g id="XMLID_914_">
				<polygon id="XMLID_175_" class="st31" points="539.6,271.6 564.8,271.6 539.6,235.5 				"/>
				<polygon id="XMLID_174_" class="st32" points="539.6,235.5 564.8,271.6 574.5,271.6 574.5,235 539.6,235 				"/>
				<g id="XMLID_955_">
					<g id="XMLID_815_">
						<g id="XMLID_818_">
							<polygon id="XMLID_819_" class="st33" points="541.3,270.9 543.4,270.9 543.6,270.9 543.9,270.9 543.9,270 543.4,270 
								543.4,270.3 541.3,270.3 541.3,270 540.8,270 540.8,270.9 541.1,270.9 							"/>
						</g>
						<g id="XMLID_816_">
							<polygon id="XMLID_817_" class="st33" points="541.8,270 542.9,270 542.9,268.2 543.5,268.2 542.4,267.1 541.3,268.2 
								541.8,268.2 							"/>
						</g>
					</g>
				</g>
				<path id="XMLID_162_" class="st33" d="M547.9,268.2v-0.9h-0.5l-0.2,0.5l0.2,0.1l-0.3,0.9l0.2-0.9l-0.2,0l0.1-0.6h-1.1v0.9
					c0,0.5,0.3,1,0.7,1.1v1.4h-0.4c0,0-0.1,0-0.1,0.1c0,0,0,0.1,0.1,0.1h1.1c0,0,0.1,0,0.1-0.1c0,0,0-0.1-0.1-0.1h-0.4v-1.4
					C547.5,269.2,547.9,268.7,547.9,268.2z"/>
				<path id="XMLID_938_" class="st33" d="M552,267.5C552,267.5,552,267.5,552,267.5c-0.1,0-0.2,0-0.3,0v0v-0.1
					c0-0.1-0.1-0.1-0.1-0.1c-0.1,0-0.1,0.1-0.1,0.1v0.1v0c-1.4,0.1-1.5,1.6-1.5,1.6h1h0.6v1.3c0,0,0,0,0,0c0,0,0,0.1-0.1,0.1
					c0,0-0.1,0-0.1,0c-0.1-0.1-0.1-0.2-0.1-0.2c0-0.1-0.1-0.2-0.1-0.2c-0.1,0-0.2,0.1-0.2,0.1c0,0.1,0,0.3,0.2,0.4
					c0.1,0.1,0.2,0.1,0.3,0.1c0.3,0,0.4-0.3,0.4-0.4c0,0,0,0,0,0c0,0,0,0,0,0v-1.3h1.5C553.3,269.1,553.2,267.8,552,267.5z
					 M551,267.9c0,0-0.1,0.1-0.1,0.1c0,0-0.1,0.1-0.1,0.1c0,0,0,0-0.1,0.1c0,0,0,0-0.1,0.1c0,0-0.1,0.1-0.1,0.1c0,0,0,0,0,0.1
					c0,0,0,0,0,0.1c0,0,0,0,0,0.1c0,0,0,0,0,0.1c0,0,0,0.1,0,0.1c0,0,0,0.1,0,0.1c0,0,0,0.1,0,0.1c0,0,0,0.1,0,0.1s0,0,0-0.1
					c0,0,0-0.1,0-0.1c0,0,0-0.1,0-0.1c0,0,0-0.1,0-0.1c0,0,0,0,0-0.1c0,0,0,0,0-0.1c0,0,0,0,0-0.1c0,0,0,0,0,0l0,0
					c0,0,0.1-0.1,0.1-0.1c0,0,0,0,0.1-0.1c0,0,0,0,0.1-0.1c0,0,0.1-0.1,0.1-0.1c0.1-0.1,0.2-0.1,0.2-0.2c0.1,0,0.1-0.1,0.2-0.1
					c0,0,0.1,0,0.1,0s-0.1,0-0.2,0.1C551,267.8,551,267.8,551,267.9z M551.4,267.7C551.4,267.7,551.4,267.7,551.4,267.7
					c0,0.1-0.1,0.1-0.1,0.1c0,0,0,0.1,0,0.1c0,0,0,0.1,0,0.1c0,0,0,0.1,0,0.1c0,0,0,0.1,0,0.1c0,0,0,0.1,0,0.1c0,0,0,0.1,0,0.1
					c0,0,0,0.1,0,0.1c0,0,0,0.1,0,0.1c0,0,0,0.1,0,0.1c0,0,0,0,0,0.1c0,0,0,0.1,0,0.1s0,0,0-0.1c0,0,0,0,0-0.1c0,0,0-0.1,0-0.1
					c0,0,0-0.1,0-0.1c0,0,0-0.1,0-0.1c0,0,0-0.1,0-0.1c0,0,0-0.1,0-0.1c0,0,0-0.1,0-0.1c0,0,0-0.1,0-0.1c0,0,0,0,0-0.1
					c0,0,0,0,0-0.1c0,0,0-0.1,0-0.1C551.4,267.8,551.4,267.7,551.4,267.7C551.5,267.7,551.5,267.6,551.4,267.7
					C551.5,267.6,551.5,267.7,551.4,267.7z M552.1,268.9C552.1,268.9,552.1,268.9,552.1,268.9c0,0.1,0,0.1,0,0.1
					S552,269,552.1,268.9C552,268.9,552,268.9,552.1,268.9C552,268.8,552,268.8,552.1,268.9c0-0.1,0-0.2-0.1-0.2c0,0,0-0.1,0-0.1
					c0,0,0-0.1,0-0.1c0,0,0-0.1,0-0.1c0,0,0-0.1,0-0.1c0,0,0-0.1,0-0.1c0,0,0-0.1,0-0.1c0,0,0-0.1,0-0.1c0,0,0-0.1,0-0.1
					c0,0,0,0,0-0.1c0,0,0-0.1,0-0.1s0,0,0,0c0,0,0.1,0.1,0.1,0.1c0,0,0,0.1,0,0.1c0,0,0,0,0,0.1c0,0,0,0,0,0.1c0,0,0,0.1,0,0.1
					c0,0,0,0.1,0,0.1c0,0,0,0.1,0,0.1c0,0,0,0.1,0,0.1c0,0,0,0.1,0,0.1C552.1,268.7,552.1,268.7,552.1,268.9
					C552.1,268.8,552.1,268.8,552.1,268.9z M552.9,268.8c0,0,0-0.1,0-0.1c0,0,0-0.1,0-0.1c0,0,0,0,0-0.1c0,0,0,0,0-0.1
					c0,0,0,0,0-0.1c0,0,0,0,0-0.1c0,0-0.1-0.1-0.1-0.1c0,0,0,0-0.1-0.1c0,0,0,0-0.1-0.1c0,0-0.1-0.1-0.1-0.1c0,0-0.1-0.1-0.1-0.1
					c0,0-0.1-0.1-0.1-0.1c-0.1-0.1-0.2-0.1-0.2-0.1s0,0,0.1,0c0,0,0.1,0,0.2,0.1c0.1,0,0.2,0.1,0.2,0.2c0,0,0.1,0.1,0.1,0.1
					c0,0,0,0,0.1,0.1c0,0,0,0,0.1,0.1c0,0,0.1,0.1,0.1,0.1l0,0c0,0,0,0,0,0c0,0,0,0,0,0.1c0,0,0,0,0,0.1c0,0,0,0,0,0.1
					c0,0,0,0.1,0,0.1C552.9,268.7,552.9,268.8,552.9,268.8C552.9,268.8,552.9,268.9,552.9,268.8c0,0.1,0,0.2,0,0.2
					S552.9,268.9,552.9,268.8C552.9,268.9,552.9,268.8,552.9,268.8z"/>
				<g id="XMLID_915_">
					<g id="XMLID_907_">
						<polygon id="XMLID_920_" class="st33" points="566,267.2 566,271.1 566.4,271.1 566.4,267.2 566.4,265.9 566,265.9 						"/>
						<rect id="XMLID_919_" x="568.5" y="265.9" class="st33" width="0.3" height="5.2"/>
						<rect id="XMLID_918_" x="569.2" y="265.9" class="st33" width="1.1" height="5.2"/>
						<rect id="XMLID_917_" x="571.9" y="265.9" class="st33" width="0.3" height="5.2"/>
						<rect id="XMLID_916_" x="571.2" y="265.9" class="st33" width="0.2" height="5.2"/>
						<rect id="XMLID_913_" x="572.6" y="265.9" class="st33" width="0.5" height="5.2"/>
						<rect id="XMLID_912_" x="567.6" y="265.9" class="st33" width="0.5" height="5.2"/>
						<rect id="XMLID_911_" x="566.6" y="265.9" class="st33" width="0.2" height="5.2"/>
						<rect id="XMLID_909_" x="567.1" y="265.9" class="st33" width="0.2" height="5.2"/>
						<rect id="XMLID_908_" x="570.6" y="265.9" class="st33" width="0.2" height="5.2"/>
					</g>
				</g>
			</g>
			<rect id="XMLID_132_" x="538.8" y="227.7" class="st34" width="36.5" height="7.4"/>
		</g>
		<g id="XMLID_20_">
			<g id="XMLID_24_">
				<polygon id="XMLID_128_" class="st31" points="558.3,283.1 591.4,283.1 558.3,258.5 				"/>
				<polygon id="XMLID_120_" class="st32" points="558.3,258.5 591.4,283.1 604.1,283.1 604.1,257.7 558.3,257.7 				"/>
				<g id="XMLID_891_">
					<g id="XMLID_820_">
						<g id="XMLID_823_">
							<polygon id="XMLID_824_" class="st33" points="560.6,282.2 563.3,282.2 563.6,282.2 564,282.2 564,281 563.3,281 
								563.3,281.5 560.6,281.5 560.6,281 559.9,281 559.9,282.2 560.4,282.2 							"/>
						</g>
						<g id="XMLID_821_">
							<polygon id="XMLID_822_" class="st33" points="561.2,281 562.7,281 562.7,278.7 563.4,278.7 562,277.2 560.5,278.7 
								561.2,278.7 							"/>
						</g>
					</g>
				</g>
				<path id="XMLID_76_" class="st33" d="M569.2,278.7v-1.2h-0.7l-0.2,0.7l0.3,0.1l-0.4,1.2l0.3-1.1l-0.3-0.1l0.2-0.8h-1.4v1.2
					c0,0.7,0.4,1.3,1,1.4v1.9h-0.6c-0.1,0-0.1,0.1-0.1,0.1c0,0.1,0.1,0.1,0.1,0.1h1.5c0.1,0,0.1-0.1,0.1-0.1c0-0.1-0.1-0.1-0.1-0.1
					h-0.6v-1.9C568.7,280,569.2,279.4,569.2,278.7z"/>
				<path id="XMLID_874_" class="st33" d="M574.6,277.8C574.6,277.8,574.6,277.8,574.6,277.8c-0.1,0-0.2,0-0.3,0v0v-0.1
					c0-0.1-0.1-0.2-0.2-0.2c-0.1,0-0.2,0.1-0.2,0.2v0.1v0c-1.9,0.1-2,2.2-2,2.2h1.3h0.7v1.7c0,0,0,0,0,0c0,0,0,0.2-0.2,0.2
					c0,0-0.1,0-0.1,0c-0.1-0.1-0.1-0.2-0.1-0.2c0-0.1-0.1-0.2-0.2-0.2c-0.1,0-0.2,0.1-0.2,0.2c0,0.1,0,0.3,0.2,0.5
					c0.1,0.1,0.2,0.2,0.4,0.2c0.4,0,0.6-0.3,0.6-0.5c0,0,0,0,0,0c0,0,0,0,0,0v-1.7h2C576.3,279.9,576.2,278.1,574.6,277.8z
					 M573.2,278.2c-0.1,0-0.1,0.1-0.2,0.1c-0.1,0-0.1,0.1-0.2,0.1c0,0,0,0.1-0.1,0.1c0,0,0,0.1-0.1,0.1c0,0.1-0.1,0.1-0.1,0.2
					c0,0,0,0.1-0.1,0.1c0,0,0,0.1,0,0.1c0,0,0,0.1,0,0.1c0,0,0,0.1,0,0.1c0,0.1,0,0.1-0.1,0.2c0,0.1,0,0.1,0,0.1c0,0,0,0.1,0,0.1
					c0,0.1,0,0.1,0,0.1s0,0,0-0.1c0,0,0-0.1,0-0.1c0,0,0-0.1,0-0.1c0-0.1,0-0.1,0-0.2c0,0,0-0.1,0-0.1c0,0,0-0.1,0-0.1
					c0,0,0-0.1,0-0.1c0,0,0,0,0,0l0,0c0-0.1,0.1-0.1,0.1-0.2c0,0,0-0.1,0.1-0.1c0,0,0-0.1,0.1-0.1c0.1-0.1,0.1-0.1,0.2-0.1
					c0.1-0.1,0.2-0.2,0.3-0.2c0.1,0,0.2-0.1,0.2-0.1c0.1,0,0.1,0,0.1,0s-0.1,0.1-0.3,0.2C573.3,278.2,573.3,278.2,573.2,278.2z
					 M573.9,278C573.8,278.1,573.8,278.1,573.9,278c-0.1,0.1-0.1,0.2-0.1,0.2c0,0,0,0.1-0.1,0.1c0,0,0,0.1-0.1,0.1
					c0,0.1,0,0.1,0,0.2c0,0.1,0,0.1,0,0.2c0,0.1,0,0.1,0,0.2c0,0.1,0,0.1,0,0.2c0,0.1,0,0.1,0,0.2c0,0,0,0.1,0,0.1c0,0,0,0.1,0,0.1
					c0,0,0,0.1,0,0.1c0,0.1,0,0.1,0,0.1s0,0,0-0.1c0,0,0-0.1,0-0.1c0,0,0-0.1,0-0.1c0,0,0-0.1,0-0.1c0,0,0-0.1,0-0.2
					c0-0.1,0-0.1,0-0.2c0-0.1,0-0.1,0-0.2c0-0.1,0-0.1,0-0.2c0-0.1,0-0.1,0.1-0.2c0,0,0-0.1,0-0.1c0,0,0,0,0-0.1c0,0,0-0.1,0.1-0.1
					C573.8,278.1,573.8,278.1,573.9,278C573.9,278,573.9,278,573.9,278C573.9,278,573.9,278,573.9,278z M574.7,279.6
					C574.7,279.6,574.7,279.6,574.7,279.6c0,0.1,0,0.2,0,0.2S574.6,279.7,574.7,279.6C574.6,279.6,574.6,279.6,574.7,279.6
					c0,0,0-0.1,0-0.1c0,0,0-0.1,0-0.1c0,0,0-0.1,0-0.2c0-0.1,0-0.1,0-0.2c0-0.1,0-0.1,0-0.2c0-0.1,0-0.1,0-0.2c0-0.1,0-0.1,0-0.2
					c0-0.1,0-0.1-0.1-0.1c0,0,0-0.1-0.1-0.1c0,0,0-0.1,0-0.1c0,0,0-0.1,0-0.1c0,0,0-0.1,0-0.1s0,0,0.1,0.1c0,0,0.1,0.1,0.1,0.2
					c0,0,0,0.1,0.1,0.1c0,0,0,0,0,0.1c0,0,0,0,0,0.1c0,0.1,0,0.1,0.1,0.2c0,0.1,0,0.1,0,0.2c0,0.1,0,0.1,0,0.2c0,0.1,0,0.1,0,0.2
					c0,0.1,0,0.1,0,0.2c0,0,0,0.1,0,0.1C574.7,279.5,574.7,279.5,574.7,279.6z M575.7,279.5c0,0,0-0.1,0-0.1c0-0.1,0-0.1-0.1-0.2
					c0,0,0-0.1,0-0.1c0,0,0-0.1,0-0.1c0,0,0-0.1,0-0.1c0,0,0-0.1-0.1-0.1c0-0.1-0.1-0.1-0.1-0.2c0,0,0-0.1-0.1-0.1
					c0,0,0-0.1-0.1-0.1c0,0-0.1-0.1-0.2-0.1c-0.1,0-0.1-0.1-0.2-0.1c0,0-0.1-0.1-0.1-0.1c-0.2-0.1-0.3-0.2-0.3-0.2s0,0,0.1,0
					c0.1,0,0.1,0.1,0.2,0.1c0.1,0,0.2,0.1,0.3,0.2c0.1,0,0.1,0.1,0.2,0.1c0,0,0.1,0.1,0.1,0.1c0,0,0,0.1,0.1,0.1
					c0,0.1,0.1,0.1,0.1,0.2l0,0c0,0,0,0,0,0c0,0,0,0.1,0,0.1c0,0,0,0.1,0,0.1c0,0,0,0.1,0,0.1c0,0.1,0,0.1,0,0.2
					C575.7,279.4,575.7,279.4,575.7,279.5c0,0,0,0.1,0,0.1c0,0.1,0,0.1,0,0.1s0,0,0-0.1C575.7,279.6,575.7,279.5,575.7,279.5z"/>
				<g id="XMLID_117_">
					<g id="XMLID_921_">
						<polygon id="XMLID_931_" class="st33" points="592.9,277.4 592.9,282.5 593.5,282.5 593.5,277.4 593.5,275.7 592.9,275.7 
													"/>
						<rect id="XMLID_930_" x="596.2" y="275.7" class="st33" width="0.3" height="6.8"/>
						<rect id="XMLID_929_" x="597.1" y="275.7" class="st33" width="1.4" height="6.8"/>
						<rect id="XMLID_928_" x="600.7" y="275.7" class="st33" width="0.5" height="6.8"/>
						<rect id="XMLID_927_" x="599.8" y="275.7" class="st33" width="0.3" height="6.8"/>
						<rect id="XMLID_926_" x="601.6" y="275.7" class="st33" width="0.6" height="6.8"/>
						<rect id="XMLID_925_" x="595" y="275.7" class="st33" width="0.7" height="6.8"/>
						<rect id="XMLID_924_" x="593.8" y="275.7" class="st33" width="0.3" height="6.8"/>
						<rect id="XMLID_923_" x="594.3" y="275.7" class="st33" width="0.3" height="6.8"/>
						<rect id="XMLID_922_" x="599" y="275.7" class="st33" width="0.3" height="6.8"/>
					</g>
				</g>
			</g>
			<rect id="XMLID_1_" x="557.3" y="248.2" class="st34" width="47.8" height="9.7"/>
		</g>
	</g>
</g>
</svg>
