<?xml version="1.0" encoding="utf-8"?>
<!-- Generator: Adobe Illustrator 19.0.0, SVG Export Plug-In . SVG Version: 6.00 Build 0)  -->
<svg version="1.1" id="Layer_1" xmlns="http://www.w3.org/2000/svg" xmlns:xlink="http://www.w3.org/1999/xlink" x="0px" y="0px"
	 viewBox="0 0 1141 787" style="enable-background:new 0 0 1141 787;" xml:space="preserve">
<style type="text/css">
	.st0{fill:#F1F0F0;}
	.st1{fill:#E0E0E0;}
	.st2{fill:#E6E6E6;}
	.st3{fill:#EBEBEB;}
	.st4{fill:#A6DEED;}
	.st5{opacity:0.7;fill:#FFFFFF;}
	.st6{fill:#2C89C4;}
	.st7{opacity:0.3;fill:#FFFFFF;}
	.st8{fill:none;stroke:#5274B8;stroke-width:1.506;stroke-linecap:round;stroke-linejoin:round;stroke-miterlimit:10;}
	.st9{fill:#FFFFFF;}
	.st10{fill:none;stroke:#5274B8;stroke-width:1.506;stroke-miterlimit:10;}
	.st11{opacity:0.4;}
	.st12{opacity:0.3;}
	.st13{opacity:0.2;fill:#FFFFFF;}
	.st14{opacity:0.5;fill:#FFFFFF;}
	.st15{fill:none;stroke:#263238;stroke-width:0.753;stroke-miterlimit:10;}
	.st16{fill:#5274B8;}
	.st17{opacity:0.6;fill:#FFFFFF;}
	.st18{opacity:0.6;fill:#263238;}
	.st19{fill:#F5F5F5;}
	.st20{fill:#263238;}
	.st21{opacity:0.2;fill:#FFFFFF;enable-background:new    ;}
	.st22{fill:none;stroke:#5274B8;stroke-width:0.3765;stroke-miterlimit:10;}
	.st23{opacity:0.2;enable-background:new    ;}
	.st24{fill:#E9B376;}
	.st25{fill:none;stroke:#000000;stroke-width:0;stroke-linecap:round;stroke-linejoin:round;}
	.st26{fill:#D58744;}
	.st27{fill:none;stroke:#263238;stroke-width:0.753;stroke-linecap:round;stroke-linejoin:round;stroke-miterlimit:10;}
	.st28{opacity:0.2;fill:none;stroke:#000000;stroke-width:0.753;stroke-linecap:round;stroke-linejoin:round;stroke-miterlimit:10;}
	.st29{opacity:0.1;fill:none;stroke:#000000;stroke-width:0.753;stroke-linecap:round;stroke-linejoin:round;stroke-miterlimit:10;}
	.st30{fill:#B97964;}
	.st31{fill:#A34E40;}
	.st32{opacity:0.3;fill:none;stroke:#000000;stroke-width:0.753;stroke-linecap:round;stroke-linejoin:round;stroke-miterlimit:10;}
	.st33{fill:none;stroke:#5274B8;stroke-width:0.753;stroke-linecap:round;stroke-linejoin:round;stroke-miterlimit:10;}
	.st34{opacity:0.3;fill:#FFFFFF;enable-background:new    ;}
	.st35{opacity:0.4;fill:#FFFFFF;enable-background:new    ;}
</style>
<g id="XMLID_1_">
	<path id="XMLID_499_" class="st0" d="M682.2,418.8c-1.3-6.1-3.7-11.7-6.9-16.7l6-7.2l-12.8-12.8l-7.2,6c-5-3.3-10.6-5.7-16.7-6.9
		l-0.9-9.3h-18.1l-0.9,9.3c-6.1,1.3-11.7,3.7-16.7,6.9l-7.2-6L588,394.9l6,7.2c-3.3,5-5.7,10.6-6.9,16.7l-9.3,0.9v18.1l9.3,0.9
		c1.3,6.1,3.7,11.7,6.9,16.7l-6,7.2l12.8,12.8l7.2-6c5,3.3,10.6,5.7,16.7,6.9l0.9,9.3h18.1l0.9-9.3c6.1-1.3,11.7-3.7,16.7-6.9l7.2,6
		l12.8-12.8l-6-7.2c3.3-5,5.7-10.6,6.9-16.7l9.3-0.9v-18.1L682.2,418.8z M659.1,428.8c0,13.5-10.9,24.5-24.5,24.5
		c-13.5,0-24.5-10.9-24.5-24.5c0-13.5,10.9-24.5,24.5-24.5C648.1,404.3,659.1,415.2,659.1,428.8z"/>
	<path id="XMLID_496_" class="st0" d="M725.2,152c-1.7-8-4.8-15.4-9.2-22.1l7.9-9.5L707,103.5l-9.5,7.9c-6.6-4.3-14.1-7.5-22.1-9.2
		l-1.2-12.3h-23.9l-1.2,12.3c-8,1.7-15.4,4.8-22.1,9.2l-9.5-7.9l-16.9,16.9l7.9,9.5c-4.3,6.6-7.5,14.1-9.2,22.1l-12.3,1.2V177
		l12.3,1.2c1.7,8,4.8,15.4,9.2,22.1l-7.9,9.5l16.9,16.9l9.5-7.9c6.6,4.3,14.1,7.5,22.1,9.2l1.2,12.3h23.9l1.2-12.3
		c8-1.7,15.4-4.8,22.1-9.2l9.5,7.9l16.9-16.9l-7.9-9.5c4.3-6.6,7.5-14.1,9.2-22.1l12.3-1.2v-23.9L725.2,152z M694.6,165.1
		c0,17.9-14.5,32.3-32.3,32.3c-17.9,0-32.3-14.5-32.3-32.3c0-17.9,14.5-32.3,32.3-32.3C680.1,132.7,694.6,147.2,694.6,165.1z"/>
	<path id="XMLID_493_" class="st0" d="M431.7,119.9c-0.9-4.4-2.7-8.6-5.1-12.2l4.4-5.3l-9.4-9.4l-5.3,4.4c-3.7-2.4-7.8-4.2-12.2-5.1
		l-0.6-6.8h-13.3l-0.6,6.8c-4.4,0.9-8.6,2.7-12.2,5.1L372,93l-9.4,9.4l4.4,5.3c-2.4,3.7-4.2,7.8-5.1,12.2l-6.8,0.6v13.3l6.8,0.6
		c0.9,4.4,2.7,8.6,5.1,12.2l-4.4,5.3l9.4,9.4l5.3-4.4c3.7,2.4,7.8,4.2,12.2,5.1l0.6,6.8h13.3l0.6-6.8c4.4-0.9,8.6-2.7,12.2-5.1
		l5.3,4.4l9.4-9.4l-4.4-5.3c2.4-3.7,4.2-7.8,5.1-12.2l6.8-0.6v-13.3L431.7,119.9z M414.7,127.2c0,9.9-8,17.9-17.9,17.9
		c-9.9,0-17.9-8-17.9-17.9c0-9.9,8-17.9,17.9-17.9C406.7,109.2,414.7,117.2,414.7,127.2z"/>
	<path id="XMLID_490_" class="st0" d="M406.9,480.6c-0.4-2-1.2-3.9-2.3-5.6l2-2.4l-4.3-4.3l-2.4,2c-1.7-1.1-3.6-1.9-5.6-2.3
		l-0.3-3.1h-6.1l-0.3,3.1c-2,0.4-3.9,1.2-5.6,2.3l-2.4-2l-4.3,4.3l2,2.4c-1.1,1.7-1.9,3.6-2.3,5.6l-3.1,0.3v6.1l3.1,0.3
		c0.4,2,1.2,3.9,2.3,5.6l-2,2.4l4.3,4.3l2.4-2c1.7,1.1,3.6,1.9,5.6,2.3l0.3,3.1h6.1l0.3-3.1c2-0.4,3.9-1.2,5.6-2.3l2.4,2l4.3-4.3
		l-2-2.4c1.1-1.7,1.9-3.6,2.3-5.6l3.1-0.3v-6.1L406.9,480.6z M399.1,483.9c0,4.5-3.7,8.2-8.2,8.2c-4.5,0-8.2-3.7-8.2-8.2
		c0-4.5,3.7-8.2,8.2-8.2C395.5,475.7,399.1,479.4,399.1,483.9z"/>
	<path id="XMLID_487_" class="st0" d="M279.2,241.2c-0.4-2-1.2-3.9-2.3-5.6l2-2.4l-4.3-4.3l-2.4,2c-1.7-1.1-3.6-1.9-5.6-2.3
		l-0.3-3.1h-6.1l-0.3,3.1c-2,0.4-3.9,1.2-5.6,2.3l-2.4-2l-4.3,4.3l2,2.4c-1.1,1.7-1.9,3.6-2.3,5.6l-3.1,0.3v6.1l3.1,0.3
		c0.4,2,1.2,3.9,2.3,5.6l-2,2.4l4.3,4.3l2.4-2c1.7,1.1,3.6,1.9,5.6,2.3l0.3,3.1h6.1l0.3-3.1c2-0.4,3.9-1.2,5.6-2.3l2.4,2l4.3-4.3
		l-2-2.4c1.1-1.7,1.9-3.6,2.3-5.6l3.1-0.3v-6.1L279.2,241.2z M271.4,244.6c0,4.5-3.7,8.2-8.2,8.2c-4.5,0-8.2-3.7-8.2-8.2
		c0-4.5,3.7-8.2,8.2-8.2C267.7,236.3,271.4,240,271.4,244.6z"/>
	<path id="XMLID_484_" class="st0" d="M857.5,152.7c-0.7-3.2-1.9-6.1-3.6-8.7l3.1-3.8l-6.7-6.7l-3.8,3.1c-2.6-1.7-5.6-3-8.7-3.6
		l-0.5-4.9h-9.5l-0.5,4.9c-3.2,0.7-6.1,1.9-8.7,3.6l-3.8-3.1l-6.7,6.7l3.1,3.8c-1.7,2.6-3,5.6-3.6,8.7l-4.9,0.5v9.5l4.9,0.5
		c0.7,3.2,1.9,6.1,3.6,8.7l-3.1,3.8l6.7,6.7l3.8-3.1c2.6,1.7,5.6,3,8.7,3.6l0.5,4.9h9.5l0.5-4.9c3.2-0.7,6.1-1.9,8.7-3.6l3.8,3.1
		l6.7-6.7l-3.1-3.8c1.7-2.6,3-5.6,3.6-8.7l4.9-0.5v-9.5L857.5,152.7z M845.4,157.9c0,7.1-5.7,12.8-12.8,12.8
		c-7.1,0-12.8-5.7-12.8-12.8c0-7.1,5.7-12.8,12.8-12.8C839.7,145,845.4,150.8,845.4,157.9z"/>
	<path id="XMLID_481_" class="st0" d="M784.1,106.1c-0.4-2-1.2-3.9-2.3-5.6l2-2.4l-4.3-4.3l-2.4,2c-1.7-1.1-3.6-1.9-5.6-2.3
		l-0.3-3.1h-6.1l-0.3,3.1c-2,0.4-3.9,1.2-5.6,2.3l-2.4-2l-4.3,4.3l2,2.4c-1.1,1.7-1.9,3.6-2.3,5.6l-3.1,0.3v6.1l3.1,0.3
		c0.4,2,1.2,3.9,2.3,5.6l-2,2.4l4.3,4.3l2.4-2c1.7,1.1,3.6,1.9,5.6,2.3l0.3,3.1h6.1l0.3-3.1c2-0.4,3.9-1.2,5.6-2.3l2.4,2l4.3-4.3
		l-2-2.4c1.1-1.7,1.9-3.6,2.3-5.6l3.1-0.3v-6.1L784.1,106.1z M776.3,109.4c0,4.5-3.7,8.2-8.2,8.2s-8.2-3.7-8.2-8.2
		c0-4.5,3.7-8.2,8.2-8.2S776.3,104.9,776.3,109.4z"/>
	<g id="XMLID_470_">
		<g id="XMLID_476_">
			<g id="XMLID_477_">
				<path id="XMLID_478_" class="st1" d="M855.9,494.8H583.7c-4.9,0-8.8-4-8.8-8.8V89.5c0-4.9,4-8.8,8.8-8.8h272.2
					c4.9,0,8.8,4,8.8,8.8V486C864.8,490.9,860.8,494.8,855.9,494.8z M583.7,81.1c-4.7,0-8.5,3.8-8.5,8.5V486c0,4.7,3.8,8.5,8.5,8.5
					h272.2c4.7,0,8.5-3.8,8.5-8.5V89.5c0-4.7-3.8-8.5-8.5-8.5H583.7z"/>
			</g>
		</g>
		<g id="XMLID_471_">
			<g id="XMLID_472_">
				<path id="XMLID_473_" class="st1" d="M542,494.8H269.8c-4.9,0-8.8-4-8.8-8.8V89.5c0-4.9,4-8.8,8.8-8.8H542c4.9,0,8.8,4,8.8,8.8
					V486C550.9,490.9,546.9,494.8,542,494.8z M269.8,81.1c-4.7,0-8.5,3.8-8.5,8.5V486c0,4.7,3.8,8.5,8.5,8.5H542
					c4.7,0,8.5-3.8,8.5-8.5V89.5c0-4.7-3.8-8.5-8.5-8.5H269.8z"/>
			</g>
		</g>
	</g>
	<polyline id="XMLID_469_" class="st1" points="187.4,586.8 940.4,586.8 940.4,587.2 187.4,587.2 	"/>
	<g id="XMLID_462_">
		<rect id="XMLID_468_" x="265.2" y="608.3" class="st1" width="24.2" height="0.4"/>
		<rect id="XMLID_467_" x="443.9" y="604.2" class="st1" width="80.6" height="0.4"/>
		<rect id="XMLID_466_" x="290.9" y="622.3" class="st1" width="54.6" height="0.4"/>
		<rect id="XMLID_465_" x="757.2" y="604" class="st1" width="65" height="0.4"/>
		<rect id="XMLID_464_" x="835.6" y="604" class="st1" width="9.5" height="0.4"/>
		<rect id="XMLID_463_" x="663.6" y="613.4" class="st1" width="81.2" height="0.4"/>
	</g>
	<g id="freepik--Plant--inject-111_00000104675111738361373480000003895964760717645728_">
		<path id="XMLID_461_" class="st0" d="M614.9,640.5c1.3-15.9,10-31.9,24-42.8c3.5-2.7,10.8-8.1,4.9-10.9
			c-6.8-3.3-19.9,11.9-21.7,14.7c3.9-12.1,15.6-20.8,28.3-25.9c6.3-2.5,12.3-4.8,5.6-8.5c-6.7-3.7-21.2,5.2-24.5,9.1
			c7.9-8.9,18-17.7,28.2-23c11.3-5.8,6.2-15.6-5.5-8.1c-7.2,4.7-19.2,16.4-19.2,16.4s18.7-30,13.1-32.7
			c-7.3-3.5-20.1,37.4-23.7,45.5c1-6.7,1.8-22.9-4.4-23.6c-5.7-0.6-4.3,39.7-5.6,46.8c-0.8,3.1-1.2,4.7-1.9,7.8
			c-0.6-5.4-4.4-19.5-10-17.9c-4.8,1.4-1.8,12-0.6,17c3,12.2,6.1,23.9,6.1,36.4L614.9,640.5z"/>
		<g id="XMLID_459_">
			<path id="XMLID_460_" class="st2" d="M604.5,647.4c-1.3-20.7-10.4-41.7-25-55.9c-3.6-3.5-11.3-10.6-5.1-14.3
				c7.1-4.2,20.7,15.6,22.6,19.2c-4-15.8-16.2-27.2-29.5-33.8c-6.6-3.2-12.8-6.3-5.8-11.1c7-4.8,22.1,6.9,25.6,11.9
				c-8.3-11.6-18.7-23.2-29.4-30c-11.8-7.6-6.4-20.4,5.7-10.5c7.6,6.1,20,21.3,20,21.3S564,505,569.9,501.4
				c7.6-4.6,21,48.9,24.7,59.4c-1-8.7-1.9-29.9,4.7-30.8c5.9-0.8,4.5,51.8,5.9,61.1c0.9,4.1,1.3,6.1,1.9,10.2
				c0.7-7,4.6-25.5,10.5-23.3c5,1.8,1.9,15.6,0.6,22.2c-3.2,15.9-6.3,31.3-6.3,47.6L604.5,647.4z"/>
		</g>
		<polygon id="XMLID_458_" class="st1" points="581.9,637.1 588.6,673.8 628.1,673.8 635.2,637.1 		"/>
		<rect id="XMLID_457_" x="577.1" y="626.5" class="st1" width="63.6" height="12.2"/>
	</g>
	<g id="XMLID_454_">
		<g id="XMLID_455_">
			<path id="XMLID_456_" class="st3" d="M992.1,661.9c0,5.1-140.8,9.2-314.6,9.2S249.3,687,249.3,681.9c0-5.1,140.8-9.2,314.6-9.2
				S992.1,656.8,992.1,661.9z"/>
		</g>
	</g>
	<g id="XMLID_256_">
		<g id="XMLID_444_">
			<path id="XMLID_453_" class="st4" d="M336.2,156.7v278.1c0,8.1,6.6,14.7,14.7,14.7H786c3.1,0,5.6-2.5,5.6-5.6V154.8
				c0-4.1-3.3-7.5-7.5-7.5H345.5C340.4,147.4,336.2,151.6,336.2,156.7z"/>
			<path id="XMLID_452_" class="st5" d="M336.2,156.7v278.1c0,8.1,6.6,14.7,16.5,14.6h435.1c1.3,0.1,3.8-2.4,3.8-5.5V154.8
				c0-4.1-3.3-7.5-7.5-7.5H345.5C340.4,147.4,336.2,151.6,336.2,156.7z"/>
			<path id="XMLID_451_" class="st6" d="M791.6,171.6H336.2v-16.9c0-4,3.3-7.3,7.3-7.3h442.2c3.2,0,5.8,2.6,5.8,5.8V171.6z"/>
			<circle id="XMLID_450_" class="st7" cx="780.3" cy="159.5" r="5.2"/>
			<circle id="XMLID_449_" class="st7" cx="765.7" cy="159.5" r="5.2"/>
			<circle id="XMLID_448_" class="st7" cx="751.1" cy="159.5" r="5.2"/>
			<g id="XMLID_445_">
				<path id="XMLID_447_" class="st8" d="M416.7,136.6c13.5,0,27,0,40.4,0"/>
				<path id="XMLID_446_" class="st8" d="M468.3,136.6c2.8,0,5.6,0,8.4,0"/>
			</g>
		</g>
		<g id="XMLID_439_">
			<path id="XMLID_443_" class="st9" d="M736.3,221.2H391.5c-8.1,0-14.7-6.6-14.7-14.7l0,0c0-8.1,6.6-14.7,14.7-14.7h344.8
				c8.1,0,14.7,6.6,14.7,14.7l0,0C751,214.6,744.4,221.2,736.3,221.2z"/>
			<g id="XMLID_440_">
				<path id="XMLID_442_" class="st10" d="M735,205.7c0,1.4-0.4,2.6-1.1,3.7c-1.2,1.7-3.1,2.8-5.4,2.8c-3.6,0-6.5-2.9-6.5-6.5
					c0-3.6,2.9-6.5,6.5-6.5C732.1,199.2,735,202.1,735,205.7z"/>
				<line id="XMLID_441_" class="st8" x1="737.9" y1="213.7" x2="733.5" y2="210.3"/>
			</g>
		</g>
		<g id="XMLID_269_" class="st11">
			<g id="XMLID_435_">
				<g id="XMLID_436_">
					<g id="XMLID_437_">
						<path id="XMLID_438_" class="st9" d="M720.6,415c-0.2,1.1-0.9,2.2-1.8,3c-0.6,0.5-2.7,1.6-2.9,0.1c-0.1-0.4,0.4-2.4,0.6-2.8
							c0.5-1.2,1-0.4,1.8-0.3C719.1,415.1,719.9,414.4,720.6,415z"/>
					</g>
				</g>
			</g>
			<g id="XMLID_431_">
				<g id="XMLID_432_">
					<g id="XMLID_433_">
						<path id="XMLID_434_" class="st9" d="M715,291c0.3,1,0.5,2,0.7,3c-0.8,1.2-2.3,0.7-3.5,1.4c-0.5,0.3-0.7,1.4-1.2,1.5
							c-0.4,0.1-0.7-0.4-1.1-0.4c-1,0-1.5,2.1-2.8,1.5c-0.7,0.5,0,2.5-0.9,2.6c-0.6,0.1-1-0.9-1.3-1.4c-0.5-0.7-1.1-1.1-1.1-1.7
							c0-0.6,1-1.6,1.3-2c0.4-0.5,1.2-1.5,1.7-1.6c0.9-0.2,1.9,0.1,2.6-0.3c0.6-0.3,0.7-1.5,1-1.8c0.3-0.3,0.6-0.2,0.9-0.3
							c0.7-0.4,1.4-1.9,1-3.4c-0.2-1-1.6-2-0.7-3.2c1.3,0.2,2.9,1.6,3.1,3.2c0.1,0.6-0.2,1.2-0.1,1.8
							C714.6,290.1,714.9,290.5,715,291z"/>
					</g>
				</g>
			</g>
			<g id="XMLID_427_">
				<g id="XMLID_428_">
					<g id="XMLID_429_">
						<path id="XMLID_430_" class="st9" d="M715.3,281.7c-0.2,0.4-0.5,0.3-0.8,0.6c-0.3,0.2-0.6,1-1,1.1c-0.6,0.1-1.2-0.7-1.8-0.5
							c-0.7,0.2-0.3,0.8-0.5,1.5c-0.6-0.1-1.5-0.9-1.6-1.7c0-0.5,0.5-0.8,0.6-1.4c0.2-1-0.3-1.5-0.6-2.4c0-0.1,0.1-0.1,0.1-0.3
							c0.7-0.2,2.1,1.4,3.6,1.7C714.4,280.6,715.3,280.5,715.3,281.7z"/>
					</g>
				</g>
			</g>
			<g id="XMLID_423_">
				<g id="XMLID_424_">
					<g id="XMLID_425_">
						<path id="XMLID_426_" class="st9" d="M712.7,368.2c0.1,0.7-1,0.6-1.1,0.2C711.6,367.9,712.6,367.7,712.7,368.2z"/>
					</g>
				</g>
			</g>
			<g id="XMLID_419_">
				<g id="XMLID_420_">
					<g id="XMLID_421_">
						<path id="XMLID_422_" class="st9" d="M707.7,274.5c0.7,0.4,2.4,1.5,1.2,2.4C708.2,276.6,707.4,275.5,707.7,274.5z"/>
					</g>
				</g>
			</g>
			<g id="XMLID_415_">
				<g id="XMLID_416_">
					<g id="XMLID_417_">
						<path id="XMLID_418_" class="st9" d="M704.5,364.5c0.8-0.5,1.7-1.7,3.1-1.1c-0.3,1.1-1.4,1-2.1,1.5c-0.7,0.5-1.3,1.4-2.1,1.4
							c-0.1-0.2-0.2-0.3-0.3-0.3C703.1,365.1,703.9,364.8,704.5,364.5z"/>
					</g>
				</g>
			</g>
			<g id="XMLID_411_">
				<g id="XMLID_412_">
					<g id="XMLID_413_">
						<path id="XMLID_414_" class="st9" d="M702.5,348.4c0.8,0,1.6-0.3,2.2,0.1c-0.1,2.1-2.9,0.5-4.7,0.9c-0.4,0.1-0.5,0.4-0.9,0.3
							c0-0.7,0.7-1.5,1.3-1.5C701,348,701.8,348.4,702.5,348.4z"/>
					</g>
				</g>
			</g>
			<g id="XMLID_407_">
				<g id="XMLID_408_">
					<g id="XMLID_409_">
						<path id="XMLID_410_" class="st9" d="M703.2,351.1c0.1,1.2-1.3,1.3-1.6,2.2c0.6,1.1,0.8,2.6,1.5,3.6c0,0.7,0.1,1.5-0.2,1.8
							c-1.4,0.3-2.2-2.8-2.8-3.8c-1.1,0.2-0.1,4.4-1.6,3.9c-0.7-0.3,0-1.5-0.1-2.4c-0.1-0.8-0.8-1-0.9-1.6c0-0.5,0.5-1.1,0.6-1.6
							c0.2-0.8,0.1-2.3,0.9-2.3c0.4,0,0.9,1,1.1,1C701,352.1,702.1,350.8,703.2,351.1z"/>
					</g>
				</g>
			</g>
			<g id="XMLID_403_">
				<g id="XMLID_404_">
					<g id="XMLID_405_">
						<path id="XMLID_406_" class="st9" d="M700.6,363.8c-0.3,0.6-1.7,0.3-1.8-0.3C699,362.9,700.5,363.1,700.6,363.8z"/>
					</g>
				</g>
			</g>
			<g id="XMLID_399_">
				<g id="XMLID_400_">
					<g id="XMLID_401_">
						<path id="XMLID_402_" class="st9" d="M699.3,365.8c-0.1,0.1-0.2,0.2-0.3,0.3c-0.5-0.2-1.1-0.4-1.3-1
							C698.1,364.5,699.3,365,699.3,365.8z"/>
					</g>
				</g>
			</g>
			<g id="XMLID_395_">
				<g id="XMLID_396_">
					<g id="XMLID_397_">
						<path id="XMLID_398_" class="st9" d="M697.4,363.7c-0.4,0.6-1.6,0-2.1,0.6c-0.7,0-1.5,0-1.6-0.8c0.2-0.6,0.9-0.2,1.4-0.3
							C695.9,363.2,697.1,362.5,697.4,363.7z"/>
					</g>
				</g>
			</g>
			<g id="XMLID_391_">
				<g id="XMLID_392_">
					<g id="XMLID_393_">
						<path id="XMLID_394_" class="st9" d="M687.4,396.4c0-0.8-0.4-1.4-0.5-2.2c0-0.3,0-0.7,0-1c0-0.5-0.3-1-0.2-1.3
							c0.1-0.6,0.6-0.6,0.8-1.1c0.2-0.8-0.3-0.9-0.3-1.9c0-0.7,0.4-1,0.7-1.9c0.1-0.4,0.1-1.2,0.3-1.4c0.2-0.4,1-0.7,1.3-0.9
							c1.1-0.6,2-1.8,3.1-2c0.3-0.1,0.7,0,0.9,0c0.6-0.1,1.5-0.8,2.3-1c0.9-0.2,1.6-0.1,2.3-0.6c0.7-0.5,1.7-1.8,2-2.6
							c0.3-0.9,0.2-1.7,0.9-2c0.3-0.2,0.6,0,0.9-0.1c0.3-0.1,1-0.5,1.3-0.8c0.5-0.5,0.6-1.4,1.1-2c0.4-0.4,1.1-1,1.6-1.3
							c0.3-0.2,0.9-0.4,1.1-0.3c1,0.1,1.5,1.8,2.6,1.4c0.4-0.1,0.8-1.1,1.1-1.7c0.5-0.9,0.9-2,1.8-2.3c0.7-0.2,1.5,0.3,1.9-0.4
							c0.1-0.5-0.3-0.9,0-1.2c0.8,0.1,2.2,1.4,3.5,1.4c0.7,0,1.9-0.9,2.1,0.3c0.1,0.5-0.5,1-0.6,1.5c-0.1,0.4,0.1,0.6-0.1,1
							c-0.6,0.3-1.2,0.4-1.2,1.2c0,1,1.1,1.4,1.8,2c0.5,0.4,0.9,0.9,1.1,1.1c0.2,0.2,0.6,0.2,0.7,0.3c0.5,0.4,0.8,1.2,1.4,1.2
							c0.7,0,1.4-1.1,1.8-2.1c0.5-1.2,0.5-2.7,0.7-4c0.1-0.4,0.3-0.9,0.4-1.3c0.3-1.2,0.6-2.7,1.5-3.2c0.8,1.1,1.1,3.2,1,4.9
							c0.6,0.5,1.6,0.3,1.7,1.5c0,0.4-0.2,0.9-0.1,1.4c0,0.7,0.5,1.3,0.6,2c0.1,1.1-0.2,2.1,0.3,2.9c0.6,1,1.6,1,2.3,2.1
							c0,0.7,0.2,1,0.4,1.5c0.1,0.3,0,0.7,0.1,0.9c0.2,0.6,0.8,0.6,1.1,1.1c0.1,0.2,0.1,0.7,0.2,1.1c0.2,0.6,0.7,1.1,1,1.7
							c0.3,0.6,0.8,1.2,0.9,1.7c0.1,0.8-0.4,1.4-0.5,2.1c-0.2,0.8,0,1.9-0.3,2.8c-0.3,1-1.1,2-1.8,3.3c-0.5,1.1-1.2,2.3-2,3
							c-0.4,0.4-1,0.7-1.4,1.1c-0.7,0.7-1.2,1.5-1.8,2.3c-0.6,0.8-1.4,1.4-1.9,2.1c-0.7,1-1.1,2.7-2.3,2.8c-0.7,0.1-1.4,0-2.1,0.3
							c-1.1,0.5-1.7,1.4-2.3,1.4c-0.5,0-1.1-0.8-1.6-0.9c-0.6-0.1-1,0.5-1.8,0.5c-0.3,0-0.5-0.2-1-0.4c-1-0.4-2.1-0.4-2.3-1.7
							c-0.1-0.7,0.4-1.1,0.4-1.7c0-0.7-0.6-0.8-0.8-1.4c0.1-0.6,0.2-1.3-0.4-1.7c0-0.5,0.1-0.9,0.3-1.2c-0.4,0.2-1,0.3-1.4,0.7
							c-0.5,0.4-0.9,1.2-1.5,1.1c-0.6-0.2-0.1-0.9-0.2-1.4c-0.1-0.4-0.8-2.2-1.2-2.5c-0.4-0.3-1.9-1-2.4-1.1c-2.2-0.4-3.6,1-5.3,1.2
							c-0.4,0-0.9-0.1-1.3,0c-1.4,0.3-3,1.7-3.9,2.6c-1.5,0.2-3-0.4-4.5,0.2c-1.5,0.5-2.4,2-4.7,1.6c-0.5-0.5-1.3-0.7-1.3-1.5
							c0-0.7,0.8-1.1,1.1-1.5c0.3-0.5,0.8-1.7,0.8-2.4c0-0.6-0.3-1.2-0.3-2C687.1,397.5,687.4,396.9,687.4,396.4z"/>
					</g>
				</g>
			</g>
			<g id="XMLID_387_">
				<g id="XMLID_388_">
					<g id="XMLID_389_">
						<path id="XMLID_390_" class="st9" d="M686.1,360.8c0.4-0.1,0.7-0.4,1.1-0.4c0.8,0,1.6,0.7,2.6,0.6c0.2,0.3,0.1,0.5,0.1,0.9
							c0.8,0.5,2.2,0.4,2.6,1.4c-0.6,0.8-1.5,0.2-2.3,0.1c-0.7-0.1-1.5-0.1-2.3-0.2c-1-0.1-1.9-0.8-2.8-0.9c-0.6-0.1-1.2,0.1-1.7,0
							c-0.6-0.1-3-1.2-3.1-2c0-0.8,1.1-1,2.1-0.9C683.7,359.7,684.5,361.1,686.1,360.8z"/>
					</g>
				</g>
			</g>
			<g id="XMLID_383_">
				<g id="XMLID_384_">
					<g id="XMLID_385_">
						<path id="XMLID_386_" class="st9" d="M688.1,354.9c-0.5-0.2-1-0.1-1.3-0.3c-0.5-0.4-0.4-1.4-0.6-2c-0.2-0.6-0.7-0.9-1.1-1.7
							c-0.5-1.2-0.7-3.8,0.6-4c0.5-0.1,1,0.4,1.3,0.3c0.7-0.2,0.6-1.3,1.1-1.7c0.3-0.2,0.9-0.1,1.3-0.3c0.5-0.2,0.8-0.7,1.1-1.2
							c0.3-0.4,0.5-1.1,0.9-1.4c0.4-0.3,0.9-0.4,1.2-0.7c0.9-0.9,1-2,1.7-3.1c0.6-0.9,1.6,0.8,1.7,1.5c0.4,0.5,1,0.7,1.3,1.3
							c-0.4,1.5-1.6,1.6-1.3,3.8c0,0.3,0.2,1,0.4,1.5c0.2,0.5,0.8,1,0.8,1.4c0,0.6-1.1,0.6-1.3,1.3c-0.2,0.6,0,0.7-0.1,1.6
							c-0.3,0.7-1.1,0.9-1.3,1.7c-0.3,1,0,2.3-0.6,3.1c-0.5,0-1,0.5-1.6,0.4c-0.6-0.1-1.2-1.1-2.2-1.1c-0.4,0-0.8,0.3-1.2,0.3
							C688.8,355.4,688.5,355.1,688.1,354.9z"/>
					</g>
				</g>
			</g>
			<g id="XMLID_379_">
				<g id="XMLID_380_">
					<g id="XMLID_381_">
						<path id="XMLID_382_" class="st9" d="M683.5,353c1.8,0,1.8,3.4,0,3.4C681.7,356.4,681.7,353,683.5,353z"/>
					</g>
				</g>
			</g>
			<g id="XMLID_375_">
				<g id="XMLID_376_">
					<g id="XMLID_377_">
						<path id="XMLID_378_" class="st9" d="M680.8,352.6c0.2,0,1,1.3,1,1.7c0,0.6-0.8,0.6-1,1.4c-0.3,1.2,0.2,2.6-0.4,3.2
							c-0.3,0.2-0.9,0.2-1.4,0.2c-1.3-1.1-2.3-2.4-3.4-3.8c-0.4-0.5-0.9-1-1.1-1.5c-0.4-0.8-0.5-1.7-0.9-2.5
							c-0.4-0.7-1.1-1.1-1.4-1.9c-0.3-0.6-0.3-1.4-0.6-2c-0.3-0.5-0.8-0.8-1.1-1.2c-0.2-0.3-0.4-0.7-0.6-1c-0.9-1.3-2.6-2-2.7-3.8
							c0.4-0.5,0.7,0.2,1.4,0.3c0.4,0.1,1,0,1.3,0.1c0.6,0.3,1.1,1.5,1.8,2.1c0.4,0.4,0.9,0.6,1.3,1c0.4,0.4,0.7,1,1.1,1.3
							c0.5,0.3,1.1,0.6,1.7,1c0.8,0.6,2.3,1.3,2.5,2.6c0,0.3-0.1,0.9-0.1,1.1c0.1,0.4,0.6,0.6,0.9,1c0.3,0.5,0.4,1.2,0.9,1.3
							C680.3,353.4,680.3,352.5,680.8,352.6z"/>
					</g>
				</g>
			</g>
			<g id="XMLID_371_">
				<g id="XMLID_372_">
					<g id="XMLID_373_">
						<path id="XMLID_374_" class="st9" d="M647.3,334.7c0.6,0.2,2.7,3.2,2.1,4.9c-0.2,0.5-0.9,1.1-1.6,0.9c-1.4-0.3-1.1-4-0.7-5.5
							C647.1,334.8,647.2,334.8,647.3,334.7z"/>
					</g>
				</g>
			</g>
			<g id="XMLID_367_">
				<g id="XMLID_368_">
					<g id="XMLID_369_">
						<path id="XMLID_370_" class="st9" d="M600.1,377.9c0.1-0.7,0.5-1.8,0.9-2.2c0.7-0.6,1.5-0.5,2.2-0.9c0.5-0.3,1.3-0.9,1.7-1.5
							c0.3-0.5,0.4-1.1,0.6-1.5c0.2-0.3,0.6-0.3,0.8-0.7c0.2-0.3,0.2-0.9,0.5-1.2c1-0.5,1.3,1.7,1.4,3.2c0,0.5,0.2,1,0.2,1.2
							c-0.1,0.7-0.7,0.8-0.9,1.3c0,1.9-0.7,3.5-1.2,5c-0.5,1.3-0.7,2.8-1.1,3.9c-0.1,0.4-0.4,0.7-0.6,1.1c-0.5,1.5-0.7,3.7-1.6,4.4
							c-0.3,0.2-1.6,0.6-2,0.6c-0.9,0-1.6-0.8-1.8-1.7c-0.1-0.5,0-1-0.1-1.5c-0.1-0.7-0.4-1.3-0.4-2c0.2-1.7,1.6-2.6,1.6-4
							C600.5,380,600,379,600.1,377.9z"/>
					</g>
				</g>
			</g>
			<g id="XMLID_350_">
				<g id="XMLID_351_">
					<g id="XMLID_352_">
						<path id="XMLID_353_" class="st9" d="M565.9,256.5c0.1,1.4-1.8,1.3-2.1,2.5c-0.1,0.6,0.2,1.3,0.1,1.8
							c-0.1,0.9-0.9,0.6-1.8,1.1c-0.5,0.2-0.9,1.1-1.4,1.2c-0.5,0.1-0.8-0.3-1.1-0.3c-0.5,0.1-0.3,0.8-1,0.9
							c-0.5,0.1-1.5-0.6-1.6,0.3c0,0.5,0.9,0.8,1.4,0.8c0.4-0.1,0.8-0.4,1.2-0.4c0.8,0,1.4,0.7,1.9,0.8c1.2,0,2.4-1.4,3.7-1.2
							c0.6,0.1,0.9,0.6,1.3,0.5c0.7-0.1,1.3-1,1.8-1.4c-0.2-1.4,0-3.3,1.1-3.4c0.8-0.1,1.9,1.6,2.1,0c0.1-0.7-0.6-1.3-1.1-1.3
							c-0.4,0-0.9,1-1.3,0.2c0-0.8,0.7-0.6,1.1-0.8c0.3-0.1,0.5-0.5,0.9-0.7c1.7-0.7,4,0.7,4.7-1c-1.5-1.5-4,0.6-5.7,0.4
							c-0.7-0.1-1.7-0.7-1.9-1.5c-0.1-0.3,0-0.6-0.1-1.1c-0.1-0.5-0.3-1.1-0.3-1.5c0.1-1.5,3.3-1.8,3.3-3.8c-0.6-0.7-2.4-0.6-3,0.2
							c-0.2,0.3-0.2,0.8-0.5,1.4c-0.6,1.2-2.7,1.3-3.3,2.7c-0.1,0.3-0.4,1.2-0.3,1.7C564.4,255.4,565.8,255.7,565.9,256.5z
							 M549,339.9c-2-0.4-4.1,0.6-5.5,1.4c-0.8,0.4-1.6,1.1-2.3,1.1c-0.7,0-1.3-0.4-2-0.5c-0.8-0.1-1.9,0-2.8,0.2
							c-0.8,0.2-1.6,0.9-2.3,0.9c-1.4,0.1-2.7-1.5-3.5-2.3c-0.5-0.5-1.1-0.9-1.6-1.4c-0.5-0.5-1.2-0.8-1.6-1.3
							c-0.6-0.6-0.6-1.8-0.9-2.6c-0.3-1-1.4-1.8-2.2-2.7c-0.6-0.7-2-1.8-2.1-2.7c-0.1-0.5,0.2-1,0.1-1.5c0-0.7-0.5-1.2-0.5-1.7
							c0-0.7,0.7-1.3,0.9-2c0.1-0.3,0-0.8,0.1-1.2c0.2-0.9,0.7-1.4,0.6-2.6c0-0.5-0.4-1-0.4-1.6c0-0.4,0.2-0.7,0.2-1.1
							c-0.1-0.7-0.8-0.9-0.9-1.7c-0.1-0.9,0.7-1.6,1.1-2.6c0.2-0.4,0.3-1.1,0.5-1.4c0.4-0.7,1-1.1,1.3-1.8c0.2-0.5,0.3-1.3,0.5-1.7
							c0.3-0.5,0.8-0.8,1.3-1.4c0.4-0.5,0.6-1.2,0.9-1.4c0.4-0.3,0.9-0.4,1.3-0.6c1.3-0.7,2.3-1.6,2.9-3.2c-0.2-1.4,0.1-2,0.6-2.9
							c0.4-0.9,0.8-1.7,1.5-2.2c0.9-0.6,1.7-0.7,2.3-1.8c0.3-0.6,0.8-1.5,0.8-2.1c0-0.8-0.7-1.9-1.3-2c-0.6-0.1-1.6,0.6-2-0.3
							c-0.1-0.3,0-0.9,0-1.2c-0.1-0.6-0.5-1-0.5-1.4c0-0.8,0.7-1.6,0.9-2.6c0.3-1.3,0-2.2-0.1-3.7c1-1.9,3.2-0.9,5.4-0.8
							c0.3,0,0.7-0.1,1.1-0.1c1.3,0,2.3,0.5,2.8-0.9c0.2-0.5,0.3-2.4,0.2-2.9c-0.1-0.6-1-2.1-1.5-2.4c-0.7-0.5-1.7-0.3-2.1-1.3
							c0.3-1.7,1.9-0.3,2.8-0.7c0.5-0.2,0.4-1.2,0.9-1.4c0.3-0.1,0.7,0.4,1.1,0.3c0.3,0,1.6-0.8,1.9-1c0.5-0.4,0.6-1.1,1-1.4
							c0.3-0.2,0.6-0.2,0.9-0.3c0.6-0.3,1.4-0.9,1.8-1.5c0.6-0.8,0.8-1.9,1.6-2c1-0.2,3.1,0.2,3.3-1c0.2-1.2-0.9-2.1-0.5-3.4
							c0.3-1,1.1-0.8,2.1-1.4c0.5,0.4,0.4,1.7,0.4,2.5c0.7,0,2-0.2,2.1-0.9c0.2-0.9-1-1.8-1.2-2.3c-0.3-0.6-0.3-1.6-0.9-1.7
							c-1.1-0.2-2.1,1.8-3.5,1.8c-0.9,0-1.8-0.8-2.1-1.6c-0.1-0.5,0-0.9-0.1-1.4c-0.1-0.7-0.4-1.4-0.3-2.4c0.5-1.1,1.8-1.3,2.7-1.9
							c0.3-0.2,0.6-0.7,1-0.9c0.6-0.3,1.6,0,2.2-0.4c0.4-0.3,0.3-0.7,0.6-1.3c0.2-0.3,0.6-0.5,0.9-0.9c0.2-0.3,0.2-0.7,0.4-0.9
							c0.6-0.9,1.7-1.3,2.2-2.2c0.2-0.4-0.4-0.6-0.2-1.2c0.2-0.6,1.1-0.2,1.6-0.3c0.7-0.1,1.4-1.2,2.1-1.4c0.8-0.2,1.7-0.1,2.4-0.4
							c0.4-0.2,0.9-0.7,1.3-0.8c0.1,0,0.6,0.1,0.8,0.1c0.3,0,0.6-0.2,0.9-0.3c0.5-0.1,1.2,0.2,1.8,0.2c1.1,0,2.2-0.4,3.1,0.1
							c0.5,0.3,0.4,0.9,1.1,1.2c0.3,0.1,0.7-0.1,1.2,0c0.7,0.1,1.4,0.7,2.3,0.8c0.3,0,0.7,0,1,0c1,0.1,2.1,0.8,3.1,1.2
							c0.8,0.3,2.6,0.8,2.6,1.7c0,1.1-1.5,1.4-2.2,1.4c-1.1,0-2.6-0.8-3.8-0.3c0,1.9,1.8,3.4,3.3,3.2c0.1-0.9-0.9-0.4-0.8-1.3
							c0.7-0.6,1.6,0.4,2.6,0.3c0.4-0.1,0.3-0.8,0.4-1.3c0.8-0.6,1.9-1.5,3.2-0.9c0.1-0.2,0.2-0.3,0.3-0.3c0.1-0.9-0.9-1.4-0.4-2.3
							c0.2-0.6,1.6-0.4,1.8,0.1c0.1,0.6-0.3,0.5-0.3,1c0.3,0.7,0.8,0.8,1.1,0.8c0.7,0,0.8-0.8,1.5-1.2c0.3-0.2,0.7-0.2,1-0.3
							c0.4-0.2,0.7-0.6,1.1-0.7c0.2-0.1,0.6,0,0.9-0.1c0.4-0.1,0.9-0.5,1.2-0.5c0.4,0,0.7,0.6,1.3,0.7c0.3,0,0.6-0.2,1.1-0.3
							c0.3,0,0.7,0,1,0c0.7-0.1,1.1-0.5,1.7-0.5c0.4,0,1.1,0.7,1.3,0.3c0.5-0.5-0.6-1-0.3-1.5c1.1,0.1,2.2,0.1,3.3,0.3
							c1.6,0.3,3.1,1.2,4.6,1.3c-0.1-1.2-1.3-0.8-1.8-1.4c-0.2-0.2-0.8-1.4-0.8-1.8c0-0.2,0.8-1.8,1-2c0.6-0.7,2.7-0.7,3.3,0.3
							c0.4,0.7,0.3,1.6,0.9,1.6c0.5,0,0.8-1.5,1.3-1.5c0.5,0,0.7,1,1.2,0.9c0.6,0,1-1.3,1.8-1.4c0.4,0,0.6,0.3,1.2,0.3
							c0.4-0.3-0.1-0.8,0.1-1.3c0.8-0.7,2.6-0.2,3.6-0.6c0.3-0.4-0.4-0.7-0.1-1.1c0.9-0.7,2.3-0.8,3.8-1.1c0.9-0.2,1.8-0.9,2.5-1
							c0.7-0.1,1.5,0.5,2.1,0.5c0.4,0,0.9-0.2,1.3-0.3c0.4-0.2,0.7-0.7,1.1-0.8c0.6-0.2,1.4,0.1,2.1,0c0.8-0.1,1.4-0.4,2-0.3
							c0.5,0.1,0.9,0.8,1.4,0.9c1.5,0.3,3-0.3,4.4,0.2c0.2,0.1,0.5,0.4,0.8,0.5c0.9,0.4,1.5,0.3,1.7,1.6c0.7,0.3,1.1,1.1,2,1.4
							c0.6,0.2,1.1-0.1,1.8-0.1c0.8,0,1.9,0,2.6,0.2c0.4,0.1,0.7,0.4,1.1,0.5c0.3,0.1,0.7,0,1,0c0.4,0,0.8,0.3,1.2,0.3
							c0.7,0,1.3-0.8,1.9-0.9c0.3-0.1,0.8,0.1,1.1,0.2c1.2,0.1,2.6-0.2,3.5,0.1c0.5,0.1,1.4,0.8,2,1.4c0.4,0.4,0.7,1,1.1,1.3
							c0.4,0.3,1.3,0.8,1.7,0.7c0.5-0.1,0.5-0.7,0.9-0.9c1.4-0.4,3.9,0.5,5-0.1c0.4-0.2,0.4-0.8,0.7-1.1c2.1-0.1,4.3,0.1,6.2,0.2
							c0.7,0,1.4-0.2,2.1-0.1c0.7,0.1,1.2,1,1.9,1.3c0.5,0.2,1.3,0.1,2,0.3c0.5,0.1,0.9,0.5,1.2,0.5c0.8,0.1,1.5-0.1,2.2-0.2
							c1.6-0.2,3.7-0.3,5.3,0.5c0.9,0.4,1.2,1.2,2.1,1.4c1.3,0.2,3.3-0.1,4.7,0c0.3,0,0.6,0.2,0.9,0.2c0.5,0,0.7-0.5,1.3-0.5
							c0.7,0,1.8,1.3,2.8,1.1c0.4-0.4-0.4-0.9,0.1-1.2c0.4-0.4,0.9,0,1.6,0c0.3,0,0.7-0.2,1.1-0.2c0.8,0.1,1.5,0.9,2.5,1.2
							c0.8,0.2,1.8,0.3,2.8,0.2c0.7-0.1,1.3-0.4,1.9-0.3c0.3,0.1,0.6,0.3,0.9,0.4c0.3,0.1,0.6,0,0.9,0.1c0.2,0.1,0.5,0.3,0.7,0.4
							c1.3,0.5,3.1,0.7,4.5,1.2c0.8,0.3,1.7,0.9,2.3,0.9c0.3,0,0.6-0.2,1.1-0.2c2.1,0,4.7,1.1,4.5,3.5c-2.5,0.7-4.6-2.1-7.2-1.3
							c-0.4,0.1-0.9,0.7-0.8,1.2c0.1,1.5,3.2,1.4,3.5,2.8c-0.5,0.5-1.1,0-1.5,0.1c-0.6,0.1-1.7,0.9-2.1,1.4c-0.5,0.5-0.9,1.9-1.4,2
							c-0.6,0.1-1.6-0.8-2.6-0.5c-0.3,0.1-0.7,0.6-1,0.7c-0.8,0.2-1.8-0.5-2.3,0.6c0.3,0.8,0.1,1.9,0.6,2.3c0.3,0.3,0.8,0.1,1.2,0.3
							c0.5,0.2,0.8,1,1.2,1.4c0.4,0.3,0.7,0.3,0.9,0.8c0,0.6-0.2,0.7-0.1,1.1c0.1,0.7,1,0.9,1.1,1.4c0,0.6-0.6,0.5-0.7,1.1
							c0,0.4,0.4,0.5,0.4,1c0,0.3-0.2,0.7-0.2,1.1c0,0.6,0.4,0.9,0.4,1.4c0,0.4-0.4,0.8-0.6,0.9c-1.4-1-2.6-2.5-4-3.8
							c-1.5-1.4-3.9-3.1-4.1-6c0-0.4,0.8-0.8,0.9-1.4c0.1-0.3-0.1-0.7-0.1-1c0-1,0.7-2,0.7-2.6c0-0.7-1-1.9-1.6-2
							c-0.4,0.3,0,0.8-0.1,1.2c-0.1,0.5-0.6,1.1-1.1,1.2c-1.3,0.1-1.5-2.1-3.6-1.4c-0.6,0.2-1.3,1.2-1.1,2.4
							c0.1,0.4,0.9,0.8,0.9,1.3c-0.1,0.5-1.9,0.6-2.3,0.6c-1.1-0.1-1.7-1.1-2.8-1.1c-0.5,0-1,0.5-1.3,0.6c-2.2,0.5-5.6-1.3-6.3,1
							c-0.1,0.3,0,0.8-0.1,1.1c-0.1,0.5-0.5,0.9-0.6,1.2c-0.1,0.3-0.1,0.8-0.2,1.2c-0.1,0.4-1.5,1.8-0.3,2.2
							c0.3,0.1,0.4-0.1,0.8-0.1c0.6,0.1,1.6,1.3,2.3,1.3c0.4,0,1-0.6,1.3-0.6c0.7,0,1.1,0.5,1.6,0.8c0.5,0.3,1.2,0.9,1.6,0.9
							c0.7,0,0.3-0.6,1-0.9c1.2,0.4,1.8,2,3,3.2c0.4,0.4,1.1,0.8,1.6,1.4c0.3,0.3,1.3,1.3,1.3,1.7c0,0.4-0.3,0.6-0.4,0.9
							c-0.1,0.5,0.2,0.9-0.1,1.3c-1.1-0.5-1.4-1.8-2.2-3c-0.3-0.4-0.6-0.9-1.1-1.5c-0.2-0.3-1-1.2-1.4-1c-0.9,0.4,0.5,2,0.7,2.4
							c0.5,0.8,1.1,1.8,1.1,2.6c0,0.5-0.3,1.4-0.3,2.3c0,0.6,0.1,1.1,0.1,1.6c-0.1,0.5-0.3,1.1-0.5,1.6c-0.2,0.6-0.2,1.4-0.4,1.8
							c-0.3,0.8-1.2,1.7-1.8,1.7c-0.6,0-0.8-0.5-1.4-0.5c-0.9,0-1,1-1.6,1.8c0,0.8,0.3,1.1,0.1,1.7c-0.2,0.9-1.2,1.1-1.2,2
							c0,0.8,1,1,1.4,1.4c0.6,0.5,1.7,1.6,2.3,2.6c0.4,0.6,1,1.7,0.9,2.4c-0.1,0.8-2.1,2-2.9,1.7c-0.8-0.3-0.5-1.2-0.7-2
							c-0.1-0.6-0.6-0.9-0.8-1.4c-0.1-0.3-0.1-0.7-0.2-1c-0.4-0.9-1.2-0.4-2.1-0.9c-0.6-0.4-0.4-1.1-0.6-1.8
							c-0.3-0.9-1.6-1.4-2.6-1.1c-0.8,0.2-1,0.9-1.7,1.1c-1-0.7,0.2-2.6-1.1-2.7c-1-0.1-1.6,1.7-2.2,2.2c-0.4,0.4-1.1,0.4-1.1,0.9
							c-0.1,0.9,0.8,0.7,1.6,1.1c0.7,0.3,0.7,1.2,1.3,1.3c0.5,0,0.8-0.6,1.3-0.7c0.9-0.1,1.6,0.4,2.1,0.8c-0.4,1-2.3,1.8-2.3,3.2
							c0,0.8,0.8,0.9,1.3,1.4c0.5,0.4,1.1,1.7,1.8,2.6c0.3,0.4,0.8,0.6,0.9,0.9c0.3,0.6,0.3,1.3,0.6,1.6c0.1,0.5-0.2,0.6-0.1,1
							c0.2,0.6,1,0.5,1.1,1.1c-0.1,1.5,0.4,2.9-0.6,3.4c-0.5,2.6-1,4.7-2.5,6.1c-1.4,1.3-3.1,1.7-4.8,2.3c-0.4,0.2-0.8,0.7-1.1,0.9
							c-0.9,0.4-2.6,0.2-2.7,1.5c0,0.7,0.7,1.1,0.8,1.8c0.1,1.1-0.7,2.1-1.3,2.2c-0.4,0.1-1.3-0.3-1.3-1.2c-0.1-1,1.1-1.4,1.1-2
							c0.2-1.1-0.8-2.1-1.8-2c-0.9,0.1-3.1,2.3-3.1,3.6c0,0.9,1.5,2.8,2.1,3.4c2,2.1,4.1,3.4,3.8,8.5c-0.5,1.3-1.8,1.6-2.8,2.3
							c-0.8,0.5-1.1,2.2-2.4,2.4c-0.5-0.2-0.2-1.2-0.4-1.6c-0.2-0.6-1.2-0.9-1.8-1.5c-0.5-0.5-0.7-1.3-1.1-1.8
							c-0.5-0.6-1.2-0.7-1.8-1.1c-0.4-0.2-0.7-1.1-1.1-1.1c-0.6,0-0.4,0.8-0.6,2c-0.2,1.2-0.9,2.1-0.6,3.5c0.1,0.6,0.7,1,1,1.6
							c0.5,1,0.6,2.1,1.1,2.6c0.3,0.4,0.9,0.4,1.3,0.8c0.8,0.6,2.1,2,2.3,2.8c0.3,0.9,0,2,0.2,2.9c0.2,1.1,1.4,1.9,0.7,3
							c-0.7-0.2-1.3-0.7-1.8-1.1c-1-0.7-1.4-1.4-2.1-2.6c-0.2-0.4-0.5-0.7-0.6-1c-0.2-0.8-0.2-1.6-0.4-2.6c-0.2-0.8-1-2.1-1.6-2.7
							c-0.5-0.6-1.4-0.9-1.4-1.7c-0.1-1.1,0.3-2.5,0.3-3.8c0-0.3-0.2-0.6-0.2-0.9c-0.1-0.7,0.1-1.5-0.1-2c-0.1-0.5-0.4-1-0.6-1.5
							c-0.2-0.5-0.4-1-0.6-1.6c-0.3-1-0.6-2.9-1.3-3c-0.7-0.1-1.4,1.6-2.3,1.6c-0.5,0-1.1-0.5-1.2-1c-0.1-0.5,0.2-1.1,0.2-1.6
							c0-1.1-0.7-1.6-1.2-2.4c-0.2-0.3-0.3-0.8-0.4-1c-0.3-0.5-0.9-0.7-1.3-1.2c-0.4-0.5-0.8-1.1-1-1.5c-0.3-0.7-0.4-1.5-0.8-1.6
							c-0.4-0.1-0.9,0.6-1.3,0.8c-0.4,0.2-1.5,0.4-1.9,0.4c-1.4,0.1-2.6-0.3-2.4,1.7c-0.2,0.9-1,0.9-1.6,1.4
							c-0.7,0.6-1.2,1.7-1.9,2.6c-0.4,0.4-0.9,0.7-1.2,1.1c-0.3,0.3-0.4,0.9-0.6,1.2c-0.8,0.9-1.9,0.9-2.4,2.1
							c0,1.4,0.6,2.5,0.4,3.8c-0.1,0.6-0.4,1.2-0.5,1.8c0,0.5,0.2,1.1,0.1,1.7c-0.1,0.3-0.3,0.5-0.6,0.9c-0.2,0.3-0.3,0.8-0.4,1
							c-0.2,0.4-0.6,0.6-0.9,0.9c-0.4,0.5-0.4,0.9-0.8,0.9c-1.6,0.3-1.9-3.3-2.6-4.8c-0.3-0.7-1-1.3-1.3-2.1c-0.4-1-0.5-2.2-1-3.2
							c-0.4-0.9-1.1-1.9-1.3-2.8c-0.3-0.8-0.5-1.8-0.7-2.7c-0.3-1-0.5-2.1-0.6-2.9c-0.1-1.1,0.2-1.8-0.6-2.2c-0.7,0.2-1,1-1.8,1
							c-0.8,0-2.8-1.6-2.2-3c-0.5-0.8-1.7-1.3-2.7-2.3c-0.5-0.6-1-1.9-2-2c-0.3,0-0.6,0.1-0.9,0.2c-0.6,0.1-1.7-0.1-2.3,0
							c-0.9,0.1-1.9,0.3-3,0.2c-0.7-0.1-1.6-0.3-2.3-0.3c-0.9-0.1-2.1-0.4-2.6-0.9c-0.3-0.3-0.4-1.5-1-1.6c-0.7-0.2-1,0.4-1.6,0.6
							c-1.3,0.4-2.4-0.3-3.3-1c-0.6-0.5-1.2-0.8-1.6-1.1c-1.1-0.9-1.3-3.5-2.9-3.5c-0.6,0-1.5,0.4-1.6,1.2c-0.1,0.5,0.5,1.6,0.8,2
							c0.8,1.3,2.3,1.9,2.7,3.7c0.3,0.1,0.9-0.3,1.2,0.1c0.3,0.8,0,2.2,0.6,2.6c3,0.6,3.8-1.4,5.1-2.7c0.8,0.6,0.5,1.1,0.8,1.8
							c0.3,0.7,0.7,1.2,1.2,1.5c0.4,0.2,0.8,0,1.3,0.3c0.3,0.2,1.7,1.7,1.8,2.3c0,0.5-0.9,2.2-1.2,2.6c-0.3,0.4-0.7,0.6-0.9,1
							c-0.1,0.3-0.1,0.9-0.1,1.1c-0.1,0.3-0.8,0.8-1.1,1.2c-0.4,0.4-0.8,0.8-1.2,1.1c-0.4,0.4-0.7,1-1.2,1.2
							c-0.9,0.4-1.8,0.2-2.6,0.9c-0.5,0.4-0.5,1.3-1.1,1.8c-0.6,0.5-1.8,0.5-2.7,1c-0.6,0.3-1,1-1.5,1.2c-0.2,0.1-0.5,0-0.7,0.1
							c-0.5,0.1-0.9,0.5-1.3,0.7c-0.3,0.1-0.7,0.1-1.1,0.2c-1.1,0.4-2.1,1.7-3.2,0.9c-0.5-1.4-0.6-3.2-1.2-4.5
							c-0.3-0.7-0.9-0.9-1.1-1.5c0-0.5,0.5-0.4,0.6-0.9c-0.2-0.9-0.9-1.4-1.3-2.1c-0.2-0.4-0.3-0.9-0.6-1.4
							c-0.8-1.5-2.5-2.2-2.8-4.1c-0.1-0.5,0-0.9-0.1-1.3c-0.1-0.6-0.5-1.3-0.9-1.8c-0.3-0.4-0.8-0.6-1.1-1.2
							c-0.2-0.4-0.3-0.9-0.4-1.3c-0.7-1.6-1.7-3-2.8-4.1c-0.6,0.1-1.2,0.1-1.5,0.6c0.3,1.1,0.7,2.1,1.2,3c0.4,0.9,1.1,1.8,1.3,2.7
							c0.1,0.4,0.1,0.8,0.2,1.2c0.4,1.4,1.8,1.8,2.1,3.3c0.2,1,0,1.8,0.2,2.8c0.2,1,1.5,1.6,2,2.6c0.4,0.8,0.4,1.9,0.7,2.6
							c0.4,1.1,1.6,1.6,2.5,2.3c0.8,0.7,1.3,1.7,2,2.4c0.4,0.4,0.9,0.5,1,0.9c0.1,0.6-0.2,0.8-0.3,1.3c0.5,0.7,1.1,1.9,2,2
							c0.4,0,0.8-0.4,1.4-0.5c0.3,0,0.6,0.1,0.9,0c0.4-0.1,0.7-0.5,1.1-0.6c0.7-0.2,1.6-0.1,2.5-0.3c0.9-0.1,1.5-1,2.1-0.8
							c0.7,1,0.2,2.1,0,3c-0.1,0.3-0.1,0.7-0.1,0.9c-0.4,1.5-1.4,2.6-1.8,4c-0.1,0.4-0.1,0.9-0.3,1.4c-0.5,1.4-1.6,2.7-2.5,3.8
							c-0.5,0.6-0.9,1.2-1.4,1.7c-0.5,0.5-1.1,0.8-1.7,1.3c-1.1,1-2.3,2.4-3.1,3.8c-0.3,0.5-0.5,1.1-0.8,1.5
							c-0.5,0.6-1.2,0.9-1.6,1.5c-0.3,0.5-0.5,1.4-0.9,2.2c-0.4,1-1.2,1.6-1.1,3c0.1,0.5,0.4,0.8,0.6,1.4c0.2,0.9,0.1,1.7-0.1,2.6
							c0.4,1.2,0.7,2.5,1.4,3.2c0.1,1.7-0.1,3.4,0,4.9c0.1,0.9,0.4,1.6,0.1,2.5c-0.3,0.8-1.3,2.1-1.9,2.6c-0.7,0.5-1.7,0.7-2.4,1.3
							c-0.5,0.4-0.9,1.2-1.4,1.7c-0.8,0.8-2,1.6-2.1,2.5c0,0.5,0.3,1.2,0.4,1.7c0.3,1.3,0.5,3.1,0.1,4.4c-0.5,1.5-3.1,1.2-3.4,2.7
							c-0.1,0.5,0.2,0.9,0.1,1.4c0,0.4-0.5,2-0.7,2.5c-0.3,0.7-1,1-1.5,1.6c-0.6,0.8-0.9,1.8-1.5,2.6c-0.8,1.1-2,2.2-3.1,3.2
							c-0.9,0.8-2.6,1.7-4.1,1.8c-0.9,0.1-1.8-0.2-2.7-0.1c-0.3,0.1-0.7,0.4-1.1,0.5c-0.3,0-0.5-0.1-0.8,0c-0.4,0.1-0.9,0.5-1.3,0.5
							c-0.9,0-2.1-1.3-2.1-2.6c0-0.5,0.4-1,0.4-1.5c0-0.5-0.6-1.2-1-2.2c-0.4-1-0.6-2-1-2.8c-0.4-0.8-1-1.2-1.3-1.9
							c-0.7-1.3-0.7-2.9-0.9-4.4c-0.1-0.5-0.4-1.1-0.4-1.7c-0.1-0.8,0.1-1.7-0.1-2.3c-0.1-0.5-0.6-1-0.9-1.6
							c-0.5-1.1-0.9-2.6-1.3-3.4c-0.4-0.8-1.2-1.6-1.3-2.6c0-0.6,0.1-1.8,0.1-2.4c0.1-0.6,0.4-1.1,0.6-1.7c0.1-0.4,0-0.9,0.1-1.4
							c0.4-2,2.2-2.7,1.9-5c-0.1-1-0.7-1.5-0.8-2.6c0-0.5,0.2-1,0.2-1.5c0-0.7-0.5-1.8-0.8-2.5c-0.7-1.9-1.2-3.6-2.2-5
							c-0.6-0.8-1.3-1.3-1.8-2c-0.4-0.6-0.8-1.7-0.9-2.1c0-0.5,0.3-0.8,0.4-1.3c0.1-0.6,0.2-1.8,0.4-2.8c0.1-0.5,0.5-1.6,0.4-2.3
							c-0.1-0.7-1-2.1-1.7-2.3c-1-0.3-2,0.4-3.3,0.3C550.5,342.3,550.6,340.2,549,339.9z M588.3,370.4c0.3-0.6,0.7-2.4,0-2.8
							c0,0-0.1,0-0.1,0C587.8,368.3,587.5,370.1,588.3,370.4z M587.3,352.6c0.2-0.6,0.8-1.2,0.7-2c-0.2-1.6-2.8-0.8-3.1,0.3
							c-0.2,0.8,0.1,1.4-0.1,2.2c0.3,0.6,1,0.8,1.8,0.7C587.1,353.6,587,353.2,587.3,352.6z M582.9,361.4c0.3-0.6-0.4-1-0.6-1.7
							c-0.1-0.8,0.2-1.7-0.4-2.1c-0.1,0-0.1,0-0.2,0C581.2,359,581.9,361.3,582.9,361.4z M631.3,276.7c-0.3-0.6-1,0.2-0.7,0.8
							C631.1,277.5,631.3,277.2,631.3,276.7z M614.8,280.2c1.2-0.3,0-2.5-0.9-2.2C612.8,278.3,614,280.4,614.8,280.2z M609.6,291.2
							c0.4-3-1.6-3.2-1.9-5.3c0.2,0,0.1-0.2,0.2-0.3c0.5-0.3,1.2,0.4,1.4-0.3c0-1-1.1-1.8-2.1-1.3c-0.3-0.3-0.3-0.8-0.4-1.4
							c-0.8-0.6-2.8-1.8-2.8-3c0-0.9,1-1.5,2.2-1.4c0.5-0.4,0.2-1.8-0.3-2.1c-1.8-0.5-2.8-0.2-4,0.9c-0.6,0.5-1.2,0.8-1.5,1.1
							c-0.3,0.3-0.7,1-0.6,1.4c0,0.5,0.7,0.8,0.9,1.5c0.1,0.4,0.1,0.8,0.2,1.1c0.3,0.8,1.1,1.4,1.7,2c0.4,0.5,1.6,1.5,1.6,2.1
							c0,0.5-0.4,0.6-0.5,1.1c-0.1,0.5-0.3,1.7-0.2,2.1c0.2,0.9,1,1,1.7,1.4c0.7,0.4,1.4,1.1,2.2,1.1
							C608.2,292.1,609.1,291.8,609.6,291.2z M592.9,285.1c1.9-0.4,1-2.4,0.1-3.1c-0.7-0.5-1.6-1-2.5-1.6c-0.5-0.4-2.4-1.1-2.4-1.8
							c0-0.8,1.4-1.1,0.9-2.5c-1-0.3-3.3,0.2-3.1,1.4c0.1,0.7,0.8,0.3,1,1.1c-0.7,0.3-1.5,1.1-2.3,0.9c-0.9-0.2-1.1-1.4-1.6-2.2
							c-0.7,0-1.1-0.8-1.9-0.7c-0.8,0.1-1.3,1.6-1.7,2.3c-0.2,0.4-0.6,0.6-0.7,0.9c-0.1,0.2,0,0.5-0.1,0.9c-0.2,0.9-0.9,1.3-0.9,2.1
							c0.1,0.7,0.7,1.1,0.8,1.7c0,0.7-0.9,0.3-0.9,1.1c1.3,1.3,1.3-0.6,2-0.9c0.5-0.2,1.5,0.2,2.2,0c0.5-0.1,1-0.7,1.6-1
							c0.4-0.2,0.8-0.3,1.3-0.3c2.3-0.1,3.7,1.7,5.7,1.7C591,285.3,592.2,285.2,592.9,285.1z M588.3,295.1c0-0.9-0.3-1.6-0.4-2.9
							c-1.3-1-2.3,0.9-3.6,0.7c-0.8-0.1-1.4-1.3-2.3-1.1c-0.5,0.1-0.7,0.8-1.2,0.9c-1,0.2-1.5-1-2.6-0.5c-1.5-1.4-2.2-3.7-2.6-6.2
							c-0.8-1.3-2.1-0.2-2.7,0.6c-0.4,0-0.8-0.2-0.9,0.3c-0.3,1.6,1.9,1.7,1.8,2.8c0,0.7-0.8,0.6-1.2,1.1c-0.4,0.5-0.1,1-0.6,1.3
							c-1.4,0.2-1.9-0.7-1.8-2.2c-0.6-1.1-1.4-1.9-1.9-2.8c-0.2-0.3-0.5-0.9-0.6-1.4c-0.1-0.4,0.2-0.9,0.1-1.4
							c-0.2-0.8-1.4-1.4-2.2-1.9c-0.8-0.5-1.9-0.9-2.5-1.5c-0.4-0.4-0.6-1.2-1-1.4c-0.3-0.2-0.7-0.2-1-0.4c-0.4-0.3-0.3-0.9-0.9-1
							c-0.3-0.1-0.7,0.3-0.9,0.6c-0.3,1.9,0.9,2,1.5,2.8c0.4,0.6,0.6,1.4,1,1.8c0.4,0.4,1,0.3,1.6,0.6c0.4,0.2,0.6,0.8,1,1
							c0.7,0.5,1.8,0.6,1.8,1.5c-0.4,0.3-1.4-0.5-1.7,0.3c-0.1,0.6,0.4,0.8,0.4,1.4c0,0.8-0.8,1.8-1.5,1.6c-0.1-0.5,0.4-0.9,0.4-1.5
							c0-1.1-1.8-2.7-2.8-3.2c-0.4-0.2-1-0.2-1.3-0.5c-0.7-0.5-1.9-1.6-2.3-2.3c-0.5-0.8-0.9-2.3-2.1-2.2c-0.5,0-0.8,0.5-1.2,0.8
							c-0.3,0.2-0.7,0.4-1.1,0.7c-0.4,0.3-0.8,0.7-1.1,0.7c-0.9,0-1.6-0.8-2.4-0.6c-0.3,0.1-0.5,0.3-0.8,0.7c0,0.5,0.1,0.8,0.1,1.4
							c-0.2,0.5-0.9,0.5-1.4,0.8c-0.7,0.5-1.4,1.4-2,2.1c-0.4,0.5-0.7,0.8-0.8,1.2c0,0.3,0.2,0.8,0.1,1.2c-0.1,0.4-0.7,1.3-1.1,1.6
							c-0.3,0.2-0.6,0.2-0.9,0.4c-0.6,0.4-0.8,0.9-1.3,1c-1.2,0.3-3.5-0.3-3.5,1.3c0,1.1,1.2,1.1,1.9,1c1,0,1.9,0.3,2.4,0.1
							c0.4-0.1,0.8-0.6,1.2-0.9c0.3-0.1,0.5-0.1,0.7-0.3c0.4-0.3,0.7-0.7,1-0.9c0.6-0.4,1.9-0.6,2.6-0.7c1-0.1,2,0.1,3.2,0
							c0.4,0,0.9-0.4,1.3-0.4c0.8-0.1,1.8,0.4,2.4,0.3c0.4,0,0.9-0.5,1.4-0.5c0.6,0,1.2,0.5,1.3,0.9c0.1,0.2-0.1,0.6-0.1,1
							c0.1,0.6,0.5,0.9,0.5,1.3c0,0.5-1.1,1.2-1,1.9c0.1,0.4,0.9,0.8,1.3,1.1c0.4,0.3,1.1,0.7,1.6,0.8c0.4,0.1,0.8-0.1,1.1-0.1
							c0.6,0.1,1.6,0.5,2,0.9c0.7,0.6,0.6,1.5,1.3,1.8c0.3,0.1,0.9,0.1,1.3,0.2c1,0.3,1.8,1.3,2.6,1.2c1.2-0.2,0.6-1.5,0.8-2.5
							c0.3-2.2,3.8-2.1,4.5-0.6c0.5,0.2,1,0,1.6,0.3c0.3,0.1,0.6,0.6,0.9,0.7c0.2,0.1,0.6,0,0.9,0c1.4,0.2,2.6,1.4,3.8,1.2
							c0.7-0.1,1.3-1,2-1c1.4-0.1,2.2,1.2,3.7,0.6c1.1-0.5,0.8-1.8,1.2-3.2C587.8,296.5,588.3,295.8,588.3,295.1z M664.8,266.1
							c0.3-1.1-0.2-2.2-0.7-2.9c-0.8,0.2-0.2,1.2-0.3,1.8c-0.1,0.8-0.8,1.4-0.8,2.3c-0.3,0.4-0.7,0.5-0.8,1.2c0.5,0.4,0.6-0.3,1-0.7
							C663.8,267.1,664.7,266.8,664.8,266.1z M646.2,236.5c-0.8,0-1.1,0.4-1.6,0.7c-0.3,0.2-0.8,0.3-0.6,0.8
							C644.7,237.8,646.1,237.4,646.2,236.5z M616.3,246.9c1.7,0.5,2.5-1.8,1.3-3.1c-0.3-0.3-1.1-0.4-1.5-1.1
							c-0.4-0.8-0.4-1.9-1.4-1.7c0,0.1,0,0.2-0.1,0.3c-0.1,1.9,2.2,2.3,2.1,3.8C616.8,245.9,616.1,246,616.3,246.9z"/>
					</g>
				</g>
			</g>
			<g id="XMLID_346_">
				<g id="XMLID_347_">
					<g id="XMLID_348_">
						<path id="XMLID_349_" class="st9" d="M592.9,243.7c-0.2-0.9,1.2-0.8,1,0.1C593.7,244,593.1,244,592.9,243.7z"/>
					</g>
				</g>
			</g>
			<g id="XMLID_342_">
				<g id="XMLID_343_">
					<g id="XMLID_344_">
						<path id="XMLID_345_" class="st9" d="M584.2,294.7c0-0.7,1.4-1,1.6-0.3C585.8,295.1,584.5,295.5,584.2,294.7z"/>
					</g>
				</g>
			</g>
			<g id="XMLID_338_">
				<g id="XMLID_339_">
					<g id="XMLID_340_">
						<path id="XMLID_341_" class="st9" d="M559.9,290.1c0.7-0.7,2.4-0.2,3.4-0.3c-0.2,0.7-0.2,1.5-0.6,1.9
							C561.5,291.5,560.4,291.1,559.9,290.1z"/>
					</g>
				</g>
			</g>
			<g id="XMLID_334_">
				<g id="XMLID_335_">
					<g id="XMLID_336_">
						<path id="XMLID_337_" class="st9" d="M554.7,285.6c1-1.2,2-0.6,1.6,1.8c-0.2,0.7-1.2,1.6-1.7,0.6
							C554.8,287.1,554.7,286.5,554.7,285.6z"/>
					</g>
				</g>
			</g>
			<g id="XMLID_330_">
				<g id="XMLID_331_">
					<g id="XMLID_332_">
						<path id="XMLID_333_" class="st9" d="M556.1,282.9c0.1,0.7-0.2,1-0.5,1.3C554.7,283.9,555.4,281.9,556.1,282.9z"/>
					</g>
				</g>
			</g>
			<g id="XMLID_326_">
				<g id="XMLID_327_">
					<g id="XMLID_328_">
						<path id="XMLID_329_" class="st9" d="M542.3,265.5c0.1-0.5-0.2-1.1-0.6-1.4c-0.2-0.2-0.6-0.1-0.9-0.3
							c-0.7-0.5-0.9-1.4-1.3-1.6c0.1-0.9-0.2-1.6,0-2.2c0.1-0.4,1.1-1.4,1.6-1.6c0.6-0.3,1.3,0,1.6-0.6c0.2,0,0.3,0,0.4,0.1
							c0,0.5-0.4,0.6-0.4,1.1c0.1,0.8,1.2,0.3,1.3,1c-0.1,0.8-0.7,1-0.7,1.5c0,0.5,0.9,1.5,1.3,2.1c0.3,0.5,0.9,0.9,1.1,1.4
							c0.2,0.4,0.3,1,0.5,1.2c0.4,0.4,1.2,0.5,1.3,1.1c0.1,0.8-0.8,1.1-0.7,2c-1,0.9-2.6,0.4-4.2,0.7c-0.7,0.1-1.5,1-2.3,0.3
							c-0.2-0.6,0.6-0.7,0.7-1.2c-0.1-0.5-0.6-0.4-0.7-0.9c0.2-0.7,0.8-0.8,0.8-1.8C541.4,266,542.2,266.2,542.3,265.5z"/>
					</g>
				</g>
			</g>
			<g id="XMLID_322_">
				<g id="XMLID_323_">
					<g id="XMLID_324_">
						<path id="XMLID_325_" class="st9" d="M537,263.5c0.9-0.7,2.6-0.2,2.7,0.7c0.1,0.6-0.5,0.7-0.7,1.4c-0.2,0.7,0,1.4-0.2,1.9
							c-0.2,0.4-0.8,0.4-1.2,0.5c-0.9,0.3-2.6,1.6-3.3,0.2c0.1-0.8,0.7-0.9,0.9-1.5c0-0.5-0.4-0.8-0.4-1.3c0.1-0.6,0.5-0.4,1.1-0.7
							C536.3,264.5,536.5,263.9,537,263.5z"/>
					</g>
				</g>
			</g>
			<g id="XMLID_318_">
				<g id="XMLID_319_">
					<g id="XMLID_320_">
						<path id="XMLID_321_" class="st9" d="M488.5,245c0.1,0.8-1.9,1.7-2.1,0.8C486.3,245,488,244,488.5,245z"/>
					</g>
				</g>
			</g>
			<g id="XMLID_314_">
				<g id="XMLID_315_">
					<g id="XMLID_316_">
						<path id="XMLID_317_" class="st9" d="M486.2,437.2c-0.4,0-0.7,0-1.1,0C485.3,437.1,486,437.1,486.2,437.2z"/>
					</g>
				</g>
			</g>
			<g id="XMLID_310_">
				<g id="XMLID_311_">
					<g id="XMLID_312_">
						<path id="XMLID_313_" class="st9" d="M483,238.9c0.1-0.1,0.3-0.1,0.4,0c-0.1,0.2-0.1,0.4-0.4,0.3C483,239.2,483,239,483,238.9
							z"/>
					</g>
				</g>
			</g>
			<g id="XMLID_306_">
				<g id="XMLID_307_">
					<g id="XMLID_308_">
						<path id="XMLID_309_" class="st9" d="M476.7,252.5c0,0.5-1.4,1.2-1.6,0.3c0-0.2,0-0.5,0.3-0.7
							C475.8,251.9,476.7,252,476.7,252.5z"/>
					</g>
				</g>
			</g>
			<g id="XMLID_302_">
				<g id="XMLID_303_">
					<g id="XMLID_304_">
						<path id="XMLID_305_" class="st9" d="M447.1,331.7c0,0.1-0.1,0.2-0.1,0.3C446.2,332,446.9,330.9,447.1,331.7z"/>
					</g>
				</g>
			</g>
			<g id="XMLID_298_">
				<g id="XMLID_299_">
					<g id="XMLID_300_">
						<path id="XMLID_301_" class="st9" d="M418.3,272.1c0.5-0.3,1,0.5,0.6,0.9C418.4,273.2,418.3,272.4,418.3,272.1z"/>
					</g>
				</g>
			</g>
			<g id="XMLID_278_">
				<g id="XMLID_279_">
					<g id="XMLID_280_">
						<path id="XMLID_281_" class="st9" d="M495.7,275.3c-0.3-0.1-0.8-0.1-1.2-0.2c-0.4-0.1-0.8-0.2-1.1-0.3
							c-0.9-0.1-1.8,0.2-2.3-0.4c0.8-1.3,2-2.7,3.1-3.8c0.3-0.3,1-0.6,0.9-1.3c-0.6-0.6-1.3,0-1.9,0.4c-0.6,0.4-1.3,1-2,1.1
							c-1.2,0.2-2.7-0.4-3.7,0.3c-0.1,0.6,1.1,0.4,0.9,1.4c-0.5,0.1-0.9,0.1-1.3-0.3c-0.3-0.4-0.1-0.9-0.4-1.1
							c-0.4-0.4-1.7-0.5-2.3-0.3c-0.7,0.1-1.4,0.7-1.5,1.4c0.9,0.5,2.4-0.5,2.7,0.8c-0.5,1.1-1.6,1.6-1.5,3.1c0.1,0.5,0.6,1.3,1,1.4
							c0.4,0.1,0.6-0.4,1-0.3c0.4,0,0.3,0.6,0.8,0.5c0.7-0.4,1.1-1.5,1.8-1.4c0.9,1.4-0.8,2-1.8,2.5c-1.1,0.5-2.6,0.8-3.5,1.2
							c-0.5,0.2-2.2,2.2-2.4,0.7c-0.2-1.1,0.8-0.8,1.1-1.7c-1.1-0.3-2.1,0.6-3.1,1c-1.4,0.6-3.8,1.1-4.2,3c-0.1,0.4,0.1,1.1-0.1,1.4
							c-0.2,0.2-1.2,0.2-1.6,0.4c-0.7,0.3-1.3,0.9-1.7,1c-0.3,0.1-0.8,0.1-1,0.2c-0.6,0.3-0.8,1.2-1.4,1.8c-0.3,0.2-0.9,0.4-1.1,0.7
							c-0.4,0.4-0.4,1.5-1.1,1.7c-0.4,0-0.7-0.4-1.1-0.1c0,1.1,0.3,2.6-0.1,3.7c-0.8,0.8-1.8,1.4-2.8,2.1c-0.6,0.4-1.1,0.5-1.8,0.9
							c-0.5,0.3-1,1-1.6,1.4c-1.4,1-3,2.1-3,4.5c0,0.5,0.2,1.1,0.3,1.7c0,0.4,0,0.7,0,1.1c0.1,0.9,0.6,2,0,2.6
							c-1-0.5-2.2-0.6-2.8-1.4c-0.2-0.8,0.4-1.5,0.3-2.3c-0.1-0.6-0.8-1.7-1.2-1.8c-0.4-0.1-0.8,0.5-1.3,0.4c-0.5,0-1-0.9-1.7-1
							c-1-0.1-1.7,0.3-2.8,0.1c-1.1,0.7-1.4,1.9-2.7,1.8c-0.5,0-0.9-0.5-1.4-0.6c-0.6-0.1-1.5-0.4-2.1-0.3c-1.2,0.1-2.1,1.1-3.1,1.8
							c-0.9,0.6-2.2,1.3-2.5,2.5c-0.1,0.6,0,1.5-0.2,2.1c-0.1,0.4-0.4,0.7-0.6,1.1c-0.8,1.7-1.5,4.1-0.9,6.6
							c0.1,0.4,0.9,2.5,1.2,2.9c0.4,0.5,1.4,1.2,2.1,1.2c0.5,0,1.1-0.3,1.6-0.4c0.6-0.1,1.3-0.1,1.8-0.3c1.5-0.6,1.2-3.1,2.8-3.9
							c0.7-0.4,1.4-0.4,2.6-0.5c0.4,0.4,0.6,1,0.5,1.6c0,0.4-0.4,0.8-0.6,1.4c-0.2,0.5-0.2,1.2-0.4,1.6c-0.2,0.6-0.7,1-0.9,1.5
							c-0.1,0.4-0.1,0.8-0.1,1.1c-0.2,0.6-0.8,1-0.5,1.5c1.5,0.7,3.4-0.2,4.7,0.1c0.6,0.1,1.7,0.9,1.7,2c0,0.8-0.5,1.3-0.6,2.1
							c-0.1,1.1-0.5,2.4-0.5,3.2c-0.1,1.4,1.7,3.9,3,3.8c1.3,0,2.1-1.6,3.8-0.8c0.5,0.3,1.1,1.3,1.7,1.3c0.5,0,1.2-1.1,1.6-1.8
							c0.4-0.9,0.4-1.6,1.1-2c0.8-0.5,1.4-0.2,2.3-0.7c0.4-0.2,0.8-0.5,1.2-0.9c0.3-0.3,0.7-1,1.1-0.5c0.6,0.7-0.7,1.1-0.2,1.8
							c1,0.6,1.5-1.2,2.2-1.2c0.2,0,1,0.5,1.4,0.9c0.6,0.4,0.7,1.1,1.3,1.2c0.4,0.1,1-0.2,1.6-0.1c0.7,0.1,1.2,0.9,1.7,0.9
							c0.7,0,1-0.9,1.6-1c1.3-0.3,1.7,0.2,2.3,1.1c0.6,0.1,0.6-0.9,1.2-0.5c-0.3,0.7,0.1,1.1,0.4,1.7c0.2,0.4,0.1,0.7,0.3,0.9
							c0.3,0.4,1,0.4,1.5,0.8c0.5,0.4,0.8,1.1,1.4,2c0.6,0.8,1.7,1.7,2.5,1.8c0.8,0.1,1.4-0.3,2.1-0.2c1.5,0.2,2.4,1.1,3.4,2
							c0.6,0.5,1.1,0.9,1.3,1.5c0.1,0.4,0.1,1,0.2,1.5c0.3,1.1,1.6,1.6,1.1,3.4c0.2,0.5,0.7,0.7,1.2,1.1c0.4,0.3,0.8,0.9,1.2,1
							c0.3,0.1,0.6-0.1,0.9-0.1c0.8,0.1,1.4,0.4,2.1,0.8c0.4,0.2,1,0.3,1.3,0.5c0.4,0.3,0.4,1.3,0.9,1.5c0.3,0.2,0.9-0.1,1.4,0
							c0.8,0.1,1.8,0.7,2.5,0.7c0.4,0,0.8-0.2,1.1-0.2c1.7,0.2,2.7,2.7,4.4,3.4c0.5,0.2,1.3,0.1,1.7,0.3c0.6,0.3,1.2,2.6,1.2,3.7
							c0.1,3.1-1.8,4.1-3,6.1c-0.2,0.4-0.4,1.1-0.7,1.7c-0.7,1.2-1.4,1.5-1.3,3.7c0,0.6,0.3,1.2,0.3,1.9c0,0.8-0.1,1.9-0.2,2.6
							c-0.1,0.6-0.5,1-0.6,1.5c-0.1,0.5,0.1,0.9,0.1,1.4c-0.1,0.5-0.5,1.2-0.8,1.9c-0.7,1.5-0.8,3.2-2.1,3.8
							c-0.8,0.3-1.8,0.2-2.7,0.5c-0.3,0.1-0.8,0.5-1.2,0.8c-1.2,0.7-3,1.6-3.3,3.2c-0.3,1.4,0.4,2.5,0.2,4c-0.2,0.5-0.5,0.9-0.9,1.4
							c-0.3,0.5-0.5,1.1-0.8,1.5c-0.4,0.6-1.1,0.9-1.3,1.8c-0.1,0.3,0,0.6-0.1,1.1c0,0.2-0.3,0.4-0.4,0.8c-0.1,0.3-0.1,0.7-0.2,0.9
							c-0.3,0.8-1.3,2.6-2,2.8c-1.5,0.5-3-0.8-4-0.5c0.1,0.9,0.7,0.8,1,1.4c0.2,0.4,0.3,0.8,0.6,1.2c0.3,0.4,0.6,0.6,0.6,1.1
							c0.1,1.1-0.6,2.1-1.1,2.5c-0.4,0.3-1.3,0.5-2.1,0.7c-0.5,0.1-1.9,0.1-2.1,0.5c-0.4,0.6,0.2,2.1-0.1,2.6c-0.5,1.2-2,0-2.7,0.3
							c-0.1,0.6,0.1,1.3,0.6,1.6c0.4,0.3,1.1-0.1,1.4,0.5c-0.1,0.8-0.9,1-1.1,1.8c0,0.8,0.2,1,0.1,1.5c-0.2,1.1-1.6,1.1-1.6,2.2
							c0.1,1.7,2.8,1,2.8,2.7c0,1-0.8,1-1.1,2c-0.2,0.5,0.1,0.7,0,1.1c-0.1,0.6-0.7,0.8-0.7,1.4c0,0.8,1,1.7,1.5,2.4
							c0.5,0.7,1.1,1.6,1.8,2c1,0.7,2.5,0.5,2.9,1.7c-0.1,0.7-0.7,0.9-1.3,1.1c0,0-0.1,0-0.1,0c-0.2-0.1-0.9-0.1-1.1,0
							c-0.3,0-0.7,0-1,0c-0.9-0.5-2.1-0.9-3.3-1.4c-0.4-0.2-0.9-0.6-1.3-0.9c-0.3-0.2-0.7-0.3-1-0.4c-0.6-0.4-1.3-1.6-1.9-2.1
							c-0.4-0.3-1-0.5-1.2-0.8c-0.2-0.3-0.4-0.9-0.6-1.3c-0.2-0.4-0.7-0.7-0.9-1.1c-0.6-0.9-1.3-2.2-1.3-2.9c0-0.7,0.5-1.1,0.4-1.8
							c-0.2-0.6-1.3-0.5-1.4-1.2c-0.1-0.4,0.3-1.2,0.3-1.8c0-0.4-0.6-0.8-0.4-1.4c0.3-0.6,0.7,0,1.1-0.3c-0.3-1.2,0-3.2-1-3.6
							c-0.5,0.5,0.5,1.7-0.4,2c-0.9-0.5-0.7-1.8-0.9-2.8c-0.1-0.7-0.4-1.3-0.4-2c0-0.4,0.1-0.8,0.1-1.2c-0.2-1.1-1.2-2.1-1.3-3.2
							c0-0.6,0.3-1,0.4-1.6c0.1-0.4,0-0.9,0-1.3c0.1-0.5,0.3-1,0.4-1.5c0.1-0.9,0-2.5-0.1-3.3c-0.2-1-0.8-1.8-0.9-2.9
							c0-0.4,0.1-1,0.1-1.5c0-0.5-0.2-0.9-0.3-1.5c0-0.5,0.1-0.9,0.1-1.5c0.1-1.1-0.2-2.3-0.1-3.3c0-0.3,0.1-0.5,0.1-0.9
							c0-0.9-0.3-1.8-0.3-2.6c-0.1-1.6,0.1-2.8-0.1-4.3c-0.2-1.1-0.4-2.9-0.7-3.6c-0.4-0.8-1.9-2.1-2.6-2.6
							c-0.5-0.3-1.1-0.4-1.6-0.8c-1.2-0.7-3.4-2.1-3.9-3.5c-0.1-0.4-0.1-0.9-0.3-1.4c-0.3-0.9-1-1.6-1.4-2.5
							c-0.9-1.6-1.6-3.6-2.5-5.3c-0.5-0.8-0.8-1.8-1.3-2.5c-0.3-0.4-1.2-0.8-1.3-1.4c-0.2-0.8-0.6-1.9-0.6-2.5
							c0.1-0.8,1.4-1.5,1.4-2.2c0-0.6-0.7-1-0.9-1.5c-0.4-1.3,0.2-2.1,0.6-3.2c0.1-0.4,0.3-0.9,0.4-1.2c0.3-0.5,0.8-0.6,1.1-1.1
							c0.2-0.3,0.3-0.9,0.6-1.3c0.5-0.9,1.4-1.2,1.6-2c0.2-0.6,0.3-3.8,0.1-4.9c-0.1-0.6-0.6-1.1-0.8-1.7c-0.3-1-0.4-2.2-1.3-2.1
							c-0.5,0-0.9,0.7-1.3,1.2c-0.1,0.6,0,1.3-0.6,1.4c-0.8,0.3-1.1-1-2.1-1.4c-0.4-0.1-1-0.1-1.2-0.3c-0.7-0.4-0.9-1.6-1.6-2
							c-0.6-0.4-1.1-0.3-1.5-0.9c-0.2-0.4,0-1.2-0.1-1.7c-0.8-0.5-1.4-2.6-2.3-3.1c-0.6-0.3-1.5-0.3-2.3-0.6c-0.4-0.1-0.6-0.3-1-0.4
							c-0.5-0.1-0.9-0.1-1.3-0.3c-1.4-0.8-2.2-3.6-3.9-3.5c-0.7,0-1.5,0.9-2.1,0.9c-0.7,0-1.8-0.6-2.6-1.1c-0.9-0.5-1.8-0.8-2.6-1.2
							c-0.6-0.4-1-1-1.5-1.3c-0.4-0.2-1-0.2-1.3-0.4c-0.5-0.3-0.9-0.8-1.5-1.3c-0.5-0.4-1.1-1.1-1.1-1.7c0-0.7,0.5-1.2,0.6-1.9
							c0.2-2-1.1-3.5-1.8-4.7c-0.6-0.9-1.3-1.6-1.8-2.5c0-0.5,0-0.6,0-1.2c-0.4-0.5-0.8-1.3-1.3-2c-0.4-0.7-1.2-1.4-1.3-2.2
							c-0.1-1,0.3-1.8,0-2.7c-0.5-1.5-2.3-0.8-2.1,1.2c0.1,0.6,0.7,1.3,0.9,1.9c0.2,0.6,0.2,1.3,0.4,2c0.2,0.7,0.7,1.2,0.9,2
							c0.3,1.2,0.3,2.4,0.6,3.2c0.2,0.6,1.1,1.3,0.6,2c-0.7,0.2-0.9-0.6-1.3-1.1c-0.2-0.3-1.1-0.8-1.2-1.4c-0.1-0.5,0.3-1.2,0.1-1.8
							c-0.2-1.2-2.3-1.2-2.3-2.5c0-0.8,0.8-0.9,0.9-1.6c0-0.8-0.9-1.5-1.1-2.2c-0.2-0.6-0.2-1.7-0.3-2.6c-0.1-0.8,0-1.8-0.1-2.5
							c-0.1-0.6-0.9-1.4-1.3-1.7c-0.6-0.4-1.1-0.2-1.4-0.9c-0.3-0.5-0.4-1.6-0.5-2.2c-0.1-1,0-2.1-0.1-3.2c0-1.1-0.1-2.1,0-3.3
							c0.4-0.8,1-1.2,1.3-2c0.2-0.6,0.3-1.3,0.6-1.9c0.5-1.1,1.7-2.1,2.4-3.2c0.8-1.2,1.6-2.3,2.1-3.7c0.2-0.5,0.6-1.5,0.6-2.1
							c-0.1-0.8-1.4-1.5-1.3-2.5c0.1-0.6,0.8-0.6,1-1.2c0.1-0.3,0.2-1.2,0.2-1.5c0-0.8-0.4-1.7-0.2-2.6c0.1-0.7,1-1.1,0.6-1.9
							c-0.5-0.8-1.3,0.4-1.8-0.1c-0.5-0.5,0.1-1.1,0.1-2c0-0.4-0.2-0.8-0.1-1c0-0.4,0.7-1,0.5-1.3c-0.4-0.6-0.8-2.1-1.6-2.6
							c-1-0.6-2.2-0.2-3.6-0.5c-0.9-0.2-1.3-1.2-2.1-1.1c-0.5,0-0.8,0.7-1.5,1.1c-0.7,0.4-1.6,0.2-2.3,0.4c-0.7,0.2-1,0.7-1.7,0.7
							c-0.6-0.1-0.6-0.7-1.3-0.8c-0.3,0-0.8,0.2-1.2,0.3c-1.1,0.1-3.1,0.2-4.2-0.1c-1-0.3-1.6-0.7-2.8-1.3c-0.8-0.5-2.4-1-2.3-1.8
							c0-0.5,1.5-1,2.1-1.2c0.9-0.3,1.5-0.9,2.2-0.9c0.3,0,0.6,0.2,1,0.2c0.4,0,0.8-0.4,1.3-0.5c1-0.2,2.4,0.1,2.3-1.1
							c-0.8-0.7-3.8,0.5-3.9-1c0-0.9,1.2-1.2,2.1-1.4c0.8-0.2,2-0.6,2.8-0.5c0.8,0,1.9,1.1,2.3-0.1c0.2-0.9-0.3-1.6-0.4-2.3
							c0.6-1,1.7-0.9,2.6-1c1-0.2,1.8-0.4,2.7-0.9c0.8-0.4,1.7-0.7,2.7-0.9c1-0.2,1.9-0.6,2.8-0.7c0.7-0.1,1.4,0,2.1-0.2
							c0.6-0.1,1.2-0.5,1.9-0.5c0.4,0,0.8,0.4,1.3,0.5c0.4,0.1,0.9,0,1.3,0.1c0.3,0.1,0.7,0.4,1,0.4c0.5,0.1,1.1-0.1,1.6,0
							c0.5,0.1,0.9,0.4,1.3,0.5c1.1,0.2,2.3-0.1,3.4,0.2c0.4,0.1,0.8,0.3,1.2,0.4c0.4,0.1,0.9,0,1.3,0.1c0.6,0.1,1,0.8,1.6,0.9
							c1.1,0.1,2.3-0.6,3.5-0.7c0.8-0.1,1.7,0,2.6-0.2c0.8-0.2,1.6-0.6,2.3-0.6c0.4,0,0.7,0.1,1.1,0.1c0.4-0.1,0.8-0.6,1.2-0.5
							c0.5,0.1,0.4,0.9,1,1.1c0.6-0.4,1.2,0,1.9,0c0.7,0,1.3-0.4,2-0.3c1.3,0.2,3.1,1.8,4.1,0.9c0.3-0.2,0.2-0.6,0.4-1.1
							c0.3-0.7,0.9-1.6,0.8-2.6c-1.4,0-2.8,0.9-4.4,0.9c-1.6-1.2,0.4-2,1.6-2.6c1-0.5,1.8-1.5,3-1.7c1-0.2,2.1,0.3,3.3,0.4
							c0.7,0.1,1.4-0.1,1.8,0.1c0.7,0.3,1.1,1.1,1.6,1.3c0.2,0.1,0.7,0.1,1,0.2c0.6,0.2,1.2,0.6,1.8,0c0.5,0.1,0.6,0.7,1.1,0.9
							c0.5-0.3,0.8-1.1,1.6-1.3c0.3-0.1,0.6,0.1,1,0c0.6-0.1,1.3-1.1,1.7-0.2c-0.1,0.6-0.9,0.7-1.3,1.2c-0.4,0.4-1,1.4-0.9,1.9
							c0.1,0.8,1.1,0.5,1.1,1.5c-0.2,0.6-0.7,0.3-1.2,0.6c-0.4,0.2-0.6,0.7-1.1,0.9c-1.3,0.3-2.4-0.4-3.5-0.3
							c-0.1,0.6,0.6,0.9,0.9,1.1c1,0.6,1.8,0.6,3.3,0.5c0.7,0,1.6,0.3,2.2-0.3c0.4-0.3,0.4-1,0.7-1.4c0.4-0.5,1.3-1,1.9-0.9
							c0.3,0.1,0.8,0.5,0.8,0.9c0,0.8-0.9,0.5-0.9,1.4c0.6,0.4,2.2-0.5,2.3-1.2c0.1-0.5-0.5-0.8-0.5-1.4c0-0.9,1-0.9,0.9-1.8
							c-0.5-0.5-1,0.1-1.5,0c-0.7-0.1-1.3-1.1-1.6-1.8c0.3-0.5,1-0.2,1.4-0.1c0.5-0.9,1.5-1.2,2.8-1.4c0.5-0.1,1.1-0.3,1.3,0.3
							c0.1,0.8-1,1.3-0.8,2.2c1,0.3,1.3-1.3,2.1-1.9c0.3-0.3,0.8-0.5,1.3-0.7c0.4-0.2,0.9-0.7,1.3-0.7c0.4,0,0.5,0.4,0.9,0.6
							c0.3,0.2,0.8-0.1,0.9,0.4c-0.8,1.7-3.9,0.7-4.7,2.5c0.2,1.2-0.5,2.3,0.1,3.1c0.4,0.6,1.3,0.2,1.5,0.8c0.3,0.8-0.9,0.8-0.6,1.7
							c0.8,0.5,1.6-0.5,2.3-0.9c0.7-0.5,1.7-1,1.8-2c-0.4-0.9-1.8-0.2-2-1.1c-0.1-0.5,0.4-1.6,0.6-1.8c0.7-1,3.3-2.4,5.2-2.2
							c0.4,0,0.7,0.3,1.1,0.3c1.2,0.2,2.7-0.6,3.6,0c0.8-0.5,1.7,0.1,2.8-0.1c0.8,0.6,0.6,1.8,1.8,2.4c0.3,0.2,0.8,0,1.2,0.2
							c0.3,0.1,0.7,0.6,1.1,0.8c0.5,0.3,1,0.2,1.1,0.7c0.1,0.4-0.4,0.7-0.4,1.2c0.3,0.3,0.1,0.8,0.2,1.2c0.3,0.8,1.1,0.7,1.8,1.1
							c0.5,0.3,1.7,1.1,1.6,1.7c0,0.4-1.1,1.2-1.4,1.4c-0.2,0.1-1.4,0.8-1.8,0.8c-0.7-0.1-0.9-1.7-1.8-1.7c-0.4,0-0.8,0.3-0.8,0.9
							c0,1.1,1,1.2,1.1,2.1c0,1.2-0.5,1.2-1.3,2c-0.6-0.3-1.1-0.7-1.8-0.8c-0.5,0.6,0.7,0.9,0.4,1.7c-1.1,0.3-2-0.4-3.1-0.8
							c-0.3-0.1-0.8-0.1-1.1-0.3c-0.4-0.3-0.5-1.1-0.9-1.5c-0.4-0.5-1.1-1.2-1.8-1.2c-0.9,0-2.1,1.3-2.8,0.1c0.5-2,2.8-0.5,4.3-1.2
							c0.6-0.3,0.8-1,1.2-1.3c0.9-0.6,2.4-0.7,2.3-2c-0.1-0.6-0.8-0.6-1.2-0.9c-0.6-0.4-1-2-1.8-2c-0.4,0-0.7,0.4-1.1,0.4
							c-0.9,0.1-1.9-0.4-2.8,0c-0.4,0.3-0.1,0.7-0.4,1.2c-0.2,0.4-0.8,0.5-1.1,0.9c-0.3,0.5-0.2,1.1-0.6,1.4c-0.6,0.6-1.8,0.7-2.6,1
							c-0.3,0.1-0.7,0.6-1.1,0.6c-0.6,0-0.8-0.9-1.5-0.6c-0.1,0.9,0.8,1.3,1.3,1.7c0.6,0.5,1.2,0.9,1.4,1.7
							c-0.6,1.5-1.5-0.1-2.4-0.1c-1,0-2.5,2.3-3.3,0.4c0.2-1,1.1-1.1,1.3-2.1c-1,0.2-1.9,1.2-3.1,1.5c-0.5,0.1-1,0.1-1.4,0.3
							c-0.8,0.3-1.4,1.1-2.3,1.5c-0.4,0.2-0.8,0.1-1.1,0.3c-0.9,0.3-1.9,1-2.8,1.5c-0.9,0.6-1.9,1.2-2.5,1.8
							c-0.3,0.3-1.1,1.4-1.1,1.8c0,0.5,0.8,0.7,0.9,1.2c0,0.3-0.5,1-0.1,1.4c0.3,0.4,0.9,0.1,1.5,0.2c1.1,0.2,1.8,1.2,2.6,1.8
							c0.6,0.4,1.6,0.9,2.3,1c1,0.1,2.1-0.3,2.2,0.6c0.1,0.9-0.9,1.2-1,1.8c0.5,0.8-0.4,1.2-0.4,2c0,0.6,0.6,1.5,1.1,1.5
							c0.7,0.1,1.8-0.8,2.1-1.7c0.4-1,0.2-2.4,0.9-3.2c3.3,0.1,6.1-1.8,5.9-5.9c0-0.4-0.2-0.9-0.1-1.4c0.1-0.7,1-1.2,0.9-2
							c0.9-0.3,0.9-2.1,1.8-2.4c0.8-0.2,1.7,0.7,2.8,0.6c0.3,0,0.8-0.4,1.1-0.3c0.7,0.1,1.1,1.1,1.6,1.6c0.5,0.4,0.9,0.3,1.1,0.9
							c-0.1,1-0.7,1-0.6,1.9c0.1,0.8,0.7,1.4,1.1,1.5c0.5,0.1,1.3-0.2,1.8-0.5c1-0.5,1.8-2.2,2.6-2c0.6,0.2,1.1,2.6,1.2,3.4
							c0.1,0.9-0.1,1.6-0.1,2.5c0.1,1.4,1.6,1.3,2.3,2c0.2,0.2,0.3,0.8,0.5,1.1c0.4,0.6,0.8,0.6,0.9,1.2c0.1,1.5-1.1,1.6-1,3.2
							c-0.3,0.6-0.9,0.6-0.9,1.4c0.1,1.3,1.7,0.3,2.1,1.4c0.2,0.6,0,1-0.2,1.8c0.6,0.8,0.5,2-0.4,2
							C496.4,276.2,496.3,275.4,495.7,275.3z M419,273c0.3-0.4-0.1-1.3-0.6-0.9C418.3,272.4,418.4,273.2,419,273z M468.5,280.8
							c-0.3-0.3-1.3-0.2-1.9-0.2c-0.5,0.1-1,0.2-1.1,0.6C466.3,281.6,468.3,281.9,468.5,280.8z M464.8,279.4
							c0.6-0.5,0.3-1.6-0.3-1.8c-0.2-0.1-0.5,0.2-0.9,0.2c-0.4,0-0.8-0.5-1.1-0.5c-0.6-0.1-1.1,0.3-1.3,0.6c0,0.5,0.3,0.6,0.3,1.1
							c-0.7,0.6-0.3,2.6,0.4,2.6c0.7,0.1,1.1-2.2,2.1-2.4C464.2,279.1,464.3,279.4,464.8,279.4z M463.8,282.8
							c-1-0.4-1.9,0.3-2.8,0.4c-0.5,0.1-1.4-0.1-1.3,0.8c0.1,0.7,1,0.5,1.6,0.3C462.5,283.8,463.2,283.4,463.8,282.8z M460.7,276.3
							c1.4-0.7-0.3-3-0.9-3.2c-1.2-0.4-2.8,1-4.1,1.5c-0.7,0.2-1.5,0.3-1.6,1c0.7,1.3,2-0.3,3-0.1c0.5,0.1,0.8,0.9,1.3,1
							C458.6,276.6,460.6,276.4,460.7,276.3z M459.7,277.7c-0.3-0.4-1.9,0-2.3,0.4c-0.3,0.3-0.5,0.9-0.9,1.4c-0.3,0.5-0.7,0.9-1,1.3
							c-0.3,0.4-1.7,2.9-0.6,3.2c0.5,0.1,1.5-1.1,1.6-1.5c0.3-1.6,0.9-2.7,1.9-3.4C459,278.5,459.6,278.6,459.7,277.7z M450.8,268.1
							c0.8,0,1.3-2.8,0-2.5C449.9,265.9,449.7,268.1,450.8,268.1z M447,332.1c0-0.1,0.1-0.2,0.1-0.3
							C446.9,330.9,446.2,332,447,332.1z M417,260.7c0-0.2-0.1-0.2-0.1-0.3c-0.2,0-0.5,0-0.4,0.3C416.6,260.8,416.8,260.9,417,260.7
							z M491.6,247.3c0.3,0.1,0.5-0.1,0.5-0.5C491.8,246.5,491.3,246.9,491.6,247.3z M483.4,238.9c-0.1-0.1-0.3-0.1-0.4,0
							c0,0.1,0,0.2,0,0.3C483.3,239.3,483.3,239.1,483.4,238.9z M456.4,245.5c0.2-0.2,0.6-0.4,0.4-0.9c-0.8-0.4-2.1-0.1-3.3-0.3
							c-0.7-1.1-1.8-1.3-1.8,0.5C453.1,246.2,455.1,244.3,456.4,245.5z M443.7,254.3c0.4-0.2,1-0.1,1.1-0.6
							c-0.3-0.3-0.7-0.7-1.1-0.8c-0.5,0-0.8,0.5-1.3,0.9c-0.6,0.4-1.4,0.5-1.5,1.1C442.1,255.1,443,254.6,443.7,254.3z M443.4,248.1
							c0.5-0.1,0.9,0.2,1.2-0.3c-0.3-1.9-2.5-0.7-3.8-0.6c-0.3,0.5-0.6,1-0.7,1.7C441.1,249.2,442.3,248.4,443.4,248.1z
							 M464.7,335.3c0.6-0.1,0.4-1.7-0.3-1.3C463.9,334.3,464.1,335.4,464.7,335.3z"/>
					</g>
				</g>
			</g>
			<g id="XMLID_274_">
				<g id="XMLID_275_">
					<g id="XMLID_276_">
						<path id="XMLID_277_" class="st9" d="M416.9,260.3c0,0.2,0.1,0.2,0.1,0.3c-0.1,0.2-0.4,0.2-0.5-0.1
							C416.4,260.3,416.7,260.3,416.9,260.3z"/>
					</g>
				</g>
			</g>
			<g id="XMLID_270_">
				<g id="XMLID_271_">
					<g id="XMLID_272_">
						<path id="XMLID_273_" class="st9" d="M414.8,265.4c-0.2,0.6-0.6,0.8-1,1c-0.1-0.1-0.3-0.3-0.4-0.4
							C413.4,265.2,414.4,264.6,414.8,265.4z"/>
					</g>
				</g>
			</g>
		</g>
		<g id="XMLID_257_">
			<g id="XMLID_264_">
				<path id="XMLID_267_" class="st6" d="M426.8,385.6c-8.2-2.2-14.9-5-20-8.6l10-22.5c4.8,3.2,10.4,5.8,16.8,7.7
					c6.4,2,12.6,2.9,18.8,2.9c11.7,0,17.6-2.9,17.6-8.8c0-3.1-1.7-5.4-5-6.9c-3.3-1.5-8.7-3.1-16.1-4.7c-8.1-1.7-14.9-3.6-20.3-5.6
					c-5.4-2-10.1-5.2-14-9.6c-3.9-4.4-5.9-10.4-5.9-17.9c0-6.6,1.8-12.5,5.4-17.8c3.6-5.3,9-9.5,16.1-12.6
					c7.1-3.1,15.9-4.6,26.3-4.6c7.1,0,14.1,0.8,20.9,2.4c6.9,1.6,12.9,3.9,18.2,7l-9.4,22.6c-10.3-5.5-20.2-8.3-29.9-8.3
					c-6.1,0-10.5,0.9-13.2,2.7c-2.8,1.8-4.2,4.1-4.2,7c0,2.9,1.6,5,4.9,6.5c3.3,1.4,8.6,2.9,15.9,4.5c8.2,1.7,15,3.6,20.4,5.6
					c5.4,2,10.1,5.2,14,9.5c3.9,4.4,5.9,10.3,5.9,17.8c0,6.5-1.8,12.3-5.4,17.6c-3.6,5.2-9,9.4-16.2,12.6
					c-7.2,3.1-15.9,4.7-26.2,4.7C443.5,388.8,435,387.7,426.8,385.6z"/>
				<path id="XMLID_265_" class="st6" d="M600.5,363.1v23.6H514V278.9h84.5v23.6h-54.4v18.2H592v22.8h-47.9v19.7H600.5z"/>
			</g>
			<g id="XMLID_258_">
				<g id="XMLID_260_">
					<g id="XMLID_261_">
						<path id="XMLID_263_" class="st6" d="M713.8,302.7c-4.8-8.5-11.4-15.2-19.8-20c-8.4-4.8-17.9-7.2-28.5-7.2
							c-10.6,0-20,2.4-28.5,7.2c-8.4,4.8-15,11.5-19.8,20c-4.8,8.5-7.2,18.1-7.2,28.8c0,10.7,2.4,20.3,7.2,28.8
							c4.8,8.5,11.4,15.2,19.8,20c8.4,4.8,17.9,7.2,28.5,7.2c10.6,0,20-2.4,28.5-7.2c8.4-4.8,15-11.5,19.8-20
							c4.8-8.5,7.2-18.1,7.2-28.8C721,320.8,718.6,311.2,713.8,302.7z"/>
						<path id="XMLID_262_" class="st12" d="M630.5,287.1c-5.4,4.2-9.8,9.4-13.3,15.6c-1.5,2.7-2.7,5.5-3.8,8.3l-1.8,6.2
							c-1.1,4.5-1.6,9.3-1.6,14.3c0,10.7,2.4,20.3,7.2,28.8c4.8,8.5,11.4,15.2,19.8,20l28.5-48.8L630.5,287.1z"/>
					</g>
				</g>
				<path id="XMLID_259_" class="st13" d="M630.5,287.1l35,44.4l2.2-56C667.7,275.4,647.9,273.2,630.5,287.1z"/>
			</g>
		</g>
	</g>
	<line id="XMLID_255_" class="st10" x1="449.9" y1="449.4" x2="449.9" y2="480.1"/>
	<polyline id="XMLID_254_" class="st10" points="298.3,202.3 298.3,236.5 336.8,236.5 	"/>
	<polyline id="XMLID_253_" class="st10" points="789.3,206.8 825.1,206.8 825.1,231.9 	"/>
	<g id="XMLID_250_">
		<path id="XMLID_252_" class="st4" d="M390.6,209.6H234.2c-3.4,0-6.2-2.8-6.2-6.2v-87.8c0-3.4,2.8-6.2,6.2-6.2h156.5
			c3.4,0,6.2,2.8,6.2,6.2v87.8C396.8,206.8,394,209.6,390.6,209.6z"/>
		<path id="XMLID_251_" class="st14" d="M390.6,209.6H234.2c-3.4,0-6.2-2.8-6.2-6.2v-87.8c0-3.4,2.8-6.2,6.2-6.2h156.5
			c3.4,0,6.2,2.8,6.2,6.2v87.8C396.8,206.8,394,209.6,390.6,209.6z"/>
	</g>
	<path id="XMLID_249_" class="st15" d="M253.4,165.1c0.7-0.7,20.5-20.2,20.5-20.2l19.5,9.6l19-22.4l19.5,28.1l19-12.4"/>
	<rect id="XMLID_248_" x="250.3" y="173.8" class="st16" width="9.1" height="20.2"/>
	<rect id="XMLID_247_" x="269.2" y="160.5" class="st6" width="9.1" height="33.6"/>
	<rect id="XMLID_246_" x="288.3" y="163.8" class="st16" width="9.1" height="30.2"/>
	<rect id="XMLID_245_" x="307.8" y="144.9" class="st6" width="9.1" height="49.2"/>
	<rect id="XMLID_244_" x="327.5" y="171" class="st16" width="9.1" height="23.1"/>
	<circle id="XMLID_243_" class="st16" cx="254.9" cy="162.8" r="4.9"/>
	<circle id="XMLID_242_" class="st6" cx="273.7" cy="144.9" r="4.9"/>
	<circle id="XMLID_241_" class="st16" cx="293.3" cy="152.9" r="4.9"/>
	<circle id="XMLID_240_" class="st6" cx="312.4" cy="132.1" r="4.9"/>
	<circle id="XMLID_239_" class="st16" cx="331.9" cy="160.1" r="4.9"/>
	<rect id="XMLID_238_" x="347.1" y="159.4" class="st6" width="9.1" height="34.7"/>
	<rect id="XMLID_237_" x="367.3" y="171" class="st16" width="9.1" height="23.1"/>
	<line id="XMLID_236_" class="st15" x1="350.9" y1="147.7" x2="371.8" y2="159.4"/>
	<circle id="XMLID_235_" class="st6" cx="352" cy="147.7" r="4.9"/>
	<circle id="XMLID_234_" class="st16" cx="371.8" cy="159.4" r="4.9"/>
	<g id="XMLID_214_">
		<g id="XMLID_230_">
			<path id="XMLID_233_" class="st4" d="M882.4,385.4H761.4c-4.1,0-7.4-3.3-7.4-7.4V240.2c0-4.1,3.3-7.4,7.4-7.4h120.9
				c4.1,0,7.4,3.3,7.4,7.4v137.8C889.8,382,886.5,385.4,882.4,385.4z"/>
			<path id="XMLID_232_" class="st14" d="M882.4,385.4H761.4c-4.1,0-7.4-3.3-7.4-7.4V240.2c0-4.1,3.3-7.4,7.4-7.4h120.9
				c4.1,0,7.4,3.3,7.4,7.4v137.8C889.8,382,886.5,385.4,882.4,385.4z"/>
			<path id="XMLID_231_" class="st6" d="M889.8,256.1H754v-16.4c0-3.8,3.1-7,7-7h122c3.8,0,6.8,3.1,6.8,6.8V256.1z"/>
		</g>
		<g id="XMLID_226_">
			<circle id="XMLID_229_" class="st14" cx="879.6" cy="246.1" r="5.1"/>
			<circle id="XMLID_228_" class="st14" cx="865.1" cy="246.1" r="5.1"/>
			<circle id="XMLID_227_" class="st14" cx="850.6" cy="246.1" r="5.1"/>
		</g>
		<rect id="XMLID_225_" x="789.9" y="275.6" class="st17" width="81.7" height="4.8"/>
		<rect id="XMLID_224_" x="791.1" y="285.9" class="st18" width="58.5" height="4.8"/>
		<rect id="XMLID_223_" x="768.1" y="275.6" class="st6" width="16.1" height="4.8"/>
		<rect id="XMLID_222_" x="789.9" y="297.3" class="st6" width="81.7" height="4.8"/>
		<rect id="XMLID_221_" x="768.1" y="297.3" class="st6" width="16.1" height="4.8"/>
		<rect id="XMLID_220_" x="789.9" y="342.6" class="st6" width="81.7" height="4.8"/>
		<rect id="XMLID_219_" x="789.9" y="356.7" class="st17" width="16.1" height="4.8"/>
		<rect id="XMLID_218_" x="789.9" y="308.8" class="st6" width="81.7" height="4.8"/>
		<rect id="XMLID_217_" x="768.1" y="308.8" class="st18" width="16.1" height="4.8"/>
		<rect id="XMLID_216_" x="789.9" y="318.8" class="st17" width="58.5" height="4.8"/>
		<rect id="XMLID_215_" x="789.9" y="329.1" class="st18" width="29.2" height="4.8"/>
	</g>
	<g id="XMLID_205_">
		<g id="XMLID_210_">
			<path id="XMLID_213_" class="st4" d="M530.1,576.7H427.4c-4.1,0-7.4-3.3-7.4-7.4v-84c0-4.1,3.3-7.4,7.4-7.4h102.7
				c4.1,0,7.4,3.3,7.4,7.4v84C537.5,573.3,534.2,576.7,530.1,576.7z"/>
			<path id="XMLID_212_" class="st14" d="M530.1,576.7H427.4c-4.1,0-7.4-3.3-7.4-7.4v-84c0-4.1,3.3-7.4,7.4-7.4h102.7
				c4.1,0,7.4,3.3,7.4,7.4v84C537.5,573.3,534.2,576.7,530.1,576.7z"/>
			<path id="XMLID_211_" class="st6" d="M537.5,495.1H420v-10.3c0-3.8,3.1-7,7-7h103.7c3.8,0,6.8,3.1,6.8,6.8V495.1z"/>
		</g>
		<g id="XMLID_206_">
			<circle id="XMLID_209_" class="st14" cx="527.1" cy="487.7" r="3.8"/>
			<circle id="XMLID_208_" class="st14" cx="516.4" cy="487.7" r="3.8"/>
			<circle id="XMLID_207_" class="st14" cx="505.7" cy="487.7" r="3.8"/>
		</g>
	</g>
	<path id="XMLID_204_" class="st19" d="M476.9,535.6l10.2-28c3.8,1.4,7.3,3.5,10.2,6.3c2.9,2.8,5.3,6.1,6.9,9.8L476.9,535.6z"/>
	<path id="XMLID_203_" class="st6" d="M476.9,535.6l8.7,28.5c-2.8,0.9-5.7,1.3-8.7,1.3c-16.4,0-29.8-13.5-29.8-29.8
		c0-16.4,13.5-29.8,29.8-29.8c3.4,0,6.8,0.6,10.1,1.7L476.9,535.6z"/>
	<path id="XMLID_202_" class="st4" d="M476.9,535.6l27.4-11.8c1.6,3.7,2.4,7.7,2.4,11.8c0,13-8.6,24.6-21,28.5L476.9,535.6z"/>
	<g id="XMLID_191_">
		<g id="XMLID_192_">
			<polygon id="XMLID_201_" class="st20" points="764.1,566.4 760.9,685.3 765.4,685.3 770.7,566.4 			"/>
			<polygon id="XMLID_200_" class="st21" points="764.1,566.4 760.9,685.3 765.4,685.3 770.7,566.4 			"/>
			<polygon id="XMLID_199_" class="st20" points="788.6,569.1 828.9,569.1 841.6,685.3 846.8,685.3 835.1,560.9 788.6,562.1 			"/>
			<polygon id="XMLID_198_" class="st21" points="788.6,569.1 828.9,569.1 841.6,685.3 846.8,685.3 835.1,560.9 788.6,562.1 			"/>
			<polygon id="XMLID_197_" class="st20" points="785.7,562.1 728.7,562.1 725.8,562.1 713.2,685.3 716.1,685.3 716.6,680.8 
				716.2,685.3 719,685.3 733.4,569.4 780.3,569.4 780.7,685.3 783.6,685.3 783.8,685.3 786.8,685.3 788.6,562.1 			"/>
			<polygon id="XMLID_196_" class="st21" points="785.7,562.1 728.7,562.1 725.8,562.1 713.2,685.3 716.1,685.3 716.6,680.8 
				716.2,685.3 719,685.3 733.4,569.4 780.3,569.4 780.7,685.3 783.6,685.3 783.8,685.3 786.8,685.3 788.6,562.1 			"/>
			<path id="XMLID_195_" class="st20" d="M765,549.4l12.6-88.1c0.7-6.4,5.5-11.3,11.1-11.3h58.7c1.5,0,2.7,1.4,2.7,3V546
				c0,12.9-9.2,23.4-20.5,23.4h-65.5h-52c-0.7,0-1.3-0.7-1.3-1.5v0c0-5.8,4.1-10.5,9.2-10.5h36.9C761.1,557.5,764.6,554,765,549.4z"
				/>
			<path id="XMLID_194_" class="st14" d="M850.2,453.1V546c0,12.9-9.2,23.4-20.5,23.4H712.2c-0.7,0-1.3-0.7-1.3-1.5
				c0-2.9,1-5.5,2.7-7.4c1.7-1.9,4-3.1,6.5-3.1h37c0.8,0,1.6-0.1,2.4-0.4c2.9-1,5.2-4,5.6-7.6l12.6-88.1c0.7-6.4,5.5-11.3,11.1-11.3
				h58.8c1,0,1.9,0.6,2.3,1.5C850.1,452.1,850.2,452.6,850.2,453.1z"/>
			<path id="XMLID_193_" class="st7" d="M839.4,450.1v83.6c0,12.9-9.2,23.4-20.5,23.4h-59.4c2.9-1,5.2-4,5.6-7.6l12.6-88.1
				c0.7-6.4,5.5-11.3,11.1-11.3H839.4z"/>
		</g>
	</g>
	<g id="XMLID_160_">
		<g id="XMLID_186_">
			<g id="XMLID_187_">
				<g id="XMLID_188_">
					<g id="XMLID_189_">
						<polygon id="XMLID_190_" class="st6" points="768.4,642 773.9,673.2 761,678.4 750.4,645.6 						"/>
					</g>
				</g>
			</g>
		</g>
		<g id="XMLID_164_">
			<g id="XMLID_165_">
				<g id="XMLID_166_">
					<g id="XMLID_167_">
						<g id="XMLID_168_">
							<g id="XMLID_169_">
								<path id="XMLID_185_" class="st20" d="M769.9,670.6c-0.9,2.3-2.9,3.5-5.2,3l-1.5-2.1c-1.3-1.8-3.1-2.5-5-1.1
									c-1,0.7-1.8,2.5-1.7,4.8c0.2,4.1-1.5,6.8-1.5,6.8s-7,9.4-9.9,12.2c-1.7,1.6-3.9,3.9-4.3,6.8c-0.1,0.8-0.1,1.7,0,2.8
									c0.1,0.8,0.9,2.4,0.9,2.5l23.8-12.1c0,0,1.7-2.6,2.8-3.1c1.9-0.9,3.5,0.3,3.5,0.3l8.7-4.3c0,0-0.5-1.4-1.3-3.5l0,0
									c-0.3-0.9-0.7-2-1.1-3.1c-1.7-4.8-3.8-10.9-4.3-12.3C773,665.8,769.9,670.6,769.9,670.6z"/>
								<g id="XMLID_180_">
									<g id="XMLID_181_">
										<g id="XMLID_182_">
											<g id="XMLID_183_">
												<path id="XMLID_184_" class="st16" d="M751.1,686.9c0.1-0.2,0.2-0.2,0.4-0.2c0.7,0.1,1.5,0.3,2.1,0.8
													c0.3,0.2,0,0.8-0.4,0.6c-0.6-0.4-1.2-0.6-1.9-0.7C751.2,687.3,751,687.1,751.1,686.9
													C751.1,686.9,751.1,686.9,751.1,686.9z"/>
											</g>
										</g>
									</g>
								</g>
								<g id="XMLID_175_">
									<g id="XMLID_176_">
										<g id="XMLID_177_">
											<g id="XMLID_178_">
												<path id="XMLID_179_" class="st16" d="M752.4,685c0.1-0.2,0.2-0.2,0.4-0.2c0.7,0.1,1.5,0.3,2.1,0.8
													c0.3,0.2,0,0.8-0.4,0.6c-0.6-0.4-1.2-0.6-1.9-0.7C752.5,685.4,752.4,685.2,752.4,685C752.4,685,752.4,685,752.4,685z"/>
											</g>
										</g>
									</g>
								</g>
								<g id="XMLID_170_">
									<g id="XMLID_171_">
										<g id="XMLID_172_">
											<g id="XMLID_173_">
												<path id="XMLID_174_" class="st16" d="M753.9,683.1c0.1-0.2,0.2-0.2,0.4-0.2c0.7,0.1,1.5,0.3,2.1,0.8
													c0.3,0.2,0,0.8-0.4,0.6c-0.6-0.4-1.2-0.6-1.9-0.7C753.9,683.5,753.8,683.3,753.9,683.1
													C753.9,683.1,753.9,683.1,753.9,683.1z"/>
											</g>
										</g>
									</g>
								</g>
							</g>
						</g>
					</g>
				</g>
			</g>
		</g>
		<path id="XMLID_163_" class="st21" d="M740.9,702.5c0,0.4,0,0.9,0.1,1.3c0.1,0.8,0.9,2.4,0.9,2.5l23.8-12.1c0,0,1.7-2.6,2.8-3.1
			c1.9-0.9,3.5,0.3,3.5,0.3l8.7-4.3c0,0-0.5-1.4-1.3-3.5l0,0c-0.1-0.2-0.1-0.3-0.2-0.5L740.9,702.5z"/>
		<path id="XMLID_162_" class="st22" d="M754.2,683.3c-0.3-0.9-0.7-1.7-1.2-2.5c-0.5-0.8-1.1-1.5-2-1.9c-0.4-0.2-0.9-0.3-1.2-0.1
			c-0.4,0.2-0.5,0.8-0.4,1.2c0.1,0.9,0.6,1.6,1.3,2.2C751.4,682.6,753.4,683.1,754.2,683.3"/>
		<path id="XMLID_161_" class="st22" d="M754.3,683.2c-0.1-0.9-0.1-1.9,0-2.8c0.1-0.9,0.4-1.8,0.9-2.6c0.3-0.3,0.6-0.7,1.1-0.6
			c0.5,0,0.8,0.5,0.9,0.9c0.3,0.8,0.1,1.8-0.3,2.5C756.6,681.4,755,682.7,754.3,683.2"/>
	</g>
	<g id="XMLID_129_">
		<g id="XMLID_155_">
			<g id="XMLID_156_">
				<g id="XMLID_157_">
					<g id="XMLID_158_">
						<polygon id="XMLID_159_" class="st6" points="727.2,637.1 732.6,668.3 719.8,673.4 709.2,640.7 						"/>
					</g>
				</g>
			</g>
		</g>
		<g id="XMLID_133_">
			<g id="XMLID_134_">
				<g id="XMLID_135_">
					<g id="XMLID_136_">
						<g id="XMLID_137_">
							<g id="XMLID_138_">
								<path id="XMLID_154_" class="st20" d="M728.7,665.7c-0.9,2.3-2.9,3.5-5.2,3l-1.5-2.1c-1.3-1.8-3.1-2.5-5-1.1
									c-1,0.7-1.8,2.5-1.7,4.8c0.2,4.1-1.5,6.8-1.5,6.8s-7,9.4-9.9,12.2c-1.7,1.6-3.9,3.9-4.3,6.8c-0.1,0.8-0.1,1.7,0,2.8
									c0.1,0.8,0.9,2.4,0.9,2.5l23.8-12.1c0,0,1.7-2.6,2.8-3.1c1.9-0.9,3.5,0.3,3.5,0.3l8.7-4.3c0,0-0.5-1.4-1.3-3.5l0,0
									c-0.3-0.9-0.7-2-1.1-3.1c-1.7-4.8-3.8-10.9-4.3-12.3C731.8,660.8,728.7,665.7,728.7,665.7z"/>
								<g id="XMLID_149_">
									<g id="XMLID_150_">
										<g id="XMLID_151_">
											<g id="XMLID_152_">
												<path id="XMLID_153_" class="st16" d="M709.9,682c0.1-0.2,0.2-0.2,0.4-0.2c0.7,0.1,1.5,0.3,2.1,0.8
													c0.3,0.2,0,0.8-0.4,0.6c-0.6-0.4-1.2-0.6-1.9-0.7C709.9,682.4,709.8,682.2,709.9,682C709.9,682,709.9,682,709.9,682z"/>
											</g>
										</g>
									</g>
								</g>
								<g id="XMLID_144_">
									<g id="XMLID_145_">
										<g id="XMLID_146_">
											<g id="XMLID_147_">
												<path id="XMLID_148_" class="st16" d="M711.2,680.1c0.1-0.2,0.2-0.2,0.4-0.2c0.7,0.1,1.5,0.3,2.1,0.8
													c0.3,0.2,0,0.8-0.4,0.6c-0.6-0.4-1.2-0.6-1.9-0.7C711.3,680.5,711.1,680.3,711.2,680.1
													C711.2,680.1,711.2,680.1,711.2,680.1z"/>
											</g>
										</g>
									</g>
								</g>
								<g id="XMLID_139_">
									<g id="XMLID_140_">
										<g id="XMLID_141_">
											<g id="XMLID_142_">
												<path id="XMLID_143_" class="st16" d="M712.7,678.2c0.1-0.2,0.2-0.2,0.4-0.2c0.7,0.1,1.5,0.3,2.1,0.8
													c0.3,0.2,0,0.8-0.4,0.6c-0.6-0.4-1.2-0.6-1.9-0.7C712.7,678.6,712.6,678.4,712.7,678.2
													C712.6,678.2,712.6,678.2,712.7,678.2z"/>
											</g>
										</g>
									</g>
								</g>
							</g>
						</g>
					</g>
				</g>
			</g>
		</g>
		<path id="XMLID_132_" class="st21" d="M699.6,697.6c0,0.4,0,0.9,0.1,1.3c0.1,0.8,0.9,2.4,0.9,2.5l23.8-12.1c0,0,1.7-2.6,2.8-3.1
			c1.9-0.9,3.5,0.3,3.5,0.3l8.7-4.3c0,0-0.5-1.4-1.3-3.5l0,0c-0.1-0.2-0.1-0.3-0.2-0.5L699.6,697.6z"/>
		<path id="XMLID_131_" class="st22" d="M713,678.3c-0.3-0.9-0.7-1.7-1.2-2.5c-0.5-0.8-1.1-1.5-2-1.9c-0.4-0.2-0.9-0.3-1.2-0.1
			c-0.4,0.2-0.5,0.8-0.4,1.2c0.1,0.9,0.6,1.6,1.3,2.2C710.2,677.7,712.2,678.2,713,678.3"/>
		<path id="XMLID_130_" class="st22" d="M713.1,678.3c-0.1-0.9-0.1-1.9,0-2.8c0.1-0.9,0.4-1.8,0.9-2.6c0.3-0.3,0.6-0.7,1.1-0.6
			c0.5,0,0.8,0.5,0.9,0.9c0.3,0.8,0.1,1.8-0.3,2.5C715.3,676.5,713.8,677.7,713.1,678.3"/>
	</g>
	<g id="XMLID_124_">
		<path id="XMLID_128_" class="st20" d="M830.6,501.5c0,0-30.9,30.2-47,45.2c-16.1,15-66.6,12.8-66.6,12.8l19.1,97.4l-26.2,3.2
			c0,0-24.7-72.3-34.3-110.9c-1.4-5.6,1.2-14.1,3.7-17.6c10.6-14.9,89.2-17.4,89.2-17.4l1.7-10.5L830.6,501.5z"/>
		<path id="XMLID_127_" class="st23" d="M720.9,579.2c0,0-13.8-24.4-16.8-34.1c-3-9.8-2-13.4,5.2-16.3c7.3-2.9,58.7-9.1,58.7-9.1
			l0.8-4.3l10.6,11.6c0,0-60.8,4.1-60.2,14.1S720.9,579.2,720.9,579.2z"/>
		<path id="XMLID_126_" class="st20" d="M830.6,501.5c0,0,6.4,37.6-6.6,47.2c-12.4,9.2-64.7,14.7-64.7,14.7l16.1,97.9l-25.7,4.5
			c0,0-25-74.6-34.6-113.3c-1.4-5.6-0.2-12.8,2.3-16.4c10.6-14.9,88.5-19.4,88.5-19.4L830.6,501.5z"/>
		<path id="XMLID_125_" class="st23" d="M759.3,563.4c0,0-4.1-6-7.2-8.4c0,0,8.9,3,10.6,8.2L759.3,563.4z"/>
	</g>
	<path id="XMLID_123_" class="st24" d="M707.4,502.4l5.6,8.4c0,0,35.4-12,39.5-16c4.2-4,9.4-40,9.4-40v-25.5l0.4-18.5
		c0,0-14.7,3.6-15.8,15.3c-0.3,3.5-6.6,55.3-6.6,55.3L707.4,502.4z"/>
	<g id="XMLID_121_">
		<path id="XMLID_122_" class="st20" d="M719,523.3h25h26.5c0,0,0,0,0,0c0,2-2.2,3.6-4.9,3.5h-26.5h-15.2c0,0,0,0-0.1,0c0,0,0,0,0,0
			h-42.2c-2.7,0-4.8-1.6-4.8-3.6H719z"/>
	</g>
	<path id="XMLID_120_" class="st20" d="M680.9,526.7H728c0.8,0,1.5-0.5,1.5-1.2c0-0.1,0-0.2-0.1-0.4l-20.9-48
		c-0.5-1.4-2.1-2.3-3.9-2.3h-47.1c-0.8,0-1.4,0.5-1.4,1.2c0,0.1,0,0.3,0.1,0.4l20.9,48C677.5,525.7,679.1,526.7,680.9,526.7z"/>
	<path id="XMLID_119_" class="st4" d="M657.4,474.8h47.1c1.8,0,3.4,0.9,3.9,2.3l20.2,46.2H744h26.5c0,0,0,0,0,0c0,2-2.2,3.6-4.9,3.5
		h-26.5h-15.2c0,0,0,0-0.1,0c0,0,0,0,0,0h-42.2c-0.8,0-1.6-0.2-2.3-0.5c-1.1-0.4-2-1.1-2.3-2l-20.9-48c-0.1-0.1-0.1-0.3-0.1-0.4
		C656,475.3,656.6,474.8,657.4,474.8z"/>
	<path id="XMLID_118_" class="st9" d="M685.7,500.4c1,2.3,3.1,3.9,4.6,3.6c1.5-0.3,1.9-2.4,1-4.7c-1-2.3-3.1-3.9-4.6-3.5
		C685.1,496,684.7,498,685.7,500.4z"/>
	<g id="XMLID_115_" class="st12">
		<line id="XMLID_117_" class="st25" x1="729.4" y1="523.3" x2="728.6" y2="523.3"/>
		<path id="XMLID_116_" d="M708.4,477.1l20.2,46.2h-2.2l-21.9-48.5C706.3,474.8,707.9,475.8,708.4,477.1z"/>
	</g>
	<g id="XMLID_78_">
		<g id="XMLID_113_">
			<path id="XMLID_114_" class="st6" d="M764.7,514.3c0,0-8.2-9.8-5.6-11.8l1-91.1l2.3-0.7l18.5-4.2l19.1-4.1l10,2.1l17.7,19.5
				c0,0,2.5,47.5,2.6,49.7c0.2,2.6,1.4,37.1,1.4,37.1C801.5,517.4,764.2,516.6,764.7,514.3z"/>
		</g>
		<g id="XMLID_93_">
			<g id="XMLID_110_">
				<path id="XMLID_112_" class="st24" d="M774.6,408.1l7.7,11.5l14.2-17.5c0,0-3.8-2.9-7-5.7c-2.5-2.2-9.4-10.8-9.4-10.8l-1.9,1.6
					l-11.9,10.3c0,0,8.5,4.9,8.3,6.7c0.3,1.6,0.7,3.2-0.2,3.8"/>
				<path id="XMLID_111_" class="st23" d="M774.6,404.3c0.3,1.8,0.5,2.1-0.1,3.8c8.9-1.9,4.7-20.7,4.7-20.7h-1l-11.9,10.3
					C766.3,397.7,774.9,402.6,774.6,404.3z"/>
			</g>
			<g id="XMLID_94_">
				<g id="XMLID_96_">
					<g id="XMLID_100_">
						<path id="XMLID_109_" class="st20" d="M743.3,369c-1.2,5.1,0.3,15.2,7.1,11.4C757.1,376.6,745.4,360.3,743.3,369z"/>
						<path id="XMLID_108_" class="st24" d="M779.5,373.2c1.7,12.7,2.8,19.9-2.3,27.5c-7.7,11.5-24,8.8-29.4-3.2
							c-4.9-10.8-6.8-29.8,4.6-37.1C763.7,353.3,777.9,360.5,779.5,373.2z"/>
						<path id="XMLID_107_" class="st20" d="M778.8,356.1c-3.1-6.6-12.8-8.7-16.9-4.2c-0.6,0.7,5.2,1.5,4.6,1.4l2.4,10.1
							c0.7-0.3,2.3,0.3,3.6,2.5c0,0,0.7,13.7,7.3,18.2C792,375.2,788.7,357.3,778.8,356.1z"/>
						<path id="XMLID_106_" class="st24" d="M786.5,382.8c-0.4,3.4-2.3,6.4-4.6,8.1c-3.4,2.6-6.7-0.1-7.1-4.1c-0.4-3.6,1-9.4,5-10.4
							C783.8,375.4,787,378.9,786.5,382.8z"/>
						<path id="XMLID_105_" class="st20" d="M762.2,380.4c0.2,1.3-0.2,2.5-1.1,2.6c-0.8,0.2-1.7-0.8-2-2.1c-0.2-1.3,0.2-2.5,1.1-2.6
							C761.1,378.1,762,379.1,762.2,380.4z"/>
						<path id="XMLID_104_" class="st20" d="M749.6,383c0.2,1.3-0.2,2.5-1.1,2.6c-0.8,0.2-1.7-0.8-2-2.1c-0.2-1.3,0.2-2.5,1.1-2.6
							C748.5,380.8,749.4,381.7,749.6,383z"/>
						<path id="XMLID_103_" class="st26" d="M753.6,381.5c0,0-2.8,7.2-3.6,10c2.1,1.3,5-0.1,5-0.1L753.6,381.5z"/>
						<path id="XMLID_102_" class="st20" d="M763.7,372.9c-0.2,0.1-0.4,0.2-0.6,0.1c-2.5-1.2-4.4,0-4.5,0c-0.3,0.2-0.7,0.1-0.8-0.2
							c-0.2-0.3-0.1-0.7,0.2-0.8c0.1-0.1,2.5-1.5,5.6-0.1c0.3,0.1,0.4,0.5,0.3,0.8C763.8,372.8,763.8,372.9,763.7,372.9z"/>
						<path id="XMLID_101_" class="st20" d="M743.9,380.2c-0.1,0-0.2-0.1-0.3-0.1c-0.3-0.2-0.3-0.6-0.1-0.9c2.2-2.6,5-2.3,5.1-2.3
							c0.3,0,0.6,0.3,0.5,0.7c0,0.3-0.3,0.6-0.7,0.5c-0.1,0-2.3-0.2-4,1.9C744.3,380.2,744.1,380.2,743.9,380.2z"/>
					</g>
					<path id="XMLID_99_" class="st27" d="M778.3,356.6c1.5-1.9,3.5-3.3,5.2-3.8"/>
					<path id="XMLID_98_" class="st27" d="M778.5,356.4c0.8-2.4,0.6-5-0.4-7.3"/>
					<path id="XMLID_97_" class="st28" d="M783,379.9c-0.7-0.7-1.7-0.7-2.6-0.3c-0.8,0.4-1.4,1.2-1.8,2c-0.5,1-0.7,2.1-0.6,3.2"/>
				</g>
				<path id="XMLID_95_" class="st20" d="M758.2,394.5L758.2,394.5c2.9-0.7,5.3-2.9,6.4-5.7c0.1-0.2,0-0.3-0.2-0.4c0,0,0,0,0,0
					c-0.2-0.1-0.3,0-0.4,0.2c0,0,0,0,0,0l0,0c-1,2.6-3.3,4.6-6,5.3c-0.2,0.1-0.2,0.2-0.2,0.4c0,0,0,0,0,0l0,0
					C757.9,394.4,758.1,394.5,758.2,394.5C758.2,394.4,758.2,394.4,758.2,394.5L758.2,394.5z"/>
			</g>
		</g>
		<path id="XMLID_92_" class="st6" d="M771.3,408.7c0.2-0.4,3.6-2.8,3.6-2.8l6.8,5.4l9.8-13.5l8.5,4.6L782,425L771.3,408.7z"/>
		<path id="XMLID_91_" class="st29" d="M781.7,413.5c-1.4,17.3-2.4,34.5-2.2,51.1s-2.8,35,2.6,50.7"/>
		<polygon id="XMLID_90_" class="st23" points="809.3,467.5 800.7,468.3 803.7,431.8 805.8,463 829.8,464 		"/>
		<path id="XMLID_89_" class="st23" d="M771.3,408.7c0.2,0.3,4.1,8.1,5.8,11.4c0.3,0.6,1.1,0.5,1.3-0.1l3-8.2l-3.7,6.4L771.3,408.7z
			"/>
		<path id="XMLID_88_" class="st23" d="M782,411.4c0.2,0.2,6.9,7.4,6.9,7.4l9.8-16.5l-8.4,18.7c-0.4,0.9-1.6,1-2.1,0.2L782,411.4z"
			/>
		<path id="XMLID_87_" class="st24" d="M809.4,448c0,0-0.1,26.3-0.1,26.6c-0.1,0.3-45.9,19.4-45.9,19.4c0,0.7,6.8,8.6,6.8,8.6
			s50-6.6,55.6-15.1c4.8-7.3,5.6-39.9,5.6-39.9L809.4,448z"/>
		<path id="XMLID_86_" class="st6" d="M810,404.5c18.2,1.5,22.7,15.1,22.4,35.8c-0.3,19.9,0.2,24.3,0.2,24.3l-27.4-0.6
			c0,0-0.4-35.5-0.4-39S810,404.5,810,404.5z"/>
		<path id="XMLID_85_" class="st6" d="M762.8,472.5l-25.1-6.3c0,0,6.9-35.7,8-41.7c1.3-6.8,9.5-11.9,16.5-13.9l5.9,22.9L762.8,472.5
			z"/>
		<path id="XMLID_84_" class="st23" d="M759.1,471.6c-0.3-0.1-4-36.4-4-36.4l-2.1,34.9L759.1,471.6z"/>
		<g id="XMLID_79_">
			<path id="XMLID_83_" class="st24" d="M739.4,519.3c0.2-2.3,4.6-12.6,6.9-16c2.3-3.4,17.1-9.3,17.1-9.3l8.7,6.3c0,0,0,3.6-3.1,6.3
				c-1.8,1.5-7.8,3.1-7.8,3.1s0.5,1.9,0.5,3.9c0,2.3-0.5,5.1-2.4,5.1c-1.9-0.1-2.6-6.2-2.7-7.1c0.1,0.9,0.6,7.1-1.9,7.4
				c-2.4,0.2-2.9-6.3-2.9-6.3s-0.1,3-0.2,4.6c-0.1,1.6-1.6,2.9-3.1,1.2c-1.7-2-1.8-5.5-1.8-5.5s-1.3,2-3.3,6.4
				C742.1,522.5,739.2,521.3,739.4,519.3z"/>
			<path id="XMLID_82_" class="st29" d="M756.8,512.5c-0.1-1.2-0.1-2.4,0-3.5c0.2-1.2,0.6-2.3,1.3-3.2"/>
			<path id="XMLID_81_" class="st29" d="M751.8,513.3c-0.1-1.2-0.1-2.4,0-3.5s0.6-2.3,1.3-3.2"/>
			<path id="XMLID_80_" class="st29" d="M746.9,512.9c-0.1-1.2-0.1-2.4,0-3.5c0.2-1.2,0.6-2.3,1.3-3.2"/>
		</g>
	</g>
	<path id="XMLID_77_" class="st20" d="M776,351.6c-1.2-1.5-3-2.2-4.8-2.5c-2.5-0.4-5.1-0.2-7.4,0.5c-2.8,0.9-5.3,2.5-8.1,2.9
		c-0.3,0.1-0.7,0.1-1-0.2c-0.2-0.2-0.2-0.4-0.3-0.7c-0.5-1.5-2.1-2.7-3.7-2.7c-1.6,0-3.2,1.1-3.7,2.7c-1.6-2.4-5.3-2.7-7.8-1.2
		c-2.5,1.5-3.9,3.2-4.7,6c-0.3,1-0.4,3.1,0,4.7c0.7,3.2,2.5,5.1,5.2,6.8c3.7,2.3,8.2,3.8,12.5,3.1c5.8-1.1,10.1-6,15.8-7.4
		c2.1-0.5,4.7-0.4,6.2,1.2l4.6-8.7C778.8,354.7,777.4,353.3,776,351.6z"/>
	<g id="XMLID_67_">
		<path id="XMLID_76_" class="st30" d="M299.7,303.3c1.5,7.3,4.8,21.9-0.3,26.7c0,0,2,7.3,15.5,7.3c14.8,0,7-7.3,7-7.3
			c-8.1-1.9-7.9-7.9-6.5-13.5L299.7,303.3z"/>
		<path id="XMLID_75_" class="st20" d="M330.2,290c-0.2,0-0.4-0.1-0.5-0.2c-0.3-0.3-0.3-0.7,0-0.9c1.5-1.5,3.6-2.1,5.7-1.8
			c0.3,0.1,0.6,0.4,0.5,0.8c0,0,0,0,0,0c-0.1,0.3-0.4,0.6-0.8,0.5c0,0,0,0,0,0c-1.6-0.3-3.3,0.2-4.5,1.4
			C330.5,289.9,330.3,290,330.2,290z"/>
		<path id="XMLID_74_" class="st31" d="M332.2,298.4c0.4,2.7,1.2,5.4,2.3,7.9c-1.3,0.5-2.8,0.5-4-0.2L332.2,298.4z"/>
		<path id="XMLID_73_" class="st20" d="M331.6,296.3c-0.2,1.1,0.1,2.1,0.8,2.3c0.7,0.2,1.5-0.6,1.7-1.7c0.2-1.1-0.1-2.1-0.8-2.3
			C332.6,294.5,331.9,295.2,331.6,296.3z"/>
		<path id="XMLID_72_" class="st20" d="M333.1,294.6l2.8-0.1C335.8,294.5,334,296.2,333.1,294.6z"/>
		<path id="XMLID_71_" class="st30" d="M296,283.9c-2.3,13.6-3.5,19.2,1.7,27.7c7.8,12.7,24.9,12.6,31.1,0c5.6-11.3,8.4-31.6-3.5-40
			c-8.3-6-20-4.2-26,4.2C297.6,278.2,296.5,281,296,283.9z"/>
		<path id="XMLID_70_" class="st20" d="M312.7,265.2c11.3-4.6,23.1-1.5,24.3,10.2c1.1,11.8-12.1,22.9-12.1,22.9L312.7,265.2z"/>
		<path id="XMLID_69_" class="st30" d="M318.1,295.8c-0.3,2.6,0.4,5.3,2.1,7.4c2.2,2.8,5.3,1.3,6.4-1.8c1-2.8,1.1-7.7-2-9.3
			c-2.2-1.1-4.9-0.3-6,1.9C318.3,294.5,318.2,295.1,318.1,295.8z"/>
		<path id="XMLID_68_" class="st32" d="M323.5,295.4c-0.6-0.1-1.1,0.3-1.4,0.7c-0.3,0.5-0.4,1-0.4,1.6c0,1.7,0.8,3.4,2.1,4.5"/>
	</g>
	<g id="XMLID_65_">
		<path id="XMLID_66_" class="st30" d="M285,361.7c-0.7,0-5.4,30.2-5.1,31.1c1.2,3.3,36.1-4,36.1-4l2.2,9.3c0,0-15.2,7.4-31.6,10.1
			c-16.9,2.8-23.2-4.7-23.3-16.2c-0.1-10.5,4.3-36.1,4.3-36.1L285,361.7z"/>
	</g>
	<g id="XMLID_63_">
		<path id="XMLID_64_" class="st20" d="M397,345.3c-4.1,6.1-8.8,11.9-13.6,17.5c-2.4,2.8-36.5,40.3-39,43.1l-3.8,4.1
			c-1.3,1.6-3.4,2.6-5.7,2.5c-2.5,0-4.7-1.8-5.1-4.1c-0.4-2.1,0.3-4.2,1.9-5.6l3.9-4c2.5-2.7,36.9-40,39.5-42.6
			c5.4-5.2,9.6-11.4,15.6-16.1c1.3-1.1,4.7,0.3,5.9,1.6C397.6,342.6,397.8,344.2,397,345.3L397,345.3z"/>
	</g>
	<g id="XMLID_28_">
		<path id="XMLID_62_" class="st30" d="M343.4,414.7l-53.5,7.5c-7.9,10.4-8.8,26.5-8.3,43.7c1.5,26.8,7.7,66.7,8.3,75.7
			c0,0,0.6,0,0.6,0c0,6.9-4.4,30.3-4.4,40.7c0,35.4,4.2,91,4.2,91l3.2,9.6l10.9-8.2c0,0,18.7-124.4,19-131.8c0-0.8,0.1-1.7,0.1-2.5
			l0.7-12.9c0.8-11.8,1.8-24.9,2.2-38.2l1.2-21.5c15.6-5.6,22.8-24.7,25.4-28.7C348.6,424.1,347.4,421.2,343.4,414.7z"/>
		<g id="XMLID_56_">
			<g id="XMLID_57_">
				<g id="XMLID_58_">
					<g id="XMLID_59_">
						<g id="XMLID_60_">
							<path id="XMLID_61_" class="st30" d="M351.5,432.7c0,0,8,27.5,14.7,93.2c1.3,12.5-2.9,31.5-5,43.2l-20.8,106.2l-14.2,2
								c-3.3-51,2-114.5,6.7-134.8l-30.8-95.6L351.5,432.7z"/>
						</g>
					</g>
				</g>
			</g>
		</g>
		<g id="XMLID_43_">
			<g id="XMLID_45_">
				<path id="XMLID_55_" class="st20" d="M306.2,672.8h-4.6c-1,0-2,0.5-2.6,1.4c-2.7,3.6-4.6,2.3-7.5-1.2c-1.8-0.2-2.3,1.9-2.5,2.5
					l-3.4,12.5c-0.3,1,0.3,2.1,1.3,2.4c0.2,0.1,0.4,0.1,0.6,0.1c5.6,0,8.2,0,15.2,0h21.3c5.8,0,7-5.8,4.6-6.4
					c-10.7-2.4-18.3-5.5-21.6-8.7C306.3,674.9,306.9,674.5,306.2,672.8z"/>
				<path id="XMLID_52_" class="st16" d="M316.2,676.3c0.5-0.3,0.8-0.9,0.8-1.5c0-0.3-0.1-0.6-0.4-0.8c-1.4-1-7.2,1.7-7.8,2
					c-0.1,0-0.1,0.1-0.2,0.2c0,0.1,0,0.3,0.2,0.3c1.4,0.3,2.9,0.5,4.3,0.6C314.2,677.1,315.3,676.9,316.2,676.3z M316.2,674.4
					c0.1,0.1,0.2,0.2,0.2,0.3c0,0.4-0.2,0.8-0.6,1.1c-1.3,1-4.5,0.6-6.2,0.2C312.1,675.1,315.4,673.9,316.2,674.4z"/>
				<path id="XMLID_49_" class="st16" d="M309,676.5c1.7-0.7,5.3-3.6,5.1-5.1c0-0.3-0.3-0.7-1-0.8c-3.2-0.4-4.5,5.3-4.5,5.5
					c0,0.1,0,0.2,0.1,0.3c0.1,0,0.1,0,0.2,0L309,676.5z M313,671.1c0.6,0.1,0.6,0.3,0.6,0.3c0.2,0.9-2.5,3.3-4.3,4.3
					c0.4-1.3,1.5-4.6,3.5-4.6L313,671.1z"/>
				<path id="XMLID_48_" class="st33" d="M309.4,676.3c-1.6,0.2-3.1,1.2-3.9,2.5"/>
				<path id="XMLID_47_" class="st33" d="M312.3,678.5c-1.6,0.2-3.1,1.2-3.9,2.5"/>
				<path id="XMLID_46_" class="st33" d="M315.8,680.3c-1.6,0.2-3.1,1.2-3.9,2.5"/>
			</g>
			<polygon id="XMLID_44_" class="st12" points="322.9,682.7 322.7,690.4 318.3,690.4 320.7,682 			"/>
		</g>
		<g id="XMLID_31_">
			<g id="XMLID_32_">
				<path id="XMLID_42_" class="st20" d="M341.2,673h-4.6c-1,0-2,0.5-2.6,1.4c-2.7,3.6-4.6,2.3-7.5-1.2c-1.8-0.2-2.3,1.9-2.5,2.5
					l-3.4,12.5c-0.3,1,0.3,2.1,1.3,2.4c0.2,0.1,0.4,0.1,0.6,0.1c5.6,0,8.2,0,15.2,0h21.3c5.8,0,7-5.8,4.6-6.4
					c-10.7-2.4-18.3-5.5-21.6-8.7C341.2,675.1,341.9,674.7,341.2,673z"/>
				<path id="XMLID_39_" class="st16" d="M351.2,676.6c0.5-0.3,0.8-0.9,0.8-1.5c0-0.3-0.1-0.6-0.4-0.8c-1.4-1-7.2,1.7-7.8,2
					c-0.1,0-0.1,0.1-0.2,0.2c0,0.1,0,0.3,0.2,0.3c1.4,0.3,2.9,0.5,4.3,0.6C349.1,677.4,350.2,677.2,351.2,676.6z M351.2,674.7
					c0.1,0.1,0.2,0.2,0.2,0.3c0,0.4-0.2,0.8-0.6,1.1c-1.3,1-4.5,0.6-6.2,0.2C347,675.4,350.4,674.2,351.2,674.7z"/>
				<path id="XMLID_36_" class="st16" d="M343.9,676.8c1.7-0.7,5.3-3.6,5.1-5.1c0-0.3-0.3-0.7-1-0.8c-3.2-0.4-4.5,5.3-4.5,5.5
					c0,0.1,0,0.2,0.1,0.3c0.1,0,0.1,0,0.2,0L343.9,676.8z M347.9,671.4c0.6,0.1,0.6,0.3,0.6,0.3c0.2,0.9-2.5,3.3-4.3,4.3
					c0.4-1.3,1.5-4.6,3.5-4.6L347.9,671.4z"/>
				<path id="XMLID_35_" class="st33" d="M344.4,676.6c-1.6,0.2-3.1,1.2-3.9,2.5"/>
				<path id="XMLID_34_" class="st33" d="M347.2,678.7c-1.6,0.2-3.1,1.2-3.9,2.5"/>
				<path id="XMLID_33_" class="st33" d="M350.8,680.6c-1.6,0.2-3.1,1.2-3.9,2.5"/>
			</g>
		</g>
		<polygon id="XMLID_30_" class="st23" points="290.4,545.3 290.6,541.6 323.5,541.6 322.9,548.1 		"/>
		<polygon id="XMLID_29_" class="st23" points="332.7,541.6 333,542.5 331.7,548.7 364.4,551.8 365.8,541.6 		"/>
	</g>
	<g id="XMLID_25_">
		<path id="XMLID_27_" class="st4" d="M287.9,417.5c0,0-12.3,29.6-10.1,50.1c2.2,20.6,6.6,73.9,6.6,73.9H370c0,0-2-31-4.5-46.7
			c-2.5-15.7-8.5-54.3-16.7-69.6C340.6,410,287.9,417.5,287.9,417.5z"/>
		<path id="XMLID_26_" class="st23" d="M324,514.2c-5.6-24.6-15.2-31.4-18.8-35.7l21.8,48.7L324,514.2z"/>
	</g>
	<g id="XMLID_20_">
		<path id="XMLID_24_" class="st6" d="M347.5,340.4c6.6,12.6,9.2,23.6,9.2,23.6l-26.5,5c0,0-5.8-27.4-3-34.2
			c2.6-6.3,4.5-3.3,14.1,0.2C344,336,346.2,337.9,347.5,340.4z"/>
		<path id="XMLID_23_" class="st6" d="M278.5,366.8l-8-27.4c5.1-7.6,30.3-13.4,30.3-13.4l16.6,0.9c0,0,6.4,1.4,11.8,3.2
			c7.3,2.4,11.2,4.3,13,8.3c0,0,0.8,15-1.1,33.4c-0.5,5.1,0.6,25.9,2.1,34.6l8.1,21.3c-47.1,19.6-68.4-0.7-68.4-0.7
			c1.4-4.2,4.6-15.1,5.2-19.2c-0.4-5.2-0.7-7.4-2.9-16.5C284.7,389.6,279.2,368.5,278.5,366.8z"/>
		<g id="XMLID_21_">
			<path id="XMLID_22_" class="st6" d="M272.5,337.1c-5.9,3.2-8.7,24.2-8.7,24.2l20.6,8.9c0,0,8-17.9,4.6-25.9
				C286.1,337.6,280,333,272.5,337.1z"/>
		</g>
	</g>
	<g id="XMLID_16_">
		<g id="XMLID_18_">
			<path id="XMLID_19_" class="st30" d="M354.4,364.4l7.5,18.8l13-17.1l10.2,4.2c0,0-8,13.4-14.3,26.9c-6.7,14.4-15.7,11.9-21.2,1.8
				c-5-9.2-13.3-31.3-13.3-31.3L354.4,364.4z"/>
		</g>
		<path id="XMLID_17_" class="st30" d="M392.2,357.2c-0.1,1.8-5.7,10.7-5.7,10.7l-6.8,12.2l-7-10.5l3.1-4.5c-1-1.5-2.3-6.9-1.5-8.6
			c0.8-1.9,2.6-3.2,2.6-3.2l0.9,0c0,0,0.1,3.7,2.4,3.8c2.2,0.1,6.4-0.5,7.5-1c1.6-0.6,4.5-3.9,4.5-3.9s0.9,0.7,0.8,2
			c-0.2,1.4-1,2.3-1,2.3L392.2,357.2z"/>
	</g>
	<g id="XMLID_9_">
		<path id="XMLID_15_" class="st34" d="M464.9,331.4c-13.2,17.1-35.8,23.8-56.2,16.8c-5.1-1.8-9.9-4.4-14.2-7.7
			c-22-17-26-48.5-9-70.5c17-22,48.5-26,70.5-9C477.9,277.9,481.9,309.5,464.9,331.4L464.9,331.4z"/>
		<path id="XMLID_14_" class="st35" d="M471.3,282.1L377,294.2c0.1-0.8,0.2-1.5,0.3-2.2c0.7-4.8,2.1-9.4,4.2-13.7l0,0l81.5-10.5
			C466.5,272,469.4,276.9,471.3,282.1z"/>
		<path id="XMLID_13_" class="st35" d="M472.4,313.3l-88.7,11.4c-3.9-6.4-6.2-13.6-6.8-21.1l96.8-12.4
			C475,298.5,474.5,306.1,472.4,313.3z"/>
		<path id="XMLID_10_" class="st20" d="M460,254.8c-24.6-19-60-14.4-78.9,10.3c-19,24.6-14.4,60,10.3,78.9
			c24.6,18.9,59.8,14.4,78.8-10.1c19-24.6,14.6-59.9-10-79C460.1,254.8,460,254.8,460,254.8z M395.5,338.3
			c-21.4-16.5-25.4-47.3-8.8-68.8c16.5-21.4,47.3-25.4,68.8-8.8c21.4,16.5,25.4,47.2,8.9,68.7C447.9,350.8,417.1,354.8,395.5,338.3
			C395.6,338.3,395.6,338.3,395.5,338.3L395.5,338.3z"/>
	</g>
	<g id="XMLID_4_">
		<path id="XMLID_8_" class="st12" d="M274,343.7c0.1,0.3,3.3,19,9.8,20.7c3.1,0.8,27.9,0.4,27.9,0.4l2.2-3.4l3.7,3.4h15.7l-9-15.7
			l0.9-25.6L274,343.7z"/>
		<path id="XMLID_7_" class="st20" d="M322.4,298.1c5.6-10.6,2.4-29.7-9.9-33.3c-11.1-3.2-28.6,0.1-27.9,19.9
			c0.7,19.8-4,17.7-8.9,30.4c-5.2,13.3-3.7,30.9,5.2,45.3h24.5l4.5-6.4l5.3,6.4h21.2c-10.5-14.5-4.2-20.2-2.9-33.4
			C334.6,313.6,317.6,307.2,322.4,298.1z"/>
		<path id="XMLID_6_" class="st16" d="M297.3,268.4c-0.7-1.5-2-2.9-3.6-3c-0.8-0.1-1.7,0.2-2.5,0.5l-0.2,1c-0.6,1.6-2,2.9-3,4.4
			c-1,1.5-1.6,3.4-0.8,4.9c0.6,1.2,2,1.8,3.3,1.9c2.4,0.3,4.8-0.9,6.2-2.9C298,273.3,298.2,270.6,297.3,268.4z"/>
		<path id="XMLID_5_" class="st20" d="M294.4,275.8c0.8-1.8,1.4-5.8,1-7.3c-0.6-2.2-2.1-4.1-3.9-5.5c-0.9-0.7-1.9-1.4-3-1.7
			c-1.8-0.6-3.8-0.4-5.6,0c-2.1,0.5-4.2,1.3-5.7,2.8c-2.1,2.1-2.8,5.4-1.8,8.1c1,2.8,3.7,4.8,6.6,5.1c-1.8,0.5-3.6,1.4-5.1,2.5
			c-0.1,0.1-0.3,0.2-0.3,0.4c0,0.2,0.1,0.3,0.2,0.4c1,1,2.4,1.4,3.8,1.3c1.4-0.1,2.7-0.6,4-1c-0.4,1.3-0.8,2.7-1.2,4
			c-0.1,0.4-0.2,0.9-0.1,1.3c0.3,0.9,1.5,1.1,2.5,1c2.9-0.5,5.3-2.8,6.8-5.4C293.4,279.8,294,277.8,294.4,275.8z"/>
	</g>
</g>
</svg>
