<?xml version="1.0" encoding="utf-8"?>
<!-- Generator: Adobe Illustrator 19.0.0, SVG Export Plug-In . SVG Version: 6.00 Build 0)  -->
<svg version="1.1" id="Layer_1" xmlns="http://www.w3.org/2000/svg" xmlns:xlink="http://www.w3.org/1999/xlink" x="0px" y="0px"
	 viewBox="0 0 1141 787" style="enable-background:new 0 0 1141 787;" xml:space="preserve">
<style type="text/css">
	.st0{fill:url(#XMLID_99_);}
	.st1{fill:#2A88C4;}
	.st2{fill:#FFFFFF;}
	.st3{fill:#A6DEED;}
	.st4{fill:#51C7E6;}
	.st5{fill:url(#XMLID_103_);}
	.st6{opacity:0.83;fill:#2A88C4;}
	.st7{fill:url(#XMLID_104_);}
	.st8{fill:url(#XMLID_106_);}
	.st9{fill:url(#XMLID_107_);}
	.st10{fill:#0092AA;}
	.st11{fill:#53ADBC;}
	.st12{fill:#25BDD6;}
	.st13{fill:#0B83A0;}
	.st14{fill:#81B7C4;}
	.st15{fill:#3CBFDD;}
	.st16{fill:#56BAD1;}
	.st17{opacity:0.47;fill:#FFFFFF;}
	.st18{fill:#31A2BC;}
	.st19{fill:#41C4DC;}
	.st20{opacity:0.44;fill:#FFFFFF;}
	.st21{fill:#348699;}
	.st22{fill:url(#XMLID_108_);}
	.st23{fill:url(#XMLID_109_);}
	.st24{fill:url(#XMLID_110_);}
	.st25{fill:url(#XMLID_112_);}
	.st26{fill:url(#XMLID_113_);}
	.st27{fill:url(#XMLID_114_);}
	.st28{opacity:0.42;fill:#FFFFFF;}
	.st29{opacity:0.5;fill:#FFFFFF;}
	.st30{fill:url(#XMLID_115_);}
	.st31{fill:url(#XMLID_116_);}
	.st32{fill:url(#XMLID_117_);}
	.st33{fill:url(#XMLID_118_);}
	.st34{fill:url(#XMLID_119_);}
	.st35{fill:url(#XMLID_121_);}
	.st36{fill:url(#XMLID_122_);}
	.st37{fill:url(#XMLID_124_);}
	.st38{fill:url(#XMLID_125_);}
	.st39{fill:url(#XMLID_127_);}
	.st40{fill:url(#XMLID_128_);}
	.st41{fill:#216F7C;}
	.st42{fill:url(#XMLID_129_);}
	.st43{fill:url(#XMLID_130_);}
	.st44{fill:url(#XMLID_131_);}
	.st45{fill:url(#XMLID_133_);}
	.st46{fill:url(#XMLID_134_);}
	.st47{fill:url(#XMLID_135_);}
	.st48{fill:url(#XMLID_137_);}
	.st49{fill:url(#XMLID_138_);}
	.st50{fill:url(#XMLID_142_);}
	.st51{fill:url(#XMLID_143_);}
	.st52{fill:url(#XMLID_144_);}
	.st53{fill:url(#XMLID_146_);}
	.st54{fill:url(#XMLID_147_);}
	.st55{fill:url(#XMLID_151_);}
	.st56{fill:url(#XMLID_152_);}
</style>
<g id="XMLID_100_">
	<linearGradient id="XMLID_99_" gradientUnits="userSpaceOnUse" x1="983.4001" y1="921.9036" x2="394.7191" y2="190.7986">
		<stop  offset="0" style="stop-color:#DBE2F3"/>
		<stop  offset="1" style="stop-color:#EAEFF8"/>
	</linearGradient>
	<path id="XMLID_97_" class="st0" d="M822.3,633c-13.6,14.2-26.4,23.4-36.5,30.6c-119.2,85.1-260.3,60.3-290.3,54.2
		c-44.3-8.9-129.9-26.2-191.7-98.6c-93.6-109.5-79-281.9-6.4-395.8c13.3-20.8,83.4-136.4,226-154.9c86.3-11.2,186.9,11.4,259.7,72.1
		C936,268,925.1,525.4,822.3,633z"/>
	<g id="XMLID_240_">
		<path id="XMLID_96_" class="st1" d="M325.4,70.2c-0.3-3.4,4-5.2,6.3-2.6c22.8,26.7,76.1,104.9,47.2,228.2
			c-36.3,154.7-9.9,215.5,26.9,254.8c0,0-54-22.5-82.8-84.4C252.4,314.2,331,131.4,325.4,70.2z"/>
		<path id="XMLID_95_" class="st2" d="M339.4,121.3c1.3,17.8,2.2,35.6,2.5,53.5c0.4,17.8,0.2,35.6-0.6,53.4
			c-0.8,17.8-1.9,35.6-3.8,53.3c-1.8,17.7-4.4,35.3-7,53c-2.5,17.7-5.2,35.5-6.1,53.6c-0.9,18.1,0.4,36.5,5,54.2
			c1.2,4.4,2.4,8.8,3.9,13.1c1.4,4.3,3,8.6,4.7,12.8c3.4,8.4,7.4,16.7,11.9,24.6c9.1,15.8,20.7,30.1,33.8,42.7
			c1.4,1.3,3.6,1.3,4.9-0.1c1.3-1.4,1.3-3.5,0-4.8l0,0c-3.1-3.1-6.1-6.3-9.1-9.6c-1.5-1.6-2.9-3.3-4.3-5c-1.4-1.7-2.8-3.4-4.1-5.1
			c-5.4-6.9-10.3-14.2-14.6-21.8c-8.7-15.2-15.2-31.7-19.6-48.6c-2.1-8.5-3.6-17.1-4.5-25.8c-0.8-8.7-1-17.5-0.6-26.3
			c0.7-17.6,3.2-35.2,5.6-52.9c2.4-17.7,4.7-35.5,6.2-53.4c0.8-8.9,1.4-17.9,1.9-26.8c0.3-4.5,0.4-9,0.6-13.4
			c0.1-4.5,0.3-9,0.3-13.4c0.3-17.9,0-35.8-0.8-53.7c-0.9-17.9-2.3-35.7-4.4-53.5c-0.1-0.5-0.5-0.9-1-0.8
			C339.7,120.4,339.4,120.8,339.4,121.3z"/>
	</g>
	<g id="XMLID_236_">
		<g id="XMLID_237_">
			<path id="XMLID_94_" class="st3" d="M331,547.4c-2.5,5.9-10.1,7.3-14.6,2.8c-24.8-24.9-88.6-101.5-76.1-222.2
				c10.6-101.9,6.7-158.1,3.2-183.5c-0.8-5.4,5.8-8.6,9.6-4.7C295,182.6,420.2,334.5,331,547.4z"/>
			<path id="XMLID_93_" class="st2" d="M322.4,547c-0.1,0.1-0.3,0.1-0.4,0.2c-1.3,0.5-2.7-0.2-3.2-1.5c-0.5-1.5-52.4-148.2-44-290.5
				c0.1-1.4,1.3-2.4,2.6-2.3c1.4,0.1,2.4,1.3,2.3,2.6C271.5,396.8,323,542.6,323.5,544C323.9,545.2,323.4,546.4,322.4,547z"/>
		</g>
	</g>
	<g id="XMLID_215_">
		<g id="XMLID_225_">
			<g id="XMLID_226_">
				<path id="XMLID_92_" class="st4" d="M894.4,375.3c-2.4,62.8-24.4,120.3-59.6,166.9c-0.1,0.2-0.6,0.4-0.6,0.6l0,0
					c-55.4,74.9-147.2,121.2-248,117.3c-8.2-0.3-16.1-1-24.2-2.4c0,0,0,0,0,0c0,0-0.1,0.5-0.1,0.5c-4-0.5-7.9-0.8-11.8-1.4
					c-1.4-0.2-2.8-0.3-4.2-0.6c-1.2-0.2-2.4-0.4-3.7-0.6c-1.1-0.2-2.1-0.4-3.2-0.6c-0.2-0.1-0.5-0.1-0.7-0.1
					c-2.6-0.5-5.1-1.1-7.7-1.7c0,0,0,0,0,0c-136.1-31.4-235.1-155.9-229.5-300.7c1.2-30.6,6.8-60,16.4-87.4
					c1.5-4.3,3.4-8.5,4.6-12.8l0,0c3.6-7,6.1-13.9,9.5-20.6c1.3-2.7,2.8-5.4,4.2-8c7.8-14.5,16.8-28.3,26.8-41.3
					c0.9-1.2,1.9-2.3,2.8-3.5c3.7-4.6,7.5-9.2,11.5-13.6c6-6.6,12.2-13,18.7-19c17-15.8,35.8-29.6,56-41c6.3-3.6,12.7-6.9,19.2-10
					c15.8-7.5,32.4-13.6,49.6-18.3c28.2-7.6,58-11.1,88.7-10c70.6,2.7,134.6,29.9,183.9,73c36.3,31.7,65.3,72.2,82.7,117.8
					c3.9,10.2,6.4,20.6,10.5,31.4l0,0c0,0-0.5,0.1-0.5,0.1C892.9,316.9,895.5,345.7,894.4,375.3z"/>
				<g id="XMLID_227_">
					
						<linearGradient id="XMLID_103_" gradientUnits="userSpaceOnUse" x1="497.5172" y1="669.4891" x2="406.0389" y2="805.9685" gradientTransform="matrix(0.9993 3.830000e-002 -3.830000e-002 0.9993 53.8186 20.8786)">
						<stop  offset="3.597120e-003" style="stop-color:#D191C0"/>
						<stop  offset="1" style="stop-color:#8172B4"/>
					</linearGradient>
					<path id="XMLID_91_" class="st5" d="M561.9,658.7L561.9,658.7L561.9,658.7L561.9,658.7C561.9,658.7,561.9,658.7,561.9,658.7z"
						/>
					<path id="XMLID_90_" class="st6" d="M658.6,466.5c-6.7,8.7-26.9,19.5-14.4,42.6c12.4,23.1-1.9,26.8-11,24.3
						c-9.1-2.4-37.5-4.7-33.3,8.4c4.2,13.1,12.2,18.3,1.6,22.9c-10.6,4.6-15.5,17.4-26.9,34.9c-11.3,17.5-35.9,1.1-29.1,19.3
						c6.8,18.3,12.6,16.7,11.4,29.2c-0.3,3.4,1.9,7.1,4.8,10.5c-4-0.5-7.9-1-11.9-1.7c-1.4-0.2-2.8-0.5-4.2-0.7
						c-1.2-0.2-2.4-0.4-3.7-0.7c-1.1-0.2-2.1-0.4-3.2-0.6c-0.2-0.1-0.2-0.1-0.4-0.1c-2.5-0.5-3.8-1-7.2-1.6l0,0
						c-2.2-2.2-0.7-4.5-0.2-6.9c4.2-23-27.1-40.1-31.8-56.5c-4.6-16.4,0.9-25.8,0.2-39.3c-0.7-13.4,4.3-31-2.9-42.6
						c-7.3-11.5-38.2-16.5-43.2-39.4c-5.1-22.8,10.1-56.2,15.6-61.7c5.5-5.6-24.5-33-39.2-34.4c-14.8-1.5-7.7-31.1-32.9-27.5
						c-25.3,3.4-69.8-12.3-59.9-27c8.2-12.1,22.1-39-19.5-52.8c1.5-4.3,3.3-8.5,4.6-12.8l0,0c3.6-7,6.1-13.9,9.5-20.6
						c1.3-2.7,2.8-5.4,4.2-8c7.8-14.5,16.8-28.3,26.8-41.3c0.9-1.2,1.9-2.3,2.8-3.5c3.7-4.6,7.6-9.2,11.5-13.6
						c6-6.6,12.2-13,18.7-19c17-15.8,35.8-29.6,56-41c8.1,6.2,17.5,10.1,25.9,6c20.6-10.5,7.4-12.8-0.9-13.5
						c-2.1-0.2-4.2-1.1-5.8-2.5c15.8-7.5,32.4-13.6,49.6-18.3c-1.7,11.3-17.9,29.1-6.4,27.3c13.4-2,20.1-37.6,29.4-25.4
						c9.4,12.3-11.9,27.2,7.9,18.9c19.8-8.2,23.2-28.2,44.5-17.6c21.4,10.7,19,22.3,25.1,21.4c6.1-0.9,25.2,13,12.9,23.4
						c-12.4,10.4-22.8-3.9-40.6-8.7c-17.8-4.8-17.9,9.9-26.3,12.9c-8.5,2.9-48.2-18.2-58.8-0.9c-10.7,17.1-15.5,29.2-0.5,29.3
						c14.9,0.2,16-3.7,14.4,7.3c-1.6,11,0.8,19.3,14.7,9.5c13.8-9.8,11.2-20,21.5-14.7c10.3,5.3,11.7,0.9,23.2-6.8
						c11.5-7.7,26.2-8,29.4,10.4c3.2,18.4-3.6,22.2-23.3,22.4c-19.7,0.2-21.7-6.1-28.6,10.1c-6.9,16.2-33.7,36.3-56.9,44.2
						c-23.1,7.8-32.6,20.4-32.7,37.8c-0.1,17.4-9.4,35.5-14.6,20.9c-5.2-14.6-20.4-39.5-37.5-23.9c-17.1,15.6-46.9,43.2-15.4,49.7
						c31.4,6.6,16.1-23.7,31.8-17.2c15.7,6.6-10.8,18.6-0.4,23.8c10.5,5.2,15.1,3.1,14.4,17.7c-0.6,14.6,2.4,28.8,15.6,23.1
						c13.2-5.7,30.9-33.6,49.1-16c18.1,17.6,16.9,15.4,26.9,10.8c10-4.5,15.7,10.5,19.5,17.3c3.8,6.9,19.9,0.6,31.9,21.1
						c12,20.5,16.9,24.2,31.8,17.6c14.9-6.6,20.6-1.1,24.1,9.2c3.4,10.2,12.8,0.7,16.6,14.2C667.3,459.9,665.3,457.7,658.6,466.5z"
						/>
					<g id="XMLID_228_">
						
							<linearGradient id="XMLID_104_" gradientUnits="userSpaceOnUse" x1="449.3352" y1="637.1936" x2="240.1959" y2="949.2156" gradientTransform="matrix(0.9993 3.830000e-002 -3.830000e-002 0.9993 53.8186 20.8786)">
							<stop  offset="3.597120e-003" style="stop-color:#D191C0"/>
							<stop  offset="1" style="stop-color:#8172B4"/>
						</linearGradient>
						<path id="XMLID_89_" class="st7" d="M717.9,226.1c-9.5-22.6,41.7-18.2,50.7-16.1c9.1,1.9,31.1-14,34.1-21.7
							c3.1-7.7,7.5-3.8,23.8-3.4c16.2,0.4,2-3.8-15.6-10.3c-17.6-6.6-2.3-6.6-18.3-20.2c-6.9-6-4.4-10.7,0.4-14.1
							c36.3,31.7,64.8,72.1,82.2,117.8c-0.5-0.2-1-0.3-1.5-0.3c-11.4-0.5-12.9-25.7-18.6-30.9c-5.6-5.1-0.4,13.8,0.8,21.6
							c1.1,7.7-3.2,1.1-9.1,7.9c-6,6.8-16.2,6.6-16.8-4c-0.5-10.6-7.6-21.3-22.5-26.7c-14.9-5.4-28.2-1.9-40.6,2.3
							C754.5,232.2,727.5,248.6,717.9,226.1z"/>
						<path id="XMLID_88_" class="st6" d="M834.8,542.8c1.3-7.6,3.3-15.4,0.2-18.4c-7.5-7.5-8.4-27.1-5.3-37
							c3.1-9.8,23.9-8.5,10.4-25.5c-13.6-17.1-25.6-37.3-19.2-48.3c6.4-11,4.6-11.9-6.6-12.3c-11.2-0.4-16.1-0.1-26.9-10.4
							c-10.8-10.5-27.4,22.8-68.4-6c-40.9-29.1-15.2-74.4,0.5-73.9c15.8,0.3,34.6-6.9,22.4-26.7c-12.2-19.9,8.1-21.8,17.8-17.1
							c9.7,4.7,27.7-6.3,45.8-10.9c18.1-4.6,16.2,24.6,25.9,30.8c9.8,6.2,28.7,2.3,38.8-6.7c7.2-6.4,8.4,1.4,15,9.1
							c7.1,27.3,10.3,56.1,9.2,85.8C892.1,438.4,870.2,496.1,834.8,542.8z"/>
						
							<linearGradient id="XMLID_106_" gradientUnits="userSpaceOnUse" x1="398.6267" y1="603.2075" x2="189.4861" y2="915.2314" gradientTransform="matrix(0.9993 3.830000e-002 -3.830000e-002 0.9993 53.8186 20.8786)">
							<stop  offset="3.597120e-003" style="stop-color:#D191C0"/>
							<stop  offset="1" style="stop-color:#8172B4"/>
						</linearGradient>
						<path id="XMLID_87_" class="st8" d="M773.1,191.2c0,0,13.3-5.4,8.9-15.1c-4.3-9.7-10.7-39.1-16.5-30.2
							c-5.8,9,1.6,27.3-0.5,34.9C763,188.5,762.8,192.6,773.1,191.2z"/>
						
							<linearGradient id="XMLID_107_" gradientUnits="userSpaceOnUse" x1="390.7561" y1="597.9304" x2="181.6163" y2="909.9532" gradientTransform="matrix(0.9993 3.830000e-002 -3.830000e-002 0.9993 53.8186 20.8786)">
							<stop  offset="3.597120e-003" style="stop-color:#D191C0"/>
							<stop  offset="1" style="stop-color:#8172B4"/>
						</linearGradient>
						<path id="XMLID_86_" class="st9" d="M760.4,181.8c-0.1-3.1,2.3-15.5-7.5-15.4c0,0-14.4,5.4-6.5,15.7
							C754.4,192.4,760.5,184.9,760.4,181.8z"/>
					</g>
				</g>
			</g>
		</g>
		<g id="XMLID_216_">
			<path id="XMLID_85_" class="st3" d="M818.4,162.3c-54-58.6-128-92.8-207.8-95.8l-1.4-0.1c-37.8-1.4-72.2,19.1-99.5,59.1
				c-27,39.5-46.3,98.1-52.9,160.6c-6.7,62.5,0.1,122.7,18.4,164.9l1.9,4.5l4.2,2.5c30.9,18,80.4,29.2,139.4,31.4
				c88.7,3.4,200.5-13.9,250.2-60.1c5.3-4.9,11.3-12.7,15.9-19.7c6.4-9.7,10.3-20.9,10.7-32.5l0,0
				C900.6,297.2,872.3,220.8,818.4,162.3z"/>
			<path id="XMLID_84_" class="st10" d="M882,377.9l-0.1,1.8l-283.7-10.9l-8.8-188.3l19.8-98.7l0.8,0C766.8,88,888,221.1,882,377.9z
				"/>
			<path id="XMLID_83_" class="st11" d="M764.5,373.4l-0.1,1.8l-166.2-6.4l6.5-168.4l0.7,0C697.4,204,768,281.5,764.5,373.4z"/>
			<path id="XMLID_82_" class="st12" d="M882,378.2l0,1.2c-3.8,98.2-294.2,124.1-392.4,67.5c-0.1,0-0.2-0.1-0.3-0.1
				c-0.1,0-0.2-0.1-0.3-0.2l38.7-27.6l0,0l33.2-23.7l0.3-0.2l37.3-26.5l0,0.4l0.8,0l77.1,3l0.7,0l87.7,3.4l0.2,0L882,378.2z"/>
			<path id="XMLID_81_" class="st13" d="M764.4,375.4l0-0.2l-166.4-6.4L527.2,419C592.8,454.2,762.2,433.8,764.4,375.4z"/>
			<path id="XMLID_80_" class="st14" d="M609.3,81.9l-11,286.5c0,0-0.2,0.1-0.4,0.2c-0.3,0.2-0.8,0.6-1.4,1
				c-0.2,0.2-0.5,0.4-0.8,0.5c-0.3,0.2-0.7,0.5-1,0.7c-1.4,1-3.2,2.3-5.2,3.7l-1.5,1.1l-2.4,1.7c-0.6,0.4-1.2,0.8-1.7,1.2
				l-23.1,16.5l-33.2,23.7l-38.7,27c-51.7-118.8,1.7-368.6,119.8-364L609.3,81.9z"/>
			<path id="XMLID_79_" class="st15" d="M526.9,418l0.4,0.8l71-50.3l6.4-168l-0.7,0C535.1,197.8,496.8,342.1,526.9,418z"/>
			<path id="XMLID_78_" class="st16" d="M678.1,370.7c0-0.4,0-0.1,0-0.3c1.6-42.3-32.8-78.2-75.1-79.8c-0.2,0-0.1-0.1-1.6-0.1
				c-0.9,0-0.8,0.1-0.9,0.1c-31.6-1.2-53.4,64.9-40.1,103.7c0,0,1.1,0.7,1.1,0.7c34.4,16.4,115.5,3.8,116.5-23c0-0.1,0,0,0-0.1
				C678,371.8,678.1,370.8,678.1,370.7z"/>
		</g>
	</g>
	<g id="XMLID_163_">
		<path id="XMLID_77_" class="st1" d="M238.4,393.3v267.2c0,22,17.5,40,39.5,40.5c97.6,2.5,382.5,8.6,475.4,7.3
			c16-0.2,28.9-13,29.4-29c1.8-62.1,4.7-211.4-6.1-280.7c-2.3-14.6-14.6-25.5-29.4-26c-81.8-2.6-387.2-10.9-480.1-8.8
			C251.1,364.2,238.4,377.2,238.4,393.3z"/>
		<path id="XMLID_76_" class="st3" d="M255.1,392v253.9c0,12.8,10.3,23.3,23.1,23.5l461.6,6.4c12.7,0.2,23.2-10,23.2-22.8l0.9-251.6
			c0-9.1-7.2-16.6-16.3-16.8l-474-10.7C263.5,373.6,255.1,381.8,255.1,392z"/>
		<path id="XMLID_75_" class="st17" d="M569.1,649H279.6c-1.6,0-2.9-1.3-2.9-2.9V412.4c0-1.3,1.1-2.4,2.4-2.4h292.4
			c1.3,0,2.4,1.1,2.4,2.4v231.8C573.9,646.8,571.7,649,569.1,649z"/>
		<path id="XMLID_74_" class="st18" d="M563.4,649H287.2c-5.8,0-10.5-4.7-10.5-10.5c0-18,0-36.1,0-54.1c0-16.9,0-33.9,0-50.8
			c0-8.3-0.8-12.6,4.4-18.7c6.2-7.3,13.9-13.8,20.7-20.6c1.3-1.3,2.7-2.7,4.5-3.2c4.6-1.4,8.6,3.3,11.4,7.3
			c7.8,11.3,16.9,21.7,27,30.9c2.8,2.5,5.7,5,9.2,6.5c7.3,3.1,15.9,1,22.8-3.1c6.8-4.1,12.3-9.9,18.3-15.2c7.9-7,16.7-13,23.4-21.1
			c5.5-6.6,9.5-14.5,14.8-21.3c5-6.3,14-12,20.4-7.3c2.7,2,4,5.2,5.4,8.3c5.9,13.1,16.4,25.9,30.6,27.3c6.5,0.6,13-1.2,19.3-3.1
			c7.5-2.2,15.4-4.6,20.5-10.5c2.2-2.6,3.9-5.7,6.9-7.5c2.4-1.4,5.3-1.6,8.1-1.8c7.4-0.5,28.6-7.6,29.4,0.7c0.5,5.3,0.2,14.5,0,20.7
			c-0.5,20.8,0,41.6,0,62.4c0,24.7,0,49.4,0,74C573.9,644.2,569.2,649,563.4,649z"/>
		<path id="XMLID_73_" class="st19" d="M544.8,551.4c-6.7-1.1-13.4-3.2-19.9-1.4c-9,2.5-14.5,11.3-20.2,18.8
			c-9.2,11.9-21.3,21.6-34.9,28c-10.3,4.9-21.7,8-30.2,15.5c-2.8,2.5-7.2,5.9-7.5,9.8c-0.2,2.8,0.8,5.5,1.8,8c1.5,4,3.2,8.1,6.4,11
			c1.9,1.7,4.4,4.7,2.3,6.2c-0.6,0.4-1.4,0.4-2.2,0.5c-28.1,0-56.2,0.4-84.4,0.3c-1.6,0-2.8-0.5-3.7-1.8c2.6-3.4,10.9-5,14.9-7.3
			c5.8-3.4,11.5-7.1,17.1-10.9c11.2-7.5,22.2-15.4,34-22.1c21.7-12.4,42.1-27,60.8-43.6c-5.6-6.7-16.2-6.1-24.3-2.7
			c-8.1,3.4-15.3,8.9-23.9,10.7c-14.5,2.9-28.7-5.8-43.5-7.3c-10.1-1-23,1.7-33,3.6c-5.7,1.1-11.8,5.4-11.4,11.2
			c0.2,2.7,1.8,5.1,3.1,7.4c6.2,10.9,8.2,24.1,5.4,36.3c-2.1-8.2-4.9-16.3-8.3-24c-4-8.9-8.9-18.5-6.2-27.9c0.8-2.9,2.4-5.5,3.1-8.4
			c2.5-9.9-5-19.4-12.7-26.2c-6.3-5.6-13.4-11.7-21.2-15.2c-5.8-2.6-12.9-5.1-12.9-12.8c0-7.8,10-14.3,15.6-17.9
			c8.7,5.9,16.6,13,23.4,21.1c4.7,5.6,9,11.8,14.2,16.9c9.2,8.9,18.6,12.1,30,5.4c6.8-4.1,12.3-9.9,18.3-15.2
			c7.9-7,16.7-13,23.4-21.1c5.5-6.6,9.5-14.5,14.8-21.3c5-6.3,14-12,20.4-7.3c2.7,2,4,5.2,5.4,8.3c5.9,13.1,16.4,25.9,30.6,27.3
			c6.5,0.6,13-1.2,19.3-3.1c7.5-2.2,15.4-4.6,20.5-10.5c2.2-2.6,3.9-5.7,6.9-7.5c2.4-1.4,5.3-1.6,8.1-1.8c7.4-0.5,28.6-7.6,29.4,0.7
			c1.8,17.9,3.1,72.9-24.6,70.7C547.8,551.9,546.3,551.7,544.8,551.4z"/>
		<g id="XMLID_195_">
			<path id="XMLID_72_" class="st20" d="M744.1,509.6l-151.5-1.2c-3,0-5.4-2.7-5.4-5.9v-84.8c0-3.3,2.4-5.9,5.4-5.9h151.5
				c3,0,5.4,2.7,5.4,5.9v86C749.6,506.9,747.1,509.6,744.1,509.6z"/>
			<path id="XMLID_71_" class="st21" d="M720.6,454.8l-19.5-20.6l-27.9,30.4l-19.7-21.3l-18.5,20.9L620.8,447l-27.9,29.1v21
				c0,2.8,2.2,5,5,5.1l141,1.1c2.8,0,5.1-2.3,5.1-5.1V441L720.6,454.8z"/>
			<rect id="XMLID_70_" x="720.7" y="454.3" class="st2" width="0.6" height="49"/>
			<rect id="XMLID_69_" x="700.8" y="434.2" class="st2" width="0.6" height="68.8"/>
			<rect id="XMLID_68_" x="672.9" y="464.3" class="st2" width="0.6" height="38.5"/>
			<rect id="XMLID_67_" x="653.7" y="444.1" class="st2" width="0.6" height="58.7"/>
			<rect id="XMLID_66_" x="634.7" y="463.6" class="st2" width="0.6" height="39.2"/>
			<rect id="XMLID_65_" x="620.8" y="445.6" class="st2" width="0.6" height="56.8"/>
			<linearGradient id="XMLID_108_" gradientUnits="userSpaceOnUse" x1="624.6502" y1="434.7429" x2="606.6828" y2="489.063">
				<stop  offset="0" style="stop-color:#5560AB"/>
				<stop  offset="1" style="stop-color:#4C57A6"/>
			</linearGradient>
			<circle id="XMLID_64_" class="st22" cx="621.1" cy="445.6" r="4.3"/>
			<linearGradient id="XMLID_109_" gradientUnits="userSpaceOnUse" x1="637.3077" y1="456.5017" x2="625.4715" y2="492.2858">
				<stop  offset="0" style="stop-color:#5560AB"/>
				<stop  offset="1" style="stop-color:#4C57A6"/>
			</linearGradient>
			<circle id="XMLID_63_" class="st23" cx="634.9" cy="463.6" r="2.8"/>
			<linearGradient id="XMLID_110_" gradientUnits="userSpaceOnUse" x1="656.323" y1="436.9764" x2="644.4868" y2="472.7605">
				<stop  offset="0" style="stop-color:#5560AB"/>
				<stop  offset="1" style="stop-color:#4C57A6"/>
			</linearGradient>
			<circle id="XMLID_62_" class="st24" cx="654" cy="444.1" r="2.8"/>
			<linearGradient id="XMLID_112_" gradientUnits="userSpaceOnUse" x1="675.5158" y1="457.1261" x2="663.6796" y2="492.9101">
				<stop  offset="0" style="stop-color:#5560AB"/>
				<stop  offset="1" style="stop-color:#4C57A6"/>
			</linearGradient>
			<circle id="XMLID_61_" class="st25" cx="673.2" cy="464.3" r="2.8"/>
			<linearGradient id="XMLID_113_" gradientUnits="userSpaceOnUse" x1="703.4583" y1="427.1053" x2="691.622" y2="462.8893">
				<stop  offset="0" style="stop-color:#5560AB"/>
				<stop  offset="1" style="stop-color:#4C57A6"/>
			</linearGradient>
			<circle id="XMLID_60_" class="st26" cx="701.1" cy="434.2" r="2.8"/>
			<linearGradient id="XMLID_114_" gradientUnits="userSpaceOnUse" x1="723.3214" y1="447.136" x2="711.4851" y2="482.92">
				<stop  offset="0" style="stop-color:#5560AB"/>
				<stop  offset="1" style="stop-color:#4C57A6"/>
			</linearGradient>
			<circle id="XMLID_59_" class="st27" cx="721" cy="454.3" r="2.8"/>
		</g>
		<g id="XMLID_190_">
			<path id="XMLID_58_" class="st28" d="M745.3,597.8H593.1c-6.4,0-6.3,2.1-6.3,4.4c0,2.3-0.1,3.8,6.3,3.8h152.1
				c6.4,0,7.4-1.6,7.4-3.8C752.7,599.9,751.6,597.8,745.3,597.8z"/>
			<path id="XMLID_57_" class="st28" d="M744.4,611.5H592.2c-6.4,0-6.3,2.1-6.3,4.4c0,2.3-0.1,3.8,6.3,3.8h152.1
				c6.4,0,7.4-1.6,7.4-3.8C751.8,613.6,750.7,611.5,744.4,611.5z"/>
			<path id="XMLID_56_" class="st28" d="M744.4,625.7H592.2c-6.4,0-6.3,2.1-6.3,4.4c0,2.3-0.1,3.8,6.3,3.8h152.1
				c6.4,0,7.4-1.6,7.4-3.8C751.8,627.8,750.7,625.7,744.4,625.7z"/>
			<path id="XMLID_55_" class="st28" d="M743.4,639.3H591.3c-6.4,0-6.3,2.1-6.3,4.4s-0.1,3.8,6.3,3.8h152.1c6.4,0,7.4-1.6,7.4-3.8
				S749.8,639.3,743.4,639.3z"/>
		</g>
		<g id="XMLID_177_">
			<g id="XMLID_186_">
				<g id="XMLID_187_">
					<path id="XMLID_54_" class="st29" d="M663.1,538.8h-61.8c-0.6,0-1.1-0.5-1.1-1.1v-7.2c0-0.6,0.5-1.1,1.1-1.1h61.8
						c0.6,0,1.1,0.5,1.1,1.1v7.2C664.2,538.3,663.7,538.8,663.1,538.8z"/>
					<circle id="XMLID_53_" class="st29" cx="589.7" cy="532.8" r="6.2"/>
				</g>
			</g>
			<g id="XMLID_182_">
				<g id="XMLID_183_">
					<path id="XMLID_52_" class="st29" d="M663.7,555.2h-61.8c-0.6,0-1.1-0.5-1.1-1.1v-7.2c0-0.6,0.5-1.1,1.1-1.1h61.8
						c0.6,0,1.1,0.5,1.1,1.1v7.2C664.7,554.7,664.3,555.2,663.7,555.2z"/>
					<circle id="XMLID_51_" class="st29" cx="590.2" cy="549.2" r="6.2"/>
				</g>
			</g>
			<g id="XMLID_178_">
				<g id="XMLID_179_">
					<path id="XMLID_50_" class="st29" d="M662.6,572.3h-61.8c-0.6,0-1.1-0.5-1.1-1.1V564c0-0.6,0.5-1.1,1.1-1.1h61.8
						c0.6,0,1.1,0.5,1.1,1.1v7.2C663.7,571.8,663.2,572.3,662.6,572.3z"/>
					<circle id="XMLID_49_" class="st29" cx="589.2" cy="566.4" r="6.2"/>
				</g>
			</g>
		</g>
		<g id="XMLID_164_">
			<g id="XMLID_173_">
				<g id="XMLID_174_">
					<path id="XMLID_48_" class="st29" d="M753.8,539.3h-61.8c-0.6,0-1.1-0.5-1.1-1.1l0-7.2c0-0.6,0.5-1.1,1.1-1.1h61.8
						c0.6,0,1.1,0.5,1.1,1.1v7.2C754.9,538.8,754.4,539.3,753.8,539.3z"/>
					<circle id="XMLID_47_" class="st29" cx="680.4" cy="533.4" r="6.2"/>
				</g>
			</g>
			<g id="XMLID_169_">
				<g id="XMLID_170_">
					<path id="XMLID_46_" class="st29" d="M754.4,555.7h-61.8c-0.6,0-1.1-0.5-1.1-1.1v-7.2c0-0.6,0.5-1.1,1.1-1.1h61.8
						c0.6,0,1.1,0.5,1.1,1.1v7.2C755.4,555.2,755,555.7,754.4,555.7z"/>
					<circle id="XMLID_45_" class="st29" cx="680.9" cy="549.7" r="6.2"/>
				</g>
			</g>
			<g id="XMLID_165_">
				<g id="XMLID_166_">
					<path id="XMLID_44_" class="st29" d="M753.3,572.8h-61.8c-0.6,0-1.1-0.5-1.1-1.1v-7.2c0-0.6,0.5-1.1,1.1-1.1h61.8
						c0.6,0,1.1,0.5,1.1,1.1v7.2C754.4,572.4,753.9,572.8,753.3,572.8z"/>
					<circle id="XMLID_43_" class="st29" cx="679.9" cy="566.9" r="6.2"/>
				</g>
			</g>
		</g>
	</g>
	<g id="XMLID_123_">
		<g id="XMLID_154_">
			<g id="XMLID_157_">
				
					<linearGradient id="XMLID_115_" gradientUnits="userSpaceOnUse" x1="-71.1787" y1="1399.7896" x2="-35.049" y2="1337.6251" gradientTransform="matrix(-1 0 0 1 714.4035 0)">
					<stop  offset="0" style="stop-color:#201B59"/>
					<stop  offset="1" style="stop-color:#2D2D84"/>
				</linearGradient>
				<path id="XMLID_42_" class="st30" d="M355.2,701c0-0.5,0-0.9,0-1.4l0-1.9l0-1.3l-0.2-53.6l-0.6-11.9l8.4-0.2l-0.1,12.2
					l-0.7,55.1l0,2.5C359.6,700.2,357.4,700.5,355.2,701z"/>
				<g id="XMLID_158_">
					
						<linearGradient id="XMLID_116_" gradientUnits="userSpaceOnUse" x1="3781.3096" y1="1794.0404" x2="3765.3701" y2="1820.075" gradientTransform="matrix(0.9593 0.2825 -0.2654 0.9012 -4328.4897 -784.0958)">
						<stop  offset="0" style="stop-color:#201B59"/>
						<stop  offset="1" style="stop-color:#2D2D84"/>
					</linearGradient>
					<path id="XMLID_159_" class="st31" d="M354.3,644.6c-1.6,0-2.8-1.4-2.9-3.1l-2.5-100.8c-0.1-2,0.8-3.9,2.1-5.1
						c0.9-0.8,2-1.2,3.2-1.2c0.6,0,1.3,0.1,1.8,0.4l5.6,2.3c2.2,0.9,3.7,3.3,3.7,6l0.7,98.4c0,0.9-0.3,1.7-0.9,2.3
						c-0.6,0.6-1.3,1-2.1,1L354.3,644.6z M353.2,538.6c-0.5,0.4-0.8,1.2-0.8,1.9l2.5,100.2l7.6,0.1l-0.7-97.9c0-1.1-0.6-2.1-1.4-2.4
						l-5.6-2.3c-0.2-0.1-0.4-0.1-0.6-0.1C353.8,538.3,353.5,538.4,353.2,538.6z"/>
				</g>
			</g>
			<path id="XMLID_39_" class="st3" d="M355.2,697.6l0,1.9c0,1.9,0.2,3.7,0.4,5.5l3.3,22.4c0.1,0.6,0.5,1,1,1.1c0.4,0,0.7-0.1,1-0.5
				c0.3-0.3,0.5-0.8,0.4-1.2l0.4-29.1L355.2,697.6z"/>
			
				<linearGradient id="XMLID_117_" gradientUnits="userSpaceOnUse" x1="354.7137" y1="546.2858" x2="368.7935" y2="522.1109" gradientTransform="matrix(-1 0 0 1 714.4035 0)">
				<stop  offset="0" style="stop-color:#201B59"/>
				<stop  offset="1" style="stop-color:#2D2D84"/>
			</linearGradient>
			<path id="XMLID_38_" class="st32" d="M364,548.8c-3.9,0.3-8.2,0.4-12.9,0.4c-1.2,0-2.2-0.8-2.4-2c-0.7-3.2-0.9-6.9-0.7-10.9
				c0-1.2,0.9-2.2,2-2.4c4.5-0.8,9.4-0.2,14.6,1.5c1,0.3,1.7,1.2,1.8,2.2c0.3,3.1,0.3,6.1,0.1,8.9
				C366.2,547.8,365.2,548.7,364,548.8z"/>
		</g>
		<g id="XMLID_145_">
			<g id="XMLID_148_">
				
					<linearGradient id="XMLID_118_" gradientUnits="userSpaceOnUse" x1="-99.349" y1="1383.4175" x2="-63.2193" y2="1321.2533" gradientTransform="matrix(-1 0 0 1 714.4035 0)">
					<stop  offset="0" style="stop-color:#201B59"/>
					<stop  offset="1" style="stop-color:#2D2D84"/>
				</linearGradient>
				<path id="XMLID_37_" class="st33" d="M400.4,699.2l-0.3-1.3l-12.6-54.7l-4.3-12.6l8.9-2.6l2.7,12.6l12,56.5l0.8,3.5
					c-2,1.2-3.9,2.7-5.7,4.2c-0.4-1.2-0.7-2.3-1-3.6L400.4,699.2z"/>
				<g id="XMLID_149_">
					
						<linearGradient id="XMLID_119_" gradientUnits="userSpaceOnUse" x1="3762.614" y1="2051.1636" x2="3746.6743" y2="2077.1982" gradientTransform="matrix(1 0 0 1 -4280.1382 0)">
						<stop  offset="0" style="stop-color:#201B59"/>
						<stop  offset="1" style="stop-color:#2D2D84"/>
					</linearGradient>
					<path id="XMLID_150_" class="st34" d="M383.8,643.1l-25.6-102c-0.5-1.9-0.2-4.1,0.8-5.7c1.1-1.7,2.8-2.7,4.6-2.6l5.9,0.2
						c2.4,0.1,4.5,2,5.1,4.8L397.9,638c0.2,0.8,0.1,1.7-0.3,2.5c-0.4,0.8-1,1.4-1.8,1.7l-8.4,3.1c-0.3,0.1-0.6,0.2-0.9,0.2
						C385.3,645.4,384.2,644.5,383.8,643.1z M371.2,538.7c-0.3-1.1-1-1.8-1.8-1.9l-5.9-0.2l-0.1,0c-0.6,0-1.1,0.3-1.5,1
						c-0.4,0.7-0.6,1.7-0.4,2.6L387,641.3l7.4-2.7L371.2,538.7z"/>
				</g>
			</g>
			<path id="XMLID_34_" class="st3" d="M400.4,699.2l0.5,2c0.4,1.9,1,3.7,1.7,5.5l8.4,21.7c0.2,0.6,0.7,0.9,1.2,0.7
				c0.4-0.1,0.7-0.4,0.9-0.9c0.2-0.4,0.3-0.9,0.2-1.4l-6.3-29.8L400.4,699.2z"/>
			<path id="XMLID_33_" class="st3" d="M375,545.9c-3.8,1-8,1.9-12.7,2.7c-1.2,0.2-2.3-0.4-2.8-1.5c-1.2-3-2.1-6.6-2.7-10.6
				c-0.2-1.1,0.5-2.3,1.5-2.7c4.2-1.6,9.2-1.8,14.6-1.2c1,0.1,1.9,0.8,2.1,1.8c0.9,3,1.4,5.9,1.6,8.8
				C377,544.5,376.2,545.6,375,545.9z"/>
		</g>
		<g id="XMLID_136_">
			<g id="XMLID_139_">
				
					<linearGradient id="XMLID_121_" gradientUnits="userSpaceOnUse" x1="-40.5736" y1="1417.5742" x2="-4.444" y2="1355.41" gradientTransform="matrix(-1 0 0 1 714.4035 0)">
					<stop  offset="0" style="stop-color:#201B59"/>
					<stop  offset="1" style="stop-color:#2D2D84"/>
				</linearGradient>
				<path id="XMLID_32_" class="st35" d="M308.1,697l12-56.5l2.7-12.6l8.5,2.8l-3.9,12.4l-12.6,54.7l-0.3,1.3l-0.5,2
					c-0.3,1.1-0.6,2.2-0.9,3.2c-2.2-0.1-4.4-0.2-6.6-0.4L308.1,697z"/>
				<g id="XMLID_140_">
					
						<linearGradient id="XMLID_122_" gradientUnits="userSpaceOnUse" x1="96.3599" y1="1393.8027" x2="80.4204" y2="1419.8374" gradientTransform="matrix(-1 0 0 1 926.3549 0)">
						<stop  offset="0" style="stop-color:#201B59"/>
						<stop  offset="1" style="stop-color:#2D2D84"/>
					</linearGradient>
					<path id="XMLID_141_" class="st36" d="M327.5,645.2l-8.4-3.1c-0.8-0.3-1.4-0.9-1.8-1.7c-0.4-0.8-0.5-1.6-0.3-2.5l23.3-100.3
						c0.6-2.7,2.7-4.7,5.1-4.8l5.9-0.2c1.8-0.1,3.5,0.9,4.6,2.6c1,1.6,1.3,3.8,0.8,5.7l-25.6,102c-0.3,1.4-1.4,2.3-2.7,2.3h0
						C328.1,645.4,327.8,645.3,327.5,645.2z M345.6,536.8c-0.8,0-1.6,0.8-1.8,1.9l-23.2,100l7.4,2.7l25.4-101.3
						c0.2-0.9,0.1-1.8-0.4-2.5c-0.4-0.6-0.9-1-1.5-1L345.6,536.8z"/>
				</g>
			</g>
			<path id="XMLID_29_" class="st3" d="M314.5,699.2l-0.5,2c-0.4,1.9-1,3.7-1.7,5.5l-8.4,21.7c-0.2,0.6-0.7,0.9-1.2,0.7
				c-0.4-0.1-0.7-0.4-0.9-0.9c-0.2-0.4-0.3-0.9-0.2-1.4l6.3-29.8L314.5,699.2z"/>
			<path id="XMLID_28_" class="st3" d="M352.3,549.4c-3.7-1.1-7.8-2.5-12.2-4.2c-1.1-0.4-1.8-1.6-1.6-2.7c0.5-3.2,1.6-6.7,3.2-10.5
				c0.5-1.1,1.6-1.7,2.7-1.5c4.5,0.8,8.8,3.2,13.1,6.6c0.8,0.6,1.2,1.7,0.9,2.7c-0.8,3-1.8,5.8-3.1,8.4
				C354.8,549.2,353.5,549.8,352.3,549.4z"/>
		</g>
		<path id="XMLID_27_" class="st1" d="M335.6,537h43.2c0.3,0,0.6-0.3,0.6-0.6v-7.2c0-0.3-0.3-0.6-0.6-0.6h-43.2
			c-0.3,0-0.6,0.3-0.6,0.6v7.2C335,536.7,335.3,537,335.6,537z"/>
		
			<linearGradient id="XMLID_124_" gradientUnits="userSpaceOnUse" x1="365.39" y1="421.1711" x2="370.1718" y2="402.8406" gradientTransform="matrix(-1 0 0 1 714.4035 0)">
			<stop  offset="0" style="stop-color:#201B59"/>
			<stop  offset="1" style="stop-color:#2D2D84"/>
		</linearGradient>
		<path id="XMLID_132_" class="st37" d="M377.2,453.2c0-3.7-3-6.7-6.7-6.7h-20.9c-3.7,0-6.7,3-6.7,6.7v20.9c0,3.7,3,6.7,6.7,6.7
			h20.9c3.7,0,6.7-3,6.7-6.7V453.2z M374.8,472.3c0,2.9-2.4,5.3-5.3,5.3h-17.3c-2.9,0-5.3-2.4-5.3-5.3V455c0-2.9,2.4-5.3,5.3-5.3
			h17.3c2.9,0,5.3,2.4,5.3,5.3V472.3z"/>
		<path id="XMLID_24_" class="st1" d="M333.6,511.9h48.1c1,0,1.9-0.8,1.9-1.9v-46.5c0-1-0.8-1.9-1.9-1.9h-48.1c-1,0-1.9,0.8-1.9,1.9
			V510C331.7,511,332.6,511.9,333.6,511.9z"/>
		<path id="XMLID_23_" class="st3" d="M342.7,512.3h40.1c1,0,1.9-0.8,1.9-1.9v-44.9c0-1-0.8-1.9-1.9-1.9h-40.1c-1,0-1.9,0.8-1.9,1.9
			v44.9C340.9,511.4,341.7,512.3,342.7,512.3z"/>
		<g id="XMLID_126_">
			
				<linearGradient id="XMLID_125_" gradientUnits="userSpaceOnUse" x1="376.2786" y1="452.4632" x2="396.6015" y2="425.7645" gradientTransform="matrix(-1 0 0 1 714.4035 0)">
				<stop  offset="0" style="stop-color:#201B59"/>
				<stop  offset="1" style="stop-color:#2D2D84"/>
			</linearGradient>
			<circle id="XMLID_22_" class="st38" cx="364" cy="486.4" r="10"/>
			
				<linearGradient id="XMLID_127_" gradientUnits="userSpaceOnUse" x1="354.607" y1="434.7538" x2="345.698" y2="545.3498" gradientTransform="matrix(-1 0 0 1 714.4035 0)">
				<stop  offset="0" style="stop-color:#E1483D"/>
				<stop  offset="1" style="stop-color:#E9625B"/>
			</linearGradient>
			<circle id="XMLID_21_" class="st39" cx="364" cy="486.4" r="7"/>
			
				<linearGradient id="XMLID_128_" gradientUnits="userSpaceOnUse" x1="344.5355" y1="486.3991" x2="356.358" y2="486.3991" gradientTransform="matrix(-1 0 0 1 714.4035 0)">
				<stop  offset="0" style="stop-color:#F37064"/>
				<stop  offset="1" style="stop-color:#F5928F"/>
			</linearGradient>
			<circle id="XMLID_20_" class="st40" cx="364" cy="486.4" r="5.9"/>
		</g>
		<path id="XMLID_19_" class="st41" d="M325.3,530.6h62.6c0.4,0,0.8-0.3,0.8-0.8v-18.4c0-0.4-0.3-0.8-0.8-0.8h-62.6
			c-0.4,0-0.8,0.3-0.8,0.8v18.4C324.6,530.3,324.9,530.6,325.3,530.6z"/>
		<path id="XMLID_18_" class="st3" d="M350,526.2h33.6c0.6,0,1.1-0.5,1.1-1.1v-10.9c0-0.6-0.5-1.1-1.1-1.1H350
			c-0.6,0-1.1,0.5-1.1,1.1v10.9C348.9,525.7,349.4,526.2,350,526.2z"/>
	</g>
	<g id="XMLID_101_">
		<g id="XMLID_120_">
			<linearGradient id="XMLID_129_" gradientUnits="userSpaceOnUse" x1="720.7692" y1="443.3578" x2="757.0317" y2="517.4766">
				<stop  offset="0" style="stop-color:#F5928F"/>
				<stop  offset="1" style="stop-color:#F8B2B1"/>
			</linearGradient>
			<path id="XMLID_17_" class="st42" d="M722.3,452.2c-0.2,0.8,2.6,2,4.3-1.2c0.1-1.5,1-8.1,0.1-9.3c-4.9-6.6-14.3-15-14.3-15
				c-1.6,1.6-0.3,3.1-0.3,3.1l4.6,4.8c-1,1.7-2.1,3.2-2.7,5.3c-0.4,1.6-0.2,3.3,0.6,4.7c0.8,1.4,1.9,3.3,2.9,4.8
				C719.5,452.2,722.3,452.2,722.3,452.2z"/>
			<linearGradient id="XMLID_130_" gradientUnits="userSpaceOnUse" x1="737.356" y1="500.1042" x2="726.9953" y2="463.4432">
				<stop  offset="0" style="stop-color:#F5928F"/>
				<stop  offset="1" style="stop-color:#F8B2B1"/>
			</linearGradient>
			<path id="XMLID_16_" class="st43" d="M718.7,437.7l4.2,3.5l1.3,3.5l-3.7,4.1c0,0-1.3-7-2.2-8.5
				C717.3,438.9,717.8,438.1,718.7,437.7z"/>
		</g>
		<g id="XMLID_102_">
			
				<linearGradient id="XMLID_131_" gradientUnits="userSpaceOnUse" x1="4680.6401" y1="704.4822" x2="4578.8481" y2="815.2031" gradientTransform="matrix(-1 0 0 1 5452.7646 0)">
				<stop  offset="0" style="stop-color:#201B59"/>
				<stop  offset="1" style="stop-color:#2D2D84"/>
			</linearGradient>
			<path id="XMLID_15_" class="st44" d="M804.3,712.7c0,0,1.1,6,1.6,11.9c0.2,2.3-1.6,4.3-3.9,4.4c-7.9,0.3-24.7,1-30.7,0.7
				c-0.9,0-1.5-1-1.2-1.8c0.3-0.7,0.8-1.3,1.5-1.6l27.8-12.8L804.3,712.7z"/>
			
				<linearGradient id="XMLID_133_" gradientUnits="userSpaceOnUse" x1="4647.6001" y1="712.7056" x2="4656.6416" y2="712.7056" gradientTransform="matrix(-1 0 0 1 5452.7646 0)">
				<stop  offset="0" style="stop-color:#F5928F"/>
				<stop  offset="1" style="stop-color:#F8B2B1"/>
			</linearGradient>
			<path id="XMLID_14_" class="st45" d="M805.2,709.2l-0.8,7.1c0,0-4.9,2.3-8.2-0.3l2-8L805.2,709.2z"/>
			<path id="XMLID_13_" class="st1" d="M804.5,575c0.4,1.9,2,93-7.8,133.9c-0.2,0.7,0.2,1.4,0.8,1.6c1.5,0.6,4.4,1.5,7.9,1.6
				c1.1,0,2.1-0.7,2.4-1.7c2.8-9.5,16.1-57,17.9-102.3c1.9-50.7,0-1.7,0-1.7l-1.1-31.3L804.5,575z"/>
			
				<linearGradient id="XMLID_134_" gradientUnits="userSpaceOnUse" x1="4657.8047" y1="683.4887" x2="4556.0132" y2="794.209" gradientTransform="matrix(-1 0 0 1 5452.7646 0)">
				<stop  offset="0" style="stop-color:#201B59"/>
				<stop  offset="1" style="stop-color:#2D2D84"/>
			</linearGradient>
			<path id="XMLID_12_" class="st46" d="M836.3,715.8c0,0,1.7,3,3.3,11c0.3,1.4-0.7,2.8-2.2,3c-2.6,0.3-6.6,0.6-9.8,0.6
				c-1.5,0-2.6-1.3-2.5-2.8c0.4-2.9,1.5-7.7,4.9-11.5L836.3,715.8z"/>
			
				<linearGradient id="XMLID_135_" gradientUnits="userSpaceOnUse" x1="4615.0142" y1="712.242" x2="4622.8208" y2="712.242" gradientTransform="matrix(-1 0 0 1 5452.7646 0)">
				<stop  offset="0" style="stop-color:#F5928F"/>
				<stop  offset="1" style="stop-color:#F8B2B1"/>
			</linearGradient>
			<path id="XMLID_11_" class="st47" d="M837.8,706.7l-2,10.8c0,0-2,1.5-5.8,0.4l0.9-11.6L837.8,706.7z"/>
			<path id="XMLID_10_" class="st1" d="M843.1,577.8c8,48.1-1.7,118.9-5,132.7c-0.2,0.8-0.9,1.5-1.7,1.6c-1.5,0.2-3.9,0.4-6.2-0.2
				c-0.8-0.2-1.4-1-1.4-1.8c-0.4-11.2,0.4-80-7.1-107.1c-0.4-1.4-1.2-2.6-2.4-3.4l-14.4-10.2l-1.1-16.6L843.1,577.8z"/>
			<g id="XMLID_111_">
				
					<linearGradient id="XMLID_137_" gradientUnits="userSpaceOnUse" x1="5353.8691" y1="-515.1871" x2="5435.1606" y2="-633.1396" gradientTransform="matrix(-1 0 0 1 5452.7646 0)">
					<stop  offset="0" style="stop-color:#F37064"/>
					<stop  offset="1" style="stop-color:#F5928F"/>
				</linearGradient>
				<path id="XMLID_9_" class="st48" d="M792.3,486.7c23.9-0.4,50.2,6.3,50.2,6.3c7.1,41.5,1.2,89.5,1.2,89.5
					c-18.5,4.8-39.3-3-39.3-3c-3.1-17.4-17.4-66.2-17.4-66.2c-11.7-1.4-21.3-4.8-29.2-9.3c6-7,8.9-15.9,10.1-21.2
					C776.4,485.4,784.9,486.8,792.3,486.7z"/>
				<linearGradient id="XMLID_138_" gradientUnits="userSpaceOnUse" x1="729.4689" y1="439.1016" x2="765.7314" y2="513.2205">
					<stop  offset="0" style="stop-color:#F5928F"/>
					<stop  offset="1" style="stop-color:#F8B2B1"/>
				</linearGradient>
				<path id="XMLID_8_" class="st49" d="M721.8,451.5c2.3-2.8,5.3-1.5,5.3-1.5c3.5,14.8,21.9,26.9,40.9,32.8
					c-1.2,5.3-4.1,14.2-10.1,21.2C726.4,486.3,721.8,451.5,721.8,451.5z"/>
			</g>
			
				<linearGradient id="XMLID_142_" gradientUnits="userSpaceOnUse" x1="5327.2124" y1="-533.5554" x2="5408.5039" y2="-651.5079" gradientTransform="matrix(-1 0 0 1 5452.7646 0)">
				<stop  offset="0" style="stop-color:#F37064"/>
				<stop  offset="1" style="stop-color:#F5928F"/>
			</linearGradient>
			<path id="XMLID_7_" class="st50" d="M833.4,516.1l9.2-23.1c0,0,22.3,15.2,26,34.4c-4.2,0.3-11.9,1.4-19.4,5.2
				C847.5,523.5,833.4,516.1,833.4,516.1z"/>
			<linearGradient id="XMLID_143_" gradientUnits="userSpaceOnUse" x1="819.7391" y1="468.7886" x2="844.8438" y2="434.5186">
				<stop  offset="0" style="stop-color:#F5928F"/>
				<stop  offset="1" style="stop-color:#F8B2B1"/>
			</linearGradient>
			<path id="XMLID_6_" class="st51" d="M816.5,467.3l7.6,22c0.1,0.4,0,0.8-0.4,1c-2.1,1.1-9.5,4.5-18.5-1.2
				c-0.9-0.6-1.6-1.6-1.7-2.7l-2.5-19H816.5z"/>
			<g id="XMLID_105_">
				
					<linearGradient id="XMLID_144_" gradientUnits="userSpaceOnUse" x1="2682.2056" y1="-1939.9756" x2="2648.334" y2="-1920.0511" gradientTransform="matrix(-0.746 -0.6659 -0.6659 0.746 -320.7266 -2030.2021)">
					<stop  offset="0" style="stop-color:#F5928F"/>
					<stop  offset="1" style="stop-color:#F8B2B1"/>
				</linearGradient>
				<path id="XMLID_5_" class="st52" d="M800,446.9c0,0-8.3,15.7-7.3,22.1c1.1,6.3,11.4,5.9,20.4,0.7l6.3-17L800,446.9z"/>
				
					<linearGradient id="XMLID_146_" gradientUnits="userSpaceOnUse" x1="-2502.2712" y1="1068.5747" x2="-2495.0469" y2="1109.7809" gradientTransform="matrix(-0.746 -0.6659 -0.6659 0.746 -320.7266 -2030.2021)">
					<stop  offset="0" style="stop-color:#201B59"/>
					<stop  offset="1" style="stop-color:#2D2D84"/>
				</linearGradient>
				<path id="XMLID_4_" class="st53" d="M812.7,461.4c-0.4-0.2-0.5-0.6-0.3-0.9c0.7-1,1.9-3.1,2.3-4.9c0,0,1.5-1-3.8-2.2
					c-5.3-1.3-13.2-3.2-14.9-7.8c-1.6-4.4,2.6-15.5,9.5-6.7c0.3,0.3,0.8,0.3,1,0c1.1-1.5,4.1-4.5,8.1-2.6c3.8,1.7,4.2,4.5,4.2,5.9
					c0,0.4,0.4,0.7,0.8,0.7c1.9-0.4,6.6-0.7,8.7,4.1c1.8,3.9,0.6,6.1-0.4,7.2c-0.3,0.4-0.2,0.9,0.3,1.1c1.3,0.4,2.9,1.5,2.7,4.4
					c-0.2,4.1-4.8,3.7-6.1,3.6c-0.2,0-0.4,0-0.6,0.2c-1.1,1.2-6.2,6.5-11.6,7.1c-0.5,0.1-0.8-0.4-0.7-0.9l2.4-6.9
					c0.1-0.3,0-0.7-0.4-0.8L812.7,461.4z"/>
				
					<linearGradient id="XMLID_147_" gradientUnits="userSpaceOnUse" x1="2678.7434" y1="-1945.8622" x2="2644.8718" y2="-1925.9377" gradientTransform="matrix(-0.746 -0.6659 -0.6659 0.746 -320.7266 -2030.2021)">
					<stop  offset="0" style="stop-color:#F5928F"/>
					<stop  offset="1" style="stop-color:#F8B2B1"/>
				</linearGradient>
				<path id="XMLID_3_" class="st54" d="M811.8,462.4c0,0,5.9-4.1,6.4-0.6c0.4,3.4-5.4,5-8.2,3.7L811.8,462.4z"/>
			</g>
			
				<linearGradient id="XMLID_151_" gradientUnits="userSpaceOnUse" x1="-1489.4174" y1="649.691" x2="-1508.2067" y2="514.7487" gradientTransform="matrix(-1 0 0 1 -645.9153 0)">
				<stop  offset="0" style="stop-color:#F5928F"/>
				<stop  offset="1" style="stop-color:#F8B2B1"/>
			</linearGradient>
			<path id="XMLID_2_" class="st55" d="M849.1,532.5c0,0,7.8,35.2,0.7,55c8.7,4,7.1,3.3,7.1,3.3s17.1-50.1,11.6-63.4
				C857.6,526.2,852.2,529.1,849.1,532.5z"/>
			
				<linearGradient id="XMLID_152_" gradientUnits="userSpaceOnUse" x1="-1491.6548" y1="636.7101" x2="-1506.6487" y2="529.0259" gradientTransform="matrix(-1 0 0 1 -645.9153 0)">
				<stop  offset="0" style="stop-color:#F5928F"/>
				<stop  offset="1" style="stop-color:#F8B2B1"/>
			</linearGradient>
			<path id="XMLID_1_" class="st56" d="M849.9,587.5c0,0-4.5,5.8-4.1,8.1c0.4,2.3,0.4,3.2,0.4,3.2s2.2-1.5,2.1-3.5
				c-0.3,6.2-2.4,13.3-0.5,12.9c1.9-0.3,11.7-9.4,9.5-19C852.3,585.8,850.8,586.1,849.9,587.5z"/>
		</g>
	</g>
</g>
</svg>
