<?xml version="1.0" encoding="UTF-8"?>
<svg id="Layer_2" data-name="Layer 2" xmlns="http://www.w3.org/2000/svg" viewBox="0 0 455.81 461.83">
  <defs>
    <style>
      .cls-1, .cls-2, .cls-3, .cls-4, .cls-5 {
        stroke-miterlimit: 10;
      }

      .cls-1, .cls-6, .cls-3, .cls-7, .cls-4, .cls-8, .cls-5, .cls-9 {
        stroke: #263238;
        stroke-linecap: round;
      }

      .cls-1, .cls-8 {
        fill: #263238;
      }

      .cls-2 {
        stroke: #000;
      }

      .cls-2, .cls-6, .cls-7, .cls-5 {
        fill: none;
      }

      .cls-10, .cls-11, .cls-3, .cls-9 {
        fill: #fff;
      }

      .cls-12 {
        opacity: .4;
      }

      .cls-6, .cls-7, .cls-8, .cls-9 {
        stroke-linejoin: round;
      }

      .cls-6, .cls-9 {
        stroke-width: 2px;
      }

      .cls-13 {
        fill: #bababa;
      }

      .cls-14, .cls-4 {
        fill: #92e3a9;
      }

      .cls-11 {
        opacity: .8;
      }

      .cls-7 {
        stroke-width: 3px;
      }
    </style>
  </defs>
  <g id="Background_Simple" data-name="Background Simple">
    <g>
      <path class="cls-14" d="M403.05,168.33c-2.68-8.53-6.01-16.87-10.32-24.88-21.76-40.44-59.92-70.94-101.66-88.97-33.13-14.31-74.12-21.79-109.28-8.9-17.78,6.52-34.51,19.03-44.05,35.65-12.45,21.71-11.25,48.64-21.11,71.45-7.99,18.49-27.88,29.6-43.46,40.95-24.31,17.71-48.25,38.67-56.68,68.64-11.25,39.99-7.92,87.55,14.87,123.09,17,26.5,46.1,34.47,76.13,35.01,28.34.52,62.97-6.64,89.45,6.28,45.06,22.01,104.52,46.7,154.94,29.29,51.96-17.95,77.47-52.91,85.03-98.25,7.56-45.35-13.23-83.14-19.84-119.04-4.18-22.67-6.9-47.72-14-70.32Z"/>
      <path class="cls-11" d="M403.05,168.33c-2.68-8.53-6.01-16.87-10.32-24.88-21.76-40.44-59.92-70.94-101.66-88.97-33.13-14.31-74.12-21.79-109.28-8.9-17.78,6.52-34.51,19.03-44.05,35.65-12.45,21.71-11.25,48.64-21.11,71.45-7.99,18.49-27.88,29.6-43.46,40.95-24.31,17.71-48.25,38.67-56.68,68.64-11.25,39.99-7.92,87.55,14.87,123.09,17,26.5,46.1,34.47,76.13,35.01,28.34.52,62.97-6.64,89.45,6.28,45.06,22.01,104.52,46.7,154.94,29.29,51.96-17.95,77.47-52.91,85.03-98.25,7.56-45.35-13.23-83.14-19.84-119.04-4.18-22.67-6.9-47.72-14-70.32Z"/>
    </g>
  </g>
  <g id="Plants">
    <g>
      <path class="cls-13" d="M23.92,304.49c-.26-2.89-.32-5.55-.35-7.91,0-1.34.01-2.55.04-3.68,1.04-.84,5.16-4.29,6.32-6.63,1.13-2.28,1.92-5.5.71-7.93-1.19-2.38-4.12-3.54-6.45-2.09-3.23,2.01-3.5,8.91-2.63,12.24.08.29,1.76,4.65,1.82,4.61,0,0,.05-.04.06-.05-.05,1.09-.09,2.26-.11,3.54-.02,2.36-.02,5.03.18,7.94.03.49.07.99.11,1.49.36.55.57.89.57.89-.09-.8-.19-1.63-.26-2.4Z"/>
      <path class="cls-13" d="M13.53,297.16c-4.34.71-4.9,4.78-.85,7.38,3.43,2.2,9.29,2.36,11,2.35-.03-.3-.05-.6-.07-.9-1.64-2.51-6.52-9.42-10.08-8.84Z"/>
      <path class="cls-13" d="M99.88,278.06c-3.83-.12-7.87,5.42-8.97,8.64-.09.28-1.08,4.81-1.01,4.81,0,0,.07,0,.08,0-.64.87-1.32,1.81-2.05,2.85-1.32,1.94-2.79,4.14-4.23,6.65-.16.28-.33.58-.49.87-.07.7-.13,1.11-.13,1.11,0,0-.13-.1-.35-.27-1.13,2.04-2.26,4.23-3.28,6.6-1.32,3.06-2.55,6.35-3.38,9.9,0,.04-.01.08-.02.12-.08-1.12-.42-4.25-.47-4.49-.75-3.35-4.15-9.42-7.96-9.84-2.75-.3-4.85,2-4.82,4.64.02,2.71,2.22,5.25,4.27,6.81,2.31,1.75,8.42,3.16,8.91,3.27-.76,3.4-1.26,6.95-1.57,10.57-.18,2.07-.29,4.17-.38,6.27-.1-.97-.2-1.83-.23-1.95-.75-3.35-4.15-9.42-7.96-9.84-2.75-.3-4.85,2-4.82,4.64.02,2.71,2.22,5.25,4.27,6.81,2.08,1.58,7.27,2.88,8.65,3.21-.03.81-.06,1.61-.08,2.42-.11,3.87-.2,7.73-.41,11.52-.07,1.33-.19,2.64-.31,3.95-.09-.86-.18-1.58-.2-1.69-.75-3.35-4.15-9.42-7.96-9.84-2.75-.3-4.85,1.99-4.82,4.64.02,2.71,2.22,5.25,4.27,6.81,1.99,1.51,6.76,2.75,8.4,3.15-.11.92-.22,1.84-.35,2.74.58.17,1.17.31,1.77.43.22-1.75.4-3.51.53-5.3,1.43.4,6.5,1.75,9.04,1.38,2.52-.37,5.62-1.54,6.89-3.91,1.24-2.32.44-5.36-2.11-6.44-3.55-1.5-9.34,2.19-11.53,4.78-.14.16-1.5,2.2-2.23,3.33.09-1.31.18-2.61.22-3.94.12-3.83.13-7.7.16-11.57,0-1.19.03-2.36.04-3.55.51.15,6.51,1.88,9.35,1.46,2.52-.37,5.62-1.54,6.89-3.91,1.24-2.32.44-5.36-2.11-6.44-3.55-1.5-9.34,2.19-11.53,4.78-.17.2-2.12,3.13-2.59,3.9.04-2.6.1-5.19.26-7.75.22-3.52.63-6.96,1.28-10.26.24.07,6.49,1.9,9.4,1.48,2.52-.37,5.62-1.54,6.89-3.91,1.24-2.32.44-5.36-2.11-6.44-3.55-1.5-9.34,2.19-11.53,4.78-.17.2-2.28,3.36-2.62,3.96.04-.2.06-.4.1-.6.74-3.51,1.89-6.81,3.12-9.85.71-1.77,1.49-3.41,2.29-5,1.13.46,6.33,2.51,8.99,2.42,2.55-.09,5.77-.91,7.29-3.13,1.49-2.17,1.03-5.27-1.4-6.63-3.37-1.88-9.54,1.15-12.01,3.47-.13.13-1.36,1.57-2.23,2.63.37-.71.74-1.45,1.11-2.12,1.38-2.53,2.8-4.75,4.07-6.72.73-1.11,1.42-2.1,2.07-3.02,1.34-.12,6.72-.69,8.98-1.98,2.2-1.26,4.66-3.48,4.97-6.16.31-2.63-1.52-5.2-4.28-5.29Z"/>
      <path class="cls-13" d="M47.29,360.62c.26.52.51,1.03.77,1.54.58-.2,1.15-.38,1.71-.56-.65-1.29-1.32-2.57-2.03-3.85,1.4-.45,6.33-2.12,8.22-3.83,1.88-1.7,3.79-4.4,3.52-7.1-.26-2.64-2.59-4.77-5.3-4.27-3.76.7-6.5,7-6.88,10.39-.02.21-.03,2.68,0,4.04-.65-1.15-1.29-2.3-1.99-3.44-2.01-3.29-4.14-6.57-6.25-9.84-.65-1-1.28-2.01-1.92-3.01.5-.15,6.41-2.01,8.52-3.93,1.88-1.7,3.79-4.4,3.52-7.1-.26-2.64-2.59-4.77-5.3-4.27-3.76.7-6.5,7-6.88,10.39-.03.26-.03,3.81.02,4.72-1.4-2.21-2.78-4.43-4.05-6.68-1.76-3.09-3.32-6.22-4.6-9.36.23-.07,6.41-1.98,8.57-3.94,1.88-1.7,3.79-4.4,3.52-7.1-.26-2.64-2.59-4.77-5.3-4.27-3.76.7-6.5,7-6.88,10.39-.03.27-.03,4.09.03,4.79-.08-.19-.18-.37-.25-.56-1.33-3.37-2.2-6.79-2.86-10.03-.39-1.88-.65-3.7-.87-5.48,1.19-.24,6.61-1.38,8.75-2.93,2.06-1.48,4.26-3.95,4.29-6.66.03-2.65-2.06-5.02-4.81-4.81-3.82.28-7.24,6.23-7.99,9.55-.04.18-.25,2.07-.39,3.45,0,0-.19,0-.5,0,.19,2.22.46,4.56.9,6.97.6,3.31,1.39,6.76,2.67,10.21.01.04.03.08.05.12-.69-.9-2.69-3.35-2.86-3.52-2.46-2.41-8.62-5.65-12-3.9-2.43,1.27-2.9,4.36-1.42,6.58,1.51,2.27,4.73,3.2,7.28,3.38,2.88.2,8.7-1.98,9.16-2.16,1.25,3.28,2.79,6.55,4.54,9.78,1,1.85,2.06,3.67,3.14,5.49-.62-.76-1.18-1.43-1.26-1.52-2.46-2.41-8.62-5.65-12-3.89-2.43,1.27-2.9,4.36-1.42,6.58,1.51,2.27,4.72,3.2,7.28,3.38,2.59.18,7.59-1.58,8.91-2.06.42.69.84,1.39,1.27,2.08,2.04,3.32,4.1,6.63,6.02,9.93.68,1.16,1.3,2.33,1.93,3.5-.55-.67-1.02-1.24-1.1-1.32-2.46-2.41-8.62-5.65-12-3.89-2.43,1.27-2.9,4.36-1.42,6.58,1.51,2.27,4.73,3.2,7.28,3.38,2.47.17,7.1-1.41,8.67-1.98Z"/>
      <path class="cls-13" d="M80.98,288.72c-3.82-2.19-6.82.62-5.32,5.18,1.28,3.91,5.81,7.78,7.09,8.81.16-.29.32-.56.48-.84.31-3.04.87-11.37-2.24-13.15Z"/>
    </g>
    <g>
      <path class="cls-13" d="M311.62,447.39c-4.22.11-8.31,6.5-9.32,10.14-.05.19-.38,2.19-.6,3.69,1.99.18,3.98.33,5.97.43,1.52-.42,2.97-.94,3.91-1.55,2.34-1.53,4.9-4.14,5.08-7.13.18-2.93-2-5.65-5.04-5.58Z"/>
      <path class="cls-13" d="M275.2,390.79c-4.86.02-6.18,4.36-2.22,7.9,3.36,3,9.72,4.19,11.59,4.49.02-.34.05-.66.08-.99-1.35-3.02-5.47-11.42-9.45-11.4Z"/>
      <path class="cls-13" d="M353.47,446.67c1.75-2.32,1.42-5.77-1.18-7.4-3.61-2.25-10.57.76-13.41,3.2-.21.18-2.86,3.04-3.5,3.81.49-2.83,1.01-5.65,1.64-8.4.86-3.8,1.91-7.48,3.19-10.97.24.12,6.75,3.21,10,3.25,2.82.04,6.4-.7,8.19-3.07,1.76-2.32,1.42-5.77-1.18-7.4-3.61-2.25-10.57.76-13.41,3.2-.22.19-3.07,3.27-3.55,3.87.08-.21.13-.43.21-.64,1.41-3.7,3.25-7.1,5.12-10.2,1.09-1.8,2.22-3.46,3.37-5.05,1.15.7,6.47,3.84,9.39,4.2,2.8.35,6.45.01,8.49-2.14,2-2.11,2.04-5.57-.37-7.47-3.35-2.63-10.6-.41-13.7,1.69-.17.11-1.75,1.47-2.89,2.48.53-.71,1.06-1.45,1.58-2.12,1.94-2.52,3.88-4.7,5.61-6.62.99-1.08,1.91-2.04,2.78-2.93,1.48.1,7.45.42,10.14-.59,2.62-.99,5.68-2.98,6.5-5.85.8-2.81-.75-5.93-3.75-6.51-4.16-.8-9.52,4.54-11.29,7.87-.15.29-2.02,5.06-1.94,5.07,0,0,.07,0,.09,0-.85.84-1.76,1.75-2.73,2.76-1.78,1.88-3.76,4.03-5.77,6.51-.23.28-.46.58-.69.86-.2.75-.34,1.19-.34,1.19,0,0-.13-.13-.33-.36-1.59,2.02-3.21,4.22-4.73,6.63-1.97,3.11-3.89,6.48-5.41,10.21-.02.04-.03.09-.05.13.11-1.24.29-4.71.27-4.98-.23-3.79-2.88-11-6.97-12.12-2.95-.8-5.63,1.33-6.07,4.23-.44,2.96,1.5,6.11,3.47,8.17,2.22,2.32,8.64,4.92,9.15,5.13-1.42,3.57-2.58,7.36-3.55,11.26-.56,2.23-1.05,4.49-1.51,6.77.06-1.07.1-2.03.09-2.17-.23-3.79-2.88-11-6.97-12.12-2.95-.8-5.63,1.33-6.07,4.23-.44,2.96,1.5,6.12,3.47,8.17,2,2.09,7.43,4.41,8.87,5.01-.17.88-.35,1.75-.51,2.62-.68,3.59-1.36,7.17-2.09,10.7.6-.08,1.2-.16,1.8-.25.61-3.37,1.18-6.77,1.75-10.17.21-1.29.44-2.58.67-3.86.53.25,6.77,3.18,9.94,3.23,2.82.04,6.4-.7,8.19-3.07Z"/>
      <path class="cls-13" d="M350.24,393.34c-3.78-3.05-7.55-.52-6.71,4.73.72,4.49,4.98,9.5,6.19,10.84.22-.28.44-.56.67-.83.87-3.26,2.93-12.25-.15-14.74Z"/>
      <path class="cls-13" d="M285.26,400.59c.22-3.2.62-6.11,1-8.69.23-1.46.46-2.78.69-4.01,1.28-.74,6.38-3.78,8.05-6.13,1.63-2.29,3.06-5.66,2.15-8.53-.89-2.81-3.88-4.58-6.67-3.41-3.87,1.63-5.37,9.11-5.01,12.89.03.33,1.11,5.38,1.18,5.35,0,0,.06-.04.08-.04-.25,1.18-.5,2.45-.74,3.84-.43,2.57-.9,5.48-1.19,8.69-.05.53-.09,1.09-.14,1.64.3.66.46,1.07.46,1.07.05-.89.08-1.81.14-2.66Z"/>
      <path class="cls-13" d="M286.51,454.66c-1.82.61-2.91,2.16-3.14,3.89,5.16,1.02,10.34,1.82,15.5,2.38-2.31-3.06-8.39-7.59-12.36-6.27Z"/>
      <path class="cls-13" d="M322.83,452.85c-2.95-.8-5.63,1.33-6.07,4.23-.24,1.59.22,3.23.99,4.73,3.78-.08,7.53-.33,11.26-.75-1.1-3.53-3.28-7.41-6.18-8.2Z"/>
      <path class="cls-13" d="M300.03,457.84c-1.61-3.94-3.37-7.88-5.11-11.82-.53-1.21-1.05-2.41-1.57-3.62.57-.08,7.34-1.08,9.98-2.8,2.35-1.53,4.9-4.14,5.08-7.13.18-2.93-2-5.65-5.04-5.58-4.22.11-8.31,6.5-9.32,10.14-.08.27-.69,4.15-.8,5.15-1.15-2.66-2.26-5.32-3.26-7.99-1.38-3.68-2.53-7.36-3.39-11.01.27-.04,7.34-1.04,10.04-2.81,2.35-1.53,4.9-4.14,5.08-7.13.18-2.93-2-5.65-5.04-5.58-4.22.11-8.31,6.5-9.32,10.14-.08.29-.74,4.46-.81,5.23-.05-.22-.13-.44-.17-.65-.86-3.9-1.22-7.79-1.37-11.44-.09-2.12-.06-4.15.01-6.12,1.34-.05,7.45-.35,10.06-1.67,2.5-1.26,5.33-3.57,5.84-6.51.5-2.88-1.37-5.83-4.4-6.09-4.21-.36-8.98,5.53-10.38,9.03-.08.19-.64,2.21-1.03,3.69,0,0-.21-.03-.54-.08-.18,2.45-.3,5.05-.24,7.76.08,3.71.34,7.61,1.14,11.61,0,.05.02.09.03.14-.59-1.1-2.35-4.13-2.51-4.34-2.27-3.06-8.42-7.67-12.41-6.34-2.87.96-3.92,4.25-2.69,6.93,1.25,2.74,4.6,4.32,7.35,4.96,3.1.72,9.83-.65,10.37-.76.79,3.8,1.91,7.63,3.25,11.46.76,2.19,1.6,4.37,2.47,6.54-.54-.94-1.03-1.77-1.11-1.88-2.27-3.06-8.42-7.67-12.41-6.34-2.87.96-3.92,4.25-2.69,6.93,1.25,2.74,4.6,4.32,7.35,4.96,2.79.65,8.55-.4,10.08-.7.34.83.67,1.66,1.02,2.49,1.65,3.98,3.32,7.95,4.83,11.88.32.84.62,1.68.92,2.51.67.07,1.34.14,2,.2-.42-1.11-.83-2.23-1.29-3.34Z"/>
    </g>
  </g>
  <g id="Gears">
    <g>
      <path class="cls-2" d="M297.46,143.45l.66,3.95,4.4.38,1.33-3.74c1.47-.13,2.89-.44,4.23-.92l2.77,2.82,3.82-2.21-1.05-3.8c1.11-.94,2.09-2.02,2.94-3.2l3.88.72,1.86-4-3.04-2.51c.35-1.37.54-2.81.55-4.29l3.62-1.65-.77-4.34-3.99-.31c-.51-1.35-1.19-2.62-2-3.78l2.06-3.48-3.12-3.12-3.5,2.08c-1.98-1.34-4.25-2.29-6.69-2.73l-1.01-4h-4.41l-1.02,4.03c-1.39.26-2.72.69-3.97,1.26l-3.15-2.73-3.61,2.53,1.49,3.9c-.97.99-1.82,2.09-2.53,3.29l-4.15-.43-1.51,4.15,3.44,2.33c-.16.95-.25,1.93-.25,2.93,0,.42.02.83.05,1.24l-3.62,2.02,1.14,4.26,4.1-.05c.61,1.29,1.36,2.49,2.25,3.58l-1.77,3.67,3.38,2.84,3.28-2.35M311.85,121.17c.9,1.6,1.42,3.44,1.42,5.41,0,6.08-4.93,11.02-11.02,11.02s-11.02-4.93-11.02-11.02,4.93-11.02,11.02-11.02c.54,0,1.07.04,1.58.11M307.56,116.92c.85.47,1.63,1.05,2.33,1.71"/>
      <path class="cls-2" d="M307.88,368.69l.66,3.95,4.4.38,1.33-3.74c1.47-.13,2.89-.44,4.23-.92l2.77,2.82,3.82-2.21-1.05-3.8c1.11-.94,2.09-2.02,2.94-3.2l3.88.72,1.86-4-3.04-2.51c.35-1.37.54-2.81.55-4.29l3.62-1.65-.77-4.34-3.99-.31c-.51-1.35-1.19-2.62-2-3.78l2.06-3.48-3.12-3.12-3.5,2.08c-1.98-1.34-4.25-2.29-6.69-2.73l-1.01-4h-4.41l-1.02,4.03c-1.39.26-2.72.69-3.97,1.26l-3.15-2.73-3.61,2.53,1.49,3.9c-.97.99-1.82,2.09-2.53,3.29l-4.15-.43-1.51,4.15,3.44,2.33c-.16.95-.25,1.93-.25,2.93,0,.42.02.83.05,1.24l-3.62,2.02,1.14,4.26,4.1-.05c.61,1.29,1.36,2.49,2.25,3.58l-1.77,3.67,3.38,2.84,3.28-2.35M322.27,346.41c.9,1.6,1.42,3.44,1.42,5.41,0,6.08-4.93,11.02-11.02,11.02s-11.02-4.93-11.02-11.02,4.93-11.02,11.02-11.02c.54,0,1.07.04,1.58.11M317.98,342.16c.85.47,1.63,1.05,2.33,1.71"/>
      <path class="cls-2" d="M329.29,96.07l.58,1.51c-.29.3-.57.6-.84.92M327.55,100.5c-.08.12-.15.24-.23.37l-4.15-.43-1.51,4.15,3.44,2.33c-.16.95-.25,1.93-.25,2.93,0,.42.02.83.05,1.24l-3.62,2.02,1.14,4.26,4.1-.05c.61,1.29,1.36,2.49,2.25,3.58l-1.77,3.67,3.38,2.84,3.28-2.35c1.23.71,2.55,1.27,3.95,1.67l.66,3.95,4.4.38,1.33-3.74c1.47-.13,2.89-.44,4.23-.92l2.77,2.82,3.82-2.21-1.05-3.8c1.11-.94,2.09-2.02,2.94-3.2l3.88.72,1.86-4-3.04-2.51c.35-1.37.54-2.81.55-4.29l3.62-1.65-.77-4.35-3.99-.31c-.51-1.35-1.19-2.62-2-3.78l2.06-3.48-3.12-3.12-3.5,2.08c-1.98-1.34-4.25-2.29-6.69-2.73l-1.01-4h-4.41l-1.02,4.03c-1.39.26-2.72.69-3.97,1.26l-3.15-2.73-3.61,2.53.46,1.19M353.18,112.12c-.15.73-.38,1.44-.67,2.11M351.69,115.78c-1.96,3.06-5.38,5.09-9.29,5.09-6.08,0-11.02-4.93-11.02-11.02s4.93-11.02,11.02-11.02,11.02,4.93,11.02,11.02c0,.27,0,.54-.03.8"/>
      <path class="cls-2" d="M65.54,232.12l-3.3,6.87,6.32,5.3,6.12-4.38c2.3,1.32,4.77,2.37,7.37,3.11l1.23,7.38,8.21.72,2.48-6.99c2.75-.25,5.4-.83,7.91-1.71l5.18,5.27,7.14-4.12-1.96-7.1c2.07-1.76,3.91-3.77,5.49-5.98l7.26,1.34,3.48-7.47-5.69-4.7c.66-2.57,1.01-5.25,1.02-8.02l6.76-3.08-1.43-8.12-7.46-.58c-.96-2.52-2.22-4.89-3.73-7.07l3.85-6.5-5.83-5.83-6.55,3.89c-3.7-2.51-7.94-4.27-12.5-5.1l-1.89-7.48h-8.25l-1.9,7.53c-2.59.49-5.08,1.29-7.41,2.36l-5.89-5.1-6.75,4.73,2.78,7.29c-1.81,1.85-3.4,3.91-4.74,6.14l-7.76-.8-2.82,7.75,6.43,4.36c-.3,1.78-.46,3.61-.46,5.47,0,.78.04,1.55.09,2.32l-6.76,3.78,2.13,7.96,7.65-.1c.86,1.82,1.87,3.54,3.03,5.15M84.12,192.07c.89-.32,1.8-.57,2.74-.76M91.94,190.91c10.94.49,19.65,9.51,19.65,20.57s-9.22,20.59-20.59,20.59-20.59-9.22-20.59-20.59c0-8.39,5.02-15.61,12.22-18.82"/>
    </g>
  </g>
  <g id="Light_Bulb" data-name="Light Bulb">
    <g>
      <g>
        <line class="cls-7" x1="171.19" y1="209.92" x2="163.02" y2="204.64"/>
        <line class="cls-7" x1="185.4" y1="194.04" x2="183.28" y2="192.27"/>
        <line class="cls-7" x1="161.52" y1="240.6" x2="144.59" y2="236.36"/>
        <path class="cls-14" d="M253.02,344.65c-.12,0-.25-.02-.37-.05-.39-.1-.72-.35-.92-.7-.53-.91-.8-1.39,3.42-6.23-9.1,5.57-10.07,5.34-10.6,5.21-.4-.1-.83-.41-1.03-.76-.84-1.45-1-1.74,15.84-15.52-2.7,1.76-5.51,3.63-8.01,5.3-14.83,9.89-19.43,12.7-21.47,12.22-.51-.12-.93-.43-1.19-.86q-.9-1.56,18.96-15.94c1.28-.92,2.6-1.88,3.93-2.85-2.29,1.54-4.58,3.1-6.68,4.52-15.66,10.65-22.8,15.25-25.47,14.65-.57-.13-1.04-.47-1.32-.95-.98-1.69-1.19-2.07,27.75-21.73l-38.06,21.97c-.72.42-1.63.17-2.05-.55-.67-1.16-.14-2.58,2.61-5.01-4.38,2.52-6.93,3.53-8.18,3.24-.54-.13-.99-.45-1.26-.91-.83-1.43-.51-2.77,10.08-9.89-10.93,6.83-14.95,8.85-16.52,8.47-.49-.12-.88-.41-1.12-.83-.73-1.26-.05-1.7,2.46-3.36,1.3-.85,3.19-2.09,5.53-3.61,2.39-1.55,5.25-3.4,8.45-5.47-9.32,4.84-10.72,4.51-11.49,4.32-.55-.13-1.01-.46-1.27-.92-.41-.71-.17-1.62.53-2.04,29.35-17.39,74.66-45.31,85.59-54.54-10.9,4.95-43.45,25.18-62.04,36.73-23.89,14.84-24,14.81-25.02,14.56-.39-.1-.75-.37-.95-.72-.81-1.41-.77-2.3,8.79-8.23-4.39,2.07-7.3,3.01-8.58,2.7-.59-.14-1.06-.49-1.34-.97-.4-.7-.18-1.58.49-2.02,29.62-18.87,71.29-45.58,88.29-56.88-4.72,2.41-11.08,6.03-18.14,10.23-5.71,3.67-12.48,7.95-20.49,12.93-10.59,6.59-21.28,13.12-30.19,18.52-21.52,13.57-21.78,13.51-22.83,13.26-.4-.1-.77-.37-.97-.73-.41-.71-.17-1.62.53-2.04,6.48-3.85,13.64-8.15,21.06-12.64,1.28-.81,2.58-1.63,3.9-2.46-15.54,8.89-24.13,12.78-26.66,12.16-.79-.19-1.21-.66-1.41-1.02-.93-1.61.4-3.64,11.35-10.81-7.07,4.31-9.87,5.6-11.06,5.3-.47-.11-.86-.4-1.09-.8-.63-1.09-1.14-1.98,6.18-7.31-3.94,1.98-6.43,2.81-7.63,2.52-.57-.14-1.03-.47-1.3-.95-.2-.35-.25-.76-.15-1.14.1-.39.36-.71.71-.91,32.45-18.45,81.58-47.67,96.55-59.46-16.41,9.06-61.65,35.62-93.22,54.34-.35.2-.76.26-1.14.16-.39-.1-.72-.35-.92-.7-.21-.37-.42-.98-.19-1.82.22-.81,1.08-1.92,2.47-3.28-2.33.95-3.89,1.3-4.78,1.08-.58-.14-1.04-.48-1.32-.96-.9-1.55.82-2.75,3.42-4.55,1.95-1.36,4.82-3.22,8.79-5.7,7.39-4.62,17.53-10.74,28.27-17.22,12.07-7.28,26.41-15.93,37.8-23.09-24.36,14.04-62.75,36.42-81.18,47.2-.35.2-.76.25-1.14.16-.39-.1-.72-.35-.91-.7-.77-1.34-1.01-1.74,12.25-10.07-5.19,2.85-8.47,4.08-10.14,3.69-.85-.2-1.3-.7-1.52-1.09q-.99-1.72,23.06-15.69c11.13-6.47,24.41-14.18,36.63-21.6,10.26-6.82,18.29-12.01,24.38-15.6,5.01-3.5,7.67-5.69,9.07-7.06-12.49,5.61-61.81,35.43-93.04,54.83-.7.43-1.62.22-2.06-.48-.44-.7-.23-1.62.47-2.06,3.11-1.97,6.35-4.04,9.68-6.16-8.04,4.11-10.97,4.8-12.23,4.48-.58-.14-1.06-.48-1.33-.96-.4-.69-.19-1.58.49-2.01,5.52-3.53,12.98-8.32,21.31-13.66-17.42,9.84-18.82,9.49-19.69,9.27-.47-.12-.86-.41-1.09-.81-.41-.7-.18-1.6.51-2.03,22.46-13.89,54.37-34.04,73.03-46.6-15.05,8.67-36.98,21.55-52.44,30.63-6.85,4.02-12.85,7.54-17.14,10.06-3.82,2.23-5.67,3.31-6.66,3.81-.16.1-.25.16-.26.16l-.02-.03c-.69.32-.86.28-1.15.2-.58-.15-1.01-.64-1.1-1.23-.09-.59.18-1.18.69-1.5,23.82-14.72,59-36.93,74.76-47.85-8.39,4.85-20.92,12.85-31.03,19.3-28.26,18.02-36.85,23.18-39.33,22.56-.49-.12-.9-.42-1.14-.84-.63-1.08-1.07-1.86,8.32-8.63-2.56,1.13-4.29,1.56-5.3,1.31-.6-.14-1.09-.5-1.38-1-.4-.7-.18-1.59.5-2.02,18.45-11.61,46.49-29.81,56.13-37.34-8.44,4.13-26.85,15.97-37.7,22.94-17.64,11.34-18.32,11.62-19.43,11.35-.4-.1-.78-.38-.98-.73-.79-1.37-1.49-2.59,15.84-14.51-2.14,1.36-4.33,2.77-6.56,4.21-.3.2-.71.46-1.34.31-.4-.1-.74-.35-.94-.71-1.07-1.85.47-3.44,12.64-12.77-.46-.1-.83-.38-1.06-.78-.41-.72-.17-1.63.55-2.05.29-.17.61-.23.92-.19.87-.41,3.08-1.97,4.59-3.03,4.87-3.42,6.26-4.25,7.45-3.98.48.11.87.39,1.11.81.86,1.5.2,2.4-8.01,8.74,2.27-1.42,4.63-2.87,6.98-4.31,23.12-14.15,24.91-13.72,25.97-13.47.5.12.9.42,1.15.84.4.7.18,1.59-.5,2.02-11.28,7.04-23.01,14.59-32.82,21.13,22.82-14.57,33.79-20.96,36.87-20.22.56.14,1.02.47,1.29.94.96,1.66,1.65,2.85-29.92,23.64-1.51,1-3.03,1.99-4.54,2.97,6.35-4.01,12.8-8.19,18.03-11.59,20.26-13.15,23.53-15.07,25.06-14.71.44.11.81.38,1.03.77.4.7.18,1.58-.49,2.02-19.58,12.48-48.18,31.1-62.32,41.12,7.59-4.48,18.37-11.36,27.74-17.33,29.74-18.96,39.43-24.75,42.17-24.08.51.12.93.43,1.18.87.74,1.27,1.26,2.17-16.13,13.78,24.37-14.14,24.84-14.03,25.62-13.82.39.1.73.36.93.71,1,1.73,1.72,2.98-44.27,32.38-3.34,2.13-6.69,4.27-9.97,6.35,18.2-10.76,39.89-24.02,56.33-34.26.35-.21.76-.28,1.16-.18.39.1.73.35.94.7.72,1.24-.33,1.97-1.44,2.75-.68.48-1.69,1.16-2.97,2.02-2.42,1.61-5.99,3.96-10.62,6.98-7.78,5.07-18.66,12.1-32.32,20.9-13.16,8.47-26.42,16.99-35.5,22.81,11.94-6.32,35.29-20.07,80.35-48.79q6.48-4.13,7.14-3.97c.4.1.74.35.94.71.37.64.58,1.01-.62,2.07h0s-.03.03-.05.04c-1.6,1.4-5.58,3.99-14.65,9.91,12.86-7.06,14.06-6.76,14.84-6.57.47.12.86.4,1.09.81.54.93.67,2.07-1.33,4.31,1.02-.26,1.83-.32,2.44-.17.88.2,1.34.72,1.57,1.12,1,1.72,1.5,2.61-28.21,21.34,31.46-18.21,31.76-18.13,32.52-17.94.39.1.72.36.92.7.96,1.66-.8,3.33-5.1,6.47-2.77,2.02-6.68,4.64-11.92,8,17.48-10.9,21.85-13.17,23.42-12.78.46.11.83.39,1.06.79.2.35.25.76.15,1.14-.11.39-.36.71-.71.91-10.2,5.78-20.57,11.77-30.59,17.66-3.45,2.18-6.96,4.4-10.38,6.56-20.4,12.91-35.3,22.21-45.75,28.29-3.31,2.26-6.14,4.29-8.41,6.02,9.3-5.5,25.14-14.85,40.95-24.1,50-29.26,50.76-29.06,51.71-28.81.39.1.74.37.94.72.2.35.4.93.19,1.7-.12.44-.3,1.09-1.63,2.48,3.43-1.71,5.58-2.41,6.64-2.15.54.13.98.46,1.25.91.8,1.38-.33,2.13-2.79,3.76-1.49.99-3.7,2.39-6.74,4.29-.2.12-.39.25-.59.37,4.67-2.23,7.93-3.28,9.57-2.88.91.22,1.38.75,1.62,1.16,1.38,2.39-.03,3.9-48.79,32.76-20.43,12.09-47.51,28.12-54.88,34.07,4.07-1.43,14.21-6.33,39.4-21.57,20.54-12.43,43.16-26.94,54.04-33.91q7.53-4.83,8.2-4.66c.4.1.74.35.94.71.61,1.06,1.23,2.13-6.95,8.25,1.74-.61,2.97-.82,3.7-.64.59.15,1.07.49,1.35.98q.88,1.52-15.3,12.12c-7.96,5.22-19.1,12.43-33.11,21.43-13.49,8.68-27.11,17.38-36.43,23.33,18.87-10.12,54.26-32.56,69.99-42.54q13.96-8.85,14.76-8.66c.4.1.74.36.95.71,1.07,1.85-.63,4.49-7.22,9.38.23-.01.42,0,.58.04.51.13.93.44,1.18.87,1.05,1.82,2.24,3.88-42.14,31.67,12.76-7.86,25.98-16.23,36.69-23.15.35-.22.77-.29,1.17-.2.4.1.74.35.95.71.73,1.28-.28,2-1.96,3.2-1,.71-2.51,1.75-4.49,3.08-1.99,1.34-4.45,2.97-7.41,4.92,4.14-2.11,6.7-2.95,7.98-2.64.59.14,1.07.49,1.35.98.84,1.46.65,2.05-9.47,8.54,2.13-.9,3.64-1.24,4.61-1.01.63.15,1.15.52,1.46,1.05,1.18,2.04.29,2.93-26.82,19.35-7.76,4.7-17.53,10.61-25.44,15.71l53.21-30.72c.34-.2.75-.25,1.14-.15.38.1.71.36.91.7.74,1.28-.31,2.05-2.05,3.33-1.05.77-2.59,1.86-4.71,3.33-3.95,2.73-9.44,6.45-15.25,10.38-6.78,4.59-15.3,10.36-22.27,15.21,3.21-2.12,6.55-4.39,9.52-6.41,15.47-10.52,22.03-14.73,24.55-14.17.56.13,1.02.46,1.29.93.87,1.51.91,1.58-16.83,14.44,12.88-8.56,17.08-11,19-10.57.51.12.93.43,1.19.87q.71,1.23-8.25,8.53c-2.7,2.2-6.45,5.26-9.83,8.09,2.74-1.69,5.77-3.6,8.63-5.47.35-.23.77-.3,1.17-.2.4.1.74.35.95.71.56.98.35,1.21-1.7,3.41-1.67,1.79-3.11,3.36-4.31,4.7,9.08-5.41,9.41-5.32,10.05-5.16.39.1.73.36.93.71.41.72.17,1.63-.55,2.05-.15.09-.31.15-.48.18-1.33.6-8.72,4.95-15.23,8.89-.24.14-.5.22-.78.22ZM267.46,334.83c.18.3.42.5.68.61-.27-.12-.51-.33-.68-.61ZM230.53,319.56c-8.64,5.39-17.14,10.79-22.68,14.64,6.03-3.58,14.79-9.38,22.68-14.64ZM267.72,292.93c-9.81,5.44-25.68,15.66-37.74,23.45,4.45-2.77,9.5-5.9,15.25-9.44,7.92-4.88,16.45-10.13,22.49-14.01ZM267.09,299.91c-5.34,2.84-13.42,7.98-21.31,13.15.27-.17.55-.33.83-.5,7.37-4.47,15.38-9.31,20.49-12.65ZM217.91,277.47c-6.56,4.12-12.64,8.02-17.62,11.32,5.2-3.27,11.34-7.25,17.62-11.32ZM289.1,238.14c-2.9.97-9.05,3.81-22.06,11.62-12.9,7.74-28.78,18.07-42.78,27.17-6.11,3.97-11.25,7.3-15.59,10.09,8.42-5.18,19.74-11.95,34.84-20.89,18.45-10.92,39-23.08,45.59-27.99ZM279.71,267.48c-.69.44-1.4.89-2.11,1.34-7,4.44-13.64,8.63-19.89,12.55,8.35-5.02,16.23-9.92,22-13.89ZM213.39,260.81c-9.17,5.54-18.08,10.97-23.94,14.74,2.95-1.53,6.6-3.58,10.69-5.97,3.96-2.73,8.45-5.69,13.26-8.77ZM236.88,234.39c-3.84,2.55-7.63,5.09-11.17,7.47-7.03,4.72-13.21,8.84-18.61,12.37,1.74-1.08,3.58-2.21,5.51-3.4,20.25-12.48,49.49-30.51,58.08-37.06-2.2.9-5.41,2.62-9.23,4.88-3.42,2.39-7.77,5.26-13.28,8.73-3.6,2.27-7.4,4.62-11.32,6.99ZM191.36,198.36h0s0,0,0,0Z"/>
        <g class="cls-12">
          <path class="cls-10" d="M253.02,344.65c-.12,0-.25-.02-.37-.05-.39-.1-.72-.35-.92-.7-.53-.91-.8-1.39,3.42-6.23-9.1,5.57-10.07,5.34-10.6,5.21-.4-.1-.83-.41-1.03-.76-.84-1.45-1-1.74,15.84-15.52-2.7,1.76-5.51,3.63-8.01,5.3-14.83,9.89-19.43,12.7-21.47,12.22-.51-.12-.93-.43-1.19-.86q-.9-1.56,18.96-15.94c1.28-.92,2.6-1.88,3.93-2.85-2.29,1.54-4.58,3.1-6.68,4.52-15.66,10.65-22.8,15.25-25.47,14.65-.57-.13-1.04-.47-1.32-.95-.98-1.69-1.19-2.07,27.75-21.73l-38.06,21.97c-.72.42-1.63.17-2.05-.55-.67-1.16-.14-2.58,2.61-5.01-4.38,2.52-6.93,3.53-8.18,3.24-.54-.13-.99-.45-1.26-.91-.83-1.43-.51-2.77,10.08-9.89-10.93,6.83-14.95,8.85-16.52,8.47-.49-.12-.88-.41-1.12-.83-.73-1.26-.05-1.7,2.46-3.36,1.3-.85,3.19-2.09,5.53-3.61,2.39-1.55,5.25-3.4,8.45-5.47-9.32,4.84-10.72,4.51-11.49,4.32-.55-.13-1.01-.46-1.27-.92-.41-.71-.17-1.62.53-2.04,29.35-17.39,74.66-45.31,85.59-54.54-10.9,4.95-43.45,25.18-62.04,36.73-23.89,14.84-24,14.81-25.02,14.56-.39-.1-.75-.37-.95-.72-.81-1.41-.77-2.3,8.79-8.23-4.39,2.07-7.3,3.01-8.58,2.7-.59-.14-1.06-.49-1.34-.97-.4-.7-.18-1.58.49-2.02,29.62-18.87,71.29-45.58,88.29-56.88-4.72,2.41-11.08,6.03-18.14,10.23-5.71,3.67-12.48,7.95-20.49,12.93-10.59,6.59-21.28,13.12-30.19,18.52-21.52,13.57-21.78,13.51-22.83,13.26-.4-.1-.77-.37-.97-.73-.41-.71-.17-1.62.53-2.04,6.48-3.85,13.64-8.15,21.06-12.64,1.28-.81,2.58-1.63,3.9-2.46-15.54,8.89-24.13,12.78-26.66,12.16-.79-.19-1.21-.66-1.41-1.02-.93-1.61.4-3.64,11.35-10.81-7.07,4.31-9.87,5.6-11.06,5.3-.47-.11-.86-.4-1.09-.8-.63-1.09-1.14-1.98,6.18-7.31-3.94,1.98-6.43,2.81-7.63,2.52-.57-.14-1.03-.47-1.3-.95-.2-.35-.25-.76-.15-1.14.1-.39.36-.71.71-.91,32.45-18.45,81.58-47.67,96.55-59.46-16.41,9.06-61.65,35.62-93.22,54.34-.35.2-.76.26-1.14.16-.39-.1-.72-.35-.92-.7-.21-.37-.42-.98-.19-1.82.22-.81,1.08-1.92,2.47-3.28-2.33.95-3.89,1.3-4.78,1.08-.58-.14-1.04-.48-1.32-.96-.9-1.55.82-2.75,3.42-4.55,1.95-1.36,4.82-3.22,8.79-5.7,7.39-4.62,17.53-10.74,28.27-17.22,12.07-7.28,26.41-15.93,37.8-23.09-24.36,14.04-62.75,36.42-81.18,47.2-.35.2-.76.25-1.14.16-.39-.1-.72-.35-.91-.7-.77-1.34-1.01-1.74,12.25-10.07-5.19,2.85-8.47,4.08-10.14,3.69-.85-.2-1.3-.7-1.52-1.09q-.99-1.72,23.06-15.69c11.13-6.47,24.41-14.18,36.63-21.6,10.26-6.82,18.29-12.01,24.38-15.6,5.01-3.5,7.67-5.69,9.07-7.06-12.49,5.61-61.81,35.43-93.04,54.83-.7.43-1.62.22-2.06-.48-.44-.7-.23-1.62.47-2.06,3.11-1.97,6.35-4.04,9.68-6.16-8.04,4.11-10.97,4.8-12.23,4.48-.58-.14-1.06-.48-1.33-.96-.4-.69-.19-1.58.49-2.01,5.52-3.53,12.98-8.32,21.31-13.66-17.42,9.84-18.82,9.49-19.69,9.27-.47-.12-.86-.41-1.09-.81-.41-.7-.18-1.6.51-2.03,22.46-13.89,54.37-34.04,73.03-46.6-15.05,8.67-36.98,21.55-52.44,30.63-6.85,4.02-12.85,7.54-17.14,10.06-3.82,2.23-5.67,3.31-6.66,3.81-.16.1-.25.16-.26.16l-.02-.03c-.69.32-.86.28-1.15.2-.58-.15-1.01-.64-1.1-1.23-.09-.59.18-1.18.69-1.5,23.82-14.72,59-36.93,74.76-47.85-8.39,4.85-20.92,12.85-31.03,19.3-28.26,18.02-36.85,23.18-39.33,22.56-.49-.12-.9-.42-1.14-.84-.63-1.08-1.07-1.86,8.32-8.63-2.56,1.13-4.29,1.56-5.3,1.31-.6-.14-1.09-.5-1.38-1-.4-.7-.18-1.59.5-2.02,18.45-11.61,46.49-29.81,56.13-37.34-8.44,4.13-26.85,15.97-37.7,22.94-17.64,11.34-18.32,11.62-19.43,11.35-.4-.1-.78-.38-.98-.73-.79-1.37-1.49-2.59,15.84-14.51-2.14,1.36-4.33,2.77-6.56,4.21-.3.2-.71.46-1.34.31-.4-.1-.74-.35-.94-.71-1.07-1.85.47-3.44,12.64-12.77-.46-.1-.83-.38-1.06-.78-.41-.72-.17-1.63.55-2.05.29-.17.61-.23.92-.19.87-.41,3.08-1.97,4.59-3.03,4.87-3.42,6.26-4.25,7.45-3.98.48.11.87.39,1.11.81.86,1.5.2,2.4-8.01,8.74,2.27-1.42,4.63-2.87,6.98-4.31,23.12-14.15,24.91-13.72,25.97-13.47.5.12.9.42,1.15.84.4.7.18,1.59-.5,2.02-11.28,7.04-23.01,14.59-32.82,21.13,22.82-14.57,33.79-20.96,36.87-20.22.56.14,1.02.47,1.29.94.96,1.66,1.65,2.85-29.92,23.64-1.51,1-3.03,1.99-4.54,2.97,6.35-4.01,12.8-8.19,18.03-11.59,20.26-13.15,23.53-15.07,25.06-14.71.44.11.81.38,1.03.77.4.7.18,1.58-.49,2.02-19.58,12.48-48.18,31.1-62.32,41.12,7.59-4.48,18.37-11.36,27.74-17.33,29.74-18.96,39.43-24.75,42.17-24.08.51.12.93.43,1.18.87.74,1.27,1.26,2.17-16.13,13.78,24.37-14.14,24.84-14.03,25.62-13.82.39.1.73.36.93.71,1,1.73,1.72,2.98-44.27,32.38-3.34,2.13-6.69,4.27-9.97,6.35,18.2-10.76,39.89-24.02,56.33-34.26.35-.21.76-.28,1.16-.18.39.1.73.35.94.7.72,1.24-.33,1.97-1.44,2.75-.68.48-1.69,1.16-2.97,2.02-2.42,1.61-5.99,3.96-10.62,6.98-7.78,5.07-18.66,12.1-32.32,20.9-13.16,8.47-26.42,16.99-35.5,22.81,11.94-6.32,35.29-20.07,80.35-48.79q6.48-4.13,7.14-3.97c.4.1.74.35.94.71.37.64.58,1.01-.62,2.07h0s-.03.03-.05.04c-1.6,1.4-5.58,3.99-14.65,9.91,12.86-7.06,14.06-6.76,14.84-6.57.47.12.86.4,1.09.81.54.93.67,2.07-1.33,4.31,1.02-.26,1.83-.32,2.44-.17.88.2,1.34.72,1.57,1.12,1,1.72,1.5,2.61-28.21,21.34,31.46-18.21,31.76-18.13,32.52-17.94.39.1.72.36.92.7.96,1.66-.8,3.33-5.1,6.47-2.77,2.02-6.68,4.64-11.92,8,17.48-10.9,21.85-13.17,23.42-12.78.46.11.83.39,1.06.79.2.35.25.76.15,1.14-.11.39-.36.71-.71.91-10.2,5.78-20.57,11.77-30.59,17.66-3.45,2.18-6.96,4.4-10.38,6.56-20.4,12.91-35.3,22.21-45.75,28.29-3.31,2.26-6.14,4.29-8.41,6.02,9.3-5.5,25.14-14.85,40.95-24.1,50-29.26,50.76-29.06,51.71-28.81.39.1.74.37.94.72.2.35.4.93.19,1.7-.12.44-.3,1.09-1.63,2.48,3.43-1.71,5.58-2.41,6.64-2.15.54.13.98.46,1.25.91.8,1.38-.33,2.13-2.79,3.76-1.49.99-3.7,2.39-6.74,4.29-.2.12-.39.25-.59.37,4.67-2.23,7.93-3.28,9.57-2.88.91.22,1.38.75,1.62,1.16,1.38,2.39-.03,3.9-48.79,32.76-20.43,12.09-47.51,28.12-54.88,34.07,4.07-1.43,14.21-6.33,39.4-21.57,20.54-12.43,43.16-26.94,54.04-33.91q7.53-4.83,8.2-4.66c.4.1.74.35.94.71.61,1.06,1.23,2.13-6.95,8.25,1.74-.61,2.97-.82,3.7-.64.59.15,1.07.49,1.35.98q.88,1.52-15.3,12.12c-7.96,5.22-19.1,12.43-33.11,21.43-13.49,8.68-27.11,17.38-36.43,23.33,18.87-10.12,54.26-32.56,69.99-42.54q13.96-8.85,14.76-8.66c.4.1.74.36.95.71,1.07,1.85-.63,4.49-7.22,9.38.23-.01.42,0,.58.04.51.13.93.44,1.18.87,1.05,1.82,2.24,3.88-42.14,31.67,12.76-7.86,25.98-16.23,36.69-23.15.35-.22.77-.29,1.17-.2.4.1.74.35.95.71.73,1.28-.28,2-1.96,3.2-1,.71-2.51,1.75-4.49,3.08-1.99,1.34-4.45,2.97-7.41,4.92,4.14-2.11,6.7-2.95,7.98-2.64.59.14,1.07.49,1.35.98.84,1.46.65,2.05-9.47,8.54,2.13-.9,3.64-1.24,4.61-1.01.63.15,1.15.52,1.46,1.05,1.18,2.04.29,2.93-26.82,19.35-7.76,4.7-17.53,10.61-25.44,15.71l53.21-30.72c.34-.2.75-.25,1.14-.15.38.1.71.36.91.7.74,1.28-.31,2.05-2.05,3.33-1.05.77-2.59,1.86-4.71,3.33-3.95,2.73-9.44,6.45-15.25,10.38-6.78,4.59-15.3,10.36-22.27,15.21,3.21-2.12,6.55-4.39,9.52-6.41,15.47-10.52,22.03-14.73,24.55-14.17.56.13,1.02.46,1.29.93.87,1.51.91,1.58-16.83,14.44,12.88-8.56,17.08-11,19-10.57.51.12.93.43,1.19.87q.71,1.23-8.25,8.53c-2.7,2.2-6.45,5.26-9.83,8.09,2.74-1.69,5.77-3.6,8.63-5.47.35-.23.77-.3,1.17-.2.4.1.74.35.95.71.56.98.35,1.21-1.7,3.41-1.67,1.79-3.11,3.36-4.31,4.7,9.08-5.41,9.41-5.32,10.05-5.16.39.1.73.36.93.71.41.72.17,1.63-.55,2.05-.15.09-.31.15-.48.18-1.33.6-8.72,4.95-15.23,8.89-.24.14-.5.22-.78.22ZM267.46,334.83c.18.3.42.5.68.61-.27-.12-.51-.33-.68-.61ZM230.53,319.56c-8.64,5.39-17.14,10.79-22.68,14.64,6.03-3.58,14.79-9.38,22.68-14.64ZM267.72,292.93c-9.81,5.44-25.68,15.66-37.74,23.45,4.45-2.77,9.5-5.9,15.25-9.44,7.92-4.88,16.45-10.13,22.49-14.01ZM267.09,299.91c-5.34,2.84-13.42,7.98-21.31,13.15.27-.17.55-.33.83-.5,7.37-4.47,15.38-9.31,20.49-12.65ZM217.91,277.47c-6.56,4.12-12.64,8.02-17.62,11.32,5.2-3.27,11.34-7.25,17.62-11.32ZM289.1,238.14c-2.9.97-9.05,3.81-22.06,11.62-12.9,7.74-28.78,18.07-42.78,27.17-6.11,3.97-11.25,7.3-15.59,10.09,8.42-5.18,19.74-11.95,34.84-20.89,18.45-10.92,39-23.08,45.59-27.99ZM279.71,267.48c-.69.44-1.4.89-2.11,1.34-7,4.44-13.64,8.63-19.89,12.55,8.35-5.02,16.23-9.92,22-13.89ZM213.39,260.81c-9.17,5.54-18.08,10.97-23.94,14.74,2.95-1.53,6.6-3.58,10.69-5.97,3.96-2.73,8.45-5.69,13.26-8.77ZM236.88,234.39c-3.84,2.55-7.63,5.09-11.17,7.47-7.03,4.72-13.21,8.84-18.61,12.37,1.74-1.08,3.58-2.21,5.51-3.4,20.25-12.48,49.49-30.51,58.08-37.06-2.2.9-5.41,2.62-9.23,4.88-3.42,2.39-7.77,5.26-13.28,8.73-3.6,2.27-7.4,4.62-11.32,6.99ZM191.36,198.36h0s0,0,0,0Z"/>
        </g>
        <path class="cls-6" d="M231.78,184.38h0c-.12-.01-.23,0-.35,0-.11,0-.22,0-.32,0h0c-36.25.68-63.59,28.42-63.59,62.56,0,10.56,2.62,20.51,7.24,29.24,2.04,4.75,6.84,16.38,11.63,31.42,4.43,13.88,6.75,27.84,6.75,29.95,0,.2,0,.42-.01.64-.08,2.65,2.03,4.84,4.67,4.84h64.95c2.65,0,4.76-2.2,4.67-4.84,0-.22-.01-.44-.01-.64,0-2.11,2.32-16.07,6.75-29.95,4.8-15.04,9.6-26.67,11.63-31.42,4.62-8.73,7.24-18.68,7.24-29.24,0-34.12-27.31-61.85-61.27-62.54Z"/>
        <g>
          <path class="cls-7" d="M253.69,194.42c-1.79-.8-3.65-1.53-5.57-2.13"/>
          <path class="cls-7" d="M274.53,210.3s-5.1-8.1-16.31-13.61"/>
        </g>
        <path class="cls-7" d="M226.16,314.7v-32.12s2.47-15.64-5.67-15.64-7.51,8.13,1.88,16.89c9.38,8.76,23.77.63,25.65-6.26,1.88-6.88-3.13-10.01-6.26-4.38-3.13,5.63,0,69.45,0,69.45"/>
      </g>
      <g>
        <line class="cls-7" x1="208.76" y1="168.13" x2="212.23" y2="179.02"/>
        <g>
          <line class="cls-7" x1="293.54" y1="191.88" x2="282.16" y2="200.79"/>
          <line class="cls-7" x1="251.31" y1="160.18" x2="247.02" y2="179.02"/>
        </g>
        <g>
          <rect class="cls-8" x="194.41" y="347.74" width="71.77" height="3.97" rx="1.59" ry="1.59"/>
          <rect class="cls-8" x="194.41" y="356.68" width="71.77" height="3.97" rx="1.59" ry="1.59"/>
          <rect class="cls-8" x="194.41" y="365.62" width="71.77" height="3.97" rx="1.59" ry="1.59"/>
          <path class="cls-8" d="M232.39,374.35h-35.22l10.13,13.96c1.77,2.43,4.59,3.87,7.6,3.87h30.98c3.02,0,5.85-1.45,7.61-3.89l10.06-13.94h-31.17Z"/>
        </g>
      </g>
    </g>
  </g>
  <g id="Hand_3" data-name="Hand 3">
    <g>
      <g>
        <path class="cls-3" d="M308,224.81s-6.4,6.99-11.64,10.48c-5.24,3.49-8.89,8.11-4.08,10.48,2.89,1.42,6.99-.58,6.99-.58,0,0-6.4,1.75-7.57,7.57-1.16,5.82,11.64,3.49,11.64,3.49,0,0-9.31,6.4-6.4,8.73,2.91,2.33,8.73.58,11.64.58s17.46-9.31,20.96-9.31,10.48,7.57,10.48,13.39,9.31,5.24,10.48-12.81c1.16-18.05-3.49-33.18-11.06-37.84-7.57-4.66-31.44,5.82-31.44,5.82Z"/>
        <path class="cls-5" d="M304.51,244.6l23.24-8.68s10.2-2.22,17.52,9.85"/>
        <path class="cls-5" d="M308.59,251.59l20.96-3.49s9.31-.58,15.14,10.48"/>
      </g>
      <path class="cls-3" d="M334.2,265.56l-15.72,3.49,9.31,37.26s8.15,16.3,10.48,23.29c2.33,6.99,26.2,30.27,26.2,30.27l27.94-26.78s-12.81-15.14-13.39-18.63c-.58-3.49-2.91-44.24-2.91-50.07s-11.64-19.79-11.64-19.79c0,0-4.78-6.85-7.11-18.49-2.33-11.64-13.02-16.43-18.84-15.85-5.82.58-21.79,2.32-28.19,6.98-6.4,4.66-12.23,10.48-6.4,12.23,9.67,2.9,25.49-9.99,33.12-1.08,3.49,4.08,7.62,22.04,8.21,24.37,0,0-2.91,11.06-11.06,12.81-8.15,1.75,0,0,0,0"/>
      <g>
        <path class="cls-1" d="M275.58,211.45c.36-.38.96-.46,1.4-.15l2.38,1.66c.49.34.61,1.01.27,1.5-.34.49-1.01.61-1.5.27l-2.38-1.66c-.49-.34-.61-1.01-.27-1.5.03-.04.06-.08.1-.12Z"/>
        <path class="cls-4" d="M278.32,213.37c.82-.88,2.19-1.04,3.21-.34l7.46,3.85,73.24,48.18c2.63,1.83,3.27,5.43,1.45,8.06-1.82,2.63-5.43,3.27-8.06,1.45l-71.08-52.44-5.82-5.05c-1.12-.78-1.39-2.31-.62-3.43.07-.1.15-.19.23-.28Z"/>
        <path class="cls-1" d="M362.22,265.06l-21.13-13.9c-3.36,1.1-5.77,4.03-5.77,7.49,0,.34.03.68.08,1.01l20.22,14.92c2.62,1.83,6.23,1.18,8.06-1.45,1.83-2.63,1.18-6.23-1.45-8.06Z"/>
      </g>
      <g>
        <path class="cls-3" d="M338.28,329.6c-6.4-9.31-14.55-33.18-18.05-37.84-3.49-4.66-12.86-14.96-16.35-25.44-3.49-10.48-5.77-18.81-5.77-27.54s7.5-10.24,13.32-.93c5.82,9.31,12.87,23.63,12.87,23.63,0,0,4.66,5.82,13.97,4.08"/>
        <path class="cls-3" d="M305.41,235.14l1.95,3.89s-.44,0-3.55,1.77c-3.1,1.77-4.53,4.39-4.53,4.39,0,0-3-8.38-.34-11.04.8-.8,1.64-1.16,2.42-1.27,1.68-.24,3.3.74,4.06,2.25Z"/>
      </g>
      <path class="cls-3" d="M386.35,321.19s-15.42,4.57-23.41,12.56-14.85,17.13-14.85,17.13l14.28,16.56s11.99-13.7,19.99-19.99c7.99-6.28,17.13-11.42,17.13-11.42l-13.13-14.85Z"/>
      <path class="cls-1" d="M400.62,441.67l-45.11-72.52s11.42-17.13,21.13-25.7,22.27-10.85,22.27-10.85l56.4,54.13"/>
      <g>
        <path class="cls-5" d="M313.72,256.32c.3-.04.62-.08.94-.11"/>
        <path class="cls-5" d="M305,261.16s.53-3.19,6.94-4.53"/>
        <path class="cls-5" d="M311.97,258.91s-.45,1.35-4.94,3.15"/>
        <path class="cls-5" d="M311.78,254.64s-3.9.58-6.23,2.53"/>
      </g>
    </g>
  </g>
  <g id="Hand_2" data-name="Hand 2">
    <g>
      <g>
        <path class="cls-3" d="M171.07,155.18s9.45.77,15.42,2.76c5.97,1.99,11.86,2.04,10.77-3.22-.65-3.15-4.75-5.16-4.75-5.16,0,0,5.31,3.98,10.62,1.33,5.31-2.65-4.39-11.34-4.39-11.34,0,0,10.77,3.42,10.82-.31.05-3.73-4.9-7.25-6.69-9.55-1.79-2.3-18.07-8.07-20.22-10.83s-.46-12.92,4.14-16.49c4.6-3.57-1.58-10.57-16.54-.41-14.96,10.16-24.05,23.13-23.08,31.96.97,8.83,23.89,21.24,23.89,21.24Z"/>
        <path class="cls-5" d="M188.84,145.78l-21.12-13.01s-8.01-6.69-2.98-19.87"/>
        <path class="cls-5" d="M191.85,138.28l-15.62-14.4s-6.18-7-1.02-18.38"/>
      </g>
      <path class="cls-3" d="M187.16,109.48l12.41,10.26,23.69-30.22s15.3-6.88,19.33-13.04c4.03-6.16,7.47-39.33,7.47-39.33l-38.34-5.28s-3.91,19.44-6.29,22.06c-2.38,2.62-40.32,19.6-44.92,23.17-4.6,3.57-8.48,21.34-8.48,21.34,0,0-2.76,10.32-8.02,20.97-8.75,17.72-7.19,16.36-3.16,20.6,4.03,4.24,13.84,12.87,21.45,15.06,7.61,2.2,17.07,10.06,14.95.45-2.18-9.85-23.53-13.99-21.19-25.48,1.07-5.26,12.72-19.55,14.2-21.44,0,0,10.52-4.49,16.9.87,6.38,5.36,0,0,0,0"/>
      <g>
        <path class="cls-1" d="M180.43,188.98c-.52-.05-.95-.48-.98-1.02l-.15-2.9c-.03-.6.42-1.1,1.02-1.14.59-.03,1.1.42,1.14,1.02l.15,2.9c.03.6-.42,1.1-1.02,1.14-.05,0-.11,0-.16,0Z"/>
        <path class="cls-4" d="M180.26,185.63c-1.2-.11-2.17-1.09-2.23-2.32l-1.54-8.25-6.93-87.39c-.17-3.19,2.28-5.92,5.47-6.09,3.2-.17,5.92,2.28,6.09,5.47l2.24,88.3-.41,7.69c.07,1.36-.97,2.52-2.33,2.6-.12,0-.24,0-.36,0Z"/>
        <path class="cls-1" d="M169.56,87.67l2,25.22c2.93,1.98,6.72,2.08,9.45-.04.27-.21.52-.44.75-.68l-.64-25.12c-.17-3.19-2.89-5.65-6.09-5.47-3.19.17-5.64,2.9-5.47,6.09Z"/>
      </g>
      <g>
        <path class="cls-3" d="M242.59,76.48c-3.33,10.8-17.76,25.67-20.31,30.9-7.88,16.18-13.43,25-19.56,34.19-2.49,3.73-5.18,4.26-6.82,5.6-2.4,1.96-3.63,4.05-7.73,7.24-6.89,5.36-12.69.36-8.91-9.95,3.78-10.31,10.75-24.67,10.75-24.67,0,0,1.74-7.25-5.36-13.53"/>
        <path class="cls-3" d="M180.82,150.89l1.88-3.92s.27.35,3.58,1.71c3.31,1.36,6.25.89,6.25.89,0,0-4.77,7.51-8.5,7.05-1.12-.14-1.92-.58-2.49-1.13-1.22-1.18-1.44-3.06-.71-4.59Z"/>
      </g>
      <g>
        <path class="cls-1" d="M208.47.5l-7.95,51.63s9.59,8.43,22.33,10.72c12.74,2.29,35.97,5.71,35.97,5.71L279.19.5"/>
        <path class="cls-9" d="M254.75,57c0,2.17-1.76,3.93-3.93,3.93s-3.93-1.76-3.93-3.93,1.76-3.93,3.93-3.93,3.93,1.76,3.93,3.93Z"/>
      </g>
      <g>
        <path class="cls-5" d="M189.52,138.14c-.22-.22-.44-.44-.67-.68"/>
        <path class="cls-5" d="M198.68,142.05s-2.84,1.54-7.84-2.7"/>
        <path class="cls-5" d="M192.64,137.93s1.34-.47,5.52,1.97"/>
        <path class="cls-5" d="M189.38,140.71s2.85,2.72,5.83,3.37"/>
      </g>
    </g>
  </g>
  <g id="Hand_1" data-name="Hand 1">
    <g>
      <g>
        <path class="cls-3" d="M192.25,309s.91,9.43,2.99,15.38c2.08,5.94,2.22,11.83-3.06,10.82-3.16-.61-5.23-4.67-5.23-4.67,0,0,4.06,5.25,1.49,10.6-2.58,5.35-11.4-4.22-11.4-4.22,0,0,3.58,10.72-.14,10.83-3.73.11-7.32-4.79-9.65-6.55-2.32-1.75-8.34-17.95-11.13-20.06-2.79-2.1-12.92-.27-16.43,4.38s-10.59-1.42-.66-16.54c9.94-15.11,22.77-24.39,31.61-23.55,8.85.84,21.6,23.58,21.6,23.58Z"/>
        <path class="cls-5" d="M183.12,326.91l-13.32-20.92s-6.81-7.91-19.91-2.68"/>
        <path class="cls-5" d="M175.66,330.03l-14.63-15.41s-7.09-6.07-18.39-.75"/>
      </g>
      <path class="cls-3" d="M146.8,325.76l10.45,12.25-29.87,24.14s-16.32,8.11-22.39,12.28c-6.07,4.18-39.14,8.4-39.14,8.4l-6.19-38.21s19.34-4.37,21.91-6.81,28.96-33.57,32.47-38.22c3.51-4.65,21.21-8.79,21.21-8.79,0,0,7.94-2.59,16.81-10.49s20.29-5.28,24.59-1.31c4.3,3.97,16,14.97,18.31,22.55,2.31,7.57,3.45,15.73-2.25,13.62-9.46-3.51-14.34-23.32-25.8-20.81-5.24,1.15-19.36,13.01-21.22,14.52,0,0-4.34,10.58,1.12,16.89,5.46,6.3,0,0,0,0"/>
      <g>
        <path class="cls-1" d="M226.19,317.86c-.06-.52-.49-.94-1.03-.96l-2.9-.11c-.6-.02-1.1.44-1.12,1.04-.02.6.44,1.1,1.04,1.12l2.9.11c.6.02,1.1-.44,1.12-1.04,0-.05,0-.11,0-.16Z"/>
        <path class="cls-4" d="M222.84,317.74c-.13-1.2-1.12-2.15-2.36-2.2l-8.27-1.42-87.48-5.63c-3.2-.12-5.89,2.37-6.01,5.56-.13,3.2,2.37,5.89,5.56,6.01l88.32.93,7.68-.53c1.36.05,2.51-1.01,2.56-2.37,0-.12,0-.24-.01-.36Z"/>
        <path class="cls-1" d="M124.73,308.49l25.24,1.62c2.02,2.9,2.18,6.69.1,9.45-.21.27-.43.52-.67.76l-25.12-.26c-3.19-.12-5.69-2.81-5.56-6.01.12-3.2,2.81-5.69,6.01-5.56Z"/>
      </g>
      <g>
        <path class="cls-3" d="M104.99,374.44c10.72-3.58,31.6-17.73,37.19-19.35s19.27-4.2,28.37-10.46c9.1-6.26,15.93-11.54,21.19-18.51,5.26-6.97.18-12.7-10.08-8.76-10.26,3.93-24.51,11.12-24.51,11.12,0,0-7.22,1.84-13.61-5.16"/>
        <path class="cls-3" d="M188.11,318.81l-3.9,1.94s.35.27,1.76,3.55c1.41,3.28.98,6.23.98,6.23,0,0,7.44-4.88,6.92-8.61-.16-1.12-.61-1.91-1.17-2.47-1.2-1.2-3.08-1.4-4.6-.64Z"/>
      </g>
      <path class="cls-3" d="M79.49,336.4s9.56,12.93,11.13,24.13c1.57,11.2,1.54,22.62,1.54,22.62l-29.18,7.01s-1.32-18.16-3.92-27.99c-2.6-9.83-6.8-19.43-6.8-19.43l27.24-6.33Z"/>
      <g>
        <path class="cls-1" d="M80.82,358.96c-2.59-12.68-11.25-22.07-11.25-22.07L.5,347.88v78.03l81.72-33.72s1.2-20.55-1.4-33.24Z"/>
        <path class="cls-10" d="M62.33,392.86c0,1.69-1.37,3.06-3.06,3.06s-3.06-1.37-3.06-3.06,1.37-3.06,3.06-3.06,3.06,1.37,3.06,3.06Z"/>
        <path class="cls-10" d="M70.9,389.18c0,1.69-1.37,3.06-3.06,3.06s-3.06-1.37-3.06-3.06,1.37-3.06,3.06-3.06,3.06,1.37,3.06,3.06Z"/>
      </g>
      <g>
        <path class="cls-5" d="M168.72,330.72c-.22-.22-.45-.43-.69-.66"/>
        <path class="cls-5" d="M172.77,339.83s1.49-2.86-2.81-7.8"/>
        <path class="cls-5" d="M168.56,333.84s-.45,1.35,2.05,5.49"/>
        <path class="cls-5" d="M171.28,330.54s2.76,2.81,3.45,5.77"/>
      </g>
    </g>
  </g>
</svg>