<?xml version="1.0" encoding="UTF-8"?>
<svg xmlns="http://www.w3.org/2000/svg" viewBox="0 0 714.43 1366.08">
  <defs>
    <style>
      .cls-1 {
        fill: #39a862;
      }

      .cls-2 {
        fill: #6b6b6b;
        opacity: .36;
      }

      .cls-3, .cls-4, .cls-5, .cls-6, .cls-7, .cls-8, .cls-9, .cls-10, .cls-11 {
        opacity: .63;
      }

      .cls-3, .cls-4, .cls-6, .cls-7, .cls-8, .cls-10, .cls-11, .cls-12 {
        mix-blend-mode: multiply;
      }

      .cls-3, .cls-13 {
        fill: #063856;
      }

      .cls-4, .cls-14, .cls-5 {
        fill: #0b426b;
      }

      .cls-15 {
        fill: #343840;
      }

      .cls-16 {
        fill: #11141c;
      }

      .cls-17 {
        fill: #142b5a;
      }

      .cls-18 {
        fill: #40b56f;
      }

      .cls-5, .cls-9 {
        mix-blend-mode: screen;
      }

      .cls-19, .cls-7, .cls-12 {
        fill: #d9e4ff;
      }

      .cls-20 {
        isolation: isolate;
      }

      .cls-21, .cls-8 {
        fill: #f7a890;
      }

      .cls-22, .cls-10 {
        fill: #02314d;
      }

      .cls-6, .cls-9, .cls-23 {
        fill: #063a62;
      }

      .cls-24 {
        fill: #cfdfff;
      }

      .cls-25 {
        fill: #0c1e3e;
      }

      .cls-26 {
        fill: #e2ecff;
      }

      .cls-11, .cls-27 {
        fill: #cf4c4c;
      }
    </style>
  </defs>
  <g class="cls-20">
    <g id="Layer_2" data-name="Layer 2">
      <g id="Layer_1-2" data-name="Layer 1">
        <ellipse class="cls-2" cx="104.11" cy="1357.79" rx="49.85" ry="8.29"/>
        <ellipse class="cls-2" cx="633.72" cy="1357.79" rx="49.85" ry="8.29"/>
        <ellipse class="cls-2" cx="356.43" cy="1357.79" rx="133.71" ry="8.29"/>
        <g>
          <polygon class="cls-25" points="384.75 32.57 384.31 97.91 420.11 79.97 405.92 30.33 384.75 32.57"/>
          <polygon class="cls-21" points="348.92 147.92 345.51 146.52 342.83 144.28 339.63 143.06 336.48 143.52 337.65 145.59 339.08 145.77 339.42 146.33 337.93 146.55 335.3 146.53 334.21 144.48 329.72 136.72 328.48 137.13 330.76 144.2 333.7 150.28 336.87 155.46 341.08 158.51 346.47 158.74 348.92 158.92 348.92 147.92"/>
          <polygon class="cls-14" points="399.25 98.07 385.12 152.71 348.92 147.92 348.95 161.37 388.26 169.05 399.25 98.07"/>
          <g>
            <path class="cls-17" d="M341.46,155.74h0l-16.54-29h0c-.48.12-.72.66-.54.98l15.95,27.98c.12.29.6.65,1.12.04Z"/>
            <path class="cls-19" d="M341.46,155.74l.64-1.06c.28-.46.32-1.14.09-1.53l-14.67-25.72c-.22-.39-.83-.71-1.37-.7h-1.24s16.54,29.01,16.54,29.01Z"/>
          </g>
          <polygon class="cls-21" points="435.37 202.83 438.91 229.87 444.29 450.76 434.91 451.08 420.57 356.29 419.35 337.96 403.27 282.22 393.55 337.81 394.76 353.68 383.03 451.75 372.75 451.75 369.7 202.07 435.37 202.83"/>
          <polygon class="cls-13" points="436.29 202.83 439.82 229.87 443.27 330.9 367.57 327.06 366.41 229.7 370.61 202.07 436.29 202.83"/>
          <polygon class="cls-16" points="362 454.99 355.7 459.43 355.7 462.26 369.97 462.26 380.06 455.53 381.35 462.26 383.26 462.26 383.03 451.75 376.66 452.92 366.92 456.5 362 454.99"/>
          <polygon class="cls-16" points="434.35 451.1 433.83 455.44 433.34 462.26 435.29 462.26 435.67 461.28 436.42 462.26 446.67 462.26 447.7 459.82 447.2 456.12 444.29 450.76 434.35 451.1"/>
          <polygon class="cls-21" points="444.29 450.76 446.44 456.88 444.29 458.63 439.67 458.63 436.42 456.88 434.91 452.2 434.91 451.08 444.29 450.76"/>
          <polygon class="cls-21" points="372.77 451.51 362 454.99 366.92 456.5 376.66 452.92 383.03 451.75 372.77 451.51"/>
          <polygon class="cls-14" points="424.53 75.63 447 90.26 433.3 189.24 441.53 217.27 444.07 243.09 386.17 241.7 378.21 202.2 370.61 202.07 366.51 229.06 366.65 241.56 363.56 241.56 367.68 201.63 372.49 138.12 370.61 111.85 378.07 91.55 381.68 88.36 395.98 80.83 424.53 75.63"/>
          <polygon class="cls-21" points="381.19 34.92 382.81 46.02 380.67 59.61 383.57 59.16 392.45 73.06 398.16 71.69 395.94 82.05 391.69 101.1 402.56 87.87 417.56 78.84 426.85 73.26 425.34 66.93 418.86 29.2 391.5 24.24 381.19 34.92"/>
          <polygon class="cls-5" points="424.53 75.63 419.53 81.47 400.72 95.91 388.34 110.52 380.81 129.08 379.4 113.6 389.62 95.59 395.94 82.05 395.98 80.83 392.26 82.79 385.46 93.26 386.83 96.06 384.31 97.91 376.01 112.2 379.87 135.03 395.74 113.15 410.45 103.64 406.31 97.91 418.3 97.91 424.53 85.8 427.57 77.24 424.53 75.63"/>
          <polygon class="cls-19" points="424.53 75.63 414.57 79.89 401.39 84.22 398.48 86.8 391.69 101.1 395.94 82.05 389.62 95.59 379.4 113.6 380.81 129.08 388.34 110.52 393.49 104.44 400.72 95.91 419.53 81.47 424.53 75.63"/>
          <polygon class="cls-7" points="398.48 86.8 401.39 84.22 404 91.55 400.99 85.93 399.33 86.71 398.48 86.8"/>
          <polygon class="cls-19" points="374.41 189.25 370.61 202.07 378.21 202.2 374.41 189.25"/>
          <polygon class="cls-8" points="398.16 71.69 411.32 65.09 397.61 74.27 398.16 71.69"/>
          <polygon class="cls-14" points="447 90.26 460.84 164.87 431.52 205.51 425.24 199.2 447 90.26"/>
          <polygon class="cls-21" points="432.32 203.98 428.15 207.41 422.68 197.35 427.5 193.49 421.8 196.65 420.74 193.49 426.53 188 431.16 188 434.01 200.82 432.32 203.98"/>
          <polygon class="cls-4" points="426.8 124.95 438.25 163.54 422.99 190.49 433.79 164.29 426.8 124.95"/>
          <path class="cls-25" d="M403.76,39.5c8.71,17.8-1.77,52.58-8.1,65.83-2.91,6.09,38.67-4.56,40.06-6.48,7.91-3.6,1.39-37.65-.05-45.14-5.47-28.38-11.16-35.98-21.61-41.13-8.19-3.84-21.62-4.84-32.89,4.76-9.59,8.17-3.49,16.21-1.56,17.79,2.13,1.75,6.67,3.07,11.34,3.86.31.05-7.07-3.06-8.48-6.57-.11-.27,4.89,4.62,10.3,6.85,4.26,1.76,8.95.75,11.01.23Z"/>
        </g>
        <path class="cls-24" d="M303.6,1011.55c11.34-34.09,25.07-62.85,41.17-86.26,16.07-23.4,37.13-50.31,63.16-80.71,18.92-22.59,33.82-41.17,44.7-55.76,10.88-14.57,19.86-30.8,26.96-48.66,7.09-17.86,10.65-37.08,10.65-57.61v-.62c0-35.72-10.54-63.45-31.59-83.17-21.05-19.72-50.49-29.58-88.33-29.58s-68.03,12.22-89.06,36.66c-21.05,24.44-31.82,59.05-32.28,103.82v.62H102.08v-.62c1.88-54.22,13.71-100.53,35.47-138.92,21.77-38.4,52.28-67.66,91.54-87.79,39.26-20.13,85.87-30.2,139.8-30.2s104.54,9.05,144.76,27.11c40.2,18.06,70.83,44.25,91.89,78.54,21.05,34.31,31.59,75.69,31.59,124.15v.62c0,29.16-4.38,55.46-13.13,78.86-8.77,23.4-19.4,43.74-31.94,60.98-12.54,17.26-29.69,38.21-51.45,62.85-23.65,26.29-42.82,49.6-57.47,69.93-14.67,20.33-26.98,44.77-36.9,73.32-9.94,28.55-14.9,61.5-14.9,98.88h-144.76c0-43.54,5.67-82.35,17.02-116.44ZM286.59,1232.1h144.76v125.69h-144.76v-125.69Z"/>
        <g>
          <polyline class="cls-14" points="240.06 69.6 188.29 64.53 142.06 42.37 138.22 56 178.1 83.56 234.25 102.6"/>
          <polygon class="cls-13" points="303.63 200.82 317.01 448.95 297.61 449.62 272.09 325.45 257.65 450.21 236.4 449.86 232.69 200 303.63 200.82"/>
          <polygon class="cls-3" points="272.09 325.45 262.24 284.34 270.32 340.89 272.09 325.45"/>
          <polygon class="cls-16" points="257.65 450.21 257.92 462.26 251.06 462.26 250.56 460.8 243.57 462.26 213.57 462.26 214.74 457.95 240.63 449.93 257.65 450.21"/>
          <polygon class="cls-16" points="316.47 449 322.96 458.96 322.88 462.26 300.3 462.26 300.3 460.03 302.47 449.48 316.47 449"/>
          <polygon class="cls-14" points="287.33 62.6 309.69 71.19 317.92 98.82 307.26 196.81 313.17 239.74 254.74 239.82 243.55 200.46 232.69 200.34 233.28 239.82 230.7 239.82 229.76 199.44 234.25 102.6 240.06 69.6 257.76 67.99 287.33 62.6"/>
          <polygon class="cls-4" points="188.29 64.53 221 98.11 234.25 102.6 246.92 75.33 257.76 67.99 240.06 69.6 188.29 64.53"/>
          <polygon class="cls-5" points="257.76 67.99 257.15 71.36 252.18 84.87 246.92 135.04 246.92 88.07 250.07 85.32 247.83 81.71 254.53 71.19 255.95 68.56 257.76 67.99"/>
          <polygon class="cls-5" points="287.33 62.6 282.33 68.44 263.52 82.88 246.92 135.04 273.25 90.61 269.12 84.88 281.1 84.88 287.33 72.77 290.37 64.22 287.33 62.6"/>
          <polygon class="cls-21" points="247.32 18.4 247.41 29.62 243.45 42.79 246.38 42.74 251.78 56.8 259.13 57.14 257.15 71.36 258.47 74.05 261.28 73.77 277.37 66.86 287.33 62.6 286.7 56.12 285.42 17.86 258.99 9.22 247.32 18.4"/>
          <path class="cls-25" d="M263.51,22.74c1.04,1.59,4.07,4.67,5.85,5.06,2.22.5,3.11,13.07,4.46,5,.79-2.72,3.26-3.33,5.1-2.59,1.85.74,2.64,3.11,2.08,5.02-.56,1.91-3.28,5.78-5.98,6.36-.34.07,2.48,4.75,4.26,8.93,1.28,3.02,5.63,5.07,7.42,5.6.69-8.34,2.16-13.19,5-20.27,10.88-27.08-4.81-28.94-7.75-27.54-2.65-4.23-8.13-7.46-12.98-6.28-7.38,1.79-14.11-1.45-19.08-2-7.56-.83-17.14,14.54-4.71,21.39,8.8,4.85,15.12-.54,16.33,1.32Z"/>
          <g>
            <rect class="cls-15" x="92.53" y="19.85" width="60.73" height="20.96" transform="translate(245.79 60.66) rotate(180)"/>
            <rect class="cls-15" x="153.26" y="22.83" width="40.96" height="15.01" transform="translate(347.48 60.66) rotate(180)"/>
            <rect class="cls-15" x="194.22" y="25.16" width="33.57" height="10.34" transform="translate(422.01 60.66) rotate(180)"/>
            <rect class="cls-15" x="227.79" y="27.54" width="24.55" height="5.59" transform="translate(480.13 60.66) rotate(180)"/>
            <ellipse class="cls-15" cx="92.53" cy="30.33" rx="2.7" ry="10.48"/>
          </g>
          <polygon class="cls-19" points="287.33 62.6 277.37 66.86 264.2 71.19 261.28 73.77 258.47 74.05 257.15 71.36 252.18 84.87 246.92 135.04 263.52 82.88 282.33 68.44 287.33 62.6"/>
          <polygon class="cls-19" points="237.36 185.14 232.69 200.34 243.55 200.46 237.36 185.14"/>
          <g>
            <polygon class="cls-27" points="258.47 74.05 252.99 76.99 253.36 83.26 249.75 108.02 246.92 135.04 252.39 117.85 258.54 83.28 262.13 73.68 258.47 74.05"/>
            <polygon class="cls-11" points="253.36 83.26 257.13 82.78 258.54 83.28 257.03 83.14 253.36 83.26"/>
            <polygon class="cls-11" points="262.13 73.68 257.67 75.8 252.99 76.99 258.47 74.05 262.13 73.68"/>
          </g>
          <polygon class="cls-12" points="261.28 73.77 264.2 71.19 266.8 78.52 263.79 72.9 262.13 73.68 261.28 73.77"/>
          <polygon class="cls-8" points="259.13 57.14 273.06 52.39 258.82 59.33 259.13 57.14"/>
          <polygon class="cls-4" points="238.92 93.83 301.38 103.24 317.92 98.82 315.34 122.55 302.1 114.97 238.92 93.83"/>
          <polygon class="cls-21" points="221.88 34.43 221.86 31.75 221.88 27.31 220.66 23.08 219.06 21.75 217.25 22.34 216.82 23.45 216.01 22.97 214.95 21.37 210.76 20.82 202.75 22.57 201.92 24.13 203.3 30.01 210.27 37.68 211.72 39.54 221.88 34.43"/>
          <polygon class="cls-14" points="299.6 73.68 250.1 74.05 221.88 34.43 210 40.4 238.92 93.83 301.38 103.24 310.06 84.88 299.6 73.68"/>
          <polygon class="cls-21" points="142.06 42.37 141.18 40.81 137.26 40.81 134.07 38.4 132.65 35.75 130.98 30.33 122.13 31.02 121.14 33.8 123.43 40.77 127.23 44.79 132.63 49.3 139.01 53.19 142.06 42.37"/>
        </g>
        <g>
          <polygon class="cls-22" points="363.03 200.87 371.8 448.95 352.4 449.62 326.88 325.45 312.44 450.21 291.19 449.86 287.48 200 363.03 200.87"/>
          <polygon class="cls-23" points="348 62.6 375.89 77.46 380.28 90.1 377.9 110.53 363.66 190.76 368.1 241.25 309.66 239.97 298.34 200.13 288.31 200 288.58 239.82 284.37 239.82 284.55 199.11 287.48 137.2 304.53 73.68 318.42 67.99 348 62.6"/>
          <polygon class="cls-6" points="287.04 145.91 305.15 160.21 286.84 149.89 287.04 145.91"/>
          <polygon class="cls-9" points="348 62.6 342.99 68.44 324.18 82.88 310.18 107.16 313.08 82.56 317.82 71.36 318.42 67.99 316.32 68.85 307.78 82.01 310.18 84.88 307.78 84.88 307.06 118.62 333.91 90.61 329.78 84.88 341.76 84.88 348 72.77 351.03 64.22 348 62.6"/>
          <polygon class="cls-6" points="298.44 136.74 307.93 137.4 309.44 143.37 309.44 135.26 310.18 134.86 314.13 137.34 311.36 133.24 348 101.02 309.54 132.68 305.15 126.92 312.14 75.29 314.8 71.19 308.93 72.08 296.01 135.77 295.76 139.26 298.44 136.74"/>
          <polygon class="cls-23" points="299.04 72.34 277.28 129.7 279.95 138.1 288.02 141.55 295.76 139.26 309.54 78.28 299.04 72.34"/>
          <polygon class="cls-21" points="307.99 18.4 308.08 29.62 304.11 42.79 307.04 42.74 312.44 56.8 319.79 57.14 317.82 71.36 319.14 74.05 321.94 73.77 338.04 66.86 348 62.6 347.36 56.12 349.04 33.37 346.09 17.86 319.65 9.22 307.99 18.4"/>
          <path class="cls-25" d="M330.02,27.81c.91,2.09,3.11,13.07,4.46,5,.79-2.72,3.26-3.33,5.1-2.59,1.85.74,2.64,3.11,2.08,5.02-.56,1.91-3.28,5.78-5.98,6.36-.34.07,2.48,4.75,4.26,8.93,1.28,3.02,5.63,5.07,7.42,5.6.69-8.34,3.1-12.89,5-20.27,6.88-26.63-4.81-28.94-7.75-27.54-2.65-4.23-6.57-7.17-12.98-6.28-5.32.73-17.67-.89-22.51.33-8.11,2.05-4.12,19.26-1.28,19.06,12.33-.88,19.65.59,22.18,6.38Z"/>
          <polygon class="cls-19" points="348 62.6 338.04 66.86 324.86 71.19 321.94 73.77 319.14 74.05 317.82 71.36 313.08 82.56 310.18 107.16 324.18 82.88 342.99 68.44 348 62.6"/>
          <polygon class="cls-19" points="293.32 184.81 288.31 200 298.34 200.13 293.32 184.81"/>
          <polygon class="cls-21" points="293.38 146.73 295.76 139.26 293.03 141.44 287.28 141.23 287.04 145.91 288.91 149.3 292.95 151.17 293.38 146.73"/>
          <polygon class="cls-6" points="365.88 129.03 320.55 164.82 312.35 162.39 319.42 160.42 365.88 129.03"/>
          <polygon class="cls-10" points="326.88 325.45 317.03 284.34 325.11 340.89 326.88 325.45"/>
          <polygon class="cls-16" points="312.44 450.21 312.71 462.26 305.85 462.26 305.36 460.8 298.36 462.26 268.36 462.26 269.53 457.95 295.42 449.93 312.44 450.21"/>
          <polygon class="cls-16" points="371.26 449 377.76 458.96 377.67 462.26 355.09 462.26 355.09 460.03 357.27 449.48 371.26 449"/>
          <g>
            <polygon class="cls-27" points="319.14 74.05 313.65 76.99 314.02 83.26 310.18 107.16 316.98 95.36 319.2 83.28 322.8 73.68 319.14 74.05"/>
            <polygon class="cls-11" points="314.02 83.26 317.79 82.78 319.2 83.28 317.69 83.14 314.02 83.26"/>
            <polygon class="cls-11" points="322.8 73.68 318.34 75.8 313.65 76.99 319.14 74.05 322.8 73.68"/>
          </g>
          <polygon class="cls-7" points="321.94 73.77 324.86 71.19 327.47 78.52 324.45 72.9 322.8 73.68 321.94 73.77"/>
          <polygon class="cls-8" points="319.79 57.14 333.72 52.39 319.47 59.49 319.79 57.14"/>
          <polygon class="cls-21" points="299.04 72.34 302.63 63.18 307.82 55.76 310.88 48.92 313.83 50.92 312.88 56.85 320.89 57.23 321.32 64.58 316.85 70.35 310.99 74.25 309.54 78.28 299.04 72.34"/>
          <polygon class="cls-8" points="310.18 50.91 312.44 56.8 320.89 57.23 321.32 64.58 316.85 70.35 319.97 64 318.47 59.11 312.23 59.95 309.54 54.74 309.54 51.91 310.18 50.91"/>
        </g>
        <path class="cls-26" d="M231.07,1011.55c10.33-34.09,22.83-62.85,37.49-86.26,14.64-23.4,33.81-50.31,57.52-80.71,17.23-22.59,30.8-41.17,40.71-55.76,9.91-14.57,18.09-30.8,24.55-48.66,6.46-17.86,9.7-37.08,9.7-57.61v-.62c0-35.72-9.6-63.45-28.77-83.17-19.17-19.72-45.98-29.58-80.44-29.58s-61.95,12.22-81.11,36.66c-19.17,24.44-28.98,59.05-29.4,103.82v.62H47.55v-.62c1.72-54.22,12.48-100.53,32.31-138.92,19.82-38.4,47.61-67.66,83.37-87.79,35.76-20.13,78.2-30.2,127.32-30.2s95.2,9.05,131.83,27.11c36.61,18.06,64.51,44.25,83.68,78.54,19.17,34.31,28.77,75.69,28.77,124.15v.62c0,29.16-3.99,55.46-11.96,78.86-7.98,23.4-17.67,43.74-29.08,60.98-11.42,17.26-27.04,38.21-46.86,62.85-21.54,26.29-39,49.6-52.34,69.93-13.36,20.33-24.57,44.77-33.6,73.32-9.05,28.55-13.57,61.5-13.57,98.88h-131.83c0-43.54,5.17-82.35,15.5-116.44ZM215.57,1232.1h131.83v125.69h-131.83v-125.69Z"/>
        <g>
          <path class="cls-1" d="M83.37,1288.29c7.65-20.39,19.44-36.2,25.43-58.21,9.66-35.48,2.53-82.41-12.4-121.99,4.07,29.69-1.3,57.53-9.23,81.38-7.93,23.85-18.44,45.06-25.51,69.74-7.07,24.67-10.51,54.25-3.75,83.65,1.73,7.54,5.6,13.63,9.97,9.42,3.08-2.96,2.9-8.6,3.64-13.93,2.44-17.58,6.25-35.12,11.85-50.06Z"/>
          <path class="cls-18" d="M17.69,1295.49c-9.59-24.12-11.94-48.72-12.87-72.85-.92-24.13-.5-48.19-4.82-72.57,20.08,25.54,21.6,55.31,31.14,83.38,7.3,21.47,19.48,42.29,28.85,63.51,5.35,12.14,9.79,24.53,11.75,36.89.97,6.11,2.06,13.05.85,18.87-1.4,6.76-2.94,6.31-10.13,1.36-21.82-15.02-36.53-37.85-44.77-58.58Z"/>
        </g>
        <g>
          <path class="cls-1" d="M620.98,1235.87c8.57-17.31,18.65-29.81,27.01-47.76,10.05-21.6,17.42-50.97,21.27-84.76,2.61,35.85,5.15,73.93-.04,103.5-3.65,20.83-10.8,35.04-18.47,46.01-7.67,10.98-16.04,19.31-23.36,31.52-7.45,12.43-13.74,28.81-18.49,48.17-1.81,7.36-5.47,30.61-10.53,22.8-5.71-8.81-2.25-30.57-.92-38.76,5.2-32,13.19-59.84,23.53-80.72Z"/>
          <path class="cls-18" d="M557.39,1236.02c-22.53-28.63-47.25-55.87-58.92-106.33-2.47,36.08,5.15,68.71,16.18,91.54,11.04,22.82,25.28,37.6,38.93,53.56,13.64,15.96,27.14,33.93,35.77,61.27,2.52,8,9.95,26.91,13.91,20.39,5-8.26-2.39-36.76-5.19-45.93-9.89-32.33-25.24-54.89-40.67-74.49Z"/>
        </g>
        <g>
          <path class="cls-1" d="M143.51,1277.47c2.24-25.04-1.37-49.52,3.11-74.6,7.21-40.42,34.9-76.66,66.37-99.52-17.12,23.31-24.79,53.11-28.33,81.53-3.54,28.41-3.54,56.67-8.24,85.09-4.69,28.42-14.92,58.11-34.35,78.84-4.98,5.31-11.25,7.48-13.34-.1-1.47-5.34,1.24-10.27,2.97-15.74,5.71-18,10.16-37.14,11.8-55.49Z"/>
          <path class="cls-18" d="M105.92,1293.84c-11.51-19.82-27.9-34.78-37.45-56.33-15.4-34.73-10.43-82.04,5.1-122.56-2.59,29.9,6.68,57.31,18.86,80.55,12.18,23.25,27.41,43.69,38.56,67.82,11.16,24.13,18.12,53.4,12.09,83.2-1.55,7.64-5.93,13.98-11.85,10.09-4.18-2.74-4.44-8.38-5.85-13.65-4.64-17.37-11.03-34.6-19.46-49.12Z"/>
        </g>
        <g>
          <path class="cls-1" d="M665.15,1227.16c5.61-17.28,14.22-30.19,19.4-48.05,6.24-21.49,7.34-50.03,3.18-82.34,12.27,33.55,25.03,69.22,26.54,97.7,1.07,20.07-3.66,34.26-9.84,45.46-6.17,11.2-13.85,19.99-19.3,32.32-5.54,12.55-8.71,28.7-9.31,47.5-.23,7.15,1.44,29.5-6.5,22.68-8.96-7.69-10.49-28.61-11.03-36.49-2.12-30.78.1-57.94,6.86-78.78Z"/>
          <path class="cls-18" d="M643.59,1242.26c-24.55-27.16-53.19-53-51.34-100.88-18.71,34.23-19.79,65.19-11.36,86.84,8.43,21.65,25.31,35.68,40.74,50.82,15.43,15.14,29.81,32.19,32.51,58.13.79,7.59,5.01,25.53,14.04,19.34,11.42-7.84,11.18-34.87,10.41-43.58-2.71-30.67-18.18-52.08-34.99-70.68Z"/>
        </g>
      </g>
    </g>
  </g>
</svg>