<?xml version="1.0" encoding="UTF-8"?>
<svg xmlns="http://www.w3.org/2000/svg" xmlns:xlink="http://www.w3.org/1999/xlink" viewBox="0 0 437.88 608.24">
  <defs>
    <style>
      .cls-1 {
        fill: url(#_Áåçûìÿííûé_ãðàäèåíò_19-66);
      }

      .cls-2 {
        fill: url(#_Áåçûìÿííûé_ãðàäèåíò_19-8);
      }

      .cls-3 {
        fill: url(#_Áåçûìÿííûé_ãðàäèåíò_19-69);
      }

      .cls-4 {
        fill: url(#_Áåçûìÿííûé_ãðàäèåíò_19-43);
      }

      .cls-5 {
        fill: url(#_Áåçûìÿííûé_ãðàäèåíò_19-15);
      }

      .cls-6 {
        fill: url(#_Áåçûìÿííûé_ãðàäèåíò_19-36);
      }

      .cls-7 {
        fill: url(#_Áåçûìÿííûé_ãðàäèåíò_19-16);
      }

      .cls-8 {
        fill: url(#_Áåçûìÿííûé_ãðàäèåíò_19-2);
      }

      .cls-9 {
        fill: url(#_Áåçûìÿííûé_ãðàäèåíò_19-48);
      }

      .cls-10 {
        fill: url(#_Áåçûìÿííûé_ãðàäèåíò_19-31);
      }

      .cls-11 {
        fill: url(#_Áåçûìÿííûé_ãðàäèåíò_19-67);
      }

      .cls-12 {
        fill: url(#_Áåçûìÿííûé_ãðàäèåíò_19-44);
      }

      .cls-13 {
        fill: url(#_Áåçûìÿííûé_ãðàäèåíò_19-11);
      }

      .cls-14 {
        fill: url(#_Áåçûìÿííûé_ãðàäèåíò_19-7);
      }

      .cls-15 {
        fill: url(#_Áåçûìÿííûé_ãðàäèåíò_19-28);
      }

      .cls-16 {
        fill: url(#_Áåçûìÿííûé_ãðàäèåíò_19-55);
      }

      .cls-17 {
        fill: url(#_Áåçûìÿííûé_ãðàäèåíò_19-63);
      }

      .cls-18 {
        opacity: .3;
      }

      .cls-18, .cls-19, .cls-20, .cls-21, .cls-22, .cls-23 {
        fill: #ea580c;
      }

      .cls-18, .cls-20, .cls-21, .cls-22 {
        mix-blend-mode: screen;
      }

      .cls-24 {
        fill: url(#_Áåçûìÿííûé_ãðàäèåíò_19-26);
      }

      .cls-25 {
        fill: url(#_Áåçûìÿííûé_ãðàäèåíò_19-20);
      }

      .cls-26 {
        fill: url(#_Áåçûìÿííûé_ãðàäèåíò_19-41);
      }

      .cls-27 {
        fill: url(#_Áåçûìÿííûé_ãðàäèåíò_19-58);
      }

      .cls-28 {
        fill: url(#_Áåçûìÿííûé_ãðàäèåíò_19-12);
      }

      .cls-29 {
        fill: url(#_Áåçûìÿííûé_ãðàäèåíò_19-5);
      }

      .cls-30 {
        fill: url(#_Áåçûìÿííûé_ãðàäèåíò_19-64);
      }

      .cls-31 {
        fill: url(#_Áåçûìÿííûé_ãðàäèåíò_19-6);
      }

      .cls-32 {
        fill: url(#_Áåçûìÿííûé_ãðàäèåíò_19-21);
      }

      .cls-33 {
        fill: url(#_Áåçûìÿííûé_ãðàäèåíò_19-13);
      }

      .cls-34 {
        fill: url(#_Áåçûìÿííûé_ãðàäèåíò_19-38);
      }

      .cls-35 {
        fill: url(#_Áåçûìÿííûé_ãðàäèåíò_19-45);
      }

      .cls-36 {
        fill: url(#_Áåçûìÿííûé_ãðàäèåíò_19-49);
      }

      .cls-37 {
        isolation: isolate;
      }

      .cls-38 {
        fill: url(#_Áåçûìÿííûé_ãðàäèåíò_19-62);
      }

      .cls-39 {
        fill: url(#_Áåçûìÿííûé_ãðàäèåíò_19-18);
      }

      .cls-40 {
        fill: url(#_Áåçûìÿííûé_ãðàäèåíò_19);
      }

      .cls-41 {
        fill: url(#_Áåçûìÿííûé_ãðàäèåíò_19-57);
      }

      .cls-42 {
        fill: url(#_Áåçûìÿííûé_ãðàäèåíò_19-19);
      }

      .cls-43 {
        fill: url(#_Áåçûìÿííûé_ãðàäèåíò_19-65);
      }

      .cls-44 {
        fill: url(#_Áåçûìÿííûé_ãðàäèåíò_19-37);
      }

      .cls-45 {
        fill: url(#_Áåçûìÿííûé_ãðàäèåíò_19-9);
      }

      .cls-46 {
        fill: url(#_Áåçûìÿííûé_ãðàäèåíò_19-61);
      }

      .cls-47 {
        fill: url(#_Áåçûìÿííûé_ãðàäèåíò_19-29);
      }

      .cls-48 {
        fill: url(#_Áåçûìÿííûé_ãðàäèåíò_19-68);
      }

      .cls-49 {
        fill: url(#_Áåçûìÿííûé_ãðàäèåíò_19-53);
      }

      .cls-50 {
        fill: url(#_Áåçûìÿííûé_ãðàäèåíò_19-56);
      }

      .cls-51 {
        fill: url(#_Áåçûìÿííûé_ãðàäèåíò_19-25);
      }

      .cls-20 {
        opacity: .4;
      }

      .cls-52 {
        fill: url(#_Áåçûìÿííûé_ãðàäèåíò_19-71);
      }

      .cls-53 {
        fill: url(#_Áåçûìÿííûé_ãðàäèåíò_19-50);
      }

      .cls-21, .cls-23 {
        opacity: .2;
      }

      .cls-54 {
        fill: url(#_Áåçûìÿííûé_ãðàäèåíò_19-24);
      }

      .cls-55 {
        fill: url(#_Áåçûìÿííûé_ãðàäèåíò_19-40);
      }

      .cls-56 {
        fill: url(#_Áåçûìÿííûé_ãðàäèåíò_19-30);
      }

      .cls-57 {
        fill: url(#_Áåçûìÿííûé_ãðàäèåíò_19-23);
      }

      .cls-58 {
        fill: url(#_Áåçûìÿííûé_ãðàäèåíò_19-17);
      }

      .cls-59 {
        fill: url(#_Áåçûìÿííûé_ãðàäèåíò_19-52);
      }

      .cls-22 {
        opacity: .1;
      }

      .cls-60 {
        fill: url(#_Áåçûìÿííûé_ãðàäèåíò_19-39);
      }

      .cls-61 {
        fill: url(#_Áåçûìÿííûé_ãðàäèåíò_19-54);
      }

      .cls-62 {
        fill: url(#_Áåçûìÿííûé_ãðàäèåíò_19-3);
      }

      .cls-63 {
        fill: url(#_Áåçûìÿííûé_ãðàäèåíò_19-22);
      }

      .cls-64 {
        fill: url(#_Áåçûìÿííûé_ãðàäèåíò_19-42);
      }

      .cls-65 {
        fill: url(#_Áåçûìÿííûé_ãðàäèåíò_19-34);
      }

      .cls-66 {
        fill: url(#_Áåçûìÿííûé_ãðàäèåíò_19-4);
      }

      .cls-67 {
        fill: url(#_Áåçûìÿííûé_ãðàäèåíò_19-59);
      }

      .cls-68 {
        fill: url(#_Áåçûìÿííûé_ãðàäèåíò_19-47);
      }

      .cls-69 {
        fill: url(#_Áåçûìÿííûé_ãðàäèåíò_19-32);
      }

      .cls-70 {
        fill: url(#_Áåçûìÿííûé_ãðàäèåíò_19-27);
      }

      .cls-71 {
        fill: url(#_Áåçûìÿííûé_ãðàäèåíò_19-33);
      }

      .cls-23 {
        mix-blend-mode: multiply;
      }

      .cls-72 {
        fill: url(#_Áåçûìÿííûé_ãðàäèåíò_19-10);
      }

      .cls-73 {
        fill: url(#_Áåçûìÿííûé_ãðàäèåíò_19-46);
      }

      .cls-74 {
        fill: url(#_Áåçûìÿííûé_ãðàäèåíò_19-35);
      }

      .cls-75 {
        fill: url(#_Áåçûìÿííûé_ãðàäèåíò_19-70);
      }

      .cls-76 {
        fill: url(#_Áåçûìÿííûé_ãðàäèåíò_19-60);
      }

      .cls-77 {
        fill: url(#_Áåçûìÿííûé_ãðàäèåíò_19-14);
      }

      .cls-78 {
        fill: url(#_Áåçûìÿííûé_ãðàäèåíò_19-51);
      }

      .cls-79 {
        fill: url(#_Áåçûìÿííûé_ãðàäèåíò_19-72);
      }
    </style>
    <linearGradient id="_Áåçûìÿííûé_ãðàäèåíò_19" data-name="Áåçûìÿííûé ãðàäèåíò 19" x1="282.18" y1="97.73" x2="282.18" y2="358.79" gradientUnits="userSpaceOnUse">
      <stop offset="0" stop-color="#e8e8e8"/>
      <stop offset=".44" stop-color="#b8b7b7"/>
      <stop offset="1" stop-color="#999696"/>
    </linearGradient>
    <linearGradient id="_Áåçûìÿííûé_ãðàäèåíò_19-2" data-name="Áåçûìÿííûé ãðàäèåíò 19" x1="291.88" y1="83.35" x2="291.88" y2="384.52" xlink:href="#_Áåçûìÿííûé_ãðàäèåíò_19"/>
    <linearGradient id="_Áåçûìÿííûé_ãðàäèåíò_19-3" data-name="Áåçûìÿííûé ãðàäèåíò 19" x1="194.52" y1="89.01" x2="194.52" y2="347.06" xlink:href="#_Áåçûìÿííûé_ãðàäèåíò_19"/>
    <linearGradient id="_Áåçûìÿííûé_ãðàäèåíò_19-4" data-name="Áåçûìÿííûé ãðàäèåíò 19" x1="162.9" y1="97.26" x2="162.9" y2="359.28" xlink:href="#_Áåçûìÿííûé_ãðàäèåíò_19"/>
    <linearGradient id="_Áåçûìÿííûé_ãðàäèåíò_19-5" data-name="Áåçûìÿííûé ãðàäèåíò 19" x1="140.47" y1="96.45" x2="140.47" y2="356.57" xlink:href="#_Áåçûìÿííûé_ãðàäèåíò_19"/>
    <linearGradient id="_Áåçûìÿííûé_ãðàäèåíò_19-6" data-name="Áåçûìÿííûé ãðàäèåíò 19" x1="180.06" y1="96.88" x2="180.06" y2="328.01" xlink:href="#_Áåçûìÿííûé_ãðàäèåíò_19"/>
    <linearGradient id="_Áåçûìÿííûé_ãðàäèåíò_19-7" data-name="Áåçûìÿííûé ãðàäèåíò 19" x1="175.33" y1="109.83" x2="175.33" y2="279.72" xlink:href="#_Áåçûìÿííûé_ãðàäèåíò_19"/>
    <linearGradient id="_Áåçûìÿííûé_ãðàäèåíò_19-8" data-name="Áåçûìÿííûé ãðàäèåíò 19" x1="165.97" y1="39.04" x2="165.97" y2="729.64" xlink:href="#_Áåçûìÿííûé_ãðàäèåíò_19"/>
    <linearGradient id="_Áåçûìÿííûé_ãðàäèåíò_19-9" data-name="Áåçûìÿííûé ãðàäèåíò 19" x1="163.84" y1="-2.32" x2="163.84" y2="870.24" xlink:href="#_Áåçûìÿííûé_ãðàäèåíò_19"/>
    <linearGradient id="_Áåçûìÿííûé_ãðàäèåíò_19-10" data-name="Áåçûìÿííûé ãðàäèåíò 19" x1="161.27" y1="57.27" x2="161.27" y2="631.43" xlink:href="#_Áåçûìÿííûé_ãðàäèåíò_19"/>
    <linearGradient id="_Áåçûìÿííûé_ãðàäèåíò_19-11" data-name="Áåçûìÿííûé ãðàäèåíò 19" x1="132.69" y1="93.52" x2="132.69" y2="361.46" xlink:href="#_Áåçûìÿííûé_ãðàäèåíò_19"/>
    <linearGradient id="_Áåçûìÿííûé_ãðàäèåíò_19-12" data-name="Áåçûìÿííûé ãðàäèåíò 19" x1="154.54" y1="194.46" x2="154.54" y2="289.94" xlink:href="#_Áåçûìÿííûé_ãðàäèåíò_19"/>
    <linearGradient id="_Áåçûìÿííûé_ãðàäèåíò_19-13" data-name="Áåçûìÿííûé ãðàäèåíò 19" x1="172.92" y1="150.08" x2="172.92" y2="345.86" xlink:href="#_Áåçûìÿííûé_ãðàäèåíò_19"/>
    <linearGradient id="_Áåçûìÿííûé_ãðàäèåíò_19-14" data-name="Áåçûìÿííûé ãðàäèåíò 19" x1="173.12" y1="168.36" x2="173.12" y2="341.08" xlink:href="#_Áåçûìÿííûé_ãðàäèåíò_19"/>
    <linearGradient id="_Áåçûìÿííûé_ãðàäèåíò_19-15" data-name="Áåçûìÿííûé ãðàäèåíò 19" x1="181.26" y1="130.85" x2="181.26" y2="353.18" xlink:href="#_Áåçûìÿííûé_ãðàäèåíò_19"/>
    <linearGradient id="_Áåçûìÿííûé_ãðàäèåíò_19-16" data-name="Áåçûìÿííûé ãðàäèåíò 19" x1="179.09" y1="138.07" x2="179.09" y2="351.45" xlink:href="#_Áåçûìÿííûé_ãðàäèåíò_19"/>
    <linearGradient id="_Áåçûìÿííûé_ãðàäèåíò_19-17" data-name="Áåçûìÿííûé ãðàäèåíò 19" x1="187.51" y1="97.14" x2="187.51" y2="366.51" xlink:href="#_Áåçûìÿííûé_ãðàäèåíò_19"/>
    <linearGradient id="_Áåçûìÿííûé_ãðàäèåíò_19-18" data-name="Áåçûìÿííûé ãðàäèåíò 19" x1="138.26" y1="98.94" x2="138.26" y2="437.11" xlink:href="#_Áåçûìÿííûé_ãðàäèåíò_19"/>
    <linearGradient id="_Áåçûìÿííûé_ãðàäèåíò_19-19" data-name="Áåçûìÿííûé ãðàäèåíò 19" x1="140.62" y1="113.58" x2="140.62" y2="338.45" xlink:href="#_Áåçûìÿííûé_ãðàäèåíò_19"/>
    <linearGradient id="_Áåçûìÿííûé_ãðàäèåíò_19-20" data-name="Áåçûìÿííûé ãðàäèåíò 19" x1="140.1" y1="75.81" x2="140.1" y2="548.77" xlink:href="#_Áåçûìÿííûé_ãðàäèåíò_19"/>
    <linearGradient id="_Áåçûìÿííûé_ãðàäèåíò_19-21" data-name="Áåçûìÿííûé ãðàäèåíò 19" x1="154.05" y1="87.49" x2="154.05" y2="367.76" xlink:href="#_Áåçûìÿííûé_ãðàäèåíò_19"/>
    <linearGradient id="_Áåçûìÿííûé_ãðàäèåíò_19-22" data-name="Áåçûìÿííûé ãðàäèåíò 19" x1="310.31" y1="108.09" x2="310.31" y2="344.37" xlink:href="#_Áåçûìÿííûé_ãðàäèåíò_19"/>
    <linearGradient id="_Áåçûìÿííûé_ãðàäèåíò_19-23" data-name="Áåçûìÿííûé ãðàäèåíò 19" x1="246.92" y1="88.4" x2="246.92" y2="354.32" xlink:href="#_Áåçûìÿííûé_ãðàäèåíò_19"/>
    <linearGradient id="_Áåçûìÿííûé_ãðàäèåíò_19-24" data-name="Áåçûìÿííûé ãðàäèåíò 19" x1="149.02" y1="91.89" x2="149.02" y2="475.51" xlink:href="#_Áåçûìÿííûé_ãðàäèåíò_19"/>
    <linearGradient id="_Áåçûìÿííûé_ãðàäèåíò_19-25" data-name="Áåçûìÿííûé ãðàäèåíò 19" x1="163.78" y1="83.54" x2="163.78" y2="372.59" xlink:href="#_Áåçûìÿííûé_ãðàäèåíò_19"/>
    <linearGradient id="_Áåçûìÿííûé_ãðàäèåíò_19-26" data-name="Áåçûìÿííûé ãðàäèåíò 19" x1="303.5" y1="125.95" x2="303.5" y2="304.73" xlink:href="#_Áåçûìÿííûé_ãðàäèåíò_19"/>
    <linearGradient id="_Áåçûìÿííûé_ãðàäèåíò_19-27" data-name="Áåçûìÿííûé ãðàäèåíò 19" x1="141.95" y1="97.54" x2="141.95" y2="507.98" xlink:href="#_Áåçûìÿííûé_ãðàäèåíò_19"/>
    <linearGradient id="_Áåçûìÿííûé_ãðàäèåíò_19-28" data-name="Áåçûìÿííûé ãðàäèåíò 19" x1="154.42" y1="107.24" x2="154.42" y2="352.67" xlink:href="#_Áåçûìÿííûé_ãðàäèåíò_19"/>
    <linearGradient id="_Áåçûìÿííûé_ãðàäèåíò_19-29" data-name="Áåçûìÿííûé ãðàäèåíò 19" x1="292.02" y1="83.6" x2="292.02" y2="657.91" xlink:href="#_Áåçûìÿííûé_ãðàäèåíò_19"/>
    <linearGradient id="_Áåçûìÿííûé_ãðàäèåíò_19-30" data-name="Áåçûìÿííûé ãðàäèåíò 19" x1="297.03" y1="109.41" x2="297.03" y2="461.33" xlink:href="#_Áåçûìÿííûé_ãðàäèåíò_19"/>
    <linearGradient id="_Áåçûìÿííûé_ãðàäèåíò_19-31" data-name="Áåçûìÿííûé ãðàäèåíò 19" x1="188.86" y1="105.09" x2="188.86" y2="361.53" xlink:href="#_Áåçûìÿííûé_ãðàäèåíò_19"/>
    <linearGradient id="_Áåçûìÿííûé_ãðàäèåíò_19-32" data-name="Áåçûìÿííûé ãðàäèåíò 19" x1="155.99" y1="92.76" x2="155.99" y2="359.49" xlink:href="#_Áåçûìÿííûé_ãðàäèåíò_19"/>
    <linearGradient id="_Áåçûìÿííûé_ãðàäèåíò_19-33" data-name="Áåçûìÿííûé ãðàäèåíò 19" x1="148.14" y1="105.42" x2="148.14" y2="362.95" xlink:href="#_Áåçûìÿííûé_ãðàäèåíò_19"/>
    <linearGradient id="_Áåçûìÿííûé_ãðàäèåíò_19-34" data-name="Áåçûìÿííûé ãðàäèåíò 19" x1="300.95" y1="108.52" x2="300.95" y2="372.69" xlink:href="#_Áåçûìÿííûé_ãðàäèåíò_19"/>
    <linearGradient id="_Áåçûìÿííûé_ãðàäèåíò_19-35" data-name="Áåçûìÿííûé ãðàäèåíò 19" x1="159.14" y1="86.46" x2="159.14" y2="397.95" xlink:href="#_Áåçûìÿííûé_ãðàäèåíò_19"/>
    <linearGradient id="_Áåçûìÿííûé_ãðàäèåíò_19-36" data-name="Áåçûìÿííûé ãðàäèåíò 19" x1="156.36" y1="85.41" x2="156.36" y2="370.5" xlink:href="#_Áåçûìÿííûé_ãðàäèåíò_19"/>
    <linearGradient id="_Áåçûìÿííûé_ãðàäèåíò_19-37" data-name="Áåçûìÿííûé ãðàäèåíò 19" x1="177.67" y1="103.18" x2="177.67" y2="319.84" xlink:href="#_Áåçûìÿííûé_ãðàäèåíò_19"/>
    <linearGradient id="_Áåçûìÿííûé_ãðàäèåíò_19-38" data-name="Áåçûìÿííûé ãðàäèåíò 19" x1="212.15" y1="111.74" x2="212.15" y2="364.25" xlink:href="#_Áåçûìÿííûé_ãðàäèåíò_19"/>
    <linearGradient id="_Áåçûìÿííûé_ãðàäèåíò_19-39" data-name="Áåçûìÿííûé ãðàäèåíò 19" x1="267.97" y1="88.25" x2="267.97" y2="437.36" xlink:href="#_Áåçûìÿííûé_ãðàäèåíò_19"/>
    <linearGradient id="_Áåçûìÿííûé_ãðàäèåíò_19-40" data-name="Áåçûìÿííûé ãðàäèåíò 19" x1="158.61" y1="95.39" x2="158.61" y2="420.85" xlink:href="#_Áåçûìÿííûé_ãðàäèåíò_19"/>
    <linearGradient id="_Áåçûìÿííûé_ãðàäèåíò_19-41" data-name="Áåçûìÿííûé ãðàäèåíò 19" x1="146.41" y1="121.66" x2="146.41" y2="280.55" xlink:href="#_Áåçûìÿííûé_ãðàäèåíò_19"/>
    <linearGradient id="_Áåçûìÿííûé_ãðàäèåíò_19-42" data-name="Áåçûìÿííûé ãðàäèåíò 19" x1="170.07" y1="79.62" x2="170.07" y2="377.29" xlink:href="#_Áåçûìÿííûé_ãðàäèåíò_19"/>
    <linearGradient id="_Áåçûìÿííûé_ãðàäèåíò_19-43" data-name="Áåçûìÿííûé ãðàäèåíò 19" x1="247.52" y1="91.47" x2="247.52" y2="343.88" xlink:href="#_Áåçûìÿííûé_ãðàäèåíò_19"/>
    <linearGradient id="_Áåçûìÿííûé_ãðàäèåíò_19-44" data-name="Áåçûìÿííûé ãðàäèåíò 19" x1="253.29" y1="89.63" x2="253.29" y2="352.81" xlink:href="#_Áåçûìÿííûé_ãðàäèåíò_19"/>
    <linearGradient id="_Áåçûìÿííûé_ãðàäèåíò_19-45" data-name="Áåçûìÿííûé ãðàäèåíò 19" x1="140.15" y1="81.52" x2="140.15" y2="598.66" xlink:href="#_Áåçûìÿííûé_ãðàäèåíò_19"/>
    <linearGradient id="_Áåçûìÿííûé_ãðàäèåíò_19-46" data-name="Áåçûìÿííûé ãðàäèåíò 19" x1="152.56" y1="102.83" x2="152.56" y2="416.11" xlink:href="#_Áåçûìÿííûé_ãðàäèåíò_19"/>
    <linearGradient id="_Áåçûìÿííûé_ãðàäèåíò_19-47" data-name="Áåçûìÿííûé ãðàäèåíò 19" x1="162.21" y1="96.82" x2="162.21" y2="350.05" xlink:href="#_Áåçûìÿííûé_ãðàäèåíò_19"/>
    <linearGradient id="_Áåçûìÿííûé_ãðàäèåíò_19-48" data-name="Áåçûìÿííûé ãðàäèåíò 19" x1="241.31" y1="78.93" x2="241.31" y2="376.43" xlink:href="#_Áåçûìÿííûé_ãðàäèåíò_19"/>
    <linearGradient id="_Áåçûìÿííûé_ãðàäèåíò_19-49" data-name="Áåçûìÿííûé ãðàäèåíò 19" x1="145.57" y1="102.62" x2="145.57" y2="412.5" xlink:href="#_Áåçûìÿííûé_ãðàäèåíò_19"/>
    <linearGradient id="_Áåçûìÿííûé_ãðàäèåíò_19-50" data-name="Áåçûìÿííûé ãðàäèåíò 19" x1="163.26" y1="84.25" x2="163.26" y2="371.51" xlink:href="#_Áåçûìÿííûé_ãðàäèåíò_19"/>
    <linearGradient id="_Áåçûìÿííûé_ãðàäèåíò_19-51" data-name="Áåçûìÿííûé ãðàäèåíò 19" x1="139.5" y1="106.21" x2="139.5" y2="452.62" xlink:href="#_Áåçûìÿííûé_ãðàäèåíò_19"/>
    <linearGradient id="_Áåçûìÿííûé_ãðàäèåíò_19-52" data-name="Áåçûìÿííûé ãðàäèåíò 19" x1="178.14" y1="93.54" x2="178.14" y2="344.43" xlink:href="#_Áåçûìÿííûé_ãðàäèåíò_19"/>
    <linearGradient id="_Áåçûìÿííûé_ãðàäèåíò_19-53" data-name="Áåçûìÿííûé ãðàäèåíò 19" x1="324.75" y1="107.88" x2="324.75" y2="344.81" xlink:href="#_Áåçûìÿííûé_ãðàäèåíò_19"/>
    <linearGradient id="_Áåçûìÿííûé_ãðàäèåíò_19-54" data-name="Áåçûìÿííûé ãðàäèåíò 19" x1="160.55" y1="84.03" x2="160.55" y2="372.03" xlink:href="#_Áåçûìÿííûé_ãðàäèåíò_19"/>
    <linearGradient id="_Áåçûìÿííûé_ãðàäèåíò_19-55" data-name="Áåçûìÿííûé ãðàäèåíò 19" x1="225.25" y1="88.16" x2="225.25" y2="357.93" xlink:href="#_Áåçûìÿííûé_ãðàäèåíò_19"/>
    <linearGradient id="_Áåçûìÿííûé_ãðàäèåíò_19-56" data-name="Áåçûìÿííûé ãðàäèåíò 19" x1="232.25" y1="91.54" x2="232.25" y2="327.51" xlink:href="#_Áåçûìÿííûé_ãðàäèåíò_19"/>
    <linearGradient id="_Áåçûìÿííûé_ãðàäèåíò_19-57" data-name="Áåçûìÿííûé ãðàäèåíò 19" x1="174.35" y1="90.22" x2="174.35" y2="360.53" xlink:href="#_Áåçûìÿííûé_ãðàäèåíò_19"/>
    <linearGradient id="_Áåçûìÿííûé_ãðàäèåíò_19-58" data-name="Áåçûìÿííûé ãðàäèåíò 19" x1="232.37" y1="86.71" x2="232.37" y2="355.15" xlink:href="#_Áåçûìÿííûé_ãðàäèåíò_19"/>
    <linearGradient id="_Áåçûìÿííûé_ãðàäèåíò_19-59" data-name="Áåçûìÿííûé ãðàäèåíò 19" x1="150.9" y1="106.5" x2="150.9" y2="355.99" xlink:href="#_Áåçûìÿííûé_ãðàäèåíò_19"/>
    <linearGradient id="_Áåçûìÿííûé_ãðàäèåíò_19-60" data-name="Áåçûìÿííûé ãðàäèåíò 19" x1="149.36" y1="100.73" x2="149.36" y2="439.63" xlink:href="#_Áåçûìÿííûé_ãðàäèåíò_19"/>
    <linearGradient id="_Áåçûìÿííûé_ãðàäèåíò_19-61" data-name="Áåçûìÿííûé ãðàäèåíò 19" x1="266.9" y1="101.33" x2="266.9" y2="318.88" xlink:href="#_Áåçûìÿííûé_ãðàäèåíò_19"/>
    <linearGradient id="_Áåçûìÿííûé_ãðàäèåíò_19-62" data-name="Áåçûìÿííûé ãðàäèåíò 19" x1="283.71" y1="108.52" x2="283.71" y2="319.85" xlink:href="#_Áåçûìÿííûé_ãðàäèåíò_19"/>
    <linearGradient id="_Áåçûìÿííûé_ãðàäèåíò_19-63" data-name="Áåçûìÿííûé ãðàäèåíò 19" x1="312.65" y1="100.94" x2="312.65" y2="360.65" xlink:href="#_Áåçûìÿííûé_ãðàäèåíò_19"/>
    <linearGradient id="_Áåçûìÿííûé_ãðàäèåíò_19-64" data-name="Áåçûìÿííûé ãðàäèåíò 19" x1="291.38" y1="101.23" x2="291.38" y2="344.88" xlink:href="#_Áåçûìÿííûé_ãðàäèåíò_19"/>
    <linearGradient id="_Áåçûìÿííûé_ãðàäèåíò_19-65" data-name="Áåçûìÿííûé ãðàäèåíò 19" x1="155.37" y1="90.25" x2="155.37" y2="365.94" xlink:href="#_Áåçûìÿííûé_ãðàäèåíò_19"/>
    <linearGradient id="_Áåçûìÿííûé_ãðàäèåíò_19-66" data-name="Áåçûìÿííûé ãðàäèåíò 19" x1="269.61" y1="89.41" x2="269.61" y2="361.16" xlink:href="#_Áåçûìÿííûé_ãðàäèåíò_19"/>
    <linearGradient id="_Áåçûìÿííûé_ãðàäèåíò_19-67" data-name="Áåçûìÿííûé ãðàäèåíò 19" x1="289.65" y1="79.66" x2="289.65" y2="385.64" xlink:href="#_Áåçûìÿííûé_ãðàäèåíò_19"/>
    <linearGradient id="_Áåçûìÿííûé_ãðàäèåíò_19-68" data-name="Áåçûìÿííûé ãðàäèåíò 19" x1="299.34" y1="113.36" x2="299.34" y2="326.22" xlink:href="#_Áåçûìÿííûé_ãðàäèåíò_19"/>
    <linearGradient id="_Áåçûìÿííûé_ãðàäèåíò_19-69" data-name="Áåçûìÿííûé ãðàäèåíò 19" x1="299.59" y1="173.34" x2="299.59" y2="198.73" xlink:href="#_Áåçûìÿííûé_ãðàäèåíò_19"/>
    <linearGradient id="_Áåçûìÿííûé_ãðàäèåíò_19-70" data-name="Áåçûìÿííûé ãðàäèåíò 19" x1="262.27" y1="84.69" x2="262.27" y2="368.91" xlink:href="#_Áåçûìÿííûé_ãðàäèåíò_19"/>
    <linearGradient id="_Áåçûìÿííûé_ãðàäèåíò_19-71" data-name="Áåçûìÿííûé ãðàäèåíò 19" x1="300.37" y1="98.94" x2="300.37" y2="353.63" xlink:href="#_Áåçûìÿííûé_ãðàäèåíò_19"/>
    <linearGradient id="_Áåçûìÿííûé_ãðàäèåíò_19-72" data-name="Áåçûìÿííûé ãðàäèåíò 19" x1="314.75" y1="103.24" x2="314.75" y2="355.72" xlink:href="#_Áåçûìÿííûé_ãðàäèåíò_19"/>
  </defs>
  <g class="cls-37">
    <g id="Layer_2" data-name="Layer 2">
      <g id="_Ñëîé_1" data-name="Ñëîé 1">
        <g>
          <path class="cls-19" d="M437.66,209.96C432.95,93.47,337.27.41,219.72,0,99.27-.42.49,97.59,0,218.04c-.12,30.6,6.03,59.74,17.25,86.22,48.04,130.1,181.54,285.63,199.64,303.13,1.15,1.11,2.96,1.13,4.13.05,19.82-18.22,174.47-187.73,209.65-332.63.36-1.38.68-2.77,1.02-4.15.31-1.39.67-2.78.96-4.17,2.23-10.05,3.75-20.35,4.54-30.87.03-.4.06-.81.09-1.21.36-5.12.6-10.26.6-15.47,0-3.2-.09-6.15-.23-8.99ZM218.94,332.5c-62.69,0-113.52-50.82-113.52-113.52s50.82-113.52,113.52-113.52,113.52,50.82,113.52,113.52-50.82,113.52-113.52,113.52Z"/>
          <path class="cls-18" d="M35.22,217.94c-1.31-24.07,2.85-48.51,11.3-71.42,8.69-22.84,22.08-44.04,39.22-61.77,17.06-17.82,37.96-31.97,60.73-41.74,22.83-9.68,47.66-14.6,72.46-14.75,24.81.15,49.63,5.07,72.46,14.75,22.77,9.77,43.67,23.92,60.73,41.74,17.15,17.73,30.53,38.93,39.22,61.77,8.45,22.91,12.61,47.35,11.3,71.42-.04.97-.87,1.71-1.83,1.67-.9-.04-1.62-.78-1.67-1.67-2.22-47.27-22.89-92.26-56.07-124.15-33.12-31.97-78.42-50.34-124.15-50.1-45.72-.24-91.03,18.13-124.15,50.1-33.18,31.89-53.86,76.87-56.07,124.15-.05.97-.87,1.71-1.83,1.67-.91-.04-1.62-.78-1.67-1.67Z"/>
          <path class="cls-19" d="M218.94,72.75c-80.76,0-146.23,65.47-146.23,146.23s65.47,146.23,146.23,146.23,146.23-65.47,146.23-146.23-65.47-146.23-146.23-146.23ZM218.94,332.5c-62.69,0-113.52-50.82-113.52-113.52s50.82-113.52,113.52-113.52,113.52,50.82,113.52,113.52-50.82,113.52-113.52,113.52Z"/>
          <path class="cls-23" d="M218.17,430.11c-70.54,0-134.17-29.57-179.17-76.99,58,112.56,162.06,238.97,177.89,254.27,1.15,1.11,2.95,1.13,4.13.05,16.64-15.3,128.42-144.31,184.62-263.52-45.3,52.76-112.48,86.18-187.47,86.18Z"/>
          <path class="cls-18" d="M346.46,395.45c-.87-.38-1.89.01-2.28.87l-.04.08c-7.24,15.67-17.16,30.2-27.38,44.33-10.3,14.11-21.05,27.91-32.13,41.45-21.16,25.82-43.17,51.01-65.69,75.61-22.52-24.6-44.53-49.79-65.69-75.61-11.08-13.54-21.83-27.34-32.13-41.45-10.22-14.12-20.14-28.66-27.38-44.33l-.04-.08c-.4-.86-1.41-1.25-2.28-.87-.89.38-1.29,1.41-.91,2.3,7.09,16.39,16.74,31.23,26.69,45.73,10.03,14.47,20.5,28.61,31.29,42.48,21.58,27.69,43.98,54.65,67.12,81.09.12.15.19.33.34.47.36.33.77.53,1.19.72.02.01.04.03.06.04.37.16.75.22,1.14.27.2.03.39.09.59.09.2,0,.39-.06.59-.09.39-.05.77-.12,1.14-.27.02-.01.04-.03.07-.04.42-.19.83-.39,1.19-.72.15-.14.21-.32.34-.47,23.15-26.44,45.54-53.4,67.12-81.09,10.8-13.87,21.27-28.01,31.29-42.48,9.95-14.5,19.6-29.35,26.69-45.73.38-.89-.02-1.92-.91-2.3Z"/>
          <path class="cls-23" d="M264.94,84.65s14.22,3.84,23.45,10.76c-11.91,14.99-17.1,21.72-17.1,21.72l-12.03-5.45,5.69-27.03Z"/>
          <path class="cls-23" d="M115.81,166.13c10.38-17.68,23.83-38.44,41.13-45.74-7.3-13.84-13.45-24.6-13.45-24.6,0,0-32.67,16.53-52.66,58.42,11.91,5.38,24.98,11.92,24.98,11.92Z"/>
          <path class="cls-18" d="M264.94,355.62s14.22-3.84,23.45-10.76c-11.91-14.99-17.1-21.72-17.1-21.72l-12.03,5.45,5.69,27.03Z"/>
          <path class="cls-21" d="M115.81,271.83c10.38,17.68,23.83,38.44,41.13,45.74-7.3,13.84-13.45,24.6-13.45,24.6,0,0-32.67-16.53-52.66-58.42,11.91-5.38,24.98-11.92,24.98-11.92Z"/>
          <path class="cls-22" d="M218.94,12.77c55.97,0,108.06,17.76,151.63,48.27C331.24,23.24,277.81,0,218.94,0S106.59,23.26,67.23,61.09C110.83,30.55,162.94,12.77,218.94,12.77Z"/>
          <path class="cls-20" d="M362.9,244.79c-2.56,16.57-8.24,32.67-16.39,47.41-8.25,14.7-19.08,27.96-31.83,39.06-12.73,11.13-27.5,19.92-43.3,26.01-15.82,6.07-32.72,9.29-49.66,9.62-16.94.3-33.94-2.29-49.98-7.76-16.02-5.49-31.11-13.72-44.25-24.36-13.16-10.61-24.48-23.45-33.28-37.83-8.71-14.42-15-30.29-18.17-46.76,3.93,16.29,10.5,31.89,19.6,45.86,8.99,14.02,20.37,26.47,33.49,36.64,13.13,10.14,27.9,18.16,43.64,23.35,15.71,5.25,32.32,7.75,48.87,7.41,16.55-.25,33.06-3.39,48.56-9.21,15.53-5.78,30-14.34,42.74-24.98,12.73-10.65,23.64-23.53,32.09-37.88,8.56-14.3,14.53-30.15,17.85-46.57Z"/>
          <path class="cls-18" d="M73.17,207.29c.92-18.2,5.57-36.22,13.28-52.86,7.79-16.61,18.78-31.76,32.24-44.35,13.41-12.64,29.31-22.64,46.47-29.44,17.19-6.78,35.68-10.19,54.16-10.19,18.48.06,36.96,3.6,54.11,10.46,17.13,6.89,32.98,16.98,46.33,29.69,13.39,12.66,24.29,27.88,32,44.52,7.62,16.68,12.18,34.73,13,52.93l-.84-6.77-1.15-6.72c-.44-2.23-.95-4.44-1.42-6.66-.53-2.2-1.15-4.39-1.73-6.58-2.5-8.71-5.83-17.17-9.9-25.23-8.07-16.16-19.14-30.75-32.42-42.87-13.3-12.09-28.75-21.8-45.48-28.26-16.69-6.53-34.6-9.93-52.52-9.91-17.92-.08-35.84,3.2-52.57,9.64-16.76,6.38-32.26,16-45.62,28.02-26.78,24.04-44.3,58.29-47.95,94.57Z"/>
        </g>
        <g>
          <path class="cls-40" d="M326.75,204.24c-.12-.24-.21-.52-.29-.83-.08-.32,0-.66-.27-1.03-.18.26-.35.48-.6.57-.17,0-.21.12-.17.32,0,0,0,0,0,0-.22.03-.35.17-.37.44-.05.03-.1.07-.14.1h0c-1.31.18-2.46-.59-3.27-.82-.14-1.78-1.19-1.16-1.96-2.2-1.68-2.25-2.42-2.39-1.91-3.22.3-.48.72-.7,1.23-.77-.02-.03-.05-.09-.05-.09,0,0,.03.05.05.09.02.02.04.03.06.04.02,0,.04,0,.06,0,.05.09.09.18.14.27.04.27.18.46.4.55.13.22.26.44.39.67.03.17.12.29.26.37.04.1.09.21.13.31.01.25.07.47.32.58.06.23.21.32.37.34.34.03.65.24.97.45.04.21.17.29.32.33.04.02.07.04.1.07.16.25.37.35.58.39.04.09.1.15.18.18.27.11.53.07.8.23,1.6.91,1.77-.38,2.26-.28-3.51-16.83-8.78-32.82-19.17-46.79-.36-.26-.83-.57-1.75-1.16-.94-.6-1.1-.73-1.04-.53-.43-.23-.8-.37-1.28-.66-.2-.12-.37-.17-.5-.18-.29-.01-.71-.17-1.1-.27-.11-.05-.14-.01-.12.09-.06-.03-.57-.31-.57-.27.05.44-.4.24-.94-.05-.43-.24-.9-.7-1.43-1.14.23-.07.51.01.83.15.19.08.13-.06-.11-.33-.67-.75-1.07-.91-2.73-1.79.57.54.81.9.82,1.19.01.47.91.83.9,1.36,0,.23-.13.19-.58-.16-.48-.37-1-.77-1.26-.73-.41.07-1.06-.19-1.45-.05-.18.07-.18.1.18.56.38.48.41.6.05.46-.64-.26-1.29-.49-2.08-1.16-.4-.33-.94-.55-.88-.27.04.17.21.29.34.42.45.44.86.35,1.08.84.17.37-.23.31-.57.08-.38-.26-.77-.5-1.16-.84-.21-.18-.41-.37-.61-.46-.24-.11-.48-.14-.72-.63-.15-.29-.47-.58-.57-.93-.16-.54-.26-.63-.76-.98-.33-.23-.67-.38-.76-.66-.13-.39,1.24.52,1.75.83,1.23.73,2.44,1.4,3.55,1.87.83.35,2.3.53.7-1.08-.19-.19-.36-.31-.53-.42-1.98-1.28-4.57-3.53-6.45-4.32-1.33-.56-1.84-1.66-2.61-1.7-.25-.01-.61-.21-.93-.35-.19-.08-.38-.2-.57-.5.13,0,.27.01.4.02-.03-.08-.07-.17-.1-.25-1.08-.86-1.91-1.13-2.65-1.72-.41-.32-.89-.57-1.04-.26-.05.11-.18.06-.36-.13-.18-.19-.29-.17-.4-.16-1.09-1.34-1.73-.47-3.44-1.34-.08-.04-.16-.06-.24-.07-.48-.11.26.6-.63.28-.71-.25-1.42-.51-2.14-.75-.19-.06-.44-.22-.53-.11-.26.33-.8.2-1.15.39-.13.07-.35.02-.41.16-.11.3-.33.21-.68-.08-.34-.29-.54-.23-.79-.14-.4.14-.85.19-1.19.47-.05.04-.16-.02-.24-.01-.17.01-.51.02-.39.27.2.43,1.17-.03,1.5.68.13.3,0,.39-.14.41-.56.08-.94.48-1.44.7-.35.15-.7.32-.59,1.02.13.83-.8.32-.83.64-.06.51-.5.52-.7.84-.23.34-.55.4-1,.26-1.29-.4-.75.61-1.95.68-.79.05-.66.5-1.39.48-.41,0-.72.68-.68,1.21.06.77.47,1.5.73,2.25.21.61.47,1.12.9,1.56.04.38.23.56.51.58,1.06.99,2.5,1.26,3.24.65.47-.39.92-.78,1.69-.54.54.17.62.19.89.87.24.58.53,1.11.95,1.58.36.41.65.9,1.03,1.3.28.3.27.6-.02.63-.25.03-.43.16-.66.21-.21.04-.47-.08-.65.07-.19.16.13.58-.03.78-.48-.52-.38-.96-.41-1.41h0c-.03-.29-.23-.44-.41-.61-.56-.52.14-.78-.41-1.31-.26-.25-.49-.23-.63-.02-.21.33-.56.34-.94.33-1.22-.02-.65,1.68-.37,2.09.49.71.29,1.38.53,2.08.11.31-.16.4-.39.37-.95-.11-1.79.21-2.75.14-.53-.04-1.01.19-.96,1.05.01.21-.05.41-.18.52-.7.58-1.38,1.27-2.36,1.35-1.15.1-.14,1.42-1.4,1.54-1.36.13-.41.91-1.6.63-.26-.06-.52-.11-.76-.35-.2-.2-.44-.4-.65-.21-.36.33.58,1.25-.24,1.36-.25.03-.53.19-.76,0-.71-.56-1.33-.2-2-.3-.23-.04-.53-.03-.49.37.04.35.16.73.49.91.33.18,2.07.25,2.93,1.94.09.17.24.33.38.43.51.36,1.24,1.88.91,3.74-.17.94-.33,1.15-1.09,1.12-.94-.03-1.91-.64-2.83-.3-.02,0-.05,0-.08-.02-1.05-.52-2.1-.34-3.14-.61-.89-.24-1.56.08-2.27.43-.35.18-.35.43-.17.87,1.33,3.2,0,5.17-.11,5.65-.07.34-.06.76.23.93,1.1.62.33,2.17.94,2.37.48.16.98.49,1.43.09.2-.04.3-.06.51-.1.02,0,.03.01.06.02.02,0,.03,0,.06,0,1.11.5.88,1.29,1.44,1.69.05.28.1.56.14.85-.24.59-.44,2.88-2.71,3.52-.05.02-.11.03-.15.06-.64.54-1.37.98-1.33,2.2-1.12,1.22-.46,1.87-.31,3.2-.35.59-.6,1.33-1.17,1.66-.56.32-1,.82-1.45,1.32-.67.16-2.02.14-2.36,2.09-.06.38-.32.56-.59.68-.46.21-.65.67-.87,1.18-.27.6-.18,1.32-.46,1.89-.19.01-.28.14-.31.37-.02.05-.05.08-.1.1-.14.02-.23.1-.25.28-.21.62-.72.34-.61,1.04,0,.05,0,.09-.04.11-.21.17-.37.37-.3.73-.04.12-.08.24-.11.36-.07.03-.1.1-.08.19-.03.18-.04.38-.15.52-.18.05-.3.16-.33.4-.06.07-.13.14-.19.21-.02,0-.03.01-.04.02,0,.06.03.05.03.05,0,0-.02,0-.02,0-.03.12-.06.24-.09.36.01.04.02.11.02.11,0,0,0-.07-.02-.11-.19.05-.21.18-.09.36-.01.31-.02.62-.03.93-.13.04-.24.2-.15.29.84.96-.1,1.66.53,2.55.27.38.45.84.79,1.14.03.14.06.28.1.41-.3,1.34.19,1.96-.24,2.8.01.09.03.21.03.21,0,0-.02-.12-.03-.21-.35.35-.35,1.04-.53,2.52,0,0,0,0,0,0-.15.08-.22.23-.22.43,0,.05-.02.09-.05.12-.75.5-.77.64-.18,1.35.04.05.1.07.15.11.04.13.07.25.11.38,0,1.14.07,2.29-.1,3.42-.04.27-.04.55.12.73.46.51.68,1.42,1.47,1.39.08,0,.19.05.23.13.43.78,1.17,1,1.75,1.49.88.74,1.06,1.92,1.48,2.96.18.44-.55.8.19,1.1.32.13.6.43.92.56,1.87.74,2.52,2.25,5.32,4.4.55.42,1.12.41,1.78.05,2.06-1.13,4.15-1.64,6.25-.65.28.13.55.11.81-.08.91-.66,1.93-.6,2.35-1.42.13-.03.25-.07.38-.1.07.05.14.03.19-.05.08,0,.32-.04.4-.12.79-.73,1.7-.78,2.59-.9.36.09.71.05,1.07-.06,1.63-.46,1.88,1.71,2.38,2.58.66,1.14.75.9,1.91.47.76.21,1.93-.81,2.55.4.31.6.75-.1.91,1.28.1.83.11,1.72-.24,2.49-.66,1.48-.23,2.61-.83,3.49-.57.84-.56.84-.18,1.71.1.22.17.47.33.62.09.59.33,1.03.71,1.34.6.65.94,1.59,1.52,2.23.42.46.63,1.07.7,1.79.04.39.09.65.93,3.77.38,1.42-.7,1.21-.35,2.14.2.53.22,1.17.44,1.69.19.47.15,1.04-.02,1.66-.14.49-.38.93-.57,1.39-1.23.69-1.66,3.11-2.07,4.08-.18.14-.19.4-.24.66-.06.1-.12.2-.18.29-.18.14-.06.18-.52,2.74-.08.47-.05.88.15,1.16.43.61.6,1.42.84,2.17.11.5.22.99.32,1.49.06.29.14.56.4.63.01.19.02.38.11.53.25.42.29.92.1,1.6-.22.78-.35,1.58-.15,2.23.05.16.04.38,0,.58-.19,1.14-.16,2.16.03,3.09-.04.45.12.76.33.95.35.31.51.8.72,1.25-.04.16-.02.26.1.26-.06.33-.01.6.02.88-.01.67.21,1.13.41,1.6.09.22.13.45.09.75-.33.72-.55,1.72-.51,2.28,0,.05-.01.11-.01.16,0,.1.04.17.13.18.36.03.59.27.86.43.15.08.33.12.55-.09.56-.55,1.07-.7,1.58-.85.16-.05.32-.1.48-.26.83-.82,1.52-.81,2.21-1.01.43-.12.78-.09,1.29-.42.64-.42,1.28-.72,1.92-1.1.2-.12.42-.32.63-.5.99-.82,1.89-1.85,2.83-2.8,1.95-1.97,2.42-3.28,3.48-4.18.98-.84,1.61-2.3,2.06-3.28.15-.33.32-.67.26-.95-.06-.25.16-.53.41-.75.46-.39,1.05-.67,2.2-1.52.42-.31.74-.72.91-1.18.32-.86.61-1.72.77-2.55.04-.23.05-.42-.12-.46.06-.22.13-.45.06-.61.14-.44-.14-.65.02-1.11.6-.75,1.21-1.47,1.93-1.99.15-.11.31-.31.44-.49.78-1.1,1.67-1.86,2.65-2.35.24-.12.47-.27.66-.57.04,0,.08-.03.12-.05.26-.12.47-.35.67-.63.16-.17.33-.33.42-.57.45-.45.94-.87,1.12-1.53.02-.06.05-.12.07-.18.01-.05.03-.1.06-.15.03-.12.06-.24.09-.37.04-.05.05-.1.02-.13-.09-.54.14-1.19.24-1.8-.17.02-.18.02,0,0,.04-.17.08-.35.13-.52q-.18.06,0,0c.06-.27.12-.54.17-.81-.22.09-.6.11-.6.11,0,0,.38-.03.6-.11.11-.42.23-.85.32-1.27.32-1.48-.64-.64-.55-1.65.06-.74-.26-1.4.35-2.28-.11-.62.2-1.47-.24-1.91-.59-.6.67-2.03,1.48-4.24.15-.09.27-.23.33-.42.06-.14.19-.41.22-.54,1.73-1.13,1.46-1.99,5.06-5.85.37-.4.82-.65,1.13-1.14.73-.32,1.33-.88,1.85-1.62h0c3.17-3.64,2.75-4.62,4.3-7.2.3-.5.57-1.03.81-1.57.18-.41.08-.97.34-1.3.4-.52-.03-.9.18-1.63.05-.18.08-.35-.08-.44-.17-.09-.37-.18-.51.05-.27.47-.68.45-1.04.61-.47.22-.99.04-1.43.31-.36.23-.69.04-1.01.14-.32.11-.61.44-.97.52-.4.09-.46-.37-1.49.29-.89.57-1.15.12-1.89-.83,0-.42-.32-.52-.54-.72.6-.58.64-.91.2-1.52-.02-.02-.03-.05-.05-.06-.75-.69-1.35-1.6-2.04-2.42-.1-.09-.21-.15-.29-.26-.3-.44-.88-.34-1.1-.93.09-.27.43-.12.48-.5-.06-.1-.14-.22-.22-.33-.09-.13-.13-.37-.31-.32-.17.04-.19.24-.19.43,0,.33-.11.51-.37.52-.17-.45-.13-.34-.23-.64-.26-.59-.23-2.56-1.19-3.29-1-.75-1.53-1.88-1.42-3.38.06-.83-.5-1.48-.6-2.27-.02-.13-.21-.37-.41-.31-.22-.24-.36-.56-.67-.73-.37-.2-.62-.63-.64-1.16-.04-.31.22-.61-.06-.93-.65-.76-.96-1.77-1.45-2.66,0-.21-.11-.34-.26-.41-.03-.05-.06-.11-.08-.17,0-.23-.05-.45-.24-.6-.04-.13-.07-.26-.11-.38h0c.16-.3-.24-.88.19-1.04,0-.03,0-.05-.02-.08-.11-.05-.32-.18-.32-.18,0,0,.2.12.32.18,0,.03,0,.05.02.08.31-.19.66-.26,1.04-.18.18.2.39.35.52.62.07.34.21.62.48.79.04.06.08.13.12.19,0,.06.02.09.07.11.01.03.03.06.06.08.02.07.05.1.1.09.03.03.05.07.07.1-.01.2.08.34.22.44,0-.05-.02-.13-.02-.13,0,0,.02.09.02.13.07.12.14.24.21.36.11.39.1.87.54,1.04.02.02.04.03.06.05.24.34.09.87.48,1.14.15.49.52.59.82.81.79.57,1.06,1.52,1.37,2.44-.19.57.12,1.11.24,1.65.14.6.44,1.27.89,1.44,1.5.57,1.34,2.68,2.78,4.02.02.76-.76.33-.73.98,0,.25.2.31.34.42.47.36,1,.66.84,1.55-.02.11.08.2.18.25.24.78.15,1.23.47,1.63.4.67-.02,1.27.43,1.75,0,.11.03.17.12.17.09.03.18.06.27.09.18.15.36.16.56.03.46-.19.97-.24,1.31-.78.32-.23.67-.26,1.02-.29.81.05,1.58-.94,2.5-.97.11,0,.21-.21.31-.33.54-.65-.34.08,3.04-1.35.87-.37.15-1.12,1.01-1.48.65-.27,1.28-.57,2-.52.46.04.57-.1.6-.74.05-.14.07-.3.19-.38.68-.05,1.05-.01,1.14-.33-.16-3.42-.31-5.11-.73-8.45ZM291.15,151.37c-.06-.33.31-.07.43.2.04.1.05.19.1.3.12.27.23.34.35.26.44-.3.23.08,1.24,1.18.7.76.02.79-.42.33-.32-.33-.63-.6-.96-.79-.54-.31-.66-1.03-.74-1.48ZM288.18,151.4c.53.35,1.17.81,1.81,1.4.21.19.31.41.3.6-.02.79-.66-.2-1.08.11-.1.07-.28-.07-.44-.25-.37-.4-.74-.8-1.09-1.22-.68-.8-.07-.86.51-.64ZM270.52,154.59c-.01-.26.07-.4.36-.18.33.25.63.21.94.28,1.17.29.08-1.08,1.62-.6.52.16.84-.09,1.26-.11.31-.01.27-.45-.05-.86-.51-.64.1-.39-.17-1.55-.11-.47.07-.63.39-.59.44.06.75-.13,1.09-.25.19-.07.29-.24.38-.42.06-.11.08-.28-.06-.45-.34-.4-.62-.95-1.1-1.07-1.51-.38-2.44-3.39.81-3.59.38-.02.79,0,.96-.36.08-.17.2-.28.03-.63-.17-.35-.07-.51.07-.59.34-.2.66-.42,1.22-.2.5.19,1.41.38,2.11.95.27.22.36.47.19.56-.57.32-1.04.82-1.82.91-.38.05-.63.35-.97.51-.31.15-.27.41.06.96,1.17,2.01.01,1.73.95,2.5,2.07,1.71,3.3,1.36,6.16,1.82,1.03.17,1.85,1.08,1.39,1.15-.53.08-1.12.04-1.81-.23-.57-.22-1.11-.34-1.67-.52-.6-.2-1.12-.24-1.55-.02-.09.05-.21.13-.32.07-.63-.32-.69.31-1.07.42-.19.05.05.48.3.57,1.18.43.89-.5,1.89.38.87.76.74,2.09-.25,1.2-.51-.46-.99-.85-1.54-1-.72-.19-.77.34-.78.97.22.09.31-.2.31-.2,0,0-.08.3-.31.2,0,.06,0,.1.01.15,0,0,0,0,0-.01-.22.17-.14.4.18.69.06.23.12.46.18.7.09.12.2.38.2.38,0,0-.11-.26-.2-.38-.11.2-.24.36-.47.4-.33.05-.44.55-.44.55,0,0,.02-.09.03-.15-.2-.06-.3.05-.42.16-.64.6-.81-.54-1.72-.63.19.22.22.26,0,0-.13-.02-.26-.05-.39-.07-.11.23-.54.27-.54.27,0,0,.43-.03.54-.27-.39-.08-.92-.47-.96.22-.13-.01-.25-.03-.38-.04-.02.07-.08.18-.08.18,0,0,.06-.11.08-.18-.07-.05-.17-.15-.21-.13-.52.26-1.22.07-1.77.28-.28.11-.51.03-.8-.34-.16-.2-.34-.38-.45-.63-.13-.32-.31-.38-.5-.31-.17.07-.36.13-.44.34-.09-.01-.19-.03-.28-.04-.06.27-.45.35-.45.35,0,0,.38-.07.45-.35-.31-.05-.57-.02-.68.31-.09,0-.17,0-.26,0h0c-.12-.19-.36-.21-.42-.49.09-.34,1.17.06,1.13-.99ZM291.35,178.14s-.12.02-.12.02c0,0,.09-.01.12-.02.18-.15.17-.15,0,0ZM291.19,178.17h-.2s.2,0,.2,0ZM290.96,178.17l-.36-.03.36.03ZM278.99,157.25c-.06.18-.43.38-.43.38,0,0,.35-.17.43-.38ZM302.45,188.62c-.35.2-.35.67-.37,1.13-.28.83-.46,1.98-.49,2.77-.03-.02-.06-.03-.09-.03h0c-.1-.06-.14-.03-.14.09-.06.03-.12.07-.17.1-.86-.03-1.72-.09-2.63-.55-1.04-.53-1.94-.35-2.63.47-.2.09-.41.18-.63.06-.69-.36-1.4-.45-2.1-.81-.7-.36-1.44-.7-2.16-.52-.58.15-.35-.88-1.17-.81-.46.04-.91-.36-1.37-.4-.13-.01-.24-.15-.32-.3-.64-1.19-2.56-.9-3.39-.33-1.27.88.47,1.51-.42,2.55-.42.49-.85.64-1.52.04-1.93-1.74-3.71-.75-4.15-2.67-.05-.22-.1-.49-.34-.53-.61-.12-2.01-1.1-2.48-.93-.81.29-1.53-.45-2.29-.78-.36-.15-.22-1-1.12-.86-.35.05-.58-.35-.57-.83.44-.17.78-.49,1-.98.34-.74-.09-1.05-.44-1.39h0c-.03-.11-.09-.18-.18-.21-.04-.06-.07-.12-.11-.18.02-.38.28-.54.43-.79.08-.14.21-.27.1-.5-.13-.25-.28-.17-.4-.08-.24.18-.41.06-.61-.24-.39-.57-.85-.6-1.22-.31-1.04.83-2.92-.41-4.4.31-.25.12-.49.13-.76-.04-1.56-.95-2.94.07-4.06-.05-.81-.09-1.52.14-2.14.67-.33.28-1.34.22-1.83.92-.55.8-1.28-.16-4.14.1-.16-.16-.32-.31-.47-.47-1.48-1.67,1.12-2.23,2.34-1.83.35.12.63.04.93-.06h0c.26.06.43-.05.5-.35h0c.15-.3.07-.2.42-.61h0c.15.01.27-.06.35-.2-.06-.02-.17-.03-.17-.03,0,0,.11,0,.17.03.16-.04.31-.07.47-.11h0c.15-.04.29-.09.17-.36.17-.59.57-.9.92-1.23.06-.3-.16-.38-.26-.53-.26-.38-.33-.77-.12-1.09.6-.93,1.01-2.11,2.17-2.2.26-.02.48-.16.58-.47.24.02.47.01.68-.1.41-.21.49-.43.37-1.03-.24-1.17.19-1.72,1.15-1.45.58.16,1.15.27,1.73.56,1.16.58,1.17-.52,2.27-.62.79-.07.75-1.29,1.97-.59.18.1.35.24.53.33.36.18.61.43.76.91.44,1.37,1.17,1.53,2.69,3.08.34.34.69.68,1.09.78.9.21,1.62,1.01,2.37,1.7.18.17.35.4.56.47.89.32,1.65,2.41.46,2.68-.57.13-1.2.06-1.75.26-.1-.02-.2-.04-.3-.06-.39-.2-.59-.35-1.24-.21-.22.05-.23.39-.03.59.13.12.3.17.44.27.63.46,1.33.65,1.93,1.19.58.52.68.49.96-.1.15-.2,0-.47-.03-.72-.07-.56.05-.75.49-.65.86.19.88-.93,1.41-1.22.25-.14.18-.54-.14-.87-.28-.29-.5-.58-.61-.98,0,0,0,0,0,0,.16-.45.4-.58.89-.22.28.21.59.31.84.64.26.34.65.02.32-.48-.21-.31-.47-.56-.74-.71-.6-.33-1.17-.86-1.79-1.1-.78-.29-.23-.88-1.13-1.03-.25-.04-.51-.15-.77-.22-.1-.25-.29-.31-.45-.45-.4-.35-.79-.71-.98-1.3-.25-.77-.61-.89-1.53-1.59-.52-.4-.88-1.51-.66-2,.13-.28.41-.23.84-.28q.09-.15,0,0s.09.08.14.12c.32.27.29.84.66,1.04.34.18.53-.23.87-.09.73,1.68,1.86,2.6,3.19,3.24.5.24.98.64,1.47.97.49.33,2.06.91,1.86,2.97-.02.2.08.46.23.63.44.49.76,1.1,1.23,1.59.54.56,1.21,1.2,1.29,2.17.02.17.11.31.23.41.29.24.41.56.47.93.03.19.13.45.3.42.49-.08.98.54,1.5.42-.04-.4-.2-.9.22-1.06.14-.05-.11-.33-.12-.58.54.24.99.21,1.25-.29-.23-.49-.51-.95-1.02-1.07-.31-.08-.41-.36-1.23-1.69-.11-.17-.23-.36-.17-.52.1-.25.35.05.61.17.32.14.54.07.59-.3.03-.23.05-.57.26-.46.63.32,1.09-.09,1.68.18.22.1.45.21.67.31,0,0,0,0,0,0,.35.69.15,1.24.07,1.76-.07.41.07.48.29.61.29.18.44.1.36-.3-.02-.11-.07-.25.08-.22.47,1.13.46,1.17-.38,1.13-.15,0-.25-.06-.26.16,0,.13.04.24.14.33.15.13.3.11.44.15.51.14.41.23.83.81.34.48.41.84.36,1.27.9.03,1.7.17,2.51,1.01.47.49,1.21.45,1.48-.02.11-.18.2-.32.41-.28.47.09.94.22,1.38.63.86.77,1.87.93,2.44.35.43-.43.68-.15,1.32.02.51.14.7.35.64.9-.06.49.09.95.3,1.43.06.24.1.48.07.7ZM306.54,180.52c-.08,0-.15.01-.23.02-.6.19-1.36-.17-2.04-.22-.66-.05-1.32-.24-2.02-.72-.29-.19-.57-.24-.84-.25-.5-.42-1.02-.74-1.54-.92-.04-.01-.09-.07-.14-.11-.11-.24-.27-.38-.44-.35-.72.11-2.35-.63-3.24.16-.45.4-1.09.25-3.59-.48-.64-.73-1.11-1.51-1.09-2.42h0c0-.07-.01-.42-.04-.49h0c.47-.02.71.07.56-.26-.07-.55-.12-1.1.09-1.49.44.12.71-.03.74-.51.05-.73.41-.49.82-1.22.18-.31.61-.34.96.04.84.9,1.45.75,2.01,1.04,0,.43-.5.21-.56.55.31.52.99.42,1.16,1.26.07.34.37.52.64.4.49-.22,1.4-.47,2.05-.25.09.03.17,0,.23-.04.12-.07.01-.32-.11-.38-.46-.22-1.39-.16-1.7-1.08-.15-.44.13-.48,2.1-.67.22-.02.4.13.63.46.75,1.1.75,1.41-.12,1.5-.08,0-.17,0-.19.1-.02.15.1.26.21.38.76.8,1.4.67,1.4.67,0,0-.24,0-.36.01.42.49,1.42,1,1.66,1.28.59.68,1.24,1.15,1.89,1.57,1.06.68,1.48,1.58,1.09,2.41.09.12.29.27.29.29,0,0-.2-.17-.29-.29ZM306.94,181.44s.21-.08.3-.39c.05.01.12.02.12.02,0,0-.07-.01-.12-.02-.1.3-.3.39-.3.39ZM312.82,180.04c-.08-.02-.16-.04-.24-.06.21.81-.05-.16-.26-.97,0,0,0,0-.01,0,0,0,.01,0,.01,0,.33-.16.03-.62-.14-.99-.51-1.13-.48-1.1.66-1.33.09-.02.21.01.31.16.35.54.93.83,1.21,1.44.03.07.17.14.26.21.09.23.18.46.44.54.15.08.3.26.44.26.6.69.82,1.41,1.97,1.99.48.25.49.27.44.77h0c-.08,0-.1.04,0,.15,0,0,.18.44.19.45.02.12.08.26.18.36.34.32.43.65.47.98.06.24.09.37.16.61h0c.08.33.52.6.49.96-.03.33.14.69.45,1.04.21.24.26.51.35.77.42,1.2.4,1.15-.49,1.33-.69.14-1.39-.33-2.07-.92-.38-.33-.73-.62-1.12-.74-.22-.07-.41-.17-.56-.45-.92-1.75.43-.98-.33-2.49.04-.21.08-.47.05-.26.2.02.41.04.61.05.26.02.11-.37-.1-.46-.24-.11-.48-.18-.72-.27-.08-.07-.17-.14-.25-.21-.12-.15-.25-.3-.31-.48-.08-.11-.16-.22-.24-.33-.03-.03-.06-.05-.09-.07-.14-.33-.42-.49-.63-.73-.38-.42-.79-.8-1.1-1.3Z"/>
          <path class="cls-8" d="M291.76,177.38s.16.15.24.23h0c-.08-.07-.24-.23-.24-.23Z"/>
          <path class="cls-62" d="M224.48,127.41c-.02-.25.08-.46.14-.68.12-.53.24-.61.66-.47.85.29.53,1.04,1.95,1.19.53.05.82-.02,1.53.03.19.12.23-.05.2-.19-.17-.8-.29-1.65-1.17-1.88.55-.48.76-1.04.36-1.85.43-.11.78-.37,1.19-.21.41.16.64.02.74-.41.25-1.04,1.14-.02,1.93-1.17.31-.46.5-.21.96-.14.18.03.24-.27.06-.41-.48-.39-.97-.45-1.46-.37-.16.03-.2.18-.12.39.05.15.28.2.17.47-.24.06-.52.01-.8-.05-.12-.02-.24-.1-.27-.27-.02-.13.08-.17.14-.24.32-.34.32-.35-.01-.83-.08-.06-.16-.11-.24-.17-.21.05-.22.05,0,0,.08.06.16.11.24.17-.11-.36-.21-.73-.54-.91-.24-.14-.11-.52.06-.44.29.14.56-.13.85.12.06.57.37.75.81.85-.65-.79.32-.83.01-1.63,0-.02,0-.03,0-.05-.06.01-.63-.11-.7-.12.05-1.65.59-1.43,1.22-1.96.12-.11.08-.43-.18-.5-.42-.12-.47.26-.72.49-.26.24-.66.08-.55-.5.04-.2.04-.44.32-.34.75.28.73-.91,1.35-.79.09-.02.18-.05.28-.07.57.14.25-.54,1.12-.41.63.1,1.13-.27,1.73-.28.05,0,.09-.08.14-.12.77-.1.96.07,1.27-.21-.92-.59-1.13-.44-1.8-.58-.23-.21-.47-.27-.7-.31-.79-.12-2.79-.5-3.14-.03-.04-.01-.07,0-.1.03-.36-.02-.71.3-1.1-.22-.05-.07-.23-.07-.31-.02-.28.18-.64.04-.94.17-.2.09-.38-.02-.51-.27.12-.2.4.06.51-.18-.45-.36-.67-.46-.92-.44-.38.02.12.45-.11.54,0,0-.02.02-.56.34-.18-.14-.32-.21-.31.15-.06.03-.12.07-.18.1-.06-.02-.13-.03-.19-.05,0-.11-.03-.21-.12-.26.06-.22.05-.45-.06-.67-.02-.02-.12-.11-.14-.13.07-.41.4-.32.61-.46.09-.06.21-.15-.01-.25-2.8-.8-3.54-.22-4.14-.96-.38-.1-.73-.45-1.14-.33-.23,0-.45,0-.68-.09-.44-.28-1.45-.3-1.98-.04-.53-.04-1.05-.1-1.58-.1-.93,0-6.9.09-9.83.91-.42.12-.86.23-1.27.27-2.72.26-1.52,0-5.43.98-.24-.01-.45.04-.45.48-.11.03-.23.07-.34.1-.32-.42-.64-.53-.92-.17-.29.37-.61.43-.91.67-.22.02-.45.05-.67.08.04-.13.1-.3-.01-.29-.15,0-.19.18-.2.34-.25.06-.5.13-.75.2-.11-.23-.33.33-.04.24.03,0,.04.03.04.07-.08.25-.25.32-.4.42-.14,0-.28,0-.42,0-.04-.1-.13-.11-.23-.06-.01,0-.02,0-.04,0-.28.18-1.04-.3-1.83.44-.02.02-.07-.01-.1-.02-.34-.54-1.29.15-4.42,1.12-.3-.02-.34.09-.93.39h0c-1.04.3-1.15.42-1.21.18.17-.12.17-.25.09-.3-.35-.25-1.61.63-2.16.19-.04-.03-.15.01-.22.03-1.04.24-2.12.67-3.14.91-4.8,1.17-13.15,5.67-13.55,6.14-1.23,1.48-2.24.8-3.98,2.5-.25.24-.45.38-.64.46-.94.37-1.27.77-2.32,1.42-.25.15-.54.37-.81.57-.25.18-.48.3-.85.63.13.06.31-.05.56-.26.67-.59.32.19.56.07.36-.18.53-.05.92-.29-.08.37-.18.48-.64.77.18-.38,0-.29-.24-.13-.07-.01-.18.06-.33.21-.38.16-.78.33-.99.26-.23-.08-.65.16-1.02.31-.56.23-1.44,1.14-2.05,1.51-.01,0-.04.04-.06.06-.52.6-1.01.98-1.66,1.66.51-.28.68-.15.87-.05h0c.45-.25.78-.33.97-.17.45.37,2.85-1.12,3.25-1.33.61-.32,1.18-.55,1.94-1.31-.08.53-.08.53-.57.87-.08.06-.16.1-.24.23-.2.35.27,0,.04.39-.27.31-.45.21-.74.57.03,0,.07.02.1.02h0s-.07-.02-.1-.02c-.52.29-1.14.83-1.59.95-.2.06-.51.47-.74.55-1.12.4-1.65,1.03-2.06.97-.14-.02-.31-.01-.64.29-.1,0-.23.05-.39.15-.01-.02-.04,0-.09.04-.52.19-1.08.48-1.88,1.15.05.21.44-.06.56.03,0,.08.05.06.17-.06.04-.01.08-.03.13-.04-.04.23.44-.08.15.45-.33.19-.72.51-1,.61-.11-.1-.36.06-.67.31-.11.09-.29.33-.24.31.31-.15,0,.39.23.32.17-.05.28-.04.33.08.06.15.28-.03.54-.41.28-.12.52-.15.87-.39.07.03.22-.07.36-.16.18-.12.38-.23.53-.52.32-.61-.03-.59-.36-.33,0-.03-.01-.06-.02-.1h0c.24-.51.23-.48.65-.79.38-.29.63-.37.9-.44.06,0,.1.04.18.02.24-.06.24.05-.13.47-.12.13-.23.3-.2.35.1.13.05.44.38.31.75-.28,1.51-.56,2.45-1.23.12-.09.28-.23.34-.16.17.24.65-.09,2.31-.89.64-.31,1.25-.52,1.91-.86.24-.13.58-.43.75-.44.62,0,1.41-.46,2.16-.77.3-.12.6-.17.9-.74.07-.13.19-.2.24-.18.19.05.26-.19.36-.37.12-.23.03-.24-.08-.23-2.68.3-2.58.85-3.11,1-.77.22-1.68.88-2.51,1.33-.86.47-1.55.6-2.36,1-.04.02-.06,0-.09,0-.01-.03-.03-.05-.09.06-.11.07-.2.18-.3.3-.04.02-.08.03-.12.05.02-.16.05-.32-.12-.27h0s-.08-.04-.12-.06c1.3-1.37,1.39-.87,1.97-1.27,1.26-.85,2-.58,3.07-1.52.16-.14.27-.13.41-.2.58-.29,1.08-.38,1.7-.74.4-.23.94-.61.96-.07.14-.08.21-.12.35-.2.36-.07.83-.48,1.2-.55-.08.25-.37.36-.4.59.36-.2.36-.2.49-.62.04-.14.19-.24.28-.37.33-.2.58-.11.98-.51.1-.11.22-.17.26-.33.09-.41-.62.1-.87.21.03-.38.31-.46.51-.63.2-.09.44-.16.61-.44.52-.84.8-.53,1.46-.97.25-.07.47-.07.78-.34.57-.51,1.13-1.1,1.73-1.42,0-.16-.02-.25-.01-.36,0-.26.19-.49.39-.57.55-.19,1.18-.71,1.73-.87.97-.27,1.05-.45,2.19-1.5.09-.04.19-.09.28-.13.04.05.1.02.18-.1.28-.21.55-.47.83-.61,1.18-.59,2.39-1.41,3.56-1.88.31.01.58-.24.81-.7.1-.06.2-.11.3-.17.14,0,.29-.04.46-.2.15-.06.29-.12.44-.18.37.02.82-.43,1.21-.53.15-.15.33-.28.33-.1,0,.11-.16.19-.26.25-.02.05-.06.12-.07.16-.09,1.2-.07.39-2.14,1.24-.8.33-1.63,1.02-2.42,1.36-.3.13-.61.18-.94.56-.09.1-.24.16-.24.32,0,.4.5.09,1.83-.29.19-.06.48-.25.5.03.02.36-.37.37-.49.64-.74.43-3.31,1.08-3.96,1.68-.14.13-.29.16-.44.23-.84.37-1.69.86-2.55,1.36-.14.08-.34.21-.42.43-.1.26.1.19.21.18.12,0,.21.08.37-.03.18-.05.36-.11.54-.16.16.2.55-.06.77.07-.33.15-.55.45-.73.81-.04.08.03.09.11.02,1.45.39,1.59.54,1.97.36.77-.04,1.56-.13,2.49-.73.11-.07.24-.16.31-.11.35.28.87-.13,1.34-.37.13-.07.26-.17.37-.12.51.27.7-.56,1.3-.47.36.05,1.75-.31,2.26-.17.53.32,1.36.07,1.75.72.03.05.11.03.17.05.57.18,1.14.38,1.38,1.12.1.31.82,1.02.79,2.34,0,.25-.09.55.2.53.58.18,1.18.24,1.88-.38.69-.62.42.9,1.15.39.13-.24.43-.25.43-.25,0,0-.3.02-.43.25.09.05.19.08.26.15.25.22.13.4-.17.56-.87-.1-.57-.2-1.34,0-.27.07-.74-.18-.73.66,0,.12-.15.14-.24.18-.33.12-.35.43-.4.73-.05.33.1.39.29.48.68.32,1.46.09,2.25-.22.17-.07.33-.11.47-.31.18-.26-.03-.35-.03-.52,0-.04.11-.12.18-.18.22-.03.44-.06.66-.09-.02.27.03.49.08.74.1.6-.23,1.14-.76,1.24-.7.14-1.41-.1-2.1,1.14-.88,1.58-.26,1.54-.35,1.99-.39,1.81,1.35,1.36,1.28,2.54-.04.79.68.97.69,1.74,0,.04.07.05.11.07.44.22.76.63,1.08,1.04.03.37.26.34.5.29.28,1.32,1.05,1.26,1.55,1.88.51.64.7-.04,2.8.28.22.03.44.04.58.27.45.74,1.2.64,1.9.65.25,0,.57-.07.76-.44.13-.24.05-.48.07-.73.04,0,.08-.03.1-.08.1.04.23.05.27-.08.43-1.31,1.08-1.46.98-2.45-.1-.98.97-.88,1.45-1.84.11,0,.21-.04.3-.15.17-.02.38-.17.34-.31-.14-.6.52-.95.39-1.53-.03-.15.15-.24.26-.31.96-.62,1.45-1.17,2.73-1.11,1.06.05,2.26-.79,3.3-1.06.48-.12.94-.37,1.22-.94.05,0,.08-.04.1-.09.08.03.13.02.15-.1.17-.09.36-.14.46-.37.2-.15.31-.46.54-.57.32-.14.69-.22.97-.45.21-.17.38-.24.61-.19,1.13.28,3.59-.55,4.82-.64.86-.07,1.7-.22,2.48-.65,1.02-.55,2.06-.97,3.18-1.25-1.18-.12-2.3-.59-3.45-.61ZM230.1,115.66c.02-.1,0-.35,0-.35,0,0,.03.25,0,.35-.06.09-.2.23-.2.23,0,0,.14-.14.2-.23ZM230.35,117.19h0q-.2,0,0,0ZM229.96,120.94c.06-.02.13.01.14.11,0,.02-.06.07-.1.07-.04,0-.08-.05-.11-.08.02-.04.04-.09.07-.1ZM229.21,116.01l-.6.67.6-.67ZM228.57,121.76h0c0-.1-.07-.24-.07-.24,0,0,.07.14.07.24ZM227.72,119.06s.02.03.03.06l-.03-.06h0ZM227.48,118.75l.22.3-.22-.3ZM226.4,122.12s-.04.04-.06.05h0s.06-.05.06-.05ZM225.97,122.64s.03.03.03.03c0,0-.02-.02-.03-.03h0ZM157.73,131.5h0c.13-.12.14-.13,0,0ZM159.23,130.97c-.12.07-.34.2-.34.2,0,0,.22-.13.34-.2.03-.05.09-.17.09-.17,0,0-.06.11-.09.17ZM159.48,130.33q-.33.18,0,0c.08,0,.28-.1.28-.1,0,0-.2.09-.28.1ZM155.77,134.52h0c.03-.06.12-.18.12-.18,0,0-.09.12-.12.18ZM161.69,130.97s.44-.3.66-.47h0c-.22.17-.66.47-.66.47ZM162.73,129.79c-.16.05-.24.07-.4.12-.07-.14.05-.31.26-.41.22-.1.37-.06.63-.24.05-.12.2-.35.2-.35,0,0-.14.23-.2.35.03.04.05.08.08.13h0c-.02.12-.04.23-.06.35-.3.23-.24-.13-.51.05ZM163.76,127.32s.29-.13.42-.16c-.03.08-.07.23-.07.23,0,0,.05-.15.07-.23-.13.03-.42.16-.42.16ZM163.72,127.12c-.12.15-.15.24-.11.29-.22.35-.51.54-.53.45-.07-.32-.54.06-.82.14-.07.02-.26.12-.26.12,0,0,.18-.1.26-.12.07-.12.14-.25.09-.28.17-.22.32-.26.49-.44h0c.06-.05.12-.1.18-.15.38-.22.54-.12.71,0q.69-.36,0,0ZM164.4,129.31s-.04,0-.04,0c0,0,.01.01.04,0,.14-.11.16-.12,0,0ZM166.15,126.85c.16-.2.5-.57.5-.57,0,0-.34.37-.5.57-.37.19-.39.2,0,0ZM165.12,128.24h0c.08,0,.27-.09.27-.09,0,0-.19.08-.27.09ZM165.73,127.45c-.04.16-.23.39-.23.39,0,0,.19-.24.23-.39.1-.08.25-.11.25-.11,0,0-.14.04-.25.11ZM166.33,126.89c-.06.02-.14,0-.14,0,0,0,.08.02.14,0,.03.04.13.03.13.03,0,0-.1,0-.13-.03ZM166.06,128.09h0s0,0,0,0ZM170.55,123c-.12.04-.38.19-.38.19,0,0,.26-.15.38-.19.36-.36.98-.7.98-.7,0,0-.62.34-.98.7ZM176.82,124.71l2.6-.91-2.6.91ZM181.23,122.62s.1-.04.1-.04l-.1.04ZM190.9,124.9c-.02-.21-.15-.49-.15-.49,0,0,.13.29.15.49h0ZM191.59,125.82s-.02-.04,0,0h0ZM192.04,126.11s0,0,0,0c0,0,0,0,0,0h0ZM194.16,114.43c-.13.07-.26.14-.38.21-.02-.04-.04-.09-.07-.13.09-.1.11-.22.12-.33.28-.19.4-.12.33.25h0ZM193.32,129.67c.16-.01.4-.18.32.22-.14-.02-.27-.05-.32-.22ZM197.17,113.36l.31-.05-.31.05ZM193.59,134.59h0c.43-.05.44-.05,0,0ZM195.84,131.26s0,0,0,0c0,0,0,0,0,0ZM196.4,134.01h0c-.13-.16-.14-.17,0,0ZM196.16,130.83h0s0,0,0,0c0,0,0,0,0,0ZM196.31,129.95h0q-.12-.31,0,0ZM196.24,130.29c.06.02.17.07.17.07,0,0-.11-.05-.17-.07h0ZM195.6,136.08l.66.71-.66-.71ZM203.05,142.82c-.03-.14-.07-.39-.07-.39,0,0,.03.26.07.39h0ZM220.66,125.19s.12-.06.11-.17h0c.02.11-.11.17-.11.17ZM221.57,125.96c-.08-.09-.29-.18-.29-.18,0,0,.2.08.29.18h0ZM225.04,124.58h0c-.98.74-1.03.79,0,0ZM222.41,122.87s.08.07.08.07c0,0-.06-.04-.08-.07-.02-.06-.08-.16-.08-.16,0,0,.06.11.08.16ZM222.31,126.76s.23-.13.29-.28h0c-.06.15-.29.28-.29.28ZM222.03,125.97s0,0,0,0c.22-.03.44-.07.66-.1h0c.29.05.87.14.87.14,0,0-.72-.16-1.53-.03ZM223.79,124.19s.14-.08.22-.13h0c-.07.05-.22.13-.22.13ZM222.48,112.22s.86-.09,1.27-.24c.07-.02.21-.02.21-.02,0,0-.15,0-.21.02-.41.15-1.27.24-1.27.24ZM224.99,125.65c.13-.28.51-.37.51-.37,0,0-.38.09-.51.37-.25.23-.72-.03-.72-.03,0,0,.47.26.72.03Z"/>
          <path class="cls-66" d="M212.33,251.6c-.48-2.02-1.42-.75-2.37-1.43-2.3-1.63-1.03-1.33-3.91-3.41-.3-.22-.64-.34-1-.26-.6.13-1.2.06-1.81.03-.33-.24-.7-.23-1.06-.27-.26-.39-.59-.55-.99-.52-.06-.02-.11-.04-.17-.04-1.82-.01-1.05-1.52-2.13-1.79-.31-.08-.59-.28-.88-.44-2.02-1.12-2.73-.73-3.6-1.63-.3-.9-.73-1.72-1.11-2.57-.32-.73-.77-1.26-1.45-1.4-.06-.14-.14-.24-.26-.29-.32-.07-.41-.45-.61-.69-.15-.34-.38-.66-.35-1.08.1-1.12-.5-1.67-1.14-2.21-2.89-2.4-3.96-2.99-5.31-2.41-1.92.82-3.51-2.29-4.33-3.38-.28-.38-.54-.61-.93-.59-.74-.89-1.4-1.9-2.39-2.38,0-.12,0-.23,0-.35.05-.01.11-.02.16-.03.62-.13.54-1.05.17-1.04-.4,0-.35.42-.4.75-.28.21-.53.53-.91.41-.07-.05-.14-.11-.2-.16-.02-.48-.13-.84-.51-.89-.39-.35-.86-.06-1.27-.32-.46-.29-.48-.25-.55.52-.19.14-.38.29-.57.42-1.44.99-1.34-1.12-3.45-.49-.49.15-.98.13-1.37-.41-.15-.9-.32-1.06-1.19-1.15-.15-.05-.31-.05-.46.01,0,0,0,0,0,0-.11-.28-.25-.53-.3-.85-.06-.35-.48-.4-.56.07-.05.3.06.63-.11.89-.02.01-.03.02-.05.03-.18.04-.36.08-.54.12-.17-.53,0-1.21-.45-1.61-.35-.56-.76-.37-1.04-.02-2.28,2.85-4.32.94-4.57,3.57-.03.27.04.66-.16.75-.59.26-.81,1-1.25,1.44-.48.47-.6.02-1.45-.81-2.22-2.19-3.55,1.62-4.96-.08-.62-.75-2.59-2.07-2.06-4.31.24-1.04.06-1.74.1-2.91.18-.23.34-.48.55-.69.76-.77.18-1.95-1.13-1.89-.09-.45-.06-.52-.46-.64-.06-.21-.19-.31-.36-.32-.54-.01-1.11-.14-1.62.09-.89.4-1.78.05-2.66.25-.38.09-.54-.35-.28-.76.17-.27.31-.52.35-.85.12-.94.47-1.81.64-2.73.08-.41.33-.78.32-1.21-.03-2.15,1.34-1.71.9-3.06-.13-.4-.46-.26-.73-.29-.93-.1-1.83.3-2.73.57-2.48.75-.88,2.98-2.8,3.62-1.25.41-2.51,1.37-3.12,1-.9-.54-1.95-.86-2.22-2.3-.07-.37-.82-.8-.78-2.01,0-.16-.09-.26-.2-.33-.6-1.02.08-2.27-.06-2.94.1-.64.1-1.31.47-1.87.59-.89.61-1.76.38-2.7.02-.34.03-.68.2-1.01,2.02-2.17,1.92-1.18,3.52-3.05.12-.07.23-.14.35-.21,1.23-.24,1.19-.2,1.57-.17.11.15.22.11.57.11,0,0,0,0,0,0,.15.19.33.15.52-.05.06.02.13.03.19.05,0,.2.11.28.26.3.42.88,1.59-.45,2.27.06.21.16.43-.1.45-.46,0-.12-.03-.24-.03-.36,0-.57.12-.74.56-.87,1.15-.33,1.26-.31,1.59-.34.27.18.52-.07.78-.25.55.01,1.1.04,1.46.54.72.99,1.24-.46,1.87-.25.72.24,1.28,1.56,1.03,2.58-.23.97,0,1.15,1.1,3.35-.17.79-.22,1.87-1.26,2.04-.07.01-.13.11-.1.29.63.1,1.29.08,1.95-.09.29-.07.56-.27.67-.68.07-.04.14-.07.21-.11.04-.01.06-.04.08-.09.03-.03.06-.07.08-.11.18-.05.24-.2.25-.4.36-1.15.49-2.28.15-3.34-.3-.93-.36-1.99-.76-2.84-.14-.3-.17-.69-.24-1.05-.11-.59-.05-1.18.26-1.78.38-.73.77-1.42,1.45-1.82.84-.49,1.44-1.43,2.1-2.24.48.02.95.07,1.32-.68.12-.23.42-.5.61-.52.72-.08,1.21-.81,1.81-1.21.41-.27.42-.61.42-1-.01-.51-.77-1.03-.07-2.05.89-1.29,1.35-2.89,2.34-4.14.13-.16.19-.43.25-.65.08-.34.26-.45.51-.61.68-.44,1.55-.14,2.06-1.3.03-.07.2-.08.3-.12,1.51-.57,2.12.14,2.27-.63.06-.3-.13-.34-.31-.36-1.06-.16-.27-2.28.63-2.79,2.97-1.66,3.06-1.43,3.86-2.19.44-.41,1.65-.83,2.18-.75-.23.37-.54.55-.81.79-.36.32-.52.82-.44,1.23.08.42.38.35.67.34,1.13-.05,1.5-1.61,2.46-1.64.17,0,.36-.12.55-.18,1.26-.43,2.43-1.31,3.63-2.01.8-.46.52-.47.22-1.39-.27-.83-.31-.66-1.81,1.14-.25.29-.73.13-.54-.26.31-.63-.03-.62-.33-.51-.66.24-1.16.07-1.62-.32-.59-.5-.53.52-.85.66-.39-.6-.3-1.27.28-2.03-.62-.08-1.27.36-1.74-.04.57.06,1.1-.17,1.64-.64.23-.2.55-.32.55-.71,0-.41-.24-.6-.54-.65-.12-.02-.25,0-.38.01-1.55.05-3.06.82-4.55,1.85-.21.14-.41.42-.66.21,1.21-1.99,2.3-1.29,2.82-2.23.34-.62.8-.92,1.31-1.07,4.43-1.25,6.44.12,8.58-1.88.93-.87,1.9-1.29,2.94-1.36-.03.2-.11.39-.24.53-.64.68-1.1,1.54-1.64,2.33-1.57,2.31-2.09,2.61-1.87,3.2.11.3.36.24.61.14.37-.15.74-.15,1.1-.22.71-.12,1.37.15,2.11-.06.88-.26-.16,1.31.93.91.39-.14,1.06-.97,1.32-.49.22.39.64.31.9.58.44.46.79-.06,1.29-.98.12-.21.2-.52.07-.65-.31-.33-.2-.98-.41-1.21-.35-.39-.45-.85-.6-1.35-.35-1.18-1.93.73-2.7-.81-.02-.04-.09-.04-.13-.07-.35-.28-.37-.51.01-.88.29-.29.42-.65.61-1,.09-.16.13-.36-.01-.4-.44-.13-.19-.44-.07-.8.47-1.43.18-2.2-.89-2.4-.34-.07-.57-.28-.66-.66-.29-1.18-1.25-.41-1.58-.68-.61-.5-1.46-.48-2.02-1.07-.22-.23-.44-.39-.45-.82,0-.32,0-.68-.28-.78-.04-.06-.08-.11-.13-.17-.04-.34-.06-.69-.43-.66-.03-.5-.54-.42-.63-.81-.22-.95-1.38-1.63-1.48-2.46-.04-.29-.29-.3-.51,0-.32.44-.75.79-.97,1.33-.2.51-.55.8-.9,1.08-1.98,1.59-2.35.61-2.83.42-.82-.33-.95-.98-.42-2.25.16-.38.07-.41-.17-.37-1.09.2-1.7.28-1.89-.09-.32-.61-.95-.68-1.49-.89-.24-.1-.54-.05-.86.11-.99.51-1.85.6-2.68.59-.9-.01-2.14.49-1.79,1.36.07.17.26.33.04.6-.84,1,.33,1.18-.26,1.95-1.39,1.82-1.71,1.74-.94,2.1.1.05.22.09.34.09.71-.03.91,1.13.72,2.01-.25.64-1.58,2.19-3.49,2.97-1.01.41-.2,1.05-.21,1.54-.01.52-.07,1.06.03,1.54.06.3-.08.66-.45.79-.31.1-.5.39-.73.67-.38.48-.79.61-1.01.26-.16-.26-.28-.54-.64-.51-.12.01-.16-.13-.1-.29.1-.28.32-.33.52-.33.41.01.65-.55.38-.82-.42-.43-1.64.2-1.15-1.49.28-.95.2-1.17-.52-1.07-.51.07-1.04.17-1.6.45-1.04.53-1.16-.43-2.34-.09-.1.03-.2-.02-.27-.06-.71-.45-1.34-.97-2.47-.59-.27.09-.46-.4-1.7.23-1.05.53-.92-.64-.96-.92-.08-.6-.51-.31-1.12-.13-.85.25-.02-1.55.62-2.23.37-.4.78-.76,1.03-1.27h0c.46-.42.91-.89,1.37-1.25.59-.46,1.18-1.13,1.77-1.32.64-.2,1.01-1.61,2.19-1.97.76-.23,1.51-.8,2.3-1.58.28-.27.55-.5.63-.88.04-.18.2-.32.34-.42.25-.19.5-.43.75-.55.03.24-.19.54-.32.81-.32.65-.58,1.36-1.28,1.75-.02.01-.05.04-.07.06-.38.42-.34.66-.07.55.26-.1.52-.18.8-.33.28-.16.4-.09.47.09,0,0,0,0,0,0-.07.35.15.2.56.05.18,0,.34-.12.5-.38,0,0,0,0,0,0,1.14-.51,1.35-1.5,2.16-1.25.36.11.8.01,1.22-.02.19.02.39-.03.63-.17.21-.1.42-.2.46-.54-.02-.46-.49-.12-1-.07.08-.39,0-.64-.29-.59-.62.1-.99-.25-1.61-.13-.27.05-.47-.04-.39-.45.29-.17.3.04.42.07.17.05.38.02.61-.19.29-.27.11-.42.19-.65,0-.02-.02-.03,0-.05.03-.06.06-.07.08-.03.45-.3.87-.79,1.33-1.09,2.78-1.83-.11-1.23,1.2-2.22.72-.54.85-.86.56-1.31-.18.31-.57.59-.57.59,0,0,.39-.28.57-.59,0,0,0-.01-.01-.02,0-.07-.04-.06-.1,0-.21.12-.41.2-.55.15,1.01-1.65,1.65-.09,3.26-1.45.09-.07.18-.07.19.03.02.22-.42.67-.74.87-.58.36-.81.42-.92.68-.06.13,0,.17.07.19.79.18.51.52,1.22.19.91-.43,0-1.05,1.2-1.98.09-.07.18-.09.27-.13.26-.35.41-.12,0,.01-.23.79.72.61-.23,1.4-.39.33-.42.57-.42.87,0,.25.09.39.31.39.24.02.48.02.78-.11.46-.05.95-.26,1.47-.59.49-.31,2.06-1.14,2-.58-.02.15-.1.28-.22.4-.33.32-.64.59-1,.82-.66.43-1.3,1.23-1.99,1.41-.42.71-.86.74-1.29.85-.51.13-.97.63-1.42,1.11-.3.31-.35.63-.14.67.48.08,1,.15,1.62-.2,1.93-1.09,3.35-.89,4.57-.01.3.21.68.28.92.61.09.12.28.06.45-.04.43-.25.8-.32,1.11-.11.15.1.38.04.59-.02.04.01.07.02.11.02.03.12.1.2.21.2.95.02,1.93-.07,2.95.11-.04-.51,0-.93-.51-.68-.36-.5-.95-.57-1.49-.72.15-.45.43-.49.69-.59,1.65.55,1.39-.08,2.02.55.18.17.38.35.92-.02-.54.12-.47-.14-.38-.52.09-.38.22-.54.49-.66.12-.05.25-.14.29-.32.06-.3-.21-.25-.43-.23-.03-.06-.06-.13-.1-.19.09-.47-.03-.68-.41-.59-.06-.04-.11-.09-.17-.13.03-.09.01-.13-.07-.1-.01-.03-.02-.05-.03-.08-.01-.02-.02-.03-.03-.05-.03.02-.04.02-.07.04-.23.08-.45.16-.68.25,0-.72-1.08-.65-.65-1.89,1.83-.8,1.67,1.07,3.5.84,0-.04-.03-.1-.03-.1,0,0,.03.07.03.1.3.06.46-.17.53-.54.23-.22.47-.33.7-.4.72-.2,1.11-1.08,1.67-1.63.03-.03.02-.11.04-.17-.04-.23-.22-.22-.38-.26-.06-.18-.19-.08-.38-.03-.57-.19-1.14-.35-1.79-.32-.35-.31-.75-.53-1.3-.36-.78.23-1.26-.2-1.88-.29-.13-.02-.17-.15-.12-.34.12-.52.57-.31.78-.73-.06-.2-.34-.15-.3-.48.07-.53-.23-.6-.56-.63-.13,0-.33.13-.35-.1-.02-.43-.32-.23-.59-.07-.04-.04-.09-.08-.13-.12,0-.01,0-.02,0-.04-.01,0-.02.01-.03.02-.24-.04-.57.2-.82.17-.14-.02-.39.22-.48.08-.22-.32-.68-.23-.96-.43-.32-.02-.61-.1-.99.07-.66.3-1.17.29-1.59.06-.52.18-.69-.3-1.17-.17-.08-.08-.2-.05-.36.1-.04,0-.09,0-.13,0,.32-.46.33-.52.06-.56-.21-.01-.45.03-.61-.05-.55-.27-1.21.18-2.38.49-.24-.05-.48-.1-.89.26h0c-.06.06-.13.13-.19.19-.57.41-1.04.05-2.04.75-.53.28-1.05.56-1.57.85-.26-.49-.9-.19-1.66.33-.77.38-.96.26-1.49.86-.77.5-1.51,1.22-2.22,2.15-.31.27-.38.54-.5.81-.41.75-.02.78.11,1.04.16.32.7.1,1.18-.04.29.23.66.28,1.36-.35.19-.01.38-.02.63-.16-.18.5-.35,1-.53,1.5-.33.4-.51.91-.94,1.22-.07,0-.13.01-.2.02-.02-.1-.04-.23-.19-.13-.2.13-.26.31-.3.49-.03.17.17.2-.06.49-.18.24-.36.27-.52.33-.28.09-.4-.07-.59-.12-.24-.07-.21-.16.13-.59.79-.98.25-.93-.47-.98-.13,0-.3.09-.49.28-.8.32.09-.35-1.02-.1-.28.07-.64.2-.4-.39,0,0-.1.03-.16.05-.01,0-.03-.02-.04-.02.17-.4-.09-.28-.64-.17.49-1.02-.5-.45-.49-.82.25-.36.54-.48.74-.81.2-.34.42-.42.63-.6.35-.04.8-.33,1.31-.81.1-.04.19-.13.28-.26.16-.15.32-.31.48-.46.1-.04.19-.11.3-.25.23-.19.46-.43.6-.61-.49.08-1.09.46-1.84.71-.67.22-1.42.62-2.23,1.16-.37.24-.74.6-1.03,1.11-.17.3-.65.76-.28.58.1,0,.08.12.11.18q-.19.59-.8,1.16c-.21.2-.44.38-.62.67-.1.03-.23.12-.36.24,0,0-.04.04-.04.04-.11.17-.19.33-.23.47-.19.41-.54.93-.33,1.1-.37.24-.61.37-.73.25-.19-.19-.66.17-1.09.57-.4.37-.79.84-1.18,1.04-.08.04-.18.16-.23.27-.1.21.08.1.85,0-.35.31-.65.52-.83.95-.17.41-1.09.46-2.32,1.23-1.46.92-1.13.37-2.29.96-.16.08-.32.13-.41.11-.24-.05-.61.09-.84.06.12-.47-1.42.86-2.27,1.34-.03.02-.09.07-.13.11-.31.27-.42.43-.32.51.06.05.23,0,.02.28-.19.26-.31.28-.59.45-.07.03-.13.06-.2.1.13-.36.11-.35-.29.06-.11.07-.22.12-.25.07.02-.22-.21-.09-.56.22-.08.06-.17.11-.25.17-.08.04-.16.11-.26.21-1.32.89-2.54,1.63-3.55,2.07.53-.55.83-.59,1.33-1.15-.54-.12-1.33.58-2.2,1.14-8.38,13.05-13.79,25.18-17.95,40.13,0,.14.04.26.08.38.89,2.59.51,2.76,1.01,3.05.31.17.6.38.8.72.12.22.34.37.18.78-.18.45-.48.49-.77.57-.03,0-.07.08-.1.12.23.53.6.95,1.11,1.04.45.08.74.36,1.07.61,1.01.74-.27,1.43.39,2.01.46.41,1.44.85,1.78,1.8.07.2.14.43.38.24.23-.18.55-.43.43-.74-.14-.36-.23-.92-.57-.96-.53-.07-.68-.35-.58-.97,0-.04-.03-.1-.06-.13-.33-.4-.43-.96-.5-1.52-.11-.79-1.16-1.35-1.17-2.52,0-.11-.12-.17-.19-.25.18-.88.05-1.08-.65-.99-.76-.59-.65-.81-.45-2.44.35-.02.65.16,1.05-.03.59.49.3.24.57.84,0,0,0,.01,0,.02-.07.75.57,1.13.24,2.04-.03.08.02.15.1.12.43-.12.45.59.99.8.02.38.48.23.51.53.09.71.58.93,1.01,1.24.64.45-.4,1.03.39,1.44.21.11.44.19.67.28.02.04.04.06.07.08,0,0,.13.17.13.17.12.36.3.66.61.81.09-.1.17-.35.17-.35,0,0-.09.24-.17.35.44.64.92,1.26,1.32,1.97,1.62,2.86-.32,3.24.78,4.53.8.94,1.05.52,1.62,1.37.12.18.28.31.46.37,1.03.31,1.92.98,2.89,1.51,1.19.65,2.45,1.17,3.71,1.72,2.93,1.28,2-2.97,5.9,1.91,1.19,1.49,1.5.59,3.39,1.7.76.45,1.13.35,1.92.31.24.24.26.74.62.83.37.64.78,1.24,1.27,1.72,1.31,1.29.07,2.13,1.15,2.78.53.32,1.74.33,1.95,1.27.41,1.75,2.37.98,2.76,1.85.21.48.65.55.95.91.23.28.55.07.79-.14.21-.19.13-.46,0-.71-.26-.52-.08-.63.85-1.59.13-.13.29-.14.44-.01.29.25.65.43.75.9.36,1.59,1.27,2.13,1.51,3.35.13.65-.16,1.25.02,1.88.2.72-.29,1.46.2,2.17.02.03,0,.14-.03.18-.26.48-.36,1.13-.94,1.25-.9.18-.35,2.42-1.68,2.52-.25.02-.52.12-.5.55.04.94-.4,1.59-.6,2.36-.16.62-.01,1.41,0,2.13,0,.02.03.07.05.08.45.24.71.91,1.23,1-.07.14-.14.28-.22.41-.53.27-1,.6-1.08,1.4,0,0,0,0,0,0-.4.14-.21.41.07.82.08.53.44,1,.45,1.54-.63.45,1.36,1.1,1.89,2.71.07.21.19.43.33.6.74.92,1.2,2.04,1.7,3.11,2.24,4.82,3.19,4.98,3.12,6.38,0,.08.13.21.2.32.01.04.03.07.05.1.02.12.08.2.18.24.38.68.99,1.05,1.4,1.69.64.67,1.44,1.15,2.18,1.55.2.25.41.47.68.5,1.99,1.32,1.93,1.82,2.97,2.77.09.25.29.35.44.51h0c-.01.06,0,.12.04.18.14.82.12,1.08.38,1.55.48,3.32.71,4.14.28,5.07-.07.15.07.36.1.54.15.75.78,3.05.47,6.07-.05.48.1,1.07-.12,1.45-.08.14-.02.32.11.49.17.22.25.46.35.7.14.11.4.21.4.21,0,0-.26-.1-.4-.21-.02.13,0,.3-.06.38-.36.56-.13,1.31.21,2.11.52,1.66.3,2.97.27,4.35,0,.13,0,.28-.08.33-.22.13-.14.51-.2.77-.13.56.08,1.4-.45,1.61-.19.08-.07.43.07.74.51,1.2,1.09,2.42.84,3.39-.02.09.04.26.05.39.09,1.06.41,2.23.25,3.12-.07.39.88.83.92.46.04-.37.22-.68-.05-1.25-.08-.16-.13-.29.01-.28.12.01.22.14.3.29.17.31.11.53.16.79.06.29-.06.57.34.91,0,0,.07.15.07.15-.09-.01-.19.06-.2.24-.03.88-1.6-1.08-1.02.84.28.93.08,1.4-.23,1.78-.12.15,0,.32.17.53.46.54.46-.37.99.68.04.07.12.15.18.22.02.11.04.21.07.32-.07.04-.07.14,0,.28,0,.01,0,.02-.01.03-.91-.41-.97-.36-.66.56-.07.13,0,.33.11.56.3.6.6,1.19.69,1.73.09.53.83.71.64,1.24-.04.11-.03.22.12.46q1.05,1.66,2.28,2.95c.1.11.23.2.31.31.5.76.99,1.08,1.49,1.24.41.55.9.93,1.25,1.09.52.22,1.05.68,1.56.99.34.56.41.26.56.21.08.03.16.07.24.1.44.77.86-.07,2.56.42.12.03.23.02.21-.15-.03-.24-.21-.32-.35-.44-1.4-1.15-2.21-1.73-2.42-2.67-.18-.81-.63-.92-1.41-2.22-.91-1.52.72-.53.58-1.97-.11-1.16.78-.71,1.24-1.17.29-.29.08-1.66-.85-1.9-.36-.1-.73-.19-1.09-.29-.32-.31-.71-.4-.77-1.19.32,0,.31-.33.3-.67-.03,0-.06-.02-.06-.02,0,0,.03,0,.06.02.67.02.93.18,1.09-.13.18-.03.33-.02.27-.29.26-.3.07-.86-.01-1.36.03,0,.05-.02.05-.07.03-.17.1-.28.24-.32.42.09.71-.16,1.12-.12.48.05-.14-1.7-.66-1.38-.29.18-.64.05-1.01-.08-.08-.34-.17-.69-.25-1.03.1-.57.11-.57.61-.3.21.12.44.41.64.29.96.23,2.26.8,2.13-1.08-.05-.7.16-.96.69-.91.25.02.48-.02.73-.02.17,0,.3-.04.31-.27,1.04.06,1.51.29,1.74-.36.09,0,.18,0,.27-.01h0c.6-.3.86-.99,1.08-1.73.05-.16.02-.43-.06-.61-.33-.73-.21-1.3-.06-1.88.38-.11.71-.42,1.2-.19,1.07.51,2.28-1.34,2.86-2.3.24-.4.43-.97.57-1.52.28-.19.61-.32.77-.7.38.03.57-.18.57-.66,0,0,0,0,0,0,.48-.26.45-.87.49-1.44.37-.51.7-1.08,1.12-1.53,1.38-1.47-.46-3.68.75-5.11.43-.51.95-.93,1.47-1.34,1.74-1.39,1.42-.14,2.18-1.09.35-.43.75-.82,1.29-.91.7.17,1.38.07,2.08.12.25.02.49-.04.57-.37.24-.94,1.34-.33,1.19-1.48-.06-.45.11-.83.25-1.21.4-.17.41-.61.45-1.02.37-.15.51-.54.6-.97,0,0,0,0,.02-.01.66-.24-.15-1.79.85-2.34.29-.16.35-.47.2-.85-.57-1.44.39-2.29-.02-3.49-.35-1.02-.08-2.04-.12-3.06-.04-.9.97-.46.98-1.44h0c.42-.42.86-.84.82-1.64,0,0,0,0,0,0,.18-.05.28-.19.29-.42.2-.14.32-.35.37-.64.18-.04.29-.17.33-.38.61-.2.35.14,1.33-1.67,0-.01.01-.02.02-.03.29-.03.42-.29.56-.56,1.05-1.93.93-3.92.08-5.95ZM185.96,157.07c.11-.1.27-.17.29.02.02.13-.12.19-.22.22-.09.02-.19.03-.28.04.07-.1.13-.21.21-.28ZM157.13,172.61c.49-.34.98-.66,1.49-.78.62-.14,1.23-.15,1.88-.47.33-.16.51.02.48.45-.14.2-.27.4-.41.61-.49.32-.97.38-1.42.34-1.25-.11-2.29.72-2.23.15.01-.13.11-.23.21-.3ZM157.39,173.95c0,.05.04.16.04.16,0,0-.03-.1-.04-.16-.65.66-1.42.8-2.07,1.42-.09.1-.28.2-.28.2,0,0,.19-.11.28-.2-.19.02-.38.09-.56.27-.02,0-.03,0-.05,0-.59.15-.98.74-1.82.61-.26-.04-.32-.36.03-.64.19-.15.38-.34.57-.42.89-.38.75-.78,1.3-.8,1.39-.05,2.46-1.24,2.61-.43ZM154.06,169.54c.22-.03.4-.08.27.39-.12.42.38.49.72.11.18-.2.29-.55.57-.57.3-.02.47.19.67.38.36.36.59.77.21,1.55-.33.08-.55-.11-.81-.2-.21.16-.42.32-.63.47-.26.3-.46.63-.56,1.02-.21.8-.59,1.1-.86,1.1-.48,0,.26-1.31-.68-1.11-.25.05-.3-.08-.22-.41.36-1.56.17-1.16-.79-1.65.54-.76,1.44-1,2.12-1.09ZM150.8,171.51h0c-.36.1-.73.14-.98.71-.51.77-.85,1.5-.66,2.3.14.61-.45,1.7-1.05,2.1-.51.34-.92.07-.89-.66.07-1.38.35-1.68.89-3.12.07-.19-.02-.25-.14-.25.12-.67.61-1.22,1.02-1.46.57-.32,1.17-.67,1.75-.79.49-.1.49-.09.46.59-.13.19-.26.39-.39.58ZM144.48,170.43c.6-1.11,1.41-1.14,2.63-2.11,1.08-.85,2.15-1.42,3.19-1.45.54-.01.09,1.04,1.04.92.2-.03.49-.17.52.11.04.4.27.72.08,1.26-.07.2-.22.42-.34.3-.4-.4-1-.05-1.49.27-.94.62-1.37.1-1.93-.14-.19-.08.11-.38.07-.59-.35.09-.71.38-1.05.64-.39.3-.78.47-1.16.71-.23.14-.46.21-.6.1-.26-.2-.62-.08-.96-.02-.08.09-.16.17-.24.16-.01,0-.01-.04-.02-.05.08-.04.17-.08.25-.12ZM176.27,143.39h0c-.3.04-.86.05-.86.05,0,0,.57,0,.86-.05ZM174.75,141.55c.31.06,1,.06,1,.06,0,0-.68,0-1-.05-.09.1-.18.2-.26.3h0c.09-.1.18-.2.26-.3-.05-.28-.45-.4-.45-.4,0,0,.4.12.45.4ZM172.66,138.64c.46-.86.55-.94.89-.51.23.29.68.02,1.04.15-.36.48-.68.51-.96.54-.31.04-.64.22-.95.27,0-.15-.01-.31-.02-.46h0ZM172.93,140.65c.03.12-.09.2-.18.27-.15.04-.23.05-.38.09h0c-.35.06-.56.18-.49-.12.15-.65.93-.75,1.05-.24ZM166.76,135.87c.19.03.52-.15.47.35-.25.04-.44.06-.66.16-.34.16-.19-.57.19-.51ZM157.8,143.19c.27-.09.57.05.49.25-.15.37-.88.58-.94.27-.01-.05,0-.12,0-.2.2-.22.33-.27.46-.31ZM187.27,299.89l.1-.41-.1.41Z"/>
          <path class="cls-29" d="M140.41,194.11s.09-.07.11-.15c.01-.13-.08-.27-.08-.27,0,0,.09.15.08.27-.02.08-.11.15-.11.15Z"/>
          <path class="cls-31" d="M180.08,138.37l-.04-.23.04.23Z"/>
          <path class="cls-14" d="M175.48,142.76s-.2-.1-.3-.15h0c.1.05.3.15.3.15Z"/>
          <path class="cls-2" d="M166.14,132.77c-.13.04-.2.06-.33.1.11-.03.22-.07.33-.1Z"/>
          <path class="cls-45" d="M163.95,133.19s-.14.06-.22.11h0c.08-.04.22-.11.22-.11Z"/>
          <path class="cls-72" d="M161.12,134.56h0c.37-.23.41-.25,0,0Z"/>
          <path class="cls-13" d="M132.67,213.3h0s.02-.03.04-.04c-.01.02-.04.04-.04.04Z"/>
          <path class="cls-28" d="M154.21,249.68l.66-.04-.66.04Z"/>
          <path class="cls-33" d="M172.9,303.95s.04-.14.04-.14c0,0,0,.11-.04.14h0Z"/>
          <path class="cls-77" d="M173.09,304.52s.03-.04.05-.07h0s-.05.07-.05.07Z"/>
          <path class="cls-5" d="M181.24,319.43c.09.12.09.26.09.26,0,0,0-.14-.09-.26-.06-.17-.06-.19,0,0Z"/>
          <path class="cls-7" d="M179.07,307.4h0c-.05-.21.05-.45.05-.45,0,0-.1.25-.05.45Z"/>
          <path class="cls-58" d="M187.58,296.56s0-.11,0-.17c-.18-.22-.21-.25,0,0,0,.06,0,.17,0,.17Z"/>
          <path class="cls-39" d="M144.05,145.43c-.48-.08-1.02.53-1.13.16.14-.2.33-.46.25-.48-.16-.06-.08-.37-.21-.44.22-.4.65-.75.95-1.12.12-.06.23-.16.36-.35.02-.01.04-.03.05-.04.05-.06.04-.07-.01-.03-.49.15-1.06.47-1.89,1.18-.52.57-.87.86-.9.7-.02-.1-.08,0-.24.15-.55.53-.49.59-.58,1.14-.13.2-.31.5-.39.39-.05-.08-.32.04,0-.4.05-.07.06-.11.01-.09-.2.09-1.3.41-1.54.87-.18.35-.39.42-.58.6,0,0,0,0,0,0,.17-.28-.2-.02-.5.12-.41.19-.91.55-1.64,1.24.4-.59.34-.64-.21-.19-.16.13-.42.38-.36.24-.09-.06-.44.18-.63.26-.08.03-.16.07-.24.13-.88,1.09-1.32,1.64-2.17,2.75.03-.02.05-.03.08-.05-.03.03-.06.05-.09.07-.23.3-.34.45-.56.75.22-.14.59-.4,1.2-.82.12-.08.26-.19.44-.38.06-.04.11-.08.17-.12.45-.22,1.12-.75,1.61-1,.16-.09.31-.18.47-.26-.25.25-.4.32-.57.44-.71.47-2.8,1.82-3.58,2.5-.13.17-.19.26-.31.43.02,0,.04,0,.06,0,.39-.08.42-.15,2.42-1.4-.24.42-.25.6.2.33.96-.6,1.92-1.15,3.02-1.93.06-.04.12-.07.18-.11.26-.1.69-.56.98-.71.32-.16.69-.44,1.11-.81,1.26-1.11,1.66-.75,1.9-.87,2.56-1.31,2.58-1.3,2.77-1.62.19-.32-.08-.18-.17-.22-.01,0,.03-.07.08-.18.32-.16.65-.36.86-.34.13,0,.29-.14.46-.37.58-.78-.69-.06-1.06-.12Z"/>
          <path class="cls-42" d="M140.56,147.32q.2-.28,0,0s-.03.02-.03.02c0,0,.02-.02.03-.02Z"/>
          <path class="cls-25" d="M140.17,147.8q.14-.09,0,0c-.09.08-.23.2-.23.2,0,0,.14-.11.23-.2Z"/>
          <path class="cls-32" d="M159.54,208.25c.27,0,.64.07.71-.26.04-.2-.13-.25-.2-.37-.37-.6-.9-.56-1.44-.52-.05-1.25-1.67.1-2.46-2.28.85.03,1.62.05,2.4.08q-.36-.96.31-1.66s0,0,0,0c.14.1.35.2.41,0,.08-.27,0-.72-.27-.63-.53.18-.74-.32-1.08-.53,0-.49-.39-.73-.44-1.15.12-.25.25-.19.38-.18.74.05.08-1.63-.74-.81-.2.2-.51.16-.62.48-.13.37.2.56.21.89,0,.1.05.18.06.28.05.34.22.47.49.46.16,0,.31.05.46.08-.03.2-.07.39-.1.59-.99.52-.97.59-1.08-.3-.04-.34-.14-.6-.38-.75h0c-.05-.5.08-1.04-.4-1.33,0-.11-.01-.23-.02-.34.21-.1.54-.06.53-.48,0-.41-.32-.31-.55-.28-.62.08-1.19-.8-1.31.1.36.21.73.42,1.1.63-.07.19-.29.49-.29.49,0,0,.22-.3.29-.49-.37-.21-.73-.42-1.1-.63-.12.16-.21.32-.12.52,0,0,0,0,.01.01.06.07.13.15.19.22-.16.29-.23.56-.01.81-.02.19-.03.37-.05.56-.24.96.09,1.95.8,2.42.16.1.4.09.44.4-.09.04-.15.1-.19.08-.85-.33-1.83-.07-2.58-.74-.18-.16-.44-.13-.68-.11-.44.02-.88.02-1.33.06-.75.08-2.73.54-3.05,1.42-.12.34.02.69.26.57.5-.25.77.11,1.09.4.55.5,1.88.46,2.32-.2.31-.45.61-.49.97-.53.25.32.5.64.92.55.05.02.1.03.15.05-.11,1.45,1.61,1.26,2.21,2.64.12.28.33.29.53.06.15-.03.31-.05.46-.08h0c.43.07.87.08,1.31-.04.48.08.96.12,1.43-.18ZM156.14,201.84l.1.79-.1-.79Z"/>
          <path class="cls-63" d="M315.51,255.35c-.06-.44.11-1,.1-1.47.26-.71.16-1.2-.05-1.63-.16-.31-.44-.19-.72.29-.17.3-.21.58-.3.87-.2.16-.4.38-.6.49-.52.28-.75.69-.83,1.21-1.37,1.84-2.9,2.5-3.99,3.2-.16.1-.31.14-.45.37-.92,1.53-1.16,2.36-1.07,3.64.02.26-.04.6-.27.91-.4.56-.71,1.16-1.2,1.7-.51.56-.92,1.24-.86,1.75.12.98-1,2.84.01,2.86.73.3,1.47-.47,1.74-.62.06-.05.13-.1.19-.15.05-.03.1-.05.15-.08.23.1.49-.21.72-.52.44-.61.9-1.22,1.22-1.86.67-1.33,1.6-2.65,2.31-3.99.72-1.35,1.66-2.7,2.21-4.07.04-.1.1-.24.17-.31.46-.43.44-.79.5-1.17.03-.15-.04-.3.17-.5.21-.09.16.31.44.05.25-.23.3-.5.37-.75.02-.08.04-.16.04-.22ZM313.13,257.61c-.06-.05-.18-.16-.18-.16,0,0,.12.11.18.16q-.07.23,0,0Z"/>
          <path class="cls-57" d="M244.48,156.24c.35.26.73.26,1.09.3,1.43.18,1.71-.81,2.54-.58.68.19.95-.25,1.15-.88.13-.39-.02-.75-.13-1.12-.48-1.54,1.35-.72.15-2.09-.71-.81-1.48-.72-2.22-.82-.58-.08-1.12.02-1.14.95-.01.73-1.42-.15-1.56.54-.08.39-.08.81.19,1.2.15.23.48.31.45.68-.03.33-.28.47-.44.69-.06.09-.16.13-.23.21-.28.33-.24.63.15.91Z"/>
          <path class="cls-54" d="M150.64,137.27c-.17-.08-.64.33-.94.45-.38.16-.97.76-1.42,1.07-.04.03-.15.14-.18.19-.23.35-.36.41-.43.37-.18-.09-.58.14-.9.26-.12.05-.29.14-.53.4-.2.37-.06.39.15.29.44-.21.76-.22,1.35-.6.26-.17.5-.31.76-.47.19-.12.34-.19.24.05-.15.38.17.11,1.98-.97.16-.1.29-.26.4-.45.09-.01.22-.11.38-.28.2-.33.2-.51.35-.81.09-.18.01-.24-.14-.17-.25.12-.44.11-.83.48-.08.08-.21.18-.23.17ZM148.99,138.39c.2-.2.24-.15.34-.22-.13.11-.28.25-.34.22ZM149.32,138.23c-.06.04-.04.02.03-.05.02-.02.04-.04.06-.07,0,0,0,0,0,0-.03.04-.08.11-.09.13Z"/>
          <path class="cls-51" d="M160.73,211.39c.54-.35,1.06-.04,1.58-.23,1.3-.48,1.13,1.67,1.69.45.14-.3.26-.74.56-.68.8.16,1.6-.49,2.4-.04.59.34,1.11-.84.24-1.07-.95-.25-1.98-1.94-3.45-1.44-1.42.48-1.15-.27-1.95-.13-.16.03-.34.08-.39.31-.04.2.11.27.21.38.42.46.41.47-.01,1.15.24.08.53-.13.55.21.02.38-.26.37-.48.35-.32-.03-.77-.19-1.43-.22-.2-.01-.44.17-.29.43.18.31.53.71.78.55Z"/>
          <path class="cls-24" d="M305.55,152.34c-.94-.84-1.79-1.7-1.58-1.76.06-.02.12-.04.17-.06-.63-.8-.96-1.2-1.61-1.98-.37-.21.21.34-.36.14-.09-.06-.18-.12-.28-.18-.04-.03-.05-.04-.04-.02-.02,0-.05-.02-.07-.02q-.36-.23-.01.28s-.1-.04-.15-.06c-.11-.07-.12-.05-.06.05-.02,0-.04,0-.05,0-.17-.12-.41-.31-.21-.02.56.81-.65-.34-.28.21.14.21.38.46.55.59.44.32,1.05.97,1.39,1.13.06.03.16.13.25.23.25.26.42.37.63.54.67.55,1.61,1.2,2.2,1.61-.2-.27-.3-.4-.51-.67ZM302.31,149.15c0-.07-.27-.37-.27-.37,0,0,.26.3.27.37.04.04.12.09.12.09,0,0-.07-.05-.12-.09Z"/>
          <path class="cls-70" d="M140.2,143.98c.49-.29,1.3-.98,2.05-1.57.09-.07.22-.19.31-.31.15-.19.26-.28.42-.43.26-.24.66-.64.8-.83.22-.29-.17.05-.25.07-.03,0-.12.09-.18.14-.16.1-.37.28-.6.46-2.01,1.68-1.65,1.35-2.35,2.14q-.4.45-.19.33Z"/>
          <path class="cls-15" d="M155.54,133.81c.17-.05.37-.17.63-.42.09-.08.19-.17.24-.28.07-.14-.01-.12-.1-.07-1.08.57-1.26.81-1.11.5.2-.41.34-.24.6-.51-.49-.03-1.24.43-1.92.78-.23.07-.54.25-.85.46-.29.19-.43.4-.51.63-.02.02-.04.03-.06.05-.02.02-.04.06-.04.06,1.56-.07,2.28-.94,3.13-1.19Z"/>
          <path class="cls-47" d="M290.93,137.65c.65.62,1.11.97,1.55,1.31.18.13.29.2.24.08.26.23.42.33.8.74.07.08.19.17.12.07-.34-.49-.06-.12.58.33.03.03.08.07.09.08.03.02.03,0-.07-.09-.27-.26-.48-.43-.81-.79-.04-.04-.15-.14-.15-.14-.04.04-.47-.36-.6-.4-.41-.15-.82-.65-1.01-.8-.71-.57-1.32-.99-1.96-1.42,0,0,.03.05.06.1.07.06.14.11.21.17.36.31.6.44.95.77Z"/>
          <path class="cls-56" d="M298.26,143.7c-.06-.05-.2-.19-.2-.19,0,0,.14.13.2.19-.29-.31-.44-.47-.74-.78-.08-.07-.14-.13-.21-.18-.2-.18-.62-.58-.62-.54,0,0-.11-.1-.17-.15-.34-.3-.49-.41-.39-.23.03.05.01.05-.1-.05-.23-.25-.42-.46-.42-.39,0,.02-.08-.04-.12-.06-.03-.02-.06-.05-.08-.07-.05-.04-.17-.15-.08-.03.15.19.47.45.64.59.57.48.81.61,1.46,1.2.06.06-.14-.14-.19-.2-.21-.22-.15-.17-.01-.03.19.16.5.5.74.73-.07-.08,0-.03,0-.03,0,0-.07-.06,0,.03.38.38.61.57.82.75-.21-.22-.31-.33-.52-.55ZM297.51,143.02s.4.33.4.36l-.4-.36Z"/>
          <path class="cls-10" d="M189.94,317.57c-.56-.33-1.04-.16-1.48-.45-.56-.24-.78.02-.99.27-.09.11-.29.12-.09.44.48.79.51-.13,1.37.6.34.29,1.18-.02,1.43-.18.1-.06.3-.03.22-.29-.09-.29-.29-.3-.46-.39Z"/>
          <path class="cls-69" d="M156.48,198.7c.27.58,1.06-.47.66-.88-.73-.77-2.55-1.48-2.41-.18.14,1.27,1.18-.16,1.75,1.06Z"/>
          <path class="cls-71" d="M150.39,139.88c0-.05,0-.1.01-.15-.03.01-.07.01-.07.01,0,0,.04,0,.07-.01,0,.05,0,.1-.01.15.18-.08.33-.25.46-.48.14-.25.03-.24-.07-.24-.42-.04-1.07.41-1.82,1.03-.15.06-.29.12-.44.2-.44.22-.9.5-1.49,1.1-.1.1-.23.18-.28.31-.12.27.8-.38.5.07-.22.33-.72.43-.92.52-.12-.23-1.07.6-.95.78.48.24,1.28-.74,1.9-.29.23.16.63-.04,1.15-.36.21-.16.42-.33.62-.49.18-.08.4-.27.61-.43q.58-.34.92-1.04c.17-.25.14-.36.2-.54.12-.33.11-.32-.35.09-.06.02-.14.06-.19.07-.15,0,.02-.14.15-.27ZM149.64,140.47h0c.04-.06.13-.13.13-.13,0,0-.09.07-.13.13Z"/>
          <path class="cls-65" d="M300.08,149.88c-.07.12.16.49.55.74.11.07.22.13.33.19,0,0,0,.01.01.02.15.08.35.22.45.22.15,0,.53.23.35-.05-.23-.37-.56-.51-.85-.75-.28-.24-.76-.52-.84-.37Z"/>
          <path class="cls-74" d="M158.19,147.58c-.15.2-.14.32,0,.35.51.1,1.39-.48,2.02-1.37-.46-.09-1.02.26-1.56.54-.14.07-.31.3-.45.48Z"/>
          <path class="cls-6" d="M155.67,210.64c-.21.02-.47,0-.54.32-.09.37.16.52.37.66.61.43,1.26.31,1.92.12.28-.08.26-.53.06-.61-.74-.29-.69-.61-1.81-.5Z"/>
          <path class="cls-44" d="M176.54,160.61c-.08,0-.2.08-.31.33.38.08.68.4,1.03.5.39.11,1.61.61,1.82.05.07-.19-.02-.28-.12-.36-.69-.56-1.6-.43-2.42-.53Z"/>
          <path class="cls-34" d="M211.15,324.31c.32.32.68.45,1.01.57.34.12.54.71,1.01.5-.51-.94-1.1-1.24-2.01-1.07Z"/>
          <path class="cls-60" d="M262.48,123.62c.09.04.17.08.26.11.03.04.05.06.08.07.11.23.25.33.4.38,1.15.58,1.4,1.85,2.12,2,.59.27,1.19.73,1.81,1.21.48.38.54.34.66,0,.05-.14.05-.35.16-.39.27-.08.66,0,.6-.49.35.07.46-.24.86-.09.91.4.64.36,1.36,1.09.26.26.07.37.25.64.46.31.63.26,1.17.43.37.35.82.96.98.6.27.02.72.32.76-.03-.22-.22-.03-.09-.69-.44-.28-.34-.55-.46-.83-.7-.25-.28-.42-.31-.61-.39q.03.06,0,0c-.23-.29-.47-.63-.63-.62.02.05.04.09.05.14-.51-.24-.56-.26,0,0-.01-.04-.03-.09-.05-.14-.13-.13-.27-.26-.4-.39-.05-.2-.24-.34-.36-.5.43.18.86.37,1.28.56,1.17.82,2.57,1.27,3.47,1.18-.24-.19-.49-.45-.65-.52-.82-.39-1.81-1.13-2.59-1.36-.13-.04-.25-.03-.45-.26-.71-.8-.64-.11-1.1-.39-.64-.39-1.28-.76-1.92-1.12-.14-.18-.23-.19-.34-.23-.35-.11-.39.21-.63.26h0c-.08,0-.11.04-.04.19-.48-.38-1.47-1.22-2.08-1.13-.03.03-.06.07-.1.1-.25.56-.62-.34-.89-.3.02.07.07.17.07.22,0,0-.04-.15-.07-.22-.6-.54-.3.4-1.05-.13-1.61-1.13-1.84-1.12-2.5-1.17-.17-.01-.07.21.08.41h0c.08.16.26.28.29.45.04.28-.35-.14-.36.08.34.59,1.15.95,1.63.88ZM272.16,127.97h0c-.08-.05-.08-.05,0,0ZM267.79,124.37c.43.36.39.33,0,0h0ZM264.21,124.53s0,.01,0,.01h0s0,0,0-.01ZM262.5,123.52s-.05-.02-.08-.03h0s.08.03.08.03ZM261.92,122.62s-.05-.02-.05-.02l.05.02ZM261.48,122.93s-.02.02-.03.03c-.02-.02-.03-.04-.05-.06.03-.03.01-.04.07.03Z"/>
          <path class="cls-55" d="M159.04,132.1c.23-.15.44-.59.25-.53-.3.09-.72.31-.98.5-.19.14-.34.35-.42.55-.15.38.12.18,1.15-.51Z"/>
          <path class="cls-26" d="M145.76,139.87c.15.14.77-.31,1.32-.68-.3.03-.5-.02-.93.2-.08.04-.17.09-.32.27-.16.19-.1.19-.08.21Z"/>
          <path class="cls-64" d="M169,211.03c.03.42.35.35.9.38.4-.02.71.04,1-.13.26-.15.31-.48.12-.67-.33-.33-2.08-.44-2.02.41Z"/>
          <path class="cls-4" d="M247.34,148.22c-.06-1.14.97-.54.91-1.46-.2-1.04-1.56.46-1.44,1.26.09.64.56.62.54.2Z"/>
          <path class="cls-12" d="M248.09,148.4c.26.21.4.4.28.78-.11.35.13.5.4.55.09,0,.19,0,.28,0-.12.52-.81.32-.73.77.03.14.11.29.21.28.5,0,.99.63,1.42.35.28.32-.12.62.25.87.09.02.18.03.28.05.45.9.68-.24,1.82,1.14.11.39.27.78.3,1.18,0,0,0,0-.01.01-1.42-.18-1.81-.35-1.76.23.03.37.22.51.49.49.07.08.13.16.2.23.01.45-.34.57-.45.91-.13,0-.26,0-.38,0-.43.04-.23.67.16.67.31,0,.64-.18.85.29.18.4-.07.48-1.17,1.58-.07.07-.16.14-.1.3.06.15.19.21.27.16.49-.32,1.04-.29,1.62-.2.11.02.26-.06.32-.16.23-.38.59-.31.96-.26.36.06.72.05,1.08.14.86.19,1.65-.04,2.52.21.5.14.88-.22,1.26-.47.05-.03.1-.17.07-.22-.3-.57-.04-.85.11-1.23.3-.76-.32-1.28-1.11-1.46-.89-.2-1.04-2.06-2.45-2.67-.93-.4-.37-1.3-1.92-2.23-.9-.53-.09-.78.25-1.79.27-.81-.44-.61-1.52-.83-.26-.05-.63.09-.76-.33-.17-.55.32-.33.58-.6.33-.1.27-.52.31-.85.05-.39-.37-.65-.47-.34-.43,1.23-1.88-.13-2.07.75h0c-.08.18-.17.36-.25.54h0c-.18-.02-.26.09-.27.3,0,0,0,0,0,0-.26.04-.5.14-.78.1-.42-.06-.41.48-.09.74Z"/>
          <path class="cls-35" d="M144.01,141.84c-1.53,1.27-.21-.56-1.55.7-.37.35-.72.66-1.06.94-.1.2.3-.15.16.08-.78.8-1.17,1.08-1.41,1.07-.49.21-1.3.83-1.86,1.18.47-.51.57-.49.95-.89-.38.34-.43.23-1.12.99-.1.12-.21.2-.3.27-.14.11-.27.22-.41.33-.09.07-.18.14-.27.2-.35.36-.53.48-.77.69-.14.19-.4.42-.64.67-.19.22-.28.33-.46.55.15-.11.37-.29.63-.52.03-.01.05-.03.08-.04.02.09.45-.33.97-.73.04.02.27-.2.31-.18.07-.08.13-.17.2-.25-.07.04-.27.17-.27.2,0,0,.2-.16.27-.2.08-.07.16-.13.24-.2-.04.07-.04.11-.22.3-.12.12-.19.17-.22.17-.31.43.02.2.27.02.67-.45,1.48-1.06,2.38-1.82,2.49-2.09,3.1-1.96,4.67-3.55.96-.97.19-.63-.58,0Z"/>
          <path class="cls-73" d="M151.97,134.29c.3-.15.61-.31.92-.48.15-.08.44-.48.25-.39-.26.12-.59.29-.92.52-.07.05-.14.1-.23.22-.07.1-.08.16-.02.13Z"/>
          <path class="cls-68" d="M161.68,147.17c-.07.23.14.49.35.43.34-.1,1.19-1.3.4-1.1-.31.09-.67.42-.75.67Z"/>
          <path class="cls-9" d="M241.55,192.09c-.4.52-.79,1.04-.89,1.88,1,0,.84-1.16,1.28-1.65.02-.02-.04-.21-.09-.26-.1-.1-.23-.07-.31.03Z"/>
          <path class="cls-36" d="M145.07,141.69c.24-.08.56-.3,1.01-.65-.15-.19-.39-.02-1.01.65Z"/>
          <path class="cls-53" d="M163.7,205.66c0-.44-.29-.43-.5-.49-.16-.05-.38.05-.37.29.02.31.21.55.45.62.23.06.33-.17.41-.41Z"/>
          <path class="cls-78" d="M139.77,144.22c.06-.05.13-.13.16-.17.07-.11-.04-.02-.17.1-.11.05-.33.23-.71.59.08,0,.38-.22.72-.52Z"/>
          <path class="cls-59" d="M178.19,144.26c.5-.12.44-.95,0-.87-.59.1-.59,1.01,0,.87Z"/>
          <path class="cls-49" d="M324.7,219.65c-.22,0-.44-.03-.45.24,0,.16.08.25.2.28.06.02.13.04.2.04.23-.03.59.1.59-.32,0-.36-.36-.16-.54-.25Z"/>
          <path class="cls-61" d="M160.48,204.67c.23-.04.4-.22.43-.53-.02-.61-.72-.65-.73.08,0,.25.04.5.3.45Z"/>
          <path class="cls-16" d="M224.23,110.42c.68.08,1.36.17,2.04.27-.19-.41-.42-.34-2.04-.27Z"/>
          <path class="cls-50" d="M231.95,117.78c.03.17.17.2.28.19.17-.02.36-.06.33-.35-.01-.15-.14-.23-.27-.25-.13.11-.4.05-.34.41Z"/>
          <path class="cls-41" d="M174,146.39c-.03.15.07.23.2.19.19-.05.4-.14.48-.43.07-.24-.09-.23-.24-.22-.18.08-.39.15-.45.46Z"/>
          <path class="cls-27" d="M234.91,137.32c.38.07.5-.11.82-.29.01-.04.05-.09.05-.09,0,0-.04.05-.05.09.22.04.42.09.47-.17.02,0,.03,0,.05,0,.11.04.19,0,.25-.09-.02-.02-.02-.02-.04-.04.11.09.23.09.34.07.1.12.22.22.34.16.45-.2.84-.54,1.27-.78.26-.14.32-.55-.1-.87l-.02-.02c-.5-.39-.99-.78-1.49-1.16-.06-.05-.15-.05-.22-.05-.23-.02-.43-.13-.64-.28-.83-.62-1.01.53-2.28.18-.38-.11-.73-.06-1.08,0-.09-.02-.19-.04-.28-.06-.38-.16-.68.26-1.07.03-.31-.19-.52-.11-.74.23-.28.43-.6.35-.93-.14-.17-.25-.36-.33-.6-.33-.84-.38-.36-.81-2.42.12-.13.06-.23.21-.32.35-.3.42.2.51.68.47.61-.05,1.18-.28,1.22.22.04.49-.65.05-1.52.6.72.33,1.32-.05,1.86.54.27.3.3.52-.05.67-.07.03-.13.06-.12.19.11.19.27.14.41.15,2.47.06,2.12.94,3.27.68.04,0,.09.03.13.06.85.22,1.65.26,2.17-.63h0c.54.13.41.08.63.2ZM235.86,136.09h0q.61.13,0,0ZM232.06,135.81s.02-.07.04-.1h0s-.04.1-.04.1ZM233.09,136.67c-.13-.03-.38-.2-.38-.2,0,0,.24.16.38.2.02-.32.34-.58.34-.58,0,0-.32.27-.34.58ZM233.52,136.75h0c0-.07,0-.19,0-.19,0,0,0,.13,0,.19Z"/>
          <path class="cls-67" d="M151,138.54c.13-.17-.1-.06-.21.11-.13.2.08.07.21-.11Z"/>
          <path class="cls-76" d="M147.27,138.04c.13,0-.3.55-.07.42.52-.32,1.02-.61,1.67-1.1.15-.11.31-.23.4-.26.03,0,.02.02-.08.15-.11.14-.28.17-.49.49.31-.17.65-.38,1.05-.7.09-.18-.22.11-.07-.14.24-.24.37-.31.45-.28.22.09.82-.36,1.35-.71.11-.07.36-.33.29-.34-.18-.02-.05-.38-.33-.28-.24.09-.61.38-.77.37-.29-.02-.91.62-1.34.77-.2.12-.39.21-.61.36-.48.33-.99.71-1.59,1.22-.31.35-.1.16.15.01ZM149.66,136.43h0s0-.04,0-.04c0,0,0,.03,0,.04Z"/>
          <path class="cls-46" d="M266.94,137.38s-.03-.05-.04-.08c-.02,0-.03,0-.05.01.05.1.03.08.09.07Z"/>
          <path class="cls-38" d="M283.64,140.52c.03.08.07.17.1.25.08-.03.03-.12-.1-.25Z"/>
          <path class="cls-17" d="M312.48,179.64c.03.11.06.23.09.34.08.02.16.04.24.06-.06-.19-.17-.32-.34-.4Z"/>
          <path class="cls-30" d="M291.36,174.89c0,.05,0,.11,0,.17.05-.03.05-.09,0-.17Z"/>
          <path class="cls-43" d="M155.35,170.96c-.3.16-.25.46-.3.72.21-.16.42-.32.63-.47-.06-.17-.14-.35-.34-.24Z"/>
          <path class="cls-1" d="M270.01,174.69c-.08-.49-.06-.93.01-1.38.08-.44-.2-.98-.47-1.07-.32-.11-1.11.31-.57,1.34.18.35.4.69.5,1.08-.15.23-.37.32-.62.37-.16.03-.31.16-.2.37.73,1.38-.08,2.72.92,2.68,1.34-.05.9-1.42.97-1.8.12-.62-.12-1.13-.54-1.59Z"/>
          <path class="cls-11" d="M288.45,185.06s0,0-.02,0c-.18-.01-.37,0-.37.26,0,.59.77.27,1.14.65.68.71,1.26.27,1.88.4.1.02.17-.07.15-.21-.06-.37-2.05-.86-2.78-1.08Z"/>
          <path class="cls-48" d="M298.47,187.16c-.2.04-.13.37.1.56.22.18.43.22.64.19.6-.09,1.14-.25,1.13-1.14-.3.12-.62.22-.99.13-.37-.09-.57.2-.88.27Z"/>
          <polygon class="cls-3" points="299.58 186.03 299.58 186.04 299.59 186.03 299.58 186.03"/>
          <path class="cls-75" d="M261.76,176.27c-.06.38,1.02.83,1.01.13-.07-.55-.92-.63-1.01-.13Z"/>
          <path class="cls-52" d="M300.33,186.76h0s.05.02.04.04c0,0,0,0,0-.02,0-.01.01-.04,0-.05-.04-.04-.06-.03-.07.03Z"/>
          <path class="cls-79" d="M314.63,182.14c.08.11.16.22.24.33-.03-.14-.11-.26-.24-.33Z"/>
        </g>
      </g>
    </g>
  </g>
</svg>