<?xml version="1.0" encoding="UTF-8"?>
<svg id="Layer_2" data-name="Layer 2" xmlns="http://www.w3.org/2000/svg" xmlns:xlink="http://www.w3.org/1999/xlink" viewBox="0 0 140.76 167.37">
  <defs>
    <style>
      .cls-1 {
        fill: url(#_Безымянный_градиент_5);
      }

      .cls-2 {
        fill: none;
      }

      .cls-3 {
        fill: #ffecca;
        opacity: .45;
      }

      .cls-4 {
        fill: #fff2cf;
        opacity: .94;
      }

      .cls-5 {
        fill: #07324c;
      }

      .cls-6 {
        clip-path: url(#clippath);
      }

      .cls-7 {
        fill: url(#_Безымянный_градиент_86);
      }
    </style>
    <linearGradient id="_Безымянный_градиент_86" data-name="Безымянный градиент 86" x1="72.14" y1="104.13" x2="74.45" y2="30.93" gradientTransform="translate(159.38 12.72) rotate(81.46)" gradientUnits="userSpaceOnUse">
      <stop offset="0" stop-color="#c2ecd3"/>
      <stop offset="1" stop-color="#1d74b5"/>
    </linearGradient>
    <clipPath id="clippath">
      <circle class="cls-2" cx="72.3" cy="98.91" r="68.46" transform="translate(-36.25 155.72) rotate(-81.46)"/>
    </clipPath>
    <linearGradient id="_Безымянный_градиент_5" data-name="Безымянный градиент 5" x1="71.14" y1="121.07" x2="71.14" y2="97.4" gradientUnits="userSpaceOnUse">
      <stop offset="0" stop-color="#77b5c5"/>
      <stop offset="1" stop-color="#1d63bf"/>
    </linearGradient>
  </defs>
  <g id="OBJECTS">
    <g>
      <circle class="cls-7" cx="72.3" cy="98.91" r="68.46" transform="translate(-36.25 155.72) rotate(-81.46)"/>
      <g class="cls-6">
        <g>
          <circle class="cls-3" cx="108.9" cy="87.83" r="15.97" transform="translate(-30.21 102.73) rotate(-45)"/>
          <circle class="cls-4" cx="108.9" cy="87.83" r="13.3" transform="translate(-30.21 102.73) rotate(-45)"/>
        </g>
        <path class="cls-1" d="M140.76,78.36c-4.79,4.79-18.39,17.61-25.83,20.55-6.56,2.59-15.46-7.44-19.57-7.44s-10.76,10.57-18.78,12.13c-8.02,1.57-11.93,0-17.41,0s-20.54-4.5-27.59-2.35-13.11,1.37-19.57,0c-6.46-1.37-12.52-1.37-12.52-1.37v20.35l142.63.98s2.15-32.67-1.37-42.85Z"/>
        <path class="cls-5" d="M6.08,129.95c10.17-4.43,49.73-6.59,76.96,2.61,30.68,10.36,48.59,7.57,67.11,14.09,18.52,6.52-94.24,43.57-121.89,28.7C.61,160.47,6.08,129.95,6.08,129.95Z"/>
      </g>
      <g>
        <g>
          <path class="cls-5" d="M49.58,20.33c1.08-1.11,2.35-2.01,3.74-2.76l-1.91-2.34s2.66.58,4.66,1.12c1.21-.44,2.47-.79,3.74-1.06l-1.22-3.57s2.1,1.71,3.54,3.16c1.47-.21,2.94-.35,4.34-.41l-.47-3.32,3.22,3.27c4.55.02,7.94.57,7.94.57-12.48-13.4-28.67-5.62-34.99.21C37.72,3.53,25.53-3.2,10.14,1.53c3.89,0,7.19.71,10.04,2.05l7.05-.69-5.16,1.7c1.59.98,3.02,2.18,4.33,3.6h6.58l-5.39,1.39c1.83,2.31,3.41,5.1,4.82,8.33C23.57,9.75,3.08,15.4,0,26.43c1.62-.82,3.21-1.52,4.76-2.12l4.07-5.17s-.52,2.59-.79,4.06c1.76-.52,3.48-.91,5.15-1.15l8.33-4.68-4.42,4.36c2.43-.05,4.73.21,6.9.74l4.01-3.33-.38,4.5c1.33.55,2.61,1.19,3.82,1.95-14.59-.63-19.49,13.5-19.49,21.85,1.14-2.01,2.57-3.8,4.16-5.39l1.17-7.16.91,5.25c1.43-1.2,2.94-2.26,4.46-3.2l3.78-7.3s-.46,3.36-.74,5.58c1.91-.99,3.76-1.79,5.41-2.42l2.43-5.01v4.14c2.33-.77,3.85-1.11,3.85-1.11,1.79.6,3.23,1.61,4.38,2.9l3.23-3.29-1.75,5.32c.76,1.3,1.34,2.76,1.77,4.28l4.09-1.44-3.52,3.92c.21,1.14.35,2.28.44,3.41l4.03-.63s-2.41,3.32-3.9,5.36c-.09,3.72-.55,6.45-.55,6.45,19.72-14.29.68-30.47.68-30.47,2.29.73,4.45,1.68,6.49,2.74l.41-5.06,1.24,5.94c1.47.85,2.85,1.75,4.16,2.69l1.15-4.69,1.27,6.51c1.91,1.53,3.58,3.06,5.01,4.49h0s.74-5.59.74-5.59c0,0,.35,3.81.65,7.01,2.7,2.86,4.2,4.97,4.2,4.97,2.05-25.11-22-25.32-22-25.32Z"/>
          <path class="cls-5" d="M36.02,28.55c-9.4,21.51-17.33,88.76-12.08,116.28h7.52c-5.47-39.09.23-89.89,8.21-116.28h-3.65Z"/>
        </g>
        <g>
          <path class="cls-5" d="M65.13,60.17c.14-1.25.05-2.5-.2-3.72l2.46-.14s-1.74-1.27-3.11-2.16c-.35-.96-.78-1.9-1.26-2.8l2.87-1.22s-2.16-.31-3.81-.38c-.63-.99-1.3-1.93-1.98-2.8l2.33-1.53-3.71-.13c-2.36-2.69-4.46-4.41-4.46-4.41,14.86.11,18.33,13.97,17.94,20.91,9.62-3.72,20.13-.15,25.11,11.57-2.01-2.31-4.16-3.88-6.48-4.85l-3.21-4.57,1.59,3.99c-1.43-.41-2.93-.61-4.5-.61l-3.4-3.91,1.91,3.97c-2.4.17-4.96.75-7.72,1.68,9.7.81,16.74,16.06,11.41,23.91-.32-1.41-.7-2.74-1.13-3.99l1.14-5.24s-1.36,1.72-2.14,2.68c-.58-1.33-1.23-2.57-1.94-3.69l-1.36-7.51-.46,5.01c-1.22-1.47-2.58-2.69-4.03-3.7l.02-4.2-2.63,2.68c-1.03-.49-2.09-.9-3.19-1.2,7.93,8.33,1.59,18.95-3.65,23.51.67-1.78,1.06-3.6,1.23-5.41l3.89-4.6-3.77,2.33c.01-1.5-.1-2.98-.3-4.39l2.63-6.23s-1.87,2.11-3.12,3.48c-.37-1.68-.82-3.21-1.27-4.53l1.89-4.18s-1.53,1.33-2.6,2.26c-.72-1.81-1.29-2.89-1.29-2.89-1.3-.74-2.68-1.04-4.08-1.02l.4-3.71-2.43,3.94c-1.21.26-2.42.71-3.6,1.28l-1.21-3.21-.64,4.23c-.82.5-1.61,1.04-2.36,1.6l-1.68-2.73s-.84,3.25-1.35,5.24c-2.29,2.08-3.77,3.84-3.77,3.84-1.22-19.51,18.77-17.03,18.77-17.03-1.64-.97-3.35-1.73-5.07-2.36l2.96-3-4.37,2.5c-1.29-.41-2.57-.74-3.84-1l2.35-3.24-4.74,2.8c-1.94-.3-3.77-.45-5.4-.53h0s3.12-3.49,3.12-3.49c0,0-2.58,1.87-4.73,3.44-3.19-.04-5.29.22-5.29.22,14.7-14.92,27.26-.74,27.26-.74Z"/>
          <path class="cls-5" d="M63.79,71.2c-11.59,12.07-32.17,54.97-34.42,74.57l5.48,1.81c4.63-27.36,19.98-59.84,31.6-75.5l-2.65-.88Z"/>
        </g>
      </g>
    </g>
  </g>
</svg>