<svg clip-rule="evenodd" fill-rule="evenodd" height="300" image-rendering="optimizeQuality" shape-rendering="geometricPrecision" text-rendering="geometricPrecision" viewBox="0 0 2.83333 2.83333" width="300" xmlns="http://www.w3.org/2000/svg" version="1.1" xmlns:xlink="http://www.w3.org/1999/xlink" xmlns:svgjs="http://svgjs.dev/svgjs"><g width="100%" height="100%" transform="matrix(-1,0,0,1,2.8340001106262207,0)"><g id="Layer_x0020_1"><circle cx="1.417" cy="1.417" fill="#eb5d1e" r="1.417" fill-opacity="1" data-original-color="#Eeb5d1eff" stroke="none" stroke-opacity="1"/><g id="_190681936"><g><g><path id="_190682368" d="m1.6681 1.76693c-.160724 0-.311823-.0625827-.425461-.17622-.113654-.11365-.176236-.264736-.176236-.425461 0-.160728.0625945-.311815.176236-.425465.113638-.11365.264724-.176236.425461-.176236.160713 0 .311815.0625945.425465.176236.11365.113642.17622.264736.17622.425465 0 .160724-.0625866.311811-.17622.425461-.113634.113654-.264736.17622-.425465.17622zm0-1.16339c-.150043 0-.291091.0584331-.397173.164516-.106087.106083-.164516.247146-.164516.397193 0 .150043.0584291.291091.164516.397173.106098.106102.247146.164528.397173.164528.150031 0 .291083-.0584331.397177-.164528.106098-.106083.164528-.247134.164528-.397173 0-.150043-.0584331-.291094-.164528-.397177-.106094-.106083-.247146-.164531-.397177-.164531z" fill="#ffffff" fill-opacity="1" data-original-color="#ffffffff" stroke="none" stroke-opacity="1"/></g><g><path id="_190682488" d="m1.05535 1.91613c-.00530709 0-.0103858-.00211024-.0141339-.0058622l-.118122-.118138c-.0078189-.0078189-.0078189-.0204843 0-.0282874l.199894-.199894c.0078189-.0078189.0204646-.0078189.0282717 0l.118138.118122c.00374409.00376378.0058622.00884646.0058622.0141496 0 .00530709-.00211024.0103858-.0058622.0141496l-.199894.199894c-.00376772.00374016-.00884646.00586614-.0141535.00586614zm-.0898504-.13815.0898504.0898661.171626-.171626-.0898504-.0898504-.171626.17161z" fill="#ffffff" fill-opacity="1" data-original-color="#ffffffff" stroke="none" stroke-opacity="1"/></g><g><path id="_190682104" d="m1.32354 1.7845c-.00530709 0-.0103858-.00211024-.0141339-.0058622l-.254693-.254669c-.00374409-.00376378-.0058622-.00884252-.0058622-.0141496 0-.00530709.00211024-.0103858.0058622-.0141496l.0807165-.0807126c.00452756-.0045315.0109252-.00662205.0172717-.00561024.0063189.001.0117874.0049685.014689.0106772.0267441.0525197.0615787.100421.103543.142398.0419646.0419606.089878.0767992.142394.103543.00570472.00290157.00967717.00837008.0106811.014689.001.0063189-.00108268.012748-.00561024.0172717l-.0807165.0807126c-.00375591.00375197-.00885039.0058622-.0141417.0058622zm-.226417-.274681.226402.226417.0475748-.0475866c-.0468937-.0266339-.0900039-.0594961-.128457-.0979488-.0384488-.0384606-.071315-.0815748-.0979488-.128465l-.0475709.0475827z" fill="#ffffff" fill-opacity="1" data-original-color="#ffffffff" stroke="none" stroke-opacity="1"/></g><g><path id="_190682752" d="m.795374 2.26978c-.0168819 0-.0327283-.00655118-.0446142-.0184252l-.16876-.168748c-.0245945-.0246024-.0246024-.0646378 0-.0892441l.254823-.254823c.0118858-.0118701.0277283-.0184252.0446142-.0184252.0168819 0 .0327244.00655512.0446102.0184252l.168764.16876c.0118858.0118701.0184409.0277323.0184409.0446299 0 .0168819-.00655512.0327283-.0184409.0446142l-.254823.254823c-.0118898.011878-.0277283.0184134-.0446142.0184134zm.086063-.509677c-.00620866 0-.0120157.00237402-.0163425.00670866l-.254823.254839c-.00900394.009-.00900394.0236614.00001575.032685l.168748.168732c.00866535.0086811.0240118.0086811.032685 0l.254823-.254823c.00433465-.00433465.00672441-.010122.00672441-.0163307 0-.00620866-.00238976-.0120118-.00672441-.0163425l-.16876-.16876c-.00435039-.00433071-.0101535-.00670866-.0163465-.00670866z" fill="#ffffff" fill-opacity="1" data-original-color="#ffffffff" stroke="none" stroke-opacity="1"/></g><g><path id="_190682512" d="m1.03845 2.04461c-.00512205 0-.0102362-.00195669-.0141339-.0058622l-.229709-.229705c-.0078189-.0078189-.0078189-.0204843 0-.0282874.00780709-.0078189.0204685-.0078189.0282717 0l.229709.229709c.0078189.0078189.0078189.0204803 0 .0282835-.00390551.00390157-.00902756.0058622-.0141378.0058622z" fill="#ffffff" fill-opacity="1" data-original-color="#ffffffff" stroke="none" stroke-opacity="1"/></g><g><path id="_190682824" d="m.868063 2.21499c-.00512205 0-.0102323-.00195669-.0141339-.0058622l-.229705-.229705c-.0078189-.00782283-.0078189-.0204843 0-.0282874.00780315-.0078189.0204685-.0078189.0282717 0l.229705.229705c.0078189.0078189.0078189.0204843 0 .0282874-.00388583.00391339-.00901575.0058622-.0141378.0058622z" fill="#ffffff" fill-opacity="1" data-original-color="#ffffffff" stroke="none" stroke-opacity="1"/></g><g><path id="_190682536" d="m1.6681 1.61193c-.119319 0-.231484-.0464606-.31585-.130831-.0843701-.0843661-.130846-.196531-.130846-.31585s.0464764-.231488.130846-.315854c.0843661-.0843661.196531-.130827.31585-.130827.119303 0 .231488.0464606.315854.130827.0843661.0843661.130827.196535.130827.315854s-.0464606.231484-.130827.31585c-.0843661.0843701-.196551.130831-.315854.130831zm0-.85339c-.108622 0-.210764.042311-.287579.119126s-.119126.178957-.119126.287583c0 .108638.0422953.210764.119126.287563.076815.076815.178957.119126.287579.119126.108626 0 .210752-.042311.287567-.119126.076815-.0767992.119126-.178925.119126-.287563 0-.108626-.042311-.210768-.119126-.287583-.076811-.076815-.178925-.119126-.287567-.119126z" fill="#ffffff" fill-opacity="1" data-original-color="#ffffffff" stroke="none" stroke-opacity="1"/></g><g><path id="_190681744" d="m1.4842 1.36913c-.00511417 0-.0102362-.00195669-.0141496-.0058622-.109181-.109193-.109181-.286854 0-.396051.0529331-.0529173.123244-.082063.198051-.082063.0747835 0 .145118.0291457.198031.082063.00782283.00780315.00782283.0204685 0 .0282717-.0078189.0078189-.0204803.0078189-.0282835 0-.0453661-.0453661-.10563-.0703465-.169748-.0703465-.064122 0-.124402.0249803-.169764.0703465-.0936063.0936142-.0936063.245909 0 .339512.0078189.00780315.0078189.0204646 0 .0282677-.0038937.00391732-.0090315.0058622-.0141378.0058622z" fill="#ffffff" fill-opacity="1" data-original-color="#ffffffff" stroke="none" stroke-opacity="1"/></g></g></g></g></g></svg>