<svg id="Layer_1" enable-background="new 0 0 512 512" viewBox="0 0 512 512" xmlns="http://www.w3.org/2000/svg"><circle cx="256" cy="256" fill="#eb5d1e" r="256"/><g><g><path d="m228.4 248.2c-.5 0-1-.1-1.4-.3-6.7-3.1-13.1-7.4-19.2-12.6-2 .1-4.2.1-6.3 0-1.1 0-2.2-.1-3.2-.1-23.6 0-45.8-6.4-62.6-18.1-17.1-11.9-26.6-27.9-26.6-45s9.4-33 26.6-45c16.8-11.5 39-18 62.6-18s45.8 6.4 62.5 18.1c17.1 11.9 26.6 27.9 26.6 44.9 0 9.6-3 18.9-8.9 27.6-1 1.5-3.1 1.9-4.6.9s-1.9-3.1-.9-4.6c5.1-7.5 7.8-15.6 7.8-23.8 0-31.1-37-56.4-82.5-56.4s-82.5 25.3-82.5 56.4 37 56.4 82.5 56.4c1.1 0 2.3 0 3.3.1 2.5.1 5 .1 7.1-.1.9-.1 1.8.2 2.5.8 5.9 5.2 12.2 9.4 18.6 12.4 1.6.8 2.4 2.8 1.6 4.4-.5 1.3-1.8 2-3 2z" fill="#fffffe"/></g><g><path d="m254 402.8c-9.6 0-27.2-2.7-46.2-19-2 .1-4.2.1-6.3 0-1.1 0-2.2-.1-3.2-.1-23.6 0-45.8-6.4-62.6-18.1-17.1-11.9-26.6-27.9-26.6-45s9.4-33 26.6-45c16.8-11.7 39-18.1 62.5-18.1s45.8 6.4 62.5 18.1c17.1 11.9 26.6 27.9 26.6 45 0 21.4-14.8 40.9-39.7 52.6.7 4.4 3.4 14.7 14.9 22.9 1.1.8 1.6 2.1 1.4 3.4-.3 1.3-1.2 2.3-2.5 2.6-.4.1-3.1.7-7.4.7zm-45.1-25.8c.8 0 1.6.3 2.2.8 16.8 14.8 32.3 17.9 41.1 18.2-11.1-11.5-11.5-24.2-11.5-24.8 0-1.4.8-2.5 2-3.1 23.8-10.4 38-28.1 38-47.4 0-31.1-37-56.4-82.5-56.4s-82.5 25.3-82.5 56.4 37 56.4 82.5 56.4c1.1 0 2.3 0 3.3.1 2.5.1 5 .1 7-.1.3-.1.3-.1.4-.1z" fill="#fffffe"/></g><g><path d="m284 327.3c-1.2 0-2.5-.7-3-1.9-.8-1.6-.1-3.7 1.6-4.4 6.3-3 12.4-7.1 18.3-12.2.6-.5 1.5-.9 2.3-.8 2.4.1 5.2.1 7.9.1h2.7c45.5 0 82.5-25.3 82.5-56.4s-37-56.3-82.5-56.3-82.5 25.3-82.5 56.4c0 4.2.7 8.5 2.1 12.6.6 1.8-.3 3.6-2.1 4.2s-3.6-.3-4.2-2.1c-1.6-4.8-2.5-9.8-2.5-14.7 0-17.1 9.4-33 26.6-45 16.8-11.7 39-18.1 62.5-18.1 23.6 0 45.8 6.4 62.6 18 17.1 11.9 26.6 27.9 26.6 44.9s-9.4 33-26.6 45c-16.8 11.7-39 18.1-62.5 18.1-.9 0-1.8 0-2.7 0-2.3 0-4.6 0-6.8 0-6 5.1-12.3 9.3-18.8 12.4-.6.1-1 .2-1.5.2z" fill="#fffffe"/></g><g><g><path d="m198.2 358.5c-.9 0-1.7-.3-2.4-1l-32.5-32.6c-4.1-4.1-6.3-9.6-6.3-15.3s2.3-11.1 6.3-15.2c4-4 9.4-6.3 15.2-6.3 5.7 0 11.2 2.3 15.2 6.3l4.4 4.4 4.4-4.4c4-4.1 9.4-6.3 15.2-6.3 5.7 0 11.2 2.3 15.2 6.3 4.1 4.1 6.3 9.6 6.3 15.3s-2.3 11.1-6.3 15.2l-32.6 32.6c-.3.6-1.2 1-2.1 1zm-19.6-63.7c-4 0-7.8 1.6-10.5 4.4-2.9 2.8-4.4 6.5-4.4 10.4 0 4 1.6 7.7 4.4 10.6l30.2 30.3 30.3-30.3c2.8-2.8 4.4-6.5 4.4-10.4 0-4-1.6-7.7-4.4-10.6-2.8-2.8-6.6-4.4-10.5-4.4-4 0-7.8 1.6-10.5 4.4l-6.8 6.8c-.6.6-1.5 1-2.4 1s-1.7-.3-2.4-1l-6.8-6.8c-2.9-2.9-6.6-4.4-10.6-4.4z" fill="#fffffe"/></g></g><g><path d="m180.6 208.8c-.5 0-1.2-.1-1.6-.4-1-.6-1.7-1.7-1.7-2.9v-66.5c0-1.2.7-2.3 1.7-2.9s2.3-.5 3.3.1l55.1 33.3c1 .6 1.6 1.7 1.6 2.9s-.6 2.3-1.6 2.9l-55.1 33.2c-.6.2-1.1.3-1.7.3zm3.3-63.9v54.7l45.3-27.3z" fill="#fffffe"/></g><g><g><g><path d="m290.6 285.4c-.3 0-.5 0-.8-.1-1.8-.5-2.9-2.3-2.5-4l15.1-60.6c.5-1.8 2.3-2.9 4-2.5 1.8.5 2.9 2.3 2.5 4l-15.1 60.6c-.3 1.6-1.7 2.6-3.2 2.6z" fill="#fffffe"/></g><g><path d="m321.8 285.4c-.3 0-.5 0-.8-.1-1.8-.5-2.9-2.3-2.5-4l15.1-60.6c.5-1.8 2.3-2.9 4-2.5 1.8.5 2.9 2.3 2.5 4l-15.1 60.7c-.3 1.5-1.7 2.5-3.2 2.5z" fill="#fffffe"/></g></g><g><g><path d="m347.1 245h-66.6c-1.8 0-3.3-1.5-3.3-3.3s1.5-3.3 3.3-3.3h66.6c1.8 0 3.3 1.5 3.3 3.3s-1.5 3.3-3.3 3.3z" fill="#fffffe"/></g><g><path d="m347.1 265.3h-66.6c-1.8 0-3.3-1.5-3.3-3.3s1.5-3.3 3.3-3.3h66.6c1.8 0 3.3 1.5 3.3 3.3s-1.5 3.3-3.3 3.3z" fill="#fffffe"/></g></g></g></g></svg>