<svg id="Layer_1" viewBox="0 0 512 512" xmlns="http://www.w3.org/2000/svg" data-name="Layer 1"><path d="m256 0c140.8 0 256 115.2 256 256 0 140.8-115.2 256-256 256-140.8 0-256-115.2-256-256 0-140.8 115.2-256 256-256z" fill="#eb5d1e" fill-rule="evenodd"/><path d="m156.468 121.255a4.709 4.709 0 1 1 -8.154 4.713l-12.3-21.276a4.709 4.709 0 0 1 8.154-4.714zm-43.458 9.884 21.277 12.3a4.709 4.709 0 0 0 4.713-8.156l-21.277-12.3a4.709 4.709 0 1 0 -4.713 8.153zm94.063 10.578a4.707 4.707 0 0 0 6.434 1.72l21.277-12.3a4.708 4.708 0 1 0 -4.712-8.153l-21.278 12.3a4.709 4.709 0 0 0 -1.721 6.433zm-14.027-14.029a4.7 4.7 0 0 0 6.434-1.72l12.3-21.276a4.709 4.709 0 0 0 -8.154-4.714l-12.3 21.277a4.708 4.708 0 0 0 1.72 6.433zm-19.146-5.125a4.709 4.709 0 0 0 4.709-4.709v-24.575a4.709 4.709 0 1 0 -9.418 0v24.575a4.709 4.709 0 0 0 4.709 4.709zm38.3 38.3a4.709 4.709 0 0 0 4.709 4.709h24.576a4.71 4.71 0 0 0 0-9.419h-24.577a4.71 4.71 0 0 0 -4.708 4.713zm-76.6 0a4.71 4.71 0 0 0 -4.71-4.71h-24.58a4.71 4.71 0 0 0 0 9.419h24.575a4.709 4.709 0 0 0 4.715-4.706zm19.153 33.176a4.71 4.71 0 0 0 -6.434 1.721l-12.3 21.277a4.709 4.709 0 1 0 8.154 4.713l12.3-21.277a4.709 4.709 0 0 0 -1.725-6.431zm-14.026-14.024a4.709 4.709 0 0 0 -6.432-1.726l-21.283 12.281a4.71 4.71 0 1 0 4.708 8.158l21.28-12.278a4.709 4.709 0 0 0 1.722-6.432zm245.487 211.57c-25.014 29.063-67.273 39.515-105.147 26-7.486-2.67-22.472-11.528-38.338-20.911-22.451-13.277-45.676-27-58.8-30.267-6.5-1.607-10.708-5.212-12.168-10.418-1.708-6.06.552-13.385 5.758-18.651a23.323 23.323 0 0 1 16.909-6.9 32 32 0 0 1 8.232 1.143l47.462 12.719a4.7 4.7 0 0 0 5.294-6.9l-94.083-162.953a17.694 17.694 0 0 1 6.477-24.147 17.727 17.727 0 0 1 24.126 6.477l76.353 132.253a4.71 4.71 0 1 0 8.159-4.708l-27.779-48.138a17.653 17.653 0 0 1 19.889-25.875 17.506 17.506 0 0 1 10.715 8.2l9.712 16.822c.087.148.175.3.262.457l17.192 29.756h.007a4.706 4.706 0 1 0 8.151-4.708l-17.397-30.136a17.676 17.676 0 0 1 30.826-17.3l11.3 19.566c.081.148.168.3.256.451l6.289 10.889a4.711 4.711 0 1 0 8.158-4.715l-6.5-11.252a17.735 17.735 0 0 1 6.679-23.783 18.09 18.09 0 0 1 13.909-1.7 16.478 16.478 0 0 1 10.149 8.051c39.878 74.357 42.77 140.211 7.943 180.681zm4.762-42.919c6.51-26.291 1.9-54.13-3.108-72.855a4.71 4.71 0 0 0 -9.1 2.434c4.729 17.656 9.094 43.813 3.061 68.161-5.738 23.178-19.714 39.1-41.54 47.3a4.711 4.711 0 0 0 1.654 9.121 4.823 4.823 0 0 0 1.662-.3c24.895-9.366 40.835-27.478 47.366-53.858z" fill="#fff"/></svg>